<?xml version="1.0" encoding="utf-8"?>
<!-- Generator: Adobe Illustrator 14.0.0, SVG Export Plug-In . SVG Version: 6.00 Build 43363)  -->
<!DOCTYPE svg PUBLIC "-//W3C//DTD SVG 1.1//EN" "http://www.w3.org/Graphics/SVG/1.1/DTD/svg11.dtd">
<svg version="1.1" id="Layer_1" xmlns="http://www.w3.org/2000/svg" xmlns:xlink="http://www.w3.org/1999/xlink" x="0px" y="0px"
	 width="30px" height="30px" viewBox="0 0 30 30" enable-background="new 0 0 30 30" xml:space="preserve">
<path fill="none" stroke="#000000" d="M21.829,29.406h-3.431c-0.355,0-0.646-0.303-0.646-0.676v-6.283
	c0-0.814-0.636-1.476-1.416-1.476h-2.404c-0.78,0-1.415,0.661-1.415,1.476v6.283c0,0.373-0.291,0.676-0.648,0.676H8.428
	c-1.494,0-2.709-1.268-2.709-2.829v-9.85c-0.816,0.004-2.064,0.068-2.067,0.068c-0.188,0.028-0.362-0.063-0.492-0.199
	c-1.101-1.15-1.107-3.404-0.012-4.549l9.986-10.433c1.063-1.115,2.922-1.115,3.988,0l9.986,10.433
	c0.524,0.548,0.829,1.377,0.835,2.272c0.005,0.9-0.294,1.732-0.818,2.277c-0.128,0.136-0.305,0.217-0.491,0.199
	c-0.005,0-1.292-0.056-2.098-0.068v9.85C24.536,28.139,23.322,29.406,21.829,29.406z M19.046,28.054h2.783
	c0.777,0,1.412-0.663,1.412-1.477V16.12c0-0.746,0.728-0.746,1.369-0.746c0.571,0,1.333,0.033,1.761,0.053
	c0.18-0.289,0.28-0.68,0.277-1.1c-0.003-0.534-0.172-1.029-0.455-1.325L16.207,2.569c-0.576-0.602-1.583-0.602-2.157,0L4.063,13.003
	c-0.538,0.563-0.586,1.735-0.153,2.425c0.424-0.02,1.179-0.053,1.744-0.053c0.605,0,1.359,0,1.359,0.746v10.457
	c0,0.813,0.635,1.477,1.415,1.477h2.794v-5.606c0-1.561,1.215-2.827,2.71-2.827h2.404c1.493,0,2.709,1.267,2.709,2.827V28.054z"/>
</svg>
