<?xml version="1.0" encoding="utf-8"?>
<!-- Generator: Adobe Illustrator 15.0.2, SVG Export Plug-In . SVG Version: 6.00 Build 0)  -->
<!DOCTYPE svg PUBLIC "-//W3C//DTD SVG 1.1//EN" "http://www.w3.org/Graphics/SVG/1.1/DTD/svg11.dtd">
<svg version="1.1" id="Capa_1" xmlns="http://www.w3.org/2000/svg" xmlns:xlink="http://www.w3.org/1999/xlink" x="0px" y="0px"
	 width="440px" height="440px" viewBox="0 0 440 440" enable-background="new 0 0 440 440" xml:space="preserve">
<g>
	<g>
		<path d="M428.354,186.277L255.041,12.167c-3.237-3.255-7.624-5.086-12.214-5.086s-8.977,1.831-12.219,5.086L13.488,230.272
			c-3.404,3.395-5.23,8.058-5.063,12.868l5.708,168.378c0.301,9.121,7.592,16.442,16.672,16.753l167.607,5.732
			c0.198,0.008,0.4,0.008,0.604,0.008c4.557,0,8.98-1.82,12.218-5.087l217.119-218.101c3.239-3.256,5.06-7.671,5.06-12.274
			C433.414,193.948,431.594,189.532,428.354,186.277z M230.361,360.614c-12.49-10.281-27.94-15.524-43.584-15.242l135.597-136.225
			l0,0l29.387,29.522L230.361,360.614z M175.811,331.838c-0.354-17.001-7.091-33.601-19.654-46.234
			c-14.39-14.452-33.974-21.242-53.396-19.494L240.92,127.316l69.238,69.559L175.811,331.838z M96.408,247.944
			c-1.131-13.315-6.189-26.196-14.918-36.894L202.887,89.108l25.813,25.933L96.408,247.944z M48.12,394.124l-1.89-55.824
			c28.71,4.991,51.206,28.396,54.952,57.639L48.12,394.124z M192.1,399.047l-73.462-2.512
			c-3.702-39.306-34.274-70.849-73.005-75.877l-2.409-71.169l25.959-26.076c11.644,15.341,13.56,36.226,4.416,53.921
			c-1.754,3.355-1.114,7.458,1.556,10.136c2.664,2.688,6.781,3.324,10.09,1.561c19.645-10.266,43.202-6.7,58.694,8.847
			c15.492,15.554,19.036,39.266,8.806,58.99c-1.754,3.354-1.109,7.467,1.555,10.144c2.665,2.688,6.781,3.324,10.091,1.563
			c17.579-9.208,38.382-7.291,53.664,4.404L192.1,399.047z M363.981,226.394L215.106,76.834l27.721-27.845L391.7,198.55
			L363.981,226.394z"/>
	</g>
</g>
</svg>
