<?xml version="1.0" encoding="utf-8"?>
<!-- Generator: Adobe Illustrator 15.0.0, SVG Export Plug-In . SVG Version: 6.00 Build 0)  -->
<!DOCTYPE svg PUBLIC "-//W3C//DTD SVG 1.1//EN" "http://www.w3.org/Graphics/SVG/1.1/DTD/svg11.dtd">
<svg version="1.1" id="Capa_1" xmlns="http://www.w3.org/2000/svg" xmlns:xlink="http://www.w3.org/1999/xlink" x="0px" y="0px"
	 width="30px" height="30px" viewBox="0 0 30 30" enable-background="new 0 0 30 30" xml:space="preserve">
<rect display="none" fill="#F9EF81" width="30" height="30"/>
<g>
	<g>
		<path fill="#040506" d="M27.972,14.017c-1.011,0-1.828,0.828-1.828,1.852v7.411c0,0.441-0.382,0.464-0.458,0.464H4.313
			c-0.123,0-0.424-0.305-0.457-0.464v-7.411c0-1.023-0.818-1.852-1.829-1.852c-1.01,0-1.828,0.828-1.828,1.852v7.411
			c0,1.967,1.759,4.168,4.114,4.168h21.373c2.023,0,4.115-1.56,4.115-4.168v-7.411C29.801,14.845,28.982,14.017,27.972,14.017z
			 M7.062,12.321l7.167,7.262c0.22,0.223,0.51,0.333,0.8,0.332c0.288,0.001,0.579-0.109,0.799-0.332l7.168-7.262
			c0.226-0.227,0.331-0.527,0.325-0.826c0-0.009,0.002-0.018,0.002-0.026V11.41c0-0.319-0.161-0.603-0.405-0.769
			c-0.145-0.1-0.321-0.157-0.509-0.157h-3.067V3.686c0-0.626-0.5-1.134-1.119-1.134h-6.362c-0.617,0-1.117,0.508-1.117,1.134v6.799
			H7.647c-0.188,0-0.364,0.058-0.511,0.157c-0.243,0.167-0.403,0.449-0.403,0.769v0.059c0,0.008,0.002,0.017,0.002,0.023
			C6.729,11.792,6.835,12.094,7.062,12.321z"/>
	</g>
</g>
</svg>
