<?xml version="1.0" encoding="utf-8"?>
<!-- Generator: Adobe Illustrator 15.0.2, SVG Export Plug-In . SVG Version: 6.00 Build 0)  -->
<!DOCTYPE svg PUBLIC "-//W3C//DTD SVG 1.1//EN" "http://www.w3.org/Graphics/SVG/1.1/DTD/svg11.dtd">
<svg version="1.1" id="Capa_1" xmlns="http://www.w3.org/2000/svg" xmlns:xlink="http://www.w3.org/1999/xlink" x="0px" y="0px"
	 width="440px" height="440px" viewBox="0 0 440 440" enable-background="new 0 0 440 440" xml:space="preserve">
<g>
	<g>
		<path d="M390.786,59.729H50.167c-24.397,0-44.248,20.781-44.248,46.321v233.475c0,25.563,19.851,46.342,44.248,46.342h340.62
			c24.351,0,44.202-20.779,44.202-46.342V106.05C434.988,80.51,415.137,59.729,390.786,59.729z M390.786,346.565H50.167
			c-1.888,0-3.601-0.827-4.829-2.149l116.107-108.452l52.765,49.303c1.797,1.665,4.032,2.492,6.262,2.492
			c2.235,0,4.47-0.827,6.23-2.492l52.772-49.31l116.102,108.478C394.358,345.746,392.662,346.565,390.786,346.565z M220.471,264.769
			L45.347,101.154c1.228-1.311,2.937-2.128,4.819-2.128h340.62c1.879,0,3.577,0.817,4.795,2.127L220.471,264.769z M43.426,125.689
			l103.929,97.109L43.426,319.904V125.689z M293.563,222.792l103.922-97.103v194.212L293.563,222.792z"/>
	</g>
</g>
</svg>
