<?xml version="1.0" encoding="utf-8"?>
<!-- Generator: Adobe Illustrator 15.0.0, SVG Export Plug-In . SVG Version: 6.00 Build 0)  -->
<!DOCTYPE svg PUBLIC "-//W3C//DTD SVG 1.1//EN" "http://www.w3.org/Graphics/SVG/1.1/DTD/svg11.dtd">
<svg version="1.1" id="Capa_1" xmlns="http://www.w3.org/2000/svg" xmlns:xlink="http://www.w3.org/1999/xlink" x="0px" y="0px"
	 width="30px" height="30px" viewBox="0 0 30 30" enable-background="new 0 0 30 30" xml:space="preserve">
<rect display="none" fill="#F9EF81" width="30" height="30"/>
<path d="M25.972,5.493H4.027c-2.021,0-3.658,1.621-3.658,3.622v11.771c0,2.002,1.637,3.621,3.658,3.621h21.944
	c2.021,0,3.658-1.619,3.658-3.621V9.115C29.63,7.114,27.993,5.493,25.972,5.493z M2.199,10.246l6.398,4.755l-6.398,4.754V10.246z
	 M27.803,20.887c0,1-0.821,1.813-1.831,1.813H4.027c-1.008,0-1.828-0.813-1.828-1.813l7.161-5.319l3.994,2.968
	c0.487,0.36,1.066,0.543,1.646,0.543c0.58,0,1.159-0.183,1.646-0.543l3.994-2.968L27.803,20.887L27.803,20.887z M27.803,19.755
	l-6.4-4.754l6.4-4.755V19.755z M16.097,17.809c-0.319,0.238-0.698,0.363-1.097,0.363s-0.777-0.125-1.097-0.363l-3.782-2.808
	L9.36,14.436l-7.161-5.32l0,0c0-0.999,0.82-1.812,1.828-1.812h21.944c1.01,0,1.831,0.813,1.831,1.812L16.097,17.809z"/>
</svg>
