<?xml version="1.0" encoding="utf-8"?>
<!-- Generator: Adobe Illustrator 15.0.2, SVG Export Plug-In . SVG Version: 6.00 Build 0)  -->
<!DOCTYPE svg PUBLIC "-//W3C//DTD SVG 1.1//EN" "http://www.w3.org/Graphics/SVG/1.1/DTD/svg11.dtd">
<svg version="1.1" id="Capa_1" xmlns="http://www.w3.org/2000/svg" xmlns:xlink="http://www.w3.org/1999/xlink" x="0px" y="0px"
	 width="440px" height="440px" viewBox="0 0 440 440" enable-background="new 0 0 440 440" xml:space="preserve">
<g>
	<g>
		<path d="M427.143,205.423L230.064,63.747c-5.705-4.1-13.395-4.1-19.097,0L13.881,205.423c-7.368,5.29-9.065,15.583-3.812,22.971
			c5.287,7.39,15.572,9.103,22.91,3.804l23.485-16.882V366.26c0,9.093,7.338,16.467,16.404,16.467h104.935
			c9.068,0,16.404-7.374,16.404-16.467V262.454h52.578V366.26c0,9.093,7.34,16.467,16.409,16.467h104.93
			c9.068,0,16.405-7.374,16.405-16.467V215.293l23.518,16.905c2.885,2.082,6.218,3.08,9.516,3.08c5.128,0,10.16-2.389,13.362-6.884
			C436.215,221.005,434.516,210.713,427.143,205.423z M351.722,195.219V349.79h-72.126V245.988c0-9.096-7.336-16.465-16.4-16.465
			h-85.391c-9.067,0-16.407,7.37-16.407,16.465V349.79H89.276V195.219c0-1.115-0.113-2.204-0.324-3.257L220.513,97.39
			l131.535,94.554C351.835,193.002,351.722,194.097,351.722,195.219z"/>
	</g>
</g>
</svg>
