<?xml version="1.0" encoding="utf-8"?>
<!-- Generator: Adobe Illustrator 15.0.0, SVG Export Plug-In . SVG Version: 6.00 Build 0)  -->
<!DOCTYPE svg PUBLIC "-//W3C//DTD SVG 1.1//EN" "http://www.w3.org/Graphics/SVG/1.1/DTD/svg11.dtd">
<svg version="1.1" id="Capa_1" xmlns="http://www.w3.org/2000/svg" xmlns:xlink="http://www.w3.org/1999/xlink" x="0px" y="0px"
	 width="30px" height="30px" viewBox="0 0 30 30" enable-background="new 0 0 30 30" xml:space="preserve">
<rect display="none" fill="#F9EF81" width="30" height="30"/>
<path fill="#020304" d="M27.268,4.124c-3.225-3.223-8.457-3.223-11.683,0L2.191,17.341c-2.506,2.502-2.506,6.572,0,9.076
	c2.504,2.501,6.582,2.501,9.086,0l13.396-13.218c1.791-1.79,1.791-4.691,0-6.482c-1.794-1.79-4.7-1.79-6.493,0L8.11,16.771
	c-0.358,0.358-0.358,0.938,0,1.298c0.359,0.357,0.94,0.357,1.3,0L19.479,8.013c1.074-1.07,2.819-1.07,3.895,0
	c1.074,1.072,1.074,2.816,0,3.89L9.979,25.118c-1.794,1.792-4.698,1.792-6.49,0c-1.794-1.789-1.794-4.691,0-6.481L16.752,5.55
	c2.511-2.507,6.579-2.507,9.087,0c2.513,2.509,2.513,6.568,0.001,9.075l-9.938,9.925c-0.36,0.358-0.36,0.938,0,1.296
	s0.94,0.358,1.298,0l10.068-10.054C30.496,12.57,30.496,7.347,27.268,4.124z"/>
</svg>
