<?xml version="1.0" encoding="utf-8"?>
<!-- Generator: Adobe Illustrator 15.0.2, SVG Export Plug-In . SVG Version: 6.00 Build 0)  -->
<!DOCTYPE svg PUBLIC "-//W3C//DTD SVG 1.1//EN" "http://www.w3.org/Graphics/SVG/1.1/DTD/svg11.dtd">
<svg version="1.1" id="Capa_1" xmlns="http://www.w3.org/2000/svg" xmlns:xlink="http://www.w3.org/1999/xlink" x="0px" y="0px"
	 width="440px" height="440px" viewBox="0 0 440 440" enable-background="new 0 0 440 440" xml:space="preserve">
<g>
	<g>
		<path d="M72.717,170.408c0.969,0,1.935-0.176,2.904-0.53l110.353-41.542c4.258-1.607,6.42-6.349,4.807-10.611
			c-1.582-4.258-6.322-6.349-10.643-4.791L69.784,154.478c-4.257,1.607-6.419,6.35-4.806,10.609
			C66.236,168.382,69.364,170.408,72.717,170.408z M72.717,276.395c0.969,0,1.935-0.176,2.904-0.527l110.322-41.54
			c4.256-1.612,6.417-6.349,4.804-10.611c-1.581-4.26-6.288-6.367-10.642-4.791l-110.32,41.539
			c-4.257,1.611-6.419,6.35-4.806,10.611C66.236,274.37,69.364,276.395,72.717,276.395z M72.717,329.399
			c0.969,0,1.935-0.176,2.904-0.528l110.353-41.539c4.258-1.611,6.42-6.353,4.807-10.611c-1.582-4.245-6.322-6.349-10.643-4.791
			L69.784,313.469c-4.257,1.607-6.419,6.35-4.806,10.612C66.236,327.374,69.364,329.399,72.717,329.399z M72.717,223.408
			c0.969,0,1.935-0.176,2.904-0.529l110.322-41.539c4.256-1.609,6.417-6.349,4.804-10.611c-1.581-4.26-6.288-6.352-10.642-4.791
			L69.784,207.48c-4.257,1.607-6.419,6.349-4.806,10.609C66.236,221.385,69.364,223.408,72.717,223.408z M420.678,91.055
			c0-6.847-4.255-12.972-10.675-15.4L225.221,6.077c-3.641-1.363-7.612-1.39-11.212-0.155c-0.154,0.052-0.31,0.099-0.463,0.155
			L28.699,75.655c-6.418,2.413-10.675,8.553-10.675,15.4V417.48c0,5.4,2.646,10.465,7.126,13.537
			c2.774,1.93,6.063,2.925,9.385,2.925c1.966,0,3.935-0.352,5.837-1.061l179.012-67.381l111.096,41.82
			c1.906,0.709,3.87,1.062,5.834,1.062c4.39,0,8.674-1.753,11.835-5.003l67.888-69.85c2.999-3.069,4.676-7.187,4.676-11.462
			L420.678,91.055z M202.873,336.523L51.047,393.673V102.437l151.826-57.149V336.523z M344.573,359.75v-51.327l36.526,13.753
			L344.573,359.75z M339.22,288.807c-2.551-0.946-5.354-0.611-7.608,0.935c-2.229,1.527-3.55,4.064-3.55,6.767v74.702
			l-92.165-34.687V45.287l151.757,57.149l0.034,204.62L339.22,288.807z M372.662,155.908l-110.321-41.556
			c-4.293-1.592-9.035,0.528-10.646,4.791c-1.612,4.26,0.55,9.002,4.808,10.609l110.318,41.557c0.97,0.352,1.969,0.53,2.938,0.53
			c3.32,0,6.481-2.026,7.706-5.321C379.075,162.257,376.919,157.514,372.662,155.908z M372.662,261.882l-110.321-41.543
			c-4.293-1.589-9.035,0.533-10.646,4.795c-1.612,4.253,0.55,9,4.808,10.606l110.318,41.54c0.97,0.356,1.969,0.532,2.938,0.532
			c3.32,0,6.481-2.025,7.706-5.323C379.075,268.231,376.919,263.484,372.662,261.882z M372.662,208.894l-110.321-41.539
			c-4.293-1.594-9.035,0.545-10.646,4.791c-1.612,4.259,0.55,9.001,4.808,10.608l110.318,41.544c0.97,0.352,1.969,0.527,2.938,0.527
			c3.32,0,6.481-2.025,7.706-5.32C379.075,215.244,376.919,210.502,372.662,208.894z"/>
	</g>
</g>
</svg>
