<?xml version="1.0" encoding="utf-8"?>
<!-- Generator: Adobe Illustrator 15.0.0, SVG Export Plug-In . SVG Version: 6.00 Build 0)  -->
<!DOCTYPE svg PUBLIC "-//W3C//DTD SVG 1.1//EN" "http://www.w3.org/Graphics/SVG/1.1/DTD/svg11.dtd">
<svg version="1.1" id="Capa_1" xmlns="http://www.w3.org/2000/svg" xmlns:xlink="http://www.w3.org/1999/xlink" x="0px" y="0px"
	 width="30px" height="30px" viewBox="0 0 30 30" enable-background="new 0 0 30 30" xml:space="preserve">
<rect display="none" fill="#F9EF81" width="30" height="30"/>
<g>
	<g>
		<path fill-rule="evenodd" clip-rule="evenodd" fill="#020304" d="M15,5.473c-3.111,0-5.642,2.506-5.642,5.587
			c0,3.081,2.531,5.588,5.642,5.588c3.112,0,5.642-2.507,5.642-5.588C20.643,7.979,18.112,5.473,15,5.473z M15,15.716
			c-2.594,0-4.701-2.088-4.701-4.656S12.407,6.404,15,6.404c2.594,0,4.701,2.088,4.701,4.656S17.595,15.716,15,15.716z M15,0.122
			c-6.224,0-11.286,4.95-11.286,11.177c0,6.521,5.643,13.188,9.757,17.875c0.015,0.018,0.676,0.749,1.492,0.749
			c0.002,0,0.07,0,0.072,0c0.816,0,1.476-0.731,1.493-0.749c4.114-4.687,9.757-11.354,9.757-17.875
			C26.285,5.072,21.224,0.122,15,0.122z M15.109,27.951c-0.02,0.018-0.077,0.061-0.127,0.091c-0.009-0.025-0.08-0.08-0.122-0.123
			c-3.446-3.928-9.266-10.555-9.266-16.621c0-5.136,4.22-9.314,9.405-9.314c5.185,0,9.403,4.178,9.403,9.314
			C24.403,17.364,18.585,23.991,15.109,27.951z"/>
	</g>
</g>
</svg>
