<?xml version="1.0" encoding="utf-8"?>
<!-- Generator: Adobe Illustrator 15.0.0, SVG Export Plug-In . SVG Version: 6.00 Build 0)  -->
<!DOCTYPE svg PUBLIC "-//W3C//DTD SVG 1.1//EN" "http://www.w3.org/Graphics/SVG/1.1/DTD/svg11.dtd">
<svg version="1.1" id="Capa_1" xmlns="http://www.w3.org/2000/svg" xmlns:xlink="http://www.w3.org/1999/xlink" x="0px" y="0px"
	 width="30px" height="30px" viewBox="0 0 30 30" enable-background="new 0 0 30 30" xml:space="preserve">
<path d="M28.84,26.236c-0.184-0.121-3.532-2.296-8.516-3.363c1.83-2.292,3.002-5.376,3.501-7.428
	c0.691-2.843,0.423-8.408-2.335-11.875c-1.613-2.027-3.869-3.097-6.523-3.097s-4.911,1.07-6.522,3.097
	C5.687,7.037,5.418,12.602,6.11,15.445c0.498,2.052,1.671,5.136,3.499,7.428c-4.98,1.067-8.33,3.242-8.513,3.363
	c-0.673,0.445-0.974,1.273-0.739,2.039c0.234,0.768,0.948,1.292,1.757,1.292h25.706c0.81,0,1.524-0.524,1.759-1.292
	C29.813,27.51,29.512,26.682,28.84,26.236z M18.884,21.746l-0.299,0.378c-2.19,2.491-5.045,2.491-7.235,0l-0.3-0.378
	c-2.558-3.209-3.826-7.451-3.28-11.5c0.5-3.892,2.752-7.955,7.196-7.955s6.697,4.063,7.198,7.955
	C22.708,14.296,21.442,18.537,18.884,21.746z M2.113,27.749c0.126-0.084,3.237-2.104,7.883-3.097l2.281-0.491
	c0.813,0.53,1.707,0.859,2.689,0.859c0.983,0,1.877-0.329,2.688-0.859l2.282,0.491c4.609,0.985,7.71,2.982,7.882,3.097H2.113z"/>
</svg>
