<?xml version="1.0" encoding="utf-8"?>
<!-- Generator: Adobe Illustrator 15.0.2, SVG Export Plug-In . SVG Version: 6.00 Build 0)  -->
<!DOCTYPE svg PUBLIC "-//W3C//DTD SVG 1.1//EN" "http://www.w3.org/Graphics/SVG/1.1/DTD/svg11.dtd">
<svg version="1.1" id="Capa_1" xmlns="http://www.w3.org/2000/svg" xmlns:xlink="http://www.w3.org/1999/xlink" x="0px" y="0px"
	 width="440px" height="440px" viewBox="0 0 440 440" enable-background="new 0 0 440 440" xml:space="preserve">
<path d="M426.401,155.342l-39.917-53.4c-1.564-2.098-3.425-3.912-5.35-5.647V32.459c0-14.751-11.92-26.713-26.623-26.713H88.265
	c-14.703,0-26.623,11.961-26.623,26.713v63.849c-1.909,1.722-3.756,3.52-5.316,5.607L16.41,155.329
	c-5.169,6.886-8.009,15.432-8.009,24.053v13.356c0,22.095,17.913,40.069,39.936,40.069H48.33v173.636
	c0,14.752,11.921,26.713,26.626,26.713h292.867c14.702,0,26.625-11.961,26.625-26.713V232.808h0.008
	c22.019,0,39.934-17.974,39.934-40.069v-13.356C434.389,170.761,431.547,162.215,426.401,155.342z M354.512,32.459v53.426H88.272
	h-0.007V32.459H354.512z M144.095,206.095H88.325l53.249-93.496h29.148L144.095,206.095z M184.573,112.599h30.158v93.496h-56.784
	L184.573,112.599z M228.044,112.599h30.16l26.626,93.496h-56.786V112.599z M272.056,112.599h29.146l53.249,93.496h-55.767
	L272.056,112.599z M35.024,192.738v-13.356c0-2.895,0.937-5.701,2.664-8.007l39.939-53.429c2.508-3.364,6.454-5.347,10.646-5.347
	h37.968l-53.242,93.496H48.336C40.987,206.095,35.024,200.12,35.024,192.738z M274.637,406.443h-99.841V272.877h99.841V406.443z
	 M367.822,406.443H287.95V272.877c0-7.382-5.962-13.356-13.313-13.356h-99.841c-7.352,0-13.313,5.974-13.313,13.356v133.566H74.956
	V232.808h292.867V406.443z M407.765,192.738c0,7.382-5.956,13.356-13.31,13.356h-24.669l-53.251-93.496h37.977h0.005
	c4.19,0,8.138,1.983,10.646,5.347l39.938,53.429c1.729,2.307,2.664,5.112,2.664,8.007V192.738z"/>
</svg>
