<?xml version="1.0" encoding="utf-8"?>
<!-- Generator: Adobe Illustrator 15.0.0, SVG Export Plug-In . SVG Version: 6.00 Build 0)  -->
<!DOCTYPE svg PUBLIC "-//W3C//DTD SVG 1.1//EN" "http://www.w3.org/Graphics/SVG/1.1/DTD/svg11.dtd">
<svg version="1.1" id="Capa_1" xmlns="http://www.w3.org/2000/svg" xmlns:xlink="http://www.w3.org/1999/xlink" x="0px" y="0px"
	 width="30px" height="30px" viewBox="0 0 30 30" enable-background="new 0 0 30 30" xml:space="preserve">
<rect display="none" fill="#F9EF81" width="30" height="30"/>
<g>
	<g>
		<path fill="#020304" d="M22.498,0.182H7.503c-1.553,0-2.812,1.247-2.812,2.785v24.13c0,1.538,1.259,2.785,2.812,2.785
			l14.995-0.002c1.552,0,2.812-1.246,2.812-2.784V2.966C25.31,1.429,24.05,0.182,22.498,0.182z M23.435,27.097
			c0,0.512-0.42,0.928-0.937,0.928L7.503,28.025c-0.518,0-0.938-0.416-0.938-0.928v-1.86l16.869-0.001V27.097z M23.435,24.308
			L6.565,24.31V5.751h16.869V24.308z M23.435,4.823H6.565V2.967c0-0.513,0.42-0.929,0.938-0.929l14.995-0.001
			c0.517,0,0.937,0.416,0.937,0.929V4.823z M16.406,2.966h-2.812c-0.259,0-0.469,0.208-0.469,0.464c0,0.256,0.21,0.464,0.469,0.464
			h2.812c0.259,0,0.468-0.208,0.468-0.464C16.874,3.174,16.665,2.966,16.406,2.966z M14.531,27.094h0.938
			c0.259,0,0.469-0.208,0.469-0.465s-0.21-0.465-0.469-0.465h-0.938c-0.26,0-0.469,0.208-0.469,0.465S14.271,27.094,14.531,27.094z"
			/>
	</g>
</g>
</svg>
