<?xml version="1.0" encoding="utf-8"?>
<!-- Generator: Adobe Illustrator 15.0.2, SVG Export Plug-In . SVG Version: 6.00 Build 0)  -->
<!DOCTYPE svg PUBLIC "-//W3C//DTD SVG 1.1//EN" "http://www.w3.org/Graphics/SVG/1.1/DTD/svg11.dtd">
<svg version="1.1" id="Capa_1" xmlns="http://www.w3.org/2000/svg" xmlns:xlink="http://www.w3.org/1999/xlink" x="0px" y="0px"
	 width="440px" height="440px" viewBox="0 0 440 440" enable-background="new 0 0 440 440" xml:space="preserve">
<g>
	<g>
		<path d="M220.922,210.345c35.463,0,64.321-32.143,64.321-71.648c0-39.488-28.857-71.615-64.321-71.615
			c-35.466,0-64.355,32.127-64.355,71.615C156.567,178.202,185.457,210.345,220.922,210.345z M220.922,101.119
			c16.738,0,30.319,16.852,30.319,37.578c0,20.742-13.581,37.61-30.319,37.61c-16.736,0-30.35-16.869-30.35-37.61
			C190.573,117.97,204.186,101.119,220.922,101.119z M292.053,243.052c-46.524-16.686-97.929-16.785-144.751,0.05
			c-23.476,8.69-41.275,35.199-39.649,59.048c1.298,19.429,2.625,39.188,4.019,58.936c0.63,8.927,8.038,15.837,16.969,15.837H310.88
			c8.932,0,16.34-6.91,16.969-15.837l4.02-58.866C333.525,278.27,315.729,251.745,292.053,243.052z M297.929,299.891l-2.924,42.995
			H144.479c-0.963-14.409-1.959-28.8-2.888-43.011c-0.5-7.213,6.64-20.842,17.335-24.797c39.182-14.026,82.683-13.976,121.537-0.031
			C291.32,279.033,298.426,292.629,297.929,299.891z M402.796,245.664c-18.295-6.567-37.457-10.059-56.981-10.393h-0.169
			c-4.614,0-8.399,3.71-8.499,8.362c-0.066,4.702,3.653,8.575,8.369,8.658c17.665,0.303,34.998,3.46,51.504,9.374
			c11.556,4.238,19.756,18.363,19.126,27.706l-2.957,42.88H348.57c-4.716,0-8.502,3.805-8.502,8.509
			c0,4.701,3.786,8.509,8.502,8.509h72.557c4.484,0,8.17-3.457,8.501-7.931l3.486-50.822
			C434.344,272.702,420.495,252.161,402.796,245.664z M410.666,165.721c0-28.153-20.355-51.073-45.358-51.073
			c-25.039,0-45.429,22.92-45.429,51.073c0,28.171,20.39,51.088,45.429,51.088C390.311,216.809,410.666,193.892,410.666,165.721z
			 M336.881,165.721c0-18.779,12.752-34.055,28.427-34.055c15.64,0,28.357,15.276,28.357,34.055
			c0,18.78-12.718,34.069-28.357,34.069C349.633,199.79,336.881,184.5,336.881,165.721z M93.441,235.271
			c-19.528,0.334-38.686,3.825-57.049,10.405c-17.635,6.484-31.483,27.025-30.255,44.824l3.491,50.838
			c0.298,4.474,4.016,7.931,8.464,7.931h72.594c4.714,0,8.501-3.808,8.501-8.509c0-4.704-3.787-8.509-8.501-8.509H26.032
			l-2.925-42.9c-0.63-9.322,7.573-23.447,19.095-27.67c16.536-5.93,33.872-9.087,51.536-9.39c4.718-0.083,8.435-3.956,8.368-8.658
			C102.007,238.931,98.354,235.921,93.441,235.271z M73.948,114.647c-25.004,0-45.362,22.92-45.362,51.073
			c0,28.171,20.358,51.088,45.362,51.088c25.036,0,45.428-22.917,45.428-51.088C119.376,137.567,98.984,114.647,73.948,114.647z
			 M73.948,199.79c-15.64,0-28.358-15.29-28.358-34.069c0-18.779,12.718-34.055,28.358-34.055c15.675,0,28.424,15.276,28.424,34.055
			C102.373,184.5,89.623,199.79,73.948,199.79z"/>
	</g>
</g>
</svg>
