<?xml version="1.0" encoding="utf-8"?>
<!-- Generator: Adobe Illustrator 14.0.0, SVG Export Plug-In . SVG Version: 6.00 Build 43363)  -->
<!DOCTYPE svg PUBLIC "-//W3C//DTD SVG 1.1//EN" "http://www.w3.org/Graphics/SVG/1.1/DTD/svg11.dtd">
<svg version="1.1" id="Layer_1" xmlns="http://www.w3.org/2000/svg" xmlns:xlink="http://www.w3.org/1999/xlink" x="0px" y="0px"
	 width="56.693px" height="56.693px" viewBox="0 0 56.693 56.693" enable-background="new 0 0 56.693 56.693" xml:space="preserve">
<g>
	<g>
		<path fill="#050606" d="M36.563,0.07c0,0-12.196,0-16.516,0c-8.38,0-15.367,6.199-15.367,13.115
			c0,7.063,4.59,12.698,12.474,12.698c0.548,0,1.081-0.036,1.601-0.07c-0.513,0.994-0.876,2.107-0.876,3.278
			c0,1.96,1.061,3.083,2.374,4.376c-0.992,0-1.949,0.027-2.997,0.027C7.66,33.495,1,36.594,1,46.181
			c0,6.353,8.042,10.798,17.639,10.798c10.937,0,17.763-5.901,17.663-12.662c-0.074-5.087-1.08-7.649-6.412-11.719
			c-1.532-1.169-4.864-3.562-4.864-5.17c0-1.886,0.527-2.811,3.318-5.03c2.856-2.269,4.877-5.261,4.877-8.976
			c0-4.05-1.625-7.716-4.686-9.498h4.337L36.563,0.07z M30.069,43.333c0.185,0.492,0.2,1.038,0.2,1.578
			c0,4.486-3.054,7.907-11.82,7.907c-6.232,0-10.735-3.653-10.735-8.132c0-4.395,5.048-6.729,11.156-6.729
			C21.141,37.957,27.953,37.957,30.069,43.333z M20.347,23.061c-4.226-0.132-8.242-3.898-8.97-9.52
			c-0.733-5.615,2.97-9.53,7.194-9.405c4.223,0.131,6.973,4.356,7.7,9.971C26.999,19.729,24.571,23.187,20.347,23.061z
			 M47.467,8.212V0.076h-2.64v8.136h-7.934v2.67h7.934v8.151h2.64v-8.151h7.945v-2.67H47.467z"/>
	</g>
</g>
</svg>
