<?xml version="1.0" encoding="utf-8"?>
<!-- Generator: Adobe Illustrator 14.0.0, SVG Export Plug-In . SVG Version: 6.00 Build 43363)  -->
<!DOCTYPE svg PUBLIC "-//W3C//DTD SVG 1.1//EN" "http://www.w3.org/Graphics/SVG/1.1/DTD/svg11.dtd">
<svg version="1.1" id="Layer_1" xmlns="http://www.w3.org/2000/svg" xmlns:xlink="http://www.w3.org/1999/xlink" x="0px" y="0px"
	 width="56.693px" height="56.693px" viewBox="0 0 56.693 56.693" enable-background="new 0 0 56.693 56.693" xml:space="preserve">
<path fill="#070808" d="M56.623,10.536c-2.083,0.942-4.322,1.574-6.673,1.861c2.399-1.461,4.241-3.779,5.107-6.533
	c-2.242,1.353-4.73,2.333-7.375,2.867C45.562,6.434,42.544,5,39.203,5c-6.416,0-11.617,5.287-11.617,11.81
	c0,0.92,0.102,1.827,0.3,2.69C18.232,19.005,9.672,14.306,3.942,7.165c-1,1.742-1.573,3.769-1.573,5.933
	c0,4.099,2.051,7.71,5.168,9.829c-1.904-0.06-3.696-0.594-5.262-1.479c-0.002,0.048-0.002,0.098-0.002,0.15
	c0,5.722,4.005,10.492,9.319,11.576c-0.974,0.272-2,0.413-3.061,0.413c-0.748,0-1.477-0.071-2.186-0.211
	c1.479,4.691,5.769,8.107,10.852,8.198c-3.976,3.167-8.985,5.058-14.426,5.058c-0.939,0-1.863-0.055-2.772-0.167
	c5.141,3.35,11.248,5.306,17.807,5.306c21.369,0,33.052-17.991,33.052-33.594c0-0.51-0.01-1.023-0.032-1.528
	C53.099,14.983,55.064,12.904,56.623,10.536z"/>
</svg>
