<?xml version="1.0" encoding="utf-8"?>
<!-- Generator: Adobe Illustrator 14.0.0, SVG Export Plug-In . SVG Version: 6.00 Build 43363)  -->
<!DOCTYPE svg PUBLIC "-//W3C//DTD SVG 1.1//EN" "http://www.w3.org/Graphics/SVG/1.1/DTD/svg11.dtd">
<svg version="1.1" id="Layer_1" xmlns="http://www.w3.org/2000/svg" xmlns:xlink="http://www.w3.org/1999/xlink" x="0px" y="0px"
	 width="56.693px" height="56.693px" viewBox="0 0 56.693 56.693" enable-background="new 0 0 56.693 56.693" xml:space="preserve">
<g>
	<g>
		<path fill-rule="evenodd" clip-rule="evenodd" fill="#050606" d="M52.5,9.909c-3.192-2.394-18.472-2.301-24.102-2.301
			c-5.87,0-20.246-0.052-23.542,2.016c-3.084,1.932-4.691,10.792-4.824,19.013v0.012c0.133,8.223,1.74,16.509,4.824,18.441
			c3.296,2.066,17.672,2.002,23.542,2.002c5.63,0,20.91,0.105,24.102-2.289c2.819-2.114,4.15-10.078,4.173-18.154v-0.012
			C56.65,20.56,55.319,12.023,52.5,9.909z M22.96,39.351V17.342l16.17,11.003L22.96,39.351z"/>
	</g>
</g>
</svg>
