<?xml version="1.0" encoding="utf-8"?>
<!-- Generator: Adobe Illustrator 14.0.0, SVG Export Plug-In . SVG Version: 6.00 Build 43363)  -->
<!DOCTYPE svg PUBLIC "-//W3C//DTD SVG 1.1//EN" "http://www.w3.org/Graphics/SVG/1.1/DTD/svg11.dtd">
<svg version="1.1" id="Layer_1" xmlns="http://www.w3.org/2000/svg" xmlns:xlink="http://www.w3.org/1999/xlink" x="0px" y="0px"
	 width="50px" height="50px" viewBox="0 0 50 50" enable-background="new 0 0 50 50" xml:space="preserve">
<path fill-rule="evenodd" clip-rule="evenodd" d="M41.94,0.261H8.055c-4.306,0-7.799,3.489-7.799,7.796v33.885
	c0,4.309,3.493,7.797,7.799,7.797H41.94c4.312,0,7.804-3.488,7.804-7.797V8.057C49.744,3.75,46.252,0.261,41.94,0.261z
	 M28.23,44.236h-7.777v-7.47h7.777V44.236z M35.621,22.363c-0.653,0.935-1.914,2.131-3.771,3.581l-1.834,1.439
	c-0.997,0.776-1.659,1.686-1.986,2.723c-0.206,0.668-0.315,1.686-0.337,3.072h-7.087c0.101-2.929,0.382-4.955,0.829-6.071
	c0.455-1.117,1.616-2.405,3.486-3.868l1.902-1.478c0.622-0.469,1.124-0.973,1.506-1.536c0.694-0.94,1.04-1.98,1.04-3.117
	c0-1.313-0.385-2.504-1.152-3.582c-0.771-1.072-2.178-1.616-4.216-1.616c-2.014,0-3.431,0.661-4.273,1.989
	c-0.838,1.319-1.259,2.692-1.259,4.111h-7.471c0.206-4.916,1.929-8.399,5.16-10.457c2.042-1.315,4.548-1.967,7.522-1.967
	c3.907,0,7.155,0.935,9.737,2.796c2.588,1.87,3.879,4.641,3.879,8.306C37.298,18.932,36.739,20.828,35.621,22.363z"/>
</svg>
