<?xml version="1.0" encoding="utf-8"?>
<!-- Generator: Adobe Illustrator 14.0.0, SVG Export Plug-In . SVG Version: 6.00 Build 43363)  -->
<!DOCTYPE svg PUBLIC "-//W3C//DTD SVG 1.1//EN" "http://www.w3.org/Graphics/SVG/1.1/DTD/svg11.dtd">
<svg version="1.1" id="Layer_1" xmlns="http://www.w3.org/2000/svg" xmlns:xlink="http://www.w3.org/1999/xlink" x="0px" y="0px"
	 width="150px" height="150px" viewBox="0 0 150 150" enable-background="new 0 0 150 150" xml:space="preserve">
<path d="M142.854,86.708c-2.566-0.764-5.935-0.349-10.05,1.277c-3.728,1.614-7.093,3.94-10.137,6.995
	c-3.027,3.055-6.038,6.396-9.037,10.04c-3.01,3.633-6.34,7.123-9.983,10.466c-0.298,0.168-0.571,0.326-0.865,0.473
	c-0.289,0.163-0.575,0.292-0.835,0.414c-2.479,0.95-4.747,0.861-6.755-0.271c-2.019-1.143-3.852-3.01-5.492-5.604
	c-0.397-0.587-0.758-1.203-1.118-1.846c-0.044-0.289-0.136-0.56-0.263-0.805c-2.798-5.11-4.684-11.824-5.656-20.12
	c-1.003-8.32-1.577-17.928-1.718-28.854c-0.082-4.062-0.145-8.824-0.227-14.243c-0.075-5.432-0.197-12.333-0.365-20.717
	c-0.308-1.08-1.313-2.11-3.017-3.118c-1.696-0.995-3.711-1.824-6.031-2.466c-2.331-0.638-4.591-0.961-6.777-0.942
	c-1.667,0.024-2.769,0-4.221,0.863c-3.366,1.998-1.702,8.635-1.626,9.917c0.508,8.189-2.786,14.688-4.272,19.78
	c-1.494,5.102-2.908,9.061-4.283,11.886c-0.805,1.655-1.6,3.084-2.376,4.313c-0.783,1.232-1.596,2.223-2.418,2.977
	c-0.167-0.514-0.398-1.202-0.676-2.099c-0.274-0.888-0.572-1.987-0.884-3.256c-0.548-2.121-1.316-5.188-2.299-9.182
	c-0.975-3.982-2.168-9.225-3.597-15.703c-0.9-4.626-1.683-8.529-2.321-11.713c-0.653-3.189-1.715-5.584-3.14-7.213
	c-1.443-1.624-4.18-2.581-7.083-2.349c-6.382,0.521-10.718,9.378-7.226,14.73c-2.865,12.598-5.792,24.141-7.881,32.191
	c-2.103,8.049-3.771,14.199-5.016,18.449c-1.244,4.242-2.164,7.386-2.752,9.379c-0.612,2.012-0.981,3.688-1.153,4.999
	c-0.159,1.318-0.2,3.1-0.148,5.297c0.221,3.607,1.787,6.272,4.648,7.99c2.854,1.715,6.15,2.817,9.863,3.303
	c3.717,0.473,6.954,0.658,9.72,0.561l3.147-0.07c0.21,0,0.431-0.012,0.598-0.025c0.186-0.02,0.353-0.06,0.524-0.111
	c-2.129-4.32-3.686-8.996-4.591-14.033c-0.922-5.014-1.433-10.136-1.513-15.344c-0.072-5.266,0.065-10.365,0.457-15.301
	c0.391-4.953,0.867-9.464,1.425-13.557c1.93,7.202,4.087,15.191,6.419,23.953c2.35,8.77,4.95,18.256,7.775,28.462
	c0.194,0.772,1.384,1.456,3.579,2.053c2.194,0.595,4.392,0.899,6.584,0.899c0.77-0.023,1.437-0.098,1.941-0.235
	c0.518-0.125,0.902-0.344,1.183-0.624c0.801-8.03,2.019-15.872,3.67-23.511c1.649-7.612,3.36-14.31,5.105-20.074
	c0.878,11.237,2.064,21.707,3.546,31.438c1.477,9.717,2.053,34.751,17.875,36.818c7.348,0.96,12.451-0.499,18.312-5.015
	c3.033-2.356,4.317-4.759,6.447-7.46c2.133-2.688,4.494-5.261,7.093-7.697c2.595-2.453,5.686-4.439,9.267-5.972
	c2.792-1.178,6.025-1.896,9.679-2.15c3.669-0.267,7.877-0.145,12.639,1.145c1.644-2.791,2.204-5.431,2.435-7.932
	c0.252-2.509-0.011-4.691-0.783-6.577C147.206,89.109,145.424,87.47,142.854,86.708"/>
</svg>
