<?xml version="1.0" encoding="utf-8"?>
<!-- Generator: Adobe Illustrator 14.0.0, SVG Export Plug-In . SVG Version: 6.00 Build 43363)  -->
<!DOCTYPE svg PUBLIC "-//W3C//DTD SVG 1.1//EN" "http://www.w3.org/Graphics/SVG/1.1/DTD/svg11.dtd">
<svg version="1.1" id="Layer_1" xmlns="http://www.w3.org/2000/svg" xmlns:xlink="http://www.w3.org/1999/xlink" x="0px" y="0px"
	 width="50px" height="50px" viewBox="0 0 50 50" enable-background="new 0 0 50 50" xml:space="preserve">
<path fill-rule="evenodd" clip-rule="evenodd" fill="#020202" d="M24.996,49.602c-13.563,0-24.599-11.035-24.599-24.603
	c0-13.564,11.035-24.601,24.599-24.601c13.568,0,24.606,11.037,24.606,24.601C49.603,38.566,38.564,49.602,24.996,49.602z
	 M24.996,2.655c-12.318,0-22.342,10.024-22.342,22.344c0,12.321,10.023,22.347,22.342,22.347c12.322,0,22.348-10.025,22.348-22.347
	C47.344,12.679,37.318,2.655,24.996,2.655z M11.51,21.993h26.977v6.013H11.51V21.993z"/>
</svg>
