<?xml version="1.0" encoding="utf-8"?>
<!-- Generator: Adobe Illustrator 14.0.0, SVG Export Plug-In . SVG Version: 6.00 Build 43363)  -->
<!DOCTYPE svg PUBLIC "-//W3C//DTD SVG 1.1//EN" "http://www.w3.org/Graphics/SVG/1.1/DTD/svg11.dtd">
<svg version="1.1" id="Layer_1" xmlns="http://www.w3.org/2000/svg" xmlns:xlink="http://www.w3.org/1999/xlink" x="0px" y="0px"
	 width="50px" height="50px" viewBox="0 0 50 50" enable-background="new 0 0 50 50" xml:space="preserve">
<path fill-rule="evenodd" clip-rule="evenodd" fill="#050606" d="M24.998,49.705c-13.623,0-24.706-11.081-24.706-24.704
	c0-13.624,11.083-24.706,24.706-24.706c13.625,0,24.71,11.082,24.71,24.706C49.708,38.624,38.623,49.705,24.998,49.705z
	 M24.998,2.561c-12.374,0-22.438,10.065-22.438,22.44c0,12.372,10.065,22.44,22.438,22.44c12.377,0,22.444-10.068,22.444-22.44
	C47.442,12.626,37.375,2.561,24.998,2.561z M28.019,38.546h-6.039V28.021H11.45v-6.039h10.529V11.453h6.039v10.529h10.525v6.039
	H28.019V38.546z"/>
</svg>
