<?xml version="1.0" encoding="utf-8"?>
<!-- Generator: Adobe Illustrator 14.0.0, SVG Export Plug-In . SVG Version: 6.00 Build 43363)  -->
<!DOCTYPE svg PUBLIC "-//W3C//DTD SVG 1.1//EN" "http://www.w3.org/Graphics/SVG/1.1/DTD/svg11.dtd">
<svg version="1.1" id="Layer_1" xmlns="http://www.w3.org/2000/svg" xmlns:xlink="http://www.w3.org/1999/xlink" x="0px" y="0px"
	 width="30px" height="30px" viewBox="0 0 30 30" enable-background="new 0 0 30 30" xml:space="preserve">
<path fill-rule="evenodd" clip-rule="evenodd" d="M22.268,10.826c0.026-0.017,0.041-0.022,0.041-0.012
	C22.309,10.834,22.294,10.836,22.268,10.826z M22.263,19.314c-0.391,0.144-3.202,3.023-3.161,3.2
	c-0.103-0.196-2.012-2.165-4.264-4.437c-2.206,2.228-4.082,4.166-4.241,4.424c-0.063-0.285-2.802-3.049-3.171-3.188
	c0.298-0.191,2.215-2.053,4.414-4.239c-2.229-2.212-4.168-4.098-4.425-4.255c0.282-0.057,3.049-2.781,3.188-3.165
	c0.201,0.315,2.051,2.233,4.225,4.428c2.255-2.279,4.171-4.259,4.274-4.457c-0.038,0.178,2.792,3.057,3.166,3.199
	c-0.3,0.194-2.23,2.064-4.44,4.257C20.025,17.262,21.947,19.114,22.263,19.314z M22.309,19.329c0,0.011-0.017,0.004-0.046-0.015
	C22.291,19.305,22.309,19.307,22.309,19.329z M19.104,22.533c-0.008,0-0.001-0.013-0.002-0.019
	C19.106,22.527,19.108,22.533,19.104,22.533z M10.597,22.502c0.004,0.017,0.006,0.031-0.007,0.031
	C10.582,22.533,10.585,22.522,10.597,22.502z M7.384,19.329c0-0.021,0.015-0.022,0.042-0.015
	C7.399,19.333,7.384,19.337,7.384,19.329z M7.415,10.82c-0.015,0.003-0.03,0.006-0.03-0.007C7.384,10.806,7.396,10.809,7.415,10.82z
	 M10.59,7.608c0.022,0,0.023,0.017,0.013,0.047C10.584,7.625,10.578,7.608,10.59,7.608z M19.102,7.627
	c0.001-0.006-0.006-0.019,0.002-0.019C19.108,7.608,19.106,7.616,19.102,7.627z"/>
<path fill-rule="evenodd" clip-rule="evenodd" fill="none" stroke="#000000" d="M0.667,15.069c0-7.831,6.347-14.178,14.178-14.178
	c7.83,0,14.178,6.348,14.178,14.178c0,7.831-6.349,14.179-14.178,14.179C7.014,29.248,0.667,22.9,0.667,15.069z"/>
</svg>
