<?xml version="1.0" encoding="utf-8"?>
<!-- Generator: Adobe Illustrator 14.0.0, SVG Export Plug-In . SVG Version: 6.00 Build 43363)  -->
<!DOCTYPE svg PUBLIC "-//W3C//DTD SVG 1.1//EN" "http://www.w3.org/Graphics/SVG/1.1/DTD/svg11.dtd">
<svg version="1.1" id="Layer_1" xmlns="http://www.w3.org/2000/svg" xmlns:xlink="http://www.w3.org/1999/xlink" x="0px" y="0px"
	 width="30px" height="30px" viewBox="0 0 30 30" enable-background="new 0 0 30 30" xml:space="preserve">
<g>
	<g>
		<path d="M21.643,2.896c0,0,0,0-0.207-0.098C21.23,2.699,21.23,2.699,21.23,2.699c-0.232,0.09-1.619,1.098-3.079,2.239l-2.1,1.642
			c-1.462,1.138-3.664,2.125-4.895,2.189s-2.61,0.263-2.679,0.418c-0.069,0.16-0.124,1.793-0.124,3.635v5.384
			c0,1.839,0.027,3.484,0.063,3.653c0,0,0,0,0.112,0.112c0.112,0.11,0.112,0.11,0.112,0.11c0.173,0.033,1.317,0.055,2.542,0.049
			c1.225-0.005,3.422,0.922,4.883,2.061l2.086,1.629c1.46,1.141,2.822,2.167,2.894,2.179s0.211,0.012,0.309,0.003
			c0,0,0,0,0.082-0.041c0.207-0.097,0.207-0.097,0.207-0.097c0.072-0.238,0.131-1.938,0.131-3.782V6.675
			C21.773,4.833,21.715,3.133,21.643,2.896z M20.58,22.868c0,1.84-1.193,2.413-2.654,1.273l-1.284-1.006
			c-1.46-1.141-2.82-2.163-2.894-2.176s-0.132-0.02-0.134-0.02c0,0-0.917,0.002-2.033,0.007c-1.12,0.007-2.034-1.491-2.034-3.335
			v-4.229c0-1.841,0.922-3.396,2.05-3.454c1.128-0.06,2.222-0.141,2.281-0.174c0.061-0.034,1.303-0.994,2.764-2.133l1.284-1.003
			c1.461-1.14,2.654-0.567,2.654,1.275V22.868z"/>
	</g>
</g>
</svg>
