<?xml version="1.0" encoding="utf-8"?>
<!-- Generator: Adobe Illustrator 14.0.0, SVG Export Plug-In . SVG Version: 6.00 Build 43363)  -->
<!DOCTYPE svg PUBLIC "-//W3C//DTD SVG 1.1//EN" "http://www.w3.org/Graphics/SVG/1.1/DTD/svg11.dtd">
<svg version="1.1" id="Layer_1" xmlns="http://www.w3.org/2000/svg" xmlns:xlink="http://www.w3.org/1999/xlink" x="0px" y="0px"
	 width="30px" height="30px" viewBox="0 0 30 30" enable-background="new 0 0 30 30" xml:space="preserve">
<g>
	<g>
		<path fill="#020202" d="M29.626,10.486c0-2.735-2.25-4.96-5.017-4.96H5.313c-2.766,0-5.016,2.225-5.016,4.96v9.975
			c0,1.328,0.538,2.53,1.4,3.421c0.003,0.14,0.032,0.279,0.118,0.403c0.146,0.209,0.382,0.322,0.62,0.322
			c0.037,0,0.073-0.011,0.11-0.016c0.794,0.521,1.745,0.829,2.768,0.829h19.296c1.027,0,1.982-0.309,2.778-0.835
			c0.049,0.01,0.098,0.021,0.147,0.021c0.238,0,0.476-0.113,0.621-0.322c0.098-0.142,0.127-0.303,0.118-0.462
			c0.832-0.885,1.352-2.062,1.352-3.362V10.486z M28.122,20.461c0,0.882-0.345,1.679-0.895,2.292l-8.33-5.663l6.748-6.674
			c0.663-0.655,1.13-1.516,1.366-2.449c0.68,0.634,1.11,1.526,1.11,2.52V20.461z M24.609,7.014c0.356,0,0.694,0.068,1.019,0.167
			c-0.118,0.831-0.485,1.628-1.046,2.183l-6.914,6.838c-1.418,1.405-3.894,1.407-5.318,0L5.436,9.363
			C4.831,8.766,4.473,7.989,4.377,7.155c0.3-0.083,0.61-0.142,0.937-0.142H24.609z M1.801,10.486c0-1.023,0.458-1.935,1.173-2.571
			c0.221,0.94,0.695,1.805,1.399,2.5l6.729,6.654l-8.389,5.704c-0.561-0.615-0.912-1.421-0.912-2.313V10.486z M5.313,23.934
			c-0.455,0-0.886-0.093-1.285-0.248l8.309-5.65c0.803,0.472,1.714,0.742,2.673,0.742c0.949,0,1.85-0.266,2.646-0.728l8.272,5.625
			c-0.408,0.164-0.853,0.259-1.319,0.259H5.313z"/>
	</g>
</g>
</svg>
