<?xml version="1.0" encoding="utf-8"?>
<!-- Generator: Adobe Illustrator 14.0.0, SVG Export Plug-In . SVG Version: 6.00 Build 43363)  -->
<!DOCTYPE svg PUBLIC "-//W3C//DTD SVG 1.1//EN" "http://www.w3.org/Graphics/SVG/1.1/DTD/svg11.dtd">
<svg version="1.1" id="Layer_1" xmlns="http://www.w3.org/2000/svg" xmlns:xlink="http://www.w3.org/1999/xlink" x="0px" y="0px"
	 width="30px" height="30px" viewBox="0 0 30 30" enable-background="new 0 0 30 30" xml:space="preserve">
<g>
	<g>
		<path fill="#050606" d="M26.54,13.566L13.868,0.913c-0.388-0.385-0.905-0.597-1.463-0.597c-0.594,0.001-1.158,0.238-1.585,0.666
			c-0.425,0.422-0.669,1.002-0.669,1.587c0,0.555,0.213,1.074,0.6,1.459l8.449,8.438c0.632,0.728,0.995,1.664,0.995,2.565
			c0,0.92-0.382,1.928-0.965,2.602l-8.479,8.471c-0.387,0.383-0.6,0.901-0.6,1.459c0,0.592,0.236,1.159,0.666,1.587
			c0.431,0.43,0.995,0.665,1.589,0.665c0.558,0,1.075-0.211,1.463-0.598l12.673-12.651c0.396-0.396,0.538-1.208,0.578-1.552
			C27.119,14.453,26.913,13.936,26.54,13.566z M25.671,15.696l-12.672,12.65c-0.154,0.155-0.365,0.241-0.594,0.241
			c-0.262-0.002-0.523-0.114-0.718-0.308c-0.368-0.363-0.399-0.98-0.07-1.31l8.511-8.501c0.813-0.933,1.297-2.218,1.297-3.438
			c0-1.192-0.472-2.421-1.324-3.402l-8.483-8.47c-0.154-0.154-0.239-0.364-0.239-0.59c0-0.262,0.115-0.523,0.309-0.719
			c0.194-0.192,0.456-0.305,0.718-0.306c0.229,0,0.44,0.085,0.594,0.237l12.672,12.657c0.181,0.177,0.219,0.412,0.224,0.505
			C25.854,15.238,25.739,15.61,25.671,15.696z M5.191,0.154c-1.246,0-2.223,1.231-2.223,2.801v23.965
			c0,1.573,0.977,2.803,2.223,2.803c1.244,0,2.221-1.229,2.221-2.803V2.956C7.412,1.386,6.435,0.154,5.191,0.154z M6.18,26.921
			c0,0.839-0.463,1.575-0.989,1.575c-0.528,0-0.992-0.736-0.992-1.575V2.956c0-0.837,0.464-1.573,0.992-1.573
			c0.526,0,0.989,0.736,0.989,1.573V26.921z"/>
	</g>
</g>
</svg>
