<?xml version="1.0" encoding="utf-8"?>
<!-- Generator: Adobe Illustrator 14.0.0, SVG Export Plug-In . SVG Version: 6.00 Build 43363)  -->
<!DOCTYPE svg PUBLIC "-//W3C//DTD SVG 1.1//EN" "http://www.w3.org/Graphics/SVG/1.1/DTD/svg11.dtd">
<svg version="1.1" id="Layer_1" xmlns="http://www.w3.org/2000/svg" xmlns:xlink="http://www.w3.org/1999/xlink" x="0px" y="0px"
	 width="30px" height="30px" viewBox="0 0 30 30" enable-background="new 0 0 30 30" xml:space="preserve">
<g>
	<g>
		<path fill="#020202" d="M13.882,1.843c-0.216-0.103-0.216-0.103-0.216-0.103c-0.243,0.094-1.693,1.149-3.221,2.343L8.249,5.801
			C6.721,6.993,4.417,8.024,3.127,8.091C1.839,8.159,0.396,8.367,0.326,8.53c-0.072,0.166-0.129,1.875-0.129,3.803v5.634
			c0,1.927,0.028,3.647,0.066,3.823c0,0,0,0,0.117,0.117c0.117,0.116,0.117,0.116,0.117,0.116c0.179,0.034,1.377,0.057,2.658,0.049
			c1.284-0.006,3.583,0.965,5.109,2.157l2.184,1.707c1.526,1.19,2.952,2.266,3.028,2.277c0.074,0.013,0.217,0.013,0.32,0.002
			c0,0,0,0,0.086-0.041c0.216-0.104,0.216-0.104,0.216-0.104c0.076-0.248,0.136-2.028,0.136-3.955V5.901
			c0-1.927-0.06-3.706-0.136-3.955C14.098,1.946,14.098,1.946,13.882,1.843z M12.985,22.843c0,1.928-1.249,2.524-2.777,1.333
			l-1.343-1.049c-1.528-1.195-2.949-2.267-3.025-2.28c-0.076-0.013-0.14-0.021-0.14-0.021c-0.002,0-0.96,0.004-2.128,0.009
			c-1.17,0.008-2.127-1.562-2.127-3.488v-4.426c0-1.928,0.964-3.553,2.143-3.613c1.181-0.064,2.327-0.147,2.388-0.184
			c0.062-0.035,1.362-1.038,2.89-2.231l1.343-1.049c1.528-1.193,2.777-0.593,2.777,1.333V22.843z M17.699,8.291
			c-0.152-0.053-0.322-0.026-0.451,0.069c-0.132,0.094-0.209,0.246-0.207,0.407l0.024,1.556c0.005,0.191,0.118,0.363,0.295,0.443
			c1.681,0.752,2.767,2.418,2.767,4.242c0,1.844-1.104,3.519-2.812,4.261c-0.186,0.08-0.303,0.264-0.299,0.463l0.024,1.535
			c0.004,0.156,0.082,0.302,0.213,0.392c0.083,0.061,0.184,0.093,0.287,0.093c0.055,0,0.106-0.008,0.158-0.025
			c2.921-0.968,4.886-3.666,4.886-6.718C22.585,11.959,20.62,9.26,17.699,8.291z M18.028,20.534l-0.009-0.503
			c1.896-0.958,3.105-2.897,3.105-5.023c0-2.106-1.191-4.035-3.063-5.004l-0.01-0.51c2.141,0.996,3.532,3.131,3.532,5.514
			C21.584,17.401,20.18,19.543,18.028,20.534z M23.172,6.052c-0.153-0.053-0.325-0.027-0.453,0.069
			c-0.132,0.096-0.208,0.246-0.206,0.406l0.031,2.116c0.007,0.191,0.121,0.364,0.296,0.442c2.347,1.05,3.864,3.374,3.864,5.922
			c0,2.578-1.542,4.913-3.929,5.949c-0.182,0.081-0.3,0.264-0.299,0.463l0.036,2.083c0.004,0.156,0.082,0.305,0.214,0.396
			c0.085,0.06,0.184,0.092,0.287,0.092c0.053,0,0.107-0.009,0.158-0.025c3.894-1.291,6.511-4.89,6.511-8.957
			C29.683,10.942,27.065,7.343,23.172,6.052z M23.501,22.784l-0.018-1.062c2.575-1.255,4.221-3.857,4.221-6.715
			c0-2.83-1.625-5.42-4.164-6.685l-0.016-1.081c3.114,1.328,5.159,4.364,5.159,7.766C28.684,18.421,26.627,21.462,23.501,22.784z"/>
	</g>
</g>
</svg>
