<?xml version="1.0" encoding="utf-8"?>
<!-- Generator: Adobe Illustrator 14.0.0, SVG Export Plug-In . SVG Version: 6.00 Build 43363)  -->
<!DOCTYPE svg PUBLIC "-//W3C//DTD SVG 1.1//EN" "http://www.w3.org/Graphics/SVG/1.1/DTD/svg11.dtd">
<svg version="1.1" id="Layer_1" xmlns="http://www.w3.org/2000/svg" xmlns:xlink="http://www.w3.org/1999/xlink" x="0px" y="0px"
	 width="45px" height="44.742px" viewBox="0 0 45 44.742" enable-background="new 0 0 45 44.742" xml:space="preserve">
<g>
	<g>
		<path fill-rule="evenodd" clip-rule="evenodd" d="M33.557,0H11.186C5.007,0,0,5.009,0,11.186v22.371
			c0,6.179,5.007,11.186,11.186,11.186h22.371c6.179,0,11.186-5.007,11.186-11.186V11.186C44.742,5.009,39.735,0,33.557,0z
			 M36.827,17.825L20.778,33.871c-0.325,0.328-0.861,0.328-1.186,0l-2.373-2.395c-0.326-0.33-0.861-0.867-1.184-1.199l-5.519-5.798
			c-0.164-0.164-0.249-0.394-0.249-0.61s0.085-0.424,0.249-0.59l2.416-2.178c0.164-0.168,0.385-0.249,0.599-0.247
			c0.214,0,0.426,0.083,0.588,0.247l5.473,5.582c0.325,0.334,0.861,0.334,1.186,0l12.492-12.453c0.325-0.33,0.858-0.33,1.184,0
			l2.373,2.395C37.154,16.955,37.154,17.495,36.827,17.825z"/>
	</g>
</g>
</svg>
