<?xml version="1.0" encoding="utf-8"?>
<!-- Generator: Adobe Illustrator 14.0.0, SVG Export Plug-In . SVG Version: 6.00 Build 43363)  -->
<!DOCTYPE svg PUBLIC "-//W3C//DTD SVG 1.1//EN" "http://www.w3.org/Graphics/SVG/1.1/DTD/svg11.dtd">
<svg version="1.1" id="Layer_1" xmlns="http://www.w3.org/2000/svg" xmlns:xlink="http://www.w3.org/1999/xlink" x="0px" y="0px"
	 width="20.031px" height="20.03px" viewBox="0 0 20.031 20.03" enable-background="new 0 0 20.031 20.03" xml:space="preserve">
<path fill-rule="evenodd" clip-rule="evenodd" fill="#060404" d="M18.718,4.869c-0.423-0.701-0.945-1.387-1.585-2.022
	c-0.647-0.643-1.344-1.168-2.059-1.592l1.254-1.253c0,0,1.814,0,2.721,0.907c0.908,0.907,0.908,2.722,0.908,2.722L18.718,4.869z
	 M8.164,15.423H4.535v-3.629l0.437-0.437c0.737,0.349,1.47,0.838,2.129,1.5c0.66,0.658,1.151,1.393,1.499,2.129L8.164,15.423z
	 M17.672,5.916l-8.024,8.024c-0.424-0.701-0.947-1.387-1.586-2.021c-0.647-0.644-1.344-1.169-2.058-1.594l8.04-8.038
	c0.738,0.348,1.47,0.838,2.13,1.498S17.322,5.177,17.672,5.916z M2.722,2.722v14.514h14.514v-6.35l2.722-2.758v10.014
	c0,1.003-0.813,1.815-1.814,1.815H1.814C0.813,19.958,0,19.146,0,18.143V1.814C0,0.813,0.813,0,1.814,0h9.986L9.079,2.722H2.722z"/>
</svg>
