<?xml version="1.0" encoding="utf-8"?>
<!-- Generator: Adobe Illustrator 14.0.0, SVG Export Plug-In . SVG Version: 6.00 Build 43363)  -->
<!DOCTYPE svg PUBLIC "-//W3C//DTD SVG 1.1//EN" "http://www.w3.org/Graphics/SVG/1.1/DTD/svg11.dtd">
<svg version="1.1" id="Layer_1" xmlns="http://www.w3.org/2000/svg" xmlns:xlink="http://www.w3.org/1999/xlink" x="0px" y="0px"
	 width="20.031px" height="20.03px" viewBox="0 0 20.031 20.03" enable-background="new 0 0 20.031 20.03" xml:space="preserve">
<path fill-rule="evenodd" clip-rule="evenodd" fill="#020202" d="M2.504,10.016c0-4.149,3.363-7.513,7.512-7.513
	s7.512,3.363,7.512,7.513c0,4.148-3.363,7.512-7.512,7.512S2.504,14.164,2.504,10.016z M0,10.016
	c0,5.531,4.484,10.016,10.016,10.016s10.016-4.484,10.016-10.016C20.032,4.483,15.548,0,10.016,0S0,4.483,0,10.016z M5.634,8.764
	v2.504h3.13v3.13h2.503v-3.13h3.131V8.764h-3.131v-3.13H8.764v3.13H5.634z"/>
</svg>
