<?xml version="1.0" encoding="utf-8"?>
<!-- Generator: Adobe Illustrator 15.0.0, SVG Export Plug-In . SVG Version: 6.00 Build 0)  -->
<!DOCTYPE svg PUBLIC "-//W3C//DTD SVG 1.1//EN" "http://www.w3.org/Graphics/SVG/1.1/DTD/svg11.dtd">
<svg version="1.1" xmlns="http://www.w3.org/2000/svg" xmlns:xlink="http://www.w3.org/1999/xlink" x="0px" y="0px" width="50px"
	 height="50px" viewBox="0 0 50 50" enable-background="new 0 0 50 50" xml:space="preserve">
<g id="Capa_2" display="none">
	<rect x="-0.005" display="inline" fill="#E5E149" width="50" height="50"/>
</g>
<g id="Capa_1">
	<path d="M33.781,18.169c0-4.686-2.386-6.067-2.386-9.3c0-0.781,0.517-1.502,0.517-2.022c0-0.321-0.4-0.656-0.867-0.867
		c0.221-0.104,0.375-0.329,0.375-0.592c0-0.361-0.29-0.654-0.647-0.654H30.7v-3.71c0-0.482-0.386-0.872-0.862-0.872H19.7
		c-0.477,0-0.863,0.39-0.863,0.872v3.71h-0.071c-0.358,0-0.648,0.293-0.648,0.654c0,0.362,0.29,0.655,0.648,0.655h0.057
		c-0.412,0.211-0.744,0.512-0.744,0.804c0,0.52,0.515,1.241,0.515,2.022c0,3.233-2.384,4.615-2.384,9.3
		c0,4.685,1.721,5.706,1.721,9.94c0,4.235-1.603,7.027-1.603,12.644c0,2.223,0.801,5.136,0.89,5.586
		c0.089,0.45,0.95,3.454,7.778,3.454c6.829,0,7.688-3.004,7.777-3.454c0.091-0.45,0.892-3.363,0.892-5.586
		c0-5.616-1.604-8.408-1.604-12.644C32.059,23.875,33.781,22.854,33.781,18.169z"/>
</g>
</svg>
