<?xml version="1.0" encoding="utf-8"?>
<!-- Generator: Adobe Illustrator 15.0.0, SVG Export Plug-In . SVG Version: 6.00 Build 0)  -->
<!DOCTYPE svg PUBLIC "-//W3C//DTD SVG 1.1//EN" "http://www.w3.org/Graphics/SVG/1.1/DTD/svg11.dtd">
<svg version="1.1" xmlns="http://www.w3.org/2000/svg" xmlns:xlink="http://www.w3.org/1999/xlink" x="0px" y="0px" width="50px"
	 height="50px" viewBox="0 0 50 50" enable-background="new 0 0 50 50" xml:space="preserve">
<g id="Capa_2" display="none">
	<rect display="inline" fill="#E5E149" width="50" height="50"/>
</g>
<g id="Capa_1">
	<path d="M36.188,21.817c-0.347-2.921-1.504-2.478-2.229-3.623c-0.861-1.358-2.015-6.13-2.015-8.996
		c0-2.527-1.854-3.814-3.601-4.084V4.634h0.265c0.264,0,0.478-0.214,0.478-0.478c0-0.263-0.214-0.478-0.478-0.478h-0.052V0.972
		c0-0.352-0.285-0.637-0.637-0.637h-7.473c-0.352,0-0.636,0.286-0.636,0.637v2.707h-0.054c-0.264,0-0.477,0.214-0.477,0.478
		c0,0.264,0.213,0.478,0.477,0.478h0.292v0.633c-2.981,1.203-6.337,7.37-6.337,10.617c0,3.425,0,2.743,0,6.475v0.637v0.302v24.792
		c0,0.88,0.712,1.592,1.59,1.592h19.397c0.877,0,1.59-0.712,1.59-1.592V22.36C36.289,22.168,36.25,21.987,36.188,21.817z
		 M29.085,11.161c0,0,1.004,5.944,1.745,7.377c0.317,0.637-0.262,0.583-0.873,0.583c-0.61,0-2.677-0.849-2.677-3.396
		c0-2.547,0-2.76,0-3.45s0.052-1.592,0.477-1.592C28.181,10.684,28.962,10.465,29.085,11.161z"/>
</g>
</svg>
