<?xml version="1.0" encoding="utf-8"?>
<!-- Generator: Adobe Illustrator 15.0.0, SVG Export Plug-In . SVG Version: 6.00 Build 0)  -->
<!DOCTYPE svg PUBLIC "-//W3C//DTD SVG 1.1//EN" "http://www.w3.org/Graphics/SVG/1.1/DTD/svg11.dtd">
<svg version="1.1" xmlns="http://www.w3.org/2000/svg" xmlns:xlink="http://www.w3.org/1999/xlink" x="0px" y="0px" width="50px"
	 height="50px" viewBox="0 0 50 50" enable-background="new 0 0 50 50" xml:space="preserve">
<g id="Capa_2" display="none">
	<rect display="inline" fill="#E5E149" width="50" height="50"/>
</g>
<g id="Capa_1">
	<path d="M33.102,19.418c0-6.966-3.653-10.97-3.653-12.572c0-0.774,0.582-1.414,0.582-1.789c0-0.234-0.301-0.447-0.625-0.586h0.016
		c0.263,0,0.477-0.215,0.477-0.48s-0.214-0.48-0.477-0.48h-0.053V0.788c0-0.354-0.284-0.641-0.636-0.641h-7.465
		c-0.353,0-0.637,0.287-0.637,0.641v2.723h-0.053c-0.263,0-0.477,0.215-0.477,0.48s0.214,0.48,0.477,0.48h0.016
		c-0.323,0.14-0.625,0.353-0.625,0.586c0,0.375,0.582,1.014,0.582,1.789c0,1.602-3.652,5.605-3.652,12.572
		c0,3.551,1.588,6.407,1.588,9.29c0,4.671-1.588,7.314-1.588,11.666c0,2.32,1.218,6.458,1.377,6.858
		c0.396,0.882,2.567,2.59,6.725,2.59c4.156,0,6.328-1.708,6.725-2.59c0.16-0.4,1.377-4.538,1.377-6.858
		c0-4.352-1.59-6.995-1.59-11.666C31.512,25.825,33.102,22.969,33.102,19.418z"/>
</g>
</svg>
