<?xml version="1.0" encoding="utf-8"?>
<!-- Generator: Adobe Illustrator 15.0.0, SVG Export Plug-In . SVG Version: 6.00 Build 0)  -->
<!DOCTYPE svg PUBLIC "-//W3C//DTD SVG 1.1//EN" "http://www.w3.org/Graphics/SVG/1.1/DTD/svg11.dtd">
<svg version="1.1" xmlns="http://www.w3.org/2000/svg" xmlns:xlink="http://www.w3.org/1999/xlink" x="0px" y="0px" width="50px"
	 height="50px" viewBox="0 0 50 50" enable-background="new 0 0 50 50" xml:space="preserve">
<g id="Capa_2" display="none">
	<rect display="inline" fill="#E5E149" width="50" height="50"/>
</g>
<g id="Capa_1">
	<path d="M33.68,17.03c0-3.052-1.436-6.332-2.136-7.161c-0.698-0.829-0.428-1.394-0.222-1.733c0.135-0.222,0.251-0.434,0.212-0.656
		h0.66c0.427,0,0.774-0.354,0.774-0.792s-0.348-0.792-0.774-0.792h-0.088V1.406c0-0.584-0.463-1.056-1.032-1.056H18.927
		c-0.57,0-1.033,0.472-1.033,1.056v4.489h-0.086c-0.428,0-0.774,0.355-0.774,0.792s0.347,0.792,0.774,0.792h0.659
		c-0.039,0.222,0.079,0.435,0.211,0.656c0.206,0.339,0.479,0.905-0.222,1.733c-0.701,0.83-2.136,4.109-2.136,7.161
		s1.293,5.012,1.293,10.59s-1.122,6.975-1.122,9.763c0,2.789,0.263,8.367,1.122,9.648c0.758,1.129,2.807,2.713,7.387,2.713
		c4.578,0,6.629-1.584,7.387-2.713c0.858-1.281,1.121-6.859,1.121-9.648c0-2.788-1.121-4.185-1.121-9.763S33.68,20.083,33.68,17.03z
		"/>
</g>
</svg>
