<?xml version="1.0" encoding="utf-8"?>
<!-- Generator: Adobe Illustrator 15.0.0, SVG Export Plug-In . SVG Version: 6.00 Build 0)  -->
<!DOCTYPE svg PUBLIC "-//W3C//DTD SVG 1.1//EN" "http://www.w3.org/Graphics/SVG/1.1/DTD/svg11.dtd">
<svg version="1.1" xmlns="http://www.w3.org/2000/svg" xmlns:xlink="http://www.w3.org/1999/xlink" x="0px" y="0px" width="30px"
	 height="30px" viewBox="0 0 30 30" enable-background="new 0 0 30 30" xml:space="preserve">
<g id="Capa_2" display="none">
	<rect display="inline" fill-rule="evenodd" clip-rule="evenodd" fill="#D8A81E" width="30" height="30"/>
</g>
<g id="Capa_1">
	<g>
		<g>
			<path fill-rule="evenodd" clip-rule="evenodd" fill="#020304" d="M25.756,17.734v4.563c0,1.008-0.439,1.212-1.459,1.212H6.241
				c-1.018,0-1.844-0.204-1.844-1.212v-9.121c0-0.699,0.027-1.289,0.612-1.595c0.551-1.41,1.31-2.719,2.253-3.878H5.858
				c-3.056,0-5.763,2.45-5.763,5.473v9.121c0,3.022,2.707,5.473,5.763,5.473h18.438c3.055,0,5.607-2.45,5.607-5.473v-7.298
				L25.756,17.734z M7.808,20.777c1.521-4.247,5.912-7.601,10.726-7.601V15c0,0.691,0.396,1.321,1.02,1.631
				c0.262,0.13,0.545,0.194,0.826,0.194c0.391,0,0.781-0.125,1.105-0.366l7.604-5.472c0.467-0.344,0.74-0.884,0.74-1.459
				s-0.273-1.115-0.74-1.459l-7.527-5.473c-0.324-0.242-0.715-0.366-1.105-0.366c-0.281,0-0.563,0.064-0.824,0.192
				c-0.625,0.31-1.02,0.94-1.02,1.633v1.824c-6.109,0-11.447,5.206-11.447,11.25C7.164,18.41,7.399,19.637,7.808,20.777z"/>
		</g>
	</g>
</g>
</svg>
