<?xml version="1.0" encoding="utf-8"?>
<!-- Generator: Adobe Illustrator 15.0.0, SVG Export Plug-In . SVG Version: 6.00 Build 0)  -->
<!DOCTYPE svg PUBLIC "-//W3C//DTD SVG 1.1//EN" "http://www.w3.org/Graphics/SVG/1.1/DTD/svg11.dtd">
<svg version="1.1" xmlns="http://www.w3.org/2000/svg" xmlns:xlink="http://www.w3.org/1999/xlink" x="0px" y="0px" width="30px"
	 height="30px" viewBox="0 0 30 30" enable-background="new 0 0 30 30" xml:space="preserve">
<g id="Capa_2" display="none">
	<rect display="inline" fill-rule="evenodd" clip-rule="evenodd" fill="#AAA618" width="30" height="30"/>
</g>
<g id="Capa_1">
	<g>
		<g>
			<path fill-rule="evenodd" clip-rule="evenodd" fill="#020304" d="M15,6.732c-5.538,0-10.216,2.945-10.216,6.43
				c0,0.254,0.207,0.459,0.464,0.459s0.465-0.205,0.465-0.459c0-2.936,4.34-5.512,9.287-5.512c0.256,0,0.464-0.205,0.464-0.458
				C15.464,6.938,15.256,6.732,15,6.732z M15,2.139c-8.208,0-14.859,4.937-14.859,11.024c0,3.792,2.581,7.133,6.508,9.118
				c0,0.027-0.007,0.042-0.007,0.069c0,1.646-1.244,3.42-1.79,4.351c0.001,0,0.001,0,0.001,0c-0.044,0.101-0.068,0.212-0.068,0.328
				c0,0.461,0.376,0.833,0.842,0.833c0.087,0,0.24-0.023,0.236-0.012c2.902-0.471,5.637-3.108,6.271-3.873
				c0.928,0.135,1.885,0.21,2.866,0.21c8.205,0,14.858-4.935,14.858-11.024C29.858,7.075,23.205,2.139,15,2.139z M15,22.35
				c-0.852,0-1.725-0.064-2.597-0.19c-0.09-0.014-0.181-0.019-0.27-0.019c-0.552,0-1.08,0.242-1.436,0.671
				c-0.396,0.479-1.528,1.546-2.865,2.333c0.362-0.822,0.646-1.745,0.665-2.694c0.005-0.06,0.008-0.118,0.008-0.17
				c0-0.689-0.391-1.321-1.012-1.635c-3.441-1.74-5.496-4.536-5.496-7.483C1.998,8.098,7.83,3.977,15,3.977
				c7.166,0,13,4.122,13,9.186C28,18.229,22.166,22.35,15,22.35z"/>
		</g>
	</g>
</g>
</svg>
