<?xml version="1.0" encoding="utf-8"?>
<!-- Generator: Adobe Illustrator 14.0.0, SVG Export Plug-In . SVG Version: 6.00 Build 43363)  -->
<!DOCTYPE svg PUBLIC "-//W3C//DTD SVG 1.1//EN" "http://www.w3.org/Graphics/SVG/1.1/DTD/svg11.dtd">
<svg version="1.1" id="Layer_1" xmlns="http://www.w3.org/2000/svg" xmlns:xlink="http://www.w3.org/1999/xlink" x="0px" y="0px"
	 width="30px" height="30px" viewBox="0 0 30 30" enable-background="new 0 0 30 30" xml:space="preserve">
<path d="M27.68,0.344c-0.019-0.001-0.036-0.001-0.053-0.001c-0.04,0-0.08,0.001-0.12,0.004c-0.224,0.015-0.437,0.071-0.632,0.159
	L1.521,11.372c-0.571,0.246-0.977,0.764-1.076,1.377c-0.1,0.613,0.121,1.234,0.584,1.646l3.926,3.479v8.769
	c0,0.377,0.232,0.715,0.585,0.848c0.104,0.04,0.213,0.06,0.322,0.06c0.254,0,0.502-0.107,0.677-0.304l3.948-4.442l6.865,6.102
	c0.336,0.299,0.767,0.458,1.205,0.458c0.15,0,0.303-0.02,0.45-0.057c0.584-0.149,1.056-0.579,1.259-1.147l9.05-25.344
	c0.079-0.204,0.124-0.425,0.124-0.658C29.44,1.172,28.657,0.373,27.68,0.344z M5.99,16.372l-3.754-3.333l21.417-9.179L5.99,16.372z
	 M6.77,24.257v-6.213l19.447-15.1L6.77,24.257z M18.558,27.55l-6.864-6.104L26.812,4.439L18.558,27.55z"/>
</svg>
