<?xml version="1.0" encoding="utf-8"?>
<!-- Generator: Adobe Illustrator 14.0.0, SVG Export Plug-In . SVG Version: 6.00 Build 43363)  -->
<!DOCTYPE svg PUBLIC "-//W3C//DTD SVG 1.1//EN" "http://www.w3.org/Graphics/SVG/1.1/DTD/svg11.dtd">
<svg version="1.1" id="Layer_1" xmlns="http://www.w3.org/2000/svg" xmlns:xlink="http://www.w3.org/1999/xlink" x="0px" y="0px"
	 width="30px" height="30px" viewBox="0 0 30 30" enable-background="new 0 0 30 30" xml:space="preserve">
<g>
	<g>
		<path fill-rule="evenodd" clip-rule="evenodd" fill="#020202" d="M25.95,0.543H4.033c-2.083,0-3.79,1.667-3.79,3.706v21.504
			c0,2.036,1.706,3.704,3.79,3.704H25.95c2.086,0,3.789-1.668,3.789-3.704V4.249C29.739,2.21,28.036,0.543,25.95,0.543z
			 M21.316,5.081c0-0.602,0.503-1.097,1.119-1.097h2.678c0.615,0,1.12,0.495,1.12,1.097v2.62c0,0.604-0.505,1.096-1.12,1.096h-2.678
			c-0.616,0-1.119-0.493-1.119-1.096V5.081z M14.992,8.804c3.491,0,6.321,2.771,6.321,6.189c0,3.417-2.83,6.188-6.321,6.188
			c-3.49,0-6.319-2.771-6.319-6.188C8.673,11.575,11.502,8.804,14.992,8.804z M26.952,25.55c0,0.633-0.527,1.146-1.174,1.146H4.237
			c-0.646,0-1.173-0.513-1.173-1.146V12.923h3.04c-0.159,0.662-0.252,1.349-0.252,2.059c0,4.948,4.098,8.961,9.151,8.961
			c5.056,0,9.151-4.013,9.151-8.961c0-0.711-0.103-1.396-0.262-2.059h3.061V25.55z"/>
	</g>
</g>
</svg>
