<?xml version="1.0" standalone="no"?>
<!DOCTYPE svg PUBLIC "-//W3C//DTD SVG 1.1//EN" "http://www.w3.org/Graphics/SVG/1.1/DTD/svg11.dtd" >
<svg>
<metadata>
Created by FontForge 20090914 at Tue Jul 15 18:53:51 2014
 By www-data
FREE FOR PERSONAL USE
</metadata>
<defs>
<font id="WolfintheCity" horiz-adv-x="215" >
  <font-face 
    font-family="Wolf in the City"
    font-weight="400"
    font-style="italic"
    font-stretch="normal"
    units-per-em="1000"
    panose-1="2 0 0 0 0 0 0 0 0 0"
    ascent="750"
    descent="-250"
    x-height="262.001"
    cap-height="429"
    bbox="-860.001 -182.997 1090 545.005"
    underline-thickness="50"
    underline-position="-50"
    slope="-12"
    unicode-range="U+0020-U+FB02"
  />
<missing-glyph horiz-adv-x="120" 
 />
    <glyph glyph-name=".notdef" horiz-adv-x="120" 
 />
    <glyph glyph-name="space" unicode=" " horiz-adv-x="120" 
 />
    <glyph glyph-name="exclam" unicode="!" horiz-adv-x="240" 
d="M70 51c0 -0.666992 0.332031 -1.33301 0.999023 -2c1.33301 -2.66699 2 -5 2 -7c0 -2.66699 -2.66699 -6.66699 -8 -12s-8 -15.333 -8 -30c0 -2.66699 0.333008 -4.66699 1 -6h-7.5c-3 0 -6 0.5 -9 1.5s-5.66699 2.5 -8 4.5s-3.5 5.33301 -3.5 10s1.5 8.66699 4.5 12
s4.5 12.333 4.5 27c0 2.66699 -0.666992 5.33398 -2 8.00098c4.66699 0 9.33398 -0.333008 14.001 -1c3.33301 -0.666992 7 -1.33398 11 -2.00098s6.66699 -1.66699 8 -3zM148.999 500.001c3.33301 0.666992 9.00195 -0.000976562 17.002 -2.00098s15.667 -6 23 -12
s13.166 -13.833 17.499 -23.5s4.5 -21.5 0.5 -35.5l-9 -31c-21.333 -60.667 -40.666 -112.167 -57.999 -154.5s-32 -76.666 -44 -102.999s-21.333 -45.5 -28 -57.5s-9.66699 -18 -9 -18c-2.66699 0 -4.33398 0.333008 -5.00098 1s-1 1.33398 -1 2.00098
c0 4 1.83301 13.833 5.5 29.5s8.5 34.834 14.5 57.501l19.5 74l20.5 78.5l18 72c5.33301 22.333 9.33301 40.5 12 54.5c1.33301 5.33301 2.66602 12.166 3.99902 20.499s2 24.166 2 47.499z" />
    <glyph glyph-name="quotesingle" unicode="'" horiz-adv-x="96" 
d="M108 422c1.33301 0 2.49707 0.167969 3.49707 0.500977s2.16699 0.5 3.5 0.5c9.33301 0 15.833 -3.16699 19.5 -9.5s5.5 -13.166 5.5 -20.499c0 -16 -3.83301 -30.5 -11.5 -43.5s-16.167 -24 -25.5 -33s-18.166 -15.833 -26.499 -20.5s-13.166 -7 -14.499 -7
c1.33301 -0.666992 1.33301 -0.333984 0 0.999023s-2 3 -2 5c0.666992 1.33301 3.83398 4 9.50098 8s12.167 11 19.5 21c8.66699 11.333 14.167 22 16.5 32s3.5 18.667 3.5 26c0 5.33301 -0.333008 11.666 -1 18.999s-1.66699 14.333 -3 21h3z" />
    <glyph glyph-name="parenleft" unicode="(" horiz-adv-x="161" 
d="M154 386c-16 -34 -30.002 -72.168 -42.002 -114.501s-20 -83.333 -24 -123s-3.16699 -75.167 2.5 -106.5s17.834 -53 36.501 -65c17.333 -12 24.5 -20.667 21.5 -26s-13.5 -1.66602 -31.5 11.001c-18.667 12.667 -33.167 29.667 -43.5 51s-17.666 45.166 -21.999 71.499
s-5.5 54.166 -3.5 83.499s6.16699 58.166 12.5 86.499s14.5 55.5 24.5 81.5s21.333 48.667 34 68c11.333 18.667 20.666 32.334 27.999 41.001s15 10.334 23 5.00098c5.33301 -2.66699 6.33301 -8.66699 3 -18s-9.66602 -24.666 -18.999 -45.999z" />
    <glyph glyph-name="parenright" unicode=")" horiz-adv-x="98" 
d="M-14 386c-9.33301 21.333 -15.668 36.667 -19.001 46s-2.33301 15.333 3 18c8 5.33301 15.667 3.66602 23 -5.00098s16.666 -22.334 27.999 -41.001c12.667 -19.333 24 -42 34 -68s18.167 -53.167 24.5 -81.5s10.5 -57.166 12.5 -86.499s0.833008 -57.166 -3.5 -83.499
s-11.666 -50.166 -21.999 -71.499s-24.833 -38.333 -43.5 -51c-18 -12.667 -28.5 -16.334 -31.5 -11.001s4.16699 14 21.5 26c18.667 12 30.834 33.667 36.501 65s6.5 66.833 2.5 106.5s-12 80.667 -24 123s-26 80.5 -42 114.5z" />
    <glyph glyph-name="asterisk" unicode="*" horiz-adv-x="132" 
d="M128 370c4.66699 12 7.66895 19.166 9.00195 21.499s2 4.5 2 6.5c0 9.33301 -2.66699 14.333 -8 15s-8.33301 1.66699 -9 3c0 -4 -1.33301 -10.167 -4 -18.5s-6 -17.5 -10 -27.5c-14 -0.666992 -24 -1.16699 -30 -1.5s-10 -0.666016 -12 -0.999023s-3 -0.833008 -3 -1.5
s-1 -1.66699 -3 -3c-1.33301 -1.33301 -2 -4 -2 -8v-6c0 -1.33301 0.333008 -2 1 -2c2.66699 1.33301 7.66699 2.33301 15 3s15.666 1 24.999 1c-4 -10 -7 -17.167 -9 -21.5s-3.33301 -7.16602 -4 -8.49902l-1 -2v-1c0 -6.66699 3.16699 -11 9.5 -13l12.5 -4
c0 2 1.33301 7.83301 4 17.5s6 20.167 10 31.5c6 0 11.333 -0.166992 16 -0.5s8.66699 -0.5 12 -0.5c3.33301 -0.666992 6.66602 -1 9.99902 -1c5.33301 0 8.66602 1 9.99902 3s2 4.33301 2 7v17c-1.33301 -1.33301 -6.16602 -2.33301 -14.499 -3
s-17.833 -1.33398 -28.5 -2.00098zM96.002 357.999l-22.9961 16.499c-6.66699 5 -11.334 7.16699 -14.001 6.5c1.33301 0.666992 2.66602 2 3.99902 4c1.33301 1.33301 2.5 2.83301 3.5 4.5s2.16699 3.16699 3.5 4.5c1.33301 2 3.16602 3.5 5.49902 4.5
s5.83301 -0.166992 10.5 -3.5c1.33301 -2 3.33301 -4.33301 6 -7c3.33301 -4.66699 10.666 -11.334 21.999 -20.001l27 19.5c8 5.66699 12.667 9.16699 14 10.5c1.33301 -1.33301 4 -4.66602 8 -9.99902s3.33301 -10.666 -2 -15.999c0 -0.666992 0.166992 -1 0.5 -1
s-0.166992 -0.333008 -1.5 -1s-4.16602 -2 -8.49902 -4s-11.5 -5.66699 -21.5 -11c7.33301 -6 14.166 -11 20.499 -15s10.833 -6.33301 13.5 -7c0 -1.33301 -0.333008 -2.33301 -1 -3c-0.666992 -1.33301 -1.66699 -2.66602 -3 -3.99902
c-3.33301 -3.33301 -5.66602 -5 -6.99902 -5c-2 0 -3.16699 -0.166992 -3.5 -0.5s-1.5 0 -3.5 1s-5.5 3.33301 -10.5 7l-24.5 17.5c-9.33301 -5.33301 -17.5 -10.5 -24.5 -15.5s-12.167 -9.16699 -15.5 -12.5c0.666992 0.666992 0.333984 1.66699 -0.999023 3s-2.5 3 -3.5 5
s-1.5 4.5 -1.5 7.5s1.66699 6.16699 5 9.5c1.33301 1.33301 3.16602 2.66602 5.49902 3.99902s9.16602 5 20.499 11z" />
    <glyph glyph-name="plus" unicode="+" horiz-adv-x="238" 
d="M141 215c16.667 0.666992 31.499 1.5 44.499 2.5s20.5 2.5 22.5 4.5v-9c0 -2.66699 0.166992 -5.33398 0.5 -8.00098s0.5 -5.66699 0.5 -9c0 -4 -1 -7.66699 -3 -11s-7.33301 -5 -16 -5c-4.66699 0 -10 0.333008 -16 1c-5.33301 0.666992 -11.833 1 -19.5 1
s-16.167 0.333008 -25.5 1l-15.5 -50c-4.33301 -14.667 -6.5 -23.667 -6.5 -27c-1.33301 0 -4 0.5 -8 1.5s-8 2.5 -12 4.5s-7.5 4.5 -10.5 7.5s-4.5 7.16699 -4.5 12.5c0 1.33301 0 1.83301 0 1.5s0.5 0.5 1.5 2.5l6.5 13.5c3.33301 7 8.33301 18.5 15 34.5
c-14.667 0 -28 -0.333008 -40 -1s-20 -2.33398 -24 -5.00098c-0.666992 1.33301 -1 2.66602 -1 3.99902c-0.666992 1.33301 -1 4 -1 8c0 6 1.33301 10.667 4 14c2.66699 2 4 3.33301 4 4s1.66699 1.33398 5 2.00098s9.66602 1.16699 18.999 1.5s25 1.16602 47 2.49902
c6.66699 16 12.167 30.5 16.5 43.5s6.5 22.833 6.5 29.5c0.666992 -1.33301 2.33398 -2.16602 5.00098 -2.49902s5.5 -1.16602 8.5 -2.49902s5.83301 -3.83301 8.5 -7.5s4 -9.16699 4 -16.5c0 -1.33301 -0.166992 -2.5 -0.5 -3.5s-1 -2.83301 -2 -5.5
s-2.66699 -6.66699 -5 -12s-5.16602 -12.666 -8.49902 -21.999z" />
    <glyph glyph-name="comma" unicode="," horiz-adv-x="212" 
d="M108 36c0 -0.666992 0.334961 -1.33105 1.00195 -1.99805c0 -0.666992 0.166992 -1.33398 0.5 -2.00098s0.5 -1.66699 0.5 -3c0 -2 -1.33301 -7.5 -4 -16.5s-6.33398 -18.5 -11.001 -28.5s-10.334 -19 -17.001 -27s-14.334 -12 -23.001 -12c-4.66699 0 -8 2.66699 -10 8
c11.333 11.333 19.333 24.166 24 38.499s7 27.5 7 39.5c0 2 -0.166992 4 -0.5 6s-0.5 4 -0.5 6c4.66699 0 9.33398 -0.333008 14.001 -1c3.33301 -0.666992 7 -1.5 11 -2.5s6.66699 -2.16699 8 -3.5z" />
    <glyph glyph-name="hyphen" unicode="-" horiz-adv-x="248" 
d="M65 213c25.333 0 48.665 0.332031 69.998 0.999023c18 0.666992 34.833 1.5 50.5 2.5s24.5 2.83301 26.5 5.5v-9c0 -2.66699 0.166992 -5.5 0.5 -8.5s0.5 -6.16699 0.5 -9.5c0 -4 -1.16699 -7.5 -3.5 -10.5s-8.16602 -4.5 -17.499 -4.5
c-10 0.666992 -20.667 1.33398 -32 2.00098c-9.33301 0.666992 -19.833 1.16699 -31.5 1.5s-23.167 0.5 -34.5 0.5c-13.333 0 -25.5 -0.5 -36.5 -1.5s-18.5 -2.5 -22.5 -4.5l-2 6c-0.666992 2 -1 6 -1 12c0 3.33301 1.83301 7 5.5 11s12.834 6 27.501 6z" />
    <glyph glyph-name="period" unicode="." horiz-adv-x="107" 
d="M74 16c0 -0.666992 0.332031 -1.33301 0.999023 -2c0 -0.666992 0.166992 -1.33398 0.5 -2.00098s0.5 -1.66699 0.5 -3c0 -3.33301 -2.5 -7.5 -7.5 -12.5s-7.5 -14.833 -7.5 -29.5c0 -3.33301 0.333008 -5.66602 1 -6.99902h-6c-3.33301 0 -8 0.5 -14 1.5
s-9 5.83301 -9 14.5c0 4.66699 1.66699 9 5 13s5 13 5 27c0 2 -0.666992 4.33301 -2 7c4.66699 0 9.33398 -0.333008 14.001 -1c3.33301 -0.666992 7 -1.5 11 -2.5s6.66699 -2.16699 8 -3.5z" />
    <glyph glyph-name="slash" unicode="/" horiz-adv-x="226" 
d="M197 370c-9.33301 -30.667 -20.0029 -61.999 -32.0029 -93.999l-36 -94l-35 -87l-30.5 -71.5l-21 -48.5c-5 -12 -7.16699 -18 -6.5 -18c-1.33301 0 -2.66602 0.333008 -3.99902 1c-1.33301 0 -2.66602 0.666992 -3.99902 2c-0.666992 0.666992 -1 1.33398 -1 2.00098
l10.5 40.5l20 77l25 95l24.5 95.5l19 77.5c5.33301 21.667 8.33301 35.167 9 40.5c0.666992 6 1.33398 13.333 2.00098 22s1 15.667 1 21c6 -3.33301 13.333 -5.83301 22 -7.5s16.667 -4.33398 24 -8.00098s12.5 -8.83398 15.5 -15.501s2.16699 -16.667 -2.5 -30z" />
    <glyph glyph-name="zero" unicode="0" horiz-adv-x="397" 
d="M151 436c20 9.33301 40.999 13.998 62.999 13.998c26.667 0 49.5 -5.5 68.5 -16.5s34.5 -25 46.5 -42s20.667 -36.167 26 -57.5s8 -42 8 -62c0 -18.667 -1.66699 -39.667 -5 -63s-8.66602 -46.833 -15.999 -70.5s-16.5 -46.667 -27.5 -69s-24.333 -42.166 -40 -59.499
s-33.5 -31.333 -53.5 -42s-42.667 -16 -68 -16s-45.833 6.33301 -61.5 19s-27.667 27.834 -36 45.501s-14 36 -17 55s-4.5 35.167 -4.5 48.5c0 29.333 2.83301 55.5 8.5 78.5s12 42.333 19 58s13.5 27.834 19.5 36.501s9 13.667 9 15c0 0.666992 0.333008 1.33398 1 2.00098
c2 2 3.33301 3 4 3c1.33301 0 2.5 -0.666992 3.5 -2s1.5 -2.66602 1.5 -3.99902c0 -2.66699 -2.16699 -8.66699 -6.5 -18s-9.33301 -21.5 -15 -36.5s-10.667 -32.833 -15 -53.5s-6.5 -43.334 -6.5 -68.001c0 -14 1.5 -29.333 4.5 -46s8.16699 -32.334 15.5 -47.001
s17 -26.834 29 -36.501s27 -14.5 45 -14.5c25.333 0 47.833 8.66699 67.5 26s36.167 39 49.5 65s23.333 54.333 30 85s10 59.334 10 86.001c0 26 -2.33301 47.833 -7 65.5s-11 31.667 -19 42s-17.333 17.666 -28 21.999s-22 6.5 -34 6.5c-10 0 -18.833 -1.16699 -26.5 -3.5
s-13.167 -4.5 -16.5 -6.5c-5.33301 -3.33301 -9.83301 -6 -13.5 -8s-7.16699 -3 -10.5 -3c-6 0 -12 2.66699 -18 8s-11.167 11.166 -15.5 17.499s-7.83301 12.333 -10.5 18s-4 8.83398 -4 9.50098c3.33301 0.666992 7.5 2.16699 12.5 4.5s10 4.5 15 6.5
s9.33301 3.83301 13 5.5z" />
    <glyph glyph-name="one" unicode="1" horiz-adv-x="296" 
d="M247 452c9.33301 0 14.4922 -4.66992 15.4922 -14.0029s0.166992 -20.666 -2.5 -33.999c-3.33301 -21.333 -6.83301 -42.166 -10.5 -62.499s-7.5 -40.166 -11.5 -59.499c-24 -110 -43.333 -190.333 -58 -241s-22.667 -76 -24 -76c-2 0 -3.33301 0.666992 -4 2
s-1 2.33301 -1 3c0 6 1.66699 18.167 5 36.5l12.5 68.5l16.5 93c6 34.667 11.667 71 17 109c-9.33301 -22 -18.666 -42.667 -27.999 -62s-18.166 -36.833 -26.499 -52.5s-16 -29 -23 -40s-12.5 -18.5 -16.5 -22.5l1 -1c-8 -8.66699 -15 -13.834 -21 -15.501
s-10 -2.5 -12 -2.5c-5.33301 0 -11 1.5 -17 4.5s-11.667 6.5 -17 10.5s-9.83301 7.66699 -13.5 11s-5.5 5.33301 -5.5 6c12.667 6 25.334 17 38.001 33s25.334 35 38.001 57s25.334 45.667 38.001 71s25.667 50 39 74l34 63c0.666992 2 2.33398 5.16699 5.00098 9.5
s5.83398 8.83301 9.50098 13.5s7.33398 8.83398 11.001 12.501s7.5 5.5 11.5 5.5z" />
    <glyph glyph-name="two" unicode="2" horiz-adv-x="441" 
d="M319 257c4.66699 -0.666992 11.166 -4.16602 19.499 -10.499s16.166 -15.333 23.499 -27s13.833 -25.167 19.5 -40.5s8.5 -32.333 8.5 -51c0 -19.333 -3.83301 -40.833 -11.5 -64.5s-19.334 -45.667 -35.001 -66s-35.667 -37.333 -60 -51s-53.166 -20.5 -86.499 -20.5
c-17.333 0 -35 3.33301 -53 10s-34.5 16.5 -49.5 29.5s-27.167 28.833 -36.5 47.5s-14 40 -14 64c0 26 4.83301 49.833 14.5 71.5s21.5 41.167 35.5 58.5s28.667 32.833 44 46.5l40 36.5l80.5 73c23 20.667 40.167 35.334 51.5 44.001c-12 5.33301 -25.333 8 -40 8
c-18.667 0 -37 -3.66699 -55 -11s-35 -15.5 -51 -24.5l-45 -24.5c-14 -7.33301 -26 -11 -36 -11c-6 0 -11.833 2.33301 -17.5 7s-10.667 10 -15 16s-7.83301 11.5 -10.5 16.5s-4 8.16699 -4 9.5c8 1.33301 18 4.66602 30 9.99902c22.667 10.667 49.834 20.834 81.501 30.501
s62.834 14.5 93.501 14.5c18 0 34.5 -2.66699 49.5 -8s27.833 -12 38.5 -20s19 -16.667 25 -26s9 -18.333 9 -27c0 -2 -0.333008 -3.33301 -1 -4h-1l-50 -39.5l-56.5 -45l-59 -48.5c-19.667 -16.667 -38.834 -34 -57.501 -52c-14.667 -14 -26.667 -30.833 -36 -50.5
s-14 -39.167 -14 -58.5c0 -15.333 3.16699 -29.5 9.5 -42.5s14.666 -24.333 24.999 -34s22.333 -17.334 36 -23.001s28.167 -8.5 43.5 -8.5c28 0 52.5 5.66699 73.5 17s38.5 25.833 52.5 43.5s24.5 36.667 31.5 57s10.5 39.5 10.5 57.5c0 20.667 -3 38 -9 52
s-12.5 25.167 -19.5 33.5s-13.333 14.5 -19 18.5s-8.5 6.33301 -8.5 7l-2 2c-1.33301 1.33301 -2 2.66602 -2 3.99902c0 3.33301 1.33301 5 4 5c0.666992 0 1.33398 -0.166992 2.00098 -0.5s1.33398 -0.5 2.00098 -0.5h1v0z" />
    <glyph glyph-name="three" unicode="3" horiz-adv-x="453" 
d="M274 304c12.667 0 26.5039 -2.33594 41.5039 -7.00293s29.167 -12.667 42.5 -24s24.5 -26.166 33.5 -44.499s13.5 -41.5 13.5 -69.5c0 -23.333 -4.66699 -46.5 -14 -69.5s-22.333 -43.667 -39 -62s-37 -33.166 -61 -44.499s-50.333 -17 -79 -17c-26.667 0 -50 5 -70 15
s-36.833 22.5 -50.5 37.5s-23.834 31.5 -30.501 49.5s-10 35 -10 51c0 15.333 0.666992 27 2 35s2.66602 14.833 3.99902 20.5l4 17c1.33301 5.66699 2 13.834 2 24.501c0 2.66699 -0.166992 4.83398 -0.5 6.50098s-0.5 3.16699 -0.5 4.5
c1.33301 -1.33301 5.5 -2.33301 12.5 -3s14.333 -2.16699 22 -4.5s14.667 -6.5 21 -12.5s9.5 -15.333 9.5 -28c0 -5.33301 -0.333008 -9.33301 -1 -12h-1c-6.66699 -18.667 -10 -36.667 -10 -54c0 -11.333 1.83301 -22.833 5.5 -34.5s9.66699 -22.334 18 -32.001
s19.333 -17.5 33 -23.5s30.5 -9 50.5 -9c20.667 0 40.334 4 59.001 12s35 19.167 49 33.5s25 31.166 33 50.499s12 40.333 12 63c0 32.667 -8.5 59.834 -25.5 81.501s-41.5 32.5 -73.5 32.5c-13.333 0 -24 -1.66699 -32 -5s-12.667 -5 -14 -5
c-0.666992 0 -2.16699 0.166992 -4.5 0.5s-3.5 2.16602 -3.5 5.49902c0 4 1.33301 6.33301 4 7s8 3.66699 16 9s19.167 15 33.5 29s33.166 36.333 56.499 67l3 4c-20.667 -4.66699 -41.334 -11 -62.001 -19s-39.334 -15.833 -56.001 -23.5s-30.667 -14.5 -42 -20.5
s-18 -9.33301 -20 -10v-1c-7.33301 -4 -13.333 -6.66699 -18 -8s-8.66699 -2 -12 -2c-6 0 -12 2.33301 -18 7s-11.167 9.66699 -15.5 15s-8 10.5 -11 15.5s-4.5 7.83301 -4.5 8.5c3.33301 0.666992 7.83301 2.16699 13.5 4.5s11.167 5.16602 16.5 8.49902
c6.66699 3.33301 13.334 7 20.001 11h1c16 7.33301 33.5 14.833 52.5 22.5s39 14.5 60 20.5s42.5 11 64.5 15s43.667 6 65 6c0.666992 0 2.5 -0.166992 5.5 -0.5s6.16699 -1.16602 9.5 -2.49902s6.66602 -3.5 9.99902 -6.5s5.66602 -6.83301 6.99902 -11.5
c-10 -14.667 -20.667 -28.334 -32 -41.001s-22.666 -24.167 -33.999 -34.5s-22.333 -19.666 -33 -27.999s-20 -15.166 -28 -20.499z" />
    <glyph glyph-name="four" unicode="4" horiz-adv-x="387" 
d="M355 6c0.666992 0 1.33008 -0.332031 1.99707 -0.999023c1.33301 -1.33301 2 -3 2 -5c0 -4.66699 -8.5 -7.33398 -25.5 -8.00098s-40.5 -1.66699 -70.5 -3c-4.66699 -14 -8.33398 -25.333 -11.001 -34l-6 -19.5c-1.33301 -4.33301 -2.66602 -7.33301 -3.99902 -9
s-3 -2.5 -5 -2.5c-3.33301 0.666992 -5.33301 2.33398 -6 5.00098s-1 7 -1 13v20.5c0 7.66699 0.333008 16.167 1 25.5c-32 -2 -67.667 -3 -107 -3c-0.666992 0 -5.66699 0.166992 -15 0.5s-19.5 2.66602 -30.5 6.99902s-21 11.5 -30 21.5s-13.5 24.667 -13.5 44
c0 7.33301 0.5 13.833 1.5 19.5s2.16699 10.834 3.5 15.501c14 41.333 30.5 79.333 49.5 114s37.167 65.334 54.5 92.001s32.833 48.834 46.5 66.501s22.167 29.834 25.5 36.501c2.66699 4 6.66699 10.833 12 20.5s8.66602 17.5 9.99902 23.5
c0.666992 0 3.33398 -1.5 8.00098 -4.5s9.66699 -7 15 -12s10.333 -10.5 15 -16.5s7 -12 7 -18c0 -7.33301 -2.66699 -15.333 -8 -24l-61 -76.5c-21.333 -27 -42.666 -55.833 -63.999 -86.5l-25.5 -36.5c-9 -13 -17.333 -26.333 -25 -40s-14 -27.167 -19 -40.5
s-7.5 -26 -7.5 -38c0 -16 7.66699 -26.333 23 -31c25.333 -3.33301 49.333 -5.83301 72 -7.5s44 -3.16699 64 -4.5c0.666992 22.667 1.83398 41.667 3.50098 57s3.16699 28.5 4.5 39.5l3.5 30c1 9 1.5 18.5 1.5 28.5c0 2 -0.166992 4 -0.5 6s-0.5 3.66699 -0.5 5
c0.666992 -0.666992 4.5 -1.33398 11.5 -2.00098s14.5 -2.5 22.5 -5.5s15.167 -7.33301 21.5 -13s9.5 -13.834 9.5 -24.501c0 -4.66699 -0.333008 -8.33398 -1 -11.001h1c-7.33301 -14 -14.166 -31.333 -20.499 -52s-12.833 -40.334 -19.5 -59.001c26 -2 47 -3 63 -3h23v0z
" />
    <glyph glyph-name="five" unicode="5" horiz-adv-x="443" 
d="M272 293c4 0 12.8291 -0.669922 26.4961 -2.00293s27.834 -6 42.501 -14s27.834 -20.5 39.501 -37.5s17.5 -41.167 17.5 -72.5c0 -20.667 -4.16699 -42.667 -12.5 -66s-20.333 -44.833 -36 -64.5s-35 -36 -58 -49s-49.167 -19.5 -78.5 -19.5s-54.833 5.5 -76.5 16.5
s-39.5 25.167 -53.5 42.5s-24.333 37 -31 59s-10 44 -10 66c0 20 1.5 35 4.5 45s6.33301 18.5 10 25.5s7.16699 14.667 10.5 23s5.66602 20.833 6.99902 37.5c1.33301 0 4.83301 -1.33301 10.5 -4s11.667 -6 18 -10s12 -9 17 -15s7.5 -12.667 7.5 -20
c0 -3.33301 -0.333008 -7 -1 -11s-2 -8.66699 -4 -14h-1c-4.66699 -9.33301 -8.83398 -20.5 -12.501 -33.5s-5.5 -26.833 -5.5 -41.5c0 -15.333 2.66699 -30.166 8 -44.499s12.833 -27 22.5 -38s21.667 -20 36 -27s30.5 -10.5 48.5 -10.5c22 0 42.333 4.83301 61 14.5
s34.834 22.167 48.501 37.5s24.5 33 32.5 53s12 40 12 60c0 22 -4.16699 39.5 -12.5 52.5s-18 23.167 -29 30.5s-22 12.166 -33 14.499s-18.833 3.5 -23.5 3.5c-6.66699 0 -16.167 -0.833008 -28.5 -2.5s-29.166 -2.5 -50.499 -2.5c-4 0 -10.667 0.666992 -20 2
s-18.833 4.33301 -28.5 9s-18.167 11.334 -25.5 20.001s-11 20.334 -11 35.001c0 10 1.83301 18.833 5.5 26.5s6.16699 15.167 7.5 22.5c6 17.333 12.667 30.166 20 38.499s14.5 14 21.5 17s13.333 4.33301 19 4s9.16699 -0.166016 10.5 0.500977
c18 -1.33301 34 -2.16602 48 -2.49902s27.5 -0.5 40.5 -0.5h38.5h42c8.66699 0 14.334 0.333008 17.001 1c-2 -2 -2.83301 -6.5 -2.5 -13.5s-0.5 -14.5 -2.5 -22.5s-6.5 -15.167 -13.5 -21.5s-18.5 -9.5 -34.5 -9.5h-1c-8 0 -16.833 1 -26.5 3s-19.5 4.16699 -29.5 6.5
s-20.167 4.5 -30.5 6.5s-20.166 3 -29.499 3c-17.333 0 -32 -4.5 -44 -13.5s-18.667 -26.167 -20 -51.5c2 -10.667 6.66699 -18.5 14 -23.5s15.5 -8.5 24.5 -10.5s17.833 -3 26.5 -3s15.667 -0.666992 21 -2c20.667 -2 34 -3 40 -3z" />
    <glyph glyph-name="six" unicode="6" horiz-adv-x="427" 
d="M217 305c4 1.33301 8.00293 2.33203 12.0029 2.99902s8.66699 1 14 1c17.333 0 34.5 -3.33301 51.5 -10s32.167 -16.5 45.5 -29.5s24.166 -28.833 32.499 -47.5s12.5 -40 12.5 -64s-4.66699 -47.5 -14 -70.5s-22.333 -43.5 -39 -61.5s-36.5 -32.333 -59.5 -43
s-48.167 -16 -75.5 -16c-19.333 0 -37.833 3.5 -55.5 10.5s-33.167 17 -46.5 30s-24 28.667 -32 47s-12 38.5 -12 60.5s3.33301 42.667 10 62s13 36.666 19 51.999c20.667 38 38.834 68.833 54.501 92.5s29.167 43 40.5 58l28 37c7.33301 9.66699 12.666 19.5 15.999 29.5
l7.5 -4.5c5 -3 10.167 -7 15.5 -12s10.333 -10.5 15 -16.5s7 -12 7 -18c0 -11.333 -6.83301 -24.666 -20.5 -39.999s-28.167 -32.666 -43.5 -51.999c3.33301 0.666992 6.16602 1.16699 8.49902 1.5s5.16602 0.5 8.49902 0.5zM349.003 131.999c2 10 3 20.332 3 30.999
c0 36 -10.167 65 -30.5 87s-50.5 33 -90.5 33c-18 0 -35.667 -2.66699 -53 -8c-19.333 -26 -36.333 -53.833 -51 -83.5s-22 -61.5 -22 -95.5c0 -12 2.66699 -23.167 8 -33.5s12.5 -19.333 21.5 -27s19.5 -13.667 31.5 -18s24.667 -6.5 38 -6.5
c16.667 0 33.167 3.16699 49.5 9.5s31 15 44 26s24.167 23.833 33.5 38.5s15.333 30.334 18 47.001z" />
    <glyph glyph-name="seven" unicode="7" horiz-adv-x="391" 
d="M321 456c3.33301 -2 7.33496 -4.16895 12.002 -6.50195s9.33398 -5 14.001 -8s8.5 -7 11.5 -12s4.5 -10.833 4.5 -17.5c0 -6 -1.5 -12.833 -4.5 -20.5s-6.5 -15.167 -10.5 -22.5s-8.33301 -14.666 -13 -21.999l-12 -19l-107 -163.5l-77.5 -110l-47.5 -63
c-10.667 -13.667 -16 -21.167 -16 -22.5c-2.66699 0 -4.33398 1 -5.00098 3c-0.666992 0.666992 -1 1.66699 -1 3c0 4 6.33301 16.5 19 37.5l48 79.5l64 106.5c23.333 39 45.666 78.167 66.999 117.5l24.5 45c7.66699 14.667 14.167 29 19.5 43
c-5.33301 2 -13 3.83301 -23 5.5s-20.333 2.5 -31 2.5c-4.66699 0 -9 -0.166992 -13 -0.5s-7.66699 -0.833008 -11 -1.5c-26 -2.66699 -47.833 -6.16699 -65.5 -10.5s-32.5 -8.66602 -44.5 -12.999s-21.5 -8 -28.5 -11s-12.5 -4.5 -16.5 -4.5
c-8.66699 0 -16 2.83301 -22 8.5s-10.833 12 -14.5 19s-6.5 13.5 -8.5 19.5s-3.33301 9.66699 -4 11c3.33301 0 8.16602 0.5 14.499 1.5s12.166 2.16699 17.499 3.5l21 6c22 6.66699 45.833 13 71.5 19s52.834 9 81.501 9c27.333 0 56 -4 86 -12z" />
    <glyph glyph-name="eight" unicode="8" horiz-adv-x="406" 
d="M257 318c11.333 -8 23.3311 -17.1738 35.998 -27.5068s24.5 -22.166 35.5 -35.499s20.167 -28.333 27.5 -45s11 -35.334 11 -56.001c0 -30 -4.16699 -56.667 -12.5 -80s-19.666 -42.666 -33.999 -57.999s-31.5 -27 -51.5 -35s-41.667 -12 -65 -12
c-24 0 -45.167 4.5 -63.5 13.5s-33.666 20.5 -45.999 34.5s-21.5 29.5 -27.5 46.5s-9 33.167 -9 48.5c0 23.333 4.16699 45 12.5 65s17.166 36.667 26.499 50c8.66699 12 17.334 21.333 26.001 28s16.5 11.834 23.5 15.501s12.667 5.83398 17 6.50098s6.83301 1 7.5 1
c2.66699 0 4 -1.66699 4 -5c0 -2 -3.16699 -4.16699 -9.5 -6.5s-13.833 -7 -22.5 -14s-17.834 -17 -27.501 -30s-17.5 -30.5 -23.5 -52.5c-6 -14 -9 -28.333 -9 -43s2.5 -29 7.5 -43s12.333 -26.5 22 -37.5s21.334 -19.833 35.001 -26.5s29.167 -10 46.5 -10
c20.667 0 38.5 3.66699 53.5 11s27.333 17 37 29s16.667 26 21 42s6.5 33 6.5 51c0 20 -4.66699 37.167 -14 51.5s-20 26.5 -32 36.5s-23.667 18.333 -35 25s-19 12 -23 16h-1c-11.333 11.333 -22.5 23.666 -33.5 36.999s-16.5 30 -16.5 50c0 16 3.33301 29.5 10 40.5
s15 20 25 27s20.833 12.167 32.5 15.5s22.5 5 32.5 5c14 0 25.667 -2.16699 35 -6.5s17 -9.83301 23 -16.5s10.333 -13.667 13 -21s4 -14.333 4 -21c0 -10 -1.16699 -17.667 -3.5 -23s-4.83301 -9.16602 -7.5 -11.499s-5.16699 -3.66602 -7.5 -3.99902
s-3.5 -0.833008 -3.5 -1.5s0.333008 -1 1 -1c-0.666992 0 -1.66699 1.33301 -3 4s-2 4.33398 -2 5.00098v1c0.666992 0.666992 1.33398 2.33398 2.00098 5.00098c0.666992 2 1.33398 4.33301 2.00098 7s1 6 1 10c0 8.66699 -2.83301 16.834 -8.5 24.501
s-16.834 11.5 -33.501 11.5c-10 0 -18.667 -1.5 -26 -4.5s-13.333 -6.66699 -18 -11s-8 -8.83301 -10 -13.5s-3 -8.33398 -3 -11.001c0 -11.333 5.16699 -21.166 15.5 -29.499s20.166 -15.5 29.499 -21.5z" />
    <glyph glyph-name="nine" unicode="9" horiz-adv-x="395" 
d="M226 445c16.667 -0.666992 32.9961 -4.00488 48.9961 -10.0049s30.333 -14.667 43 -26s23 -25.166 31 -41.499s12 -35.166 12 -56.499c0 -23.333 -3.5 -45.5 -10.5 -66.5s-15.5 -40.833 -25.5 -59.5s-21 -35.667 -33 -51l-33 -41c-36.667 -42.667 -68.667 -78 -96 -106
s-46.333 -46.667 -57 -56l-1 -1c-0.666992 0 -1.66699 -0.666992 -3 -2c-6 -5.33301 -11.333 -8.5 -16 -9.5s-8 -1.5 -10 -1.5c-6 0 -12.167 1.83301 -18.5 5.5s-12.166 7.66699 -17.499 12s-9.66602 8.33301 -12.999 12s-5 5.83398 -5 6.50098
c3.33301 1.33301 7.33301 3.83301 12 7.5l14 10.5l17 13l66.5 61.5c23.667 21.667 47.167 45.167 70.5 70.5c-3.33301 -0.666992 -6.83301 -1 -10.5 -1h-11.5c-25.333 0 -47 3.83301 -65 11.5s-33 17.834 -45 30.501s-20.833 27.334 -26.5 44.001s-8.5 33.667 -8.5 51
c0 24.667 4.5 48.667 13.5 72s21.833 44 38.5 62s36.834 32.333 60.501 43s49.834 16 78.501 16zM287.996 228.995c7.33301 13.333 13.333 27.3369 18 42.0039s7 29.334 7 44.001c0 24.667 -8.5 45.667 -25.5 63s-41.5 26 -73.5 26c-21.333 0 -41 -4.16699 -59 -12.5
s-33.667 -19.666 -47 -33.999s-23.833 -30.833 -31.5 -49.5s-11.5 -38 -11.5 -58c0 -22.667 3.83301 -41.334 11.5 -56.001s17.5 -26.334 29.5 -35.001s25 -14.834 39 -18.501s27.333 -5.5 40 -5.5c5.33301 0 10.166 0.166992 14.499 0.5s8.83301 0.833008 13.5 1.5
c6.66699 2 13.667 6.66699 21 14s14.333 15.666 21 24.999s12.834 18.666 18.501 27.999s10.5 17.666 14.5 24.999z" />
    <glyph glyph-name="colon" unicode=":" horiz-adv-x="183" 
d="M103 97c0 -0.666992 0.332031 -1.33301 0.999023 -2c0 -0.666992 0.166992 -1.33398 0.5 -2.00098s0.5 -1.66699 0.5 -3c0 -3.33301 -2.5 -7.5 -7.5 -12.5s-7.5 -14.833 -7.5 -29.5c0 -3.33301 0.333008 -5.66602 1 -6.99902h-6c-3.33301 0 -8 0.5 -14 1.5
s-9 5.83301 -9 14.5c0 4.66699 1.66699 9 5 13s5 13 5 27c0 2 -0.666992 4.33301 -2 7c4.66699 0 9.33398 -0.333008 14.001 -1c3.33301 -0.666992 7 -1.5 11 -2.5s6.66699 -2.16699 8 -3.5zM128.999 209.001c0 -0.666992 0.332031 -1.33301 0.999023 -2
c0 -0.666992 0.166992 -1.33398 0.5 -2.00098s0.5 -1.66699 0.5 -3c0 -3.33301 -2.5 -7.5 -7.5 -12.5s-7.5 -14.833 -7.5 -29.5c0 -3.33301 0.333008 -5.66602 1 -6.99902h-6c-3.33301 0 -8 0.5 -14 1.5s-9 5.83301 -9 14.5c0 4.66699 1.66699 9 5 13s5 13 5 27
c0 2 -0.666992 4.33301 -2 7c4.66699 0 9.33398 -0.333008 14.001 -1c3.33301 -0.666992 7 -1.5 11 -2.5s6.66699 -2.16699 8 -3.5z" />
    <glyph glyph-name="equal" unicode="=" horiz-adv-x="274" 
d="M65 213c25.333 0 48.665 0.332031 69.998 0.999023c18 0.666992 34.833 1.5 50.5 2.5s24.5 2.83301 26.5 5.5v-9c0 -2.66699 0.166992 -5.5 0.5 -8.5s0.5 -6.16699 0.5 -9.5c0 -4 -1.16699 -7.5 -3.5 -10.5s-8.16602 -4.5 -17.499 -4.5
c-10 0.666992 -20.667 1.33398 -32 2.00098c-9.33301 0.666992 -19.833 1.16699 -31.5 1.5s-23.167 0.5 -34.5 0.5c-13.333 0 -25.5 -0.5 -36.5 -1.5s-18.5 -2.5 -22.5 -4.5l-2 6c-0.666992 2 -1 6 -1 12c0 3.33301 1.83301 7 5.5 11s12.834 6 27.501 6zM64.999 149.999
c25.333 0 48.665 0.332031 69.998 0.999023c18 0.666992 34.833 1.5 50.5 2.5s24.5 2.83301 26.5 5.5v-9c0 -2.66699 0.166992 -5.5 0.5 -8.5s0.5 -6.16699 0.5 -9.5c0 -4 -1.16699 -7.5 -3.5 -10.5s-8.16602 -4.5 -17.499 -4.5c-10 0.666992 -20.667 1.33398 -32 2.00098
c-9.33301 0.666992 -19.833 1.16699 -31.5 1.5s-23.167 0.5 -34.5 0.5c-13.333 0 -25.5 -0.5 -36.5 -1.5s-18.5 -2.5 -22.5 -4.5l-2 6c-0.666992 2 -1 6 -1 12c0 3.33301 1.83301 7 5.5 11s12.834 6 27.501 6z" />
    <glyph glyph-name="question" unicode="?" horiz-adv-x="355" 
d="M86 57c0.666992 0 3.00098 -0.166016 7.00098 -0.499023s8.16699 -0.833008 12.5 -1.5s8.16602 -2 11.499 -4s5 -4.66699 5 -8s-2.83301 -7.83301 -8.5 -13.5s-8.5 -15.834 -8.5 -30.501c0 -2.66699 0.333008 -4.66699 1 -6h-6c-4.66699 0 -9.5 0.833008 -14.5 2.5
s-7.5 6.16699 -7.5 13.5c0 4.66699 1.66699 9 5 13s5 13.333 5 28c0 2 -0.666992 4.33301 -2 7zM151.001 477.001c13.333 4.66699 28.3398 6.99805 45.0068 6.99805c17.333 0 33.666 -3 48.999 -9s28.666 -14.5 39.999 -25.5s20.166 -23.833 26.499 -38.5
s9.5 -30.667 9.5 -48c0 -26.667 -6.66699 -50.667 -20 -72s-29 -40.5 -47 -57.5s-36.167 -32.167 -54.5 -45.5s-32.166 -25.666 -41.499 -36.999c-15.333 -18 -25.833 -32.833 -31.5 -44.5s-9.33398 -20.667 -11.001 -27s-2.5 -10.833 -2.5 -13.5s-2 -4 -6 -4
c-2.66699 0 -4.33398 0.666992 -5.00098 2s-1 2.66602 -1 3.99902c0 3.33301 1.33301 9.83301 4 19.5s7.16699 21 13.5 34s14.666 26.833 24.999 41.5s23.166 28.667 38.499 42c12 10 24 21 36 33s22.833 24.5 32.5 37.5s17.5 26.333 23.5 40s9 27.5 9 41.5
c0 26.667 -8.16699 46.167 -24.5 58.5s-33.833 18.5 -52.5 18.5s-34.167 -3.66699 -46.5 -11s-22.166 -16.166 -29.499 -26.499s-12.5 -21.5 -15.5 -33.5s-4.5 -23 -4.5 -33c0 -25.333 4.33301 -45.666 13 -60.999s18.667 -27.666 30 -36.999l-6 -3.5
c-4 -2.33301 -8.83301 -4.83301 -14.5 -7.5s-11.834 -5 -18.501 -7s-12.667 -3 -18 -3c-3.33301 0 -7.33301 1.5 -12 4.5s-10.334 9.83301 -17.001 20.5v1c-2.66699 0 -5.16699 3.33301 -7.5 10s-4.5 14.5 -6.5 23.5s-3.5 18 -4.5 27s-1.5 16.167 -1.5 21.5
c0 16 2 32.167 6 48.5s10.167 31.666 18.5 45.999s19 27 32 38s28.833 19.5 47.5 25.5z" />
    <glyph glyph-name="A" unicode="A" horiz-adv-x="592" 
d="M92 -6c-23.333 16 -41.8291 36.9971 -55.4961 62.9971s-20.5 52.333 -20.5 79c0 20 3.83301 37.333 11.5 52s17.834 27.334 30.501 38.001s26.667 19 42 25s31 10 47 12c22 2.66699 53 5.33398 93 8.00098s84 4 132 4c17.333 28 36 52 56 72s39.833 36.5 59.5 49.5
s37.834 22.667 54.501 29s30 9.5 40 9.5c8 0 14.333 -2.16699 19 -6.5s7 -15.166 7 -32.499c0 -5.33301 -2.5 -12.833 -7.5 -22.5s-11.167 -20.334 -18.5 -32.001l-23.5 -36.5c-8.33301 -12.667 -15.5 -25 -21.5 -37c17.333 0 31.166 -0.833008 41.499 -2.5
s18.166 -4 23.499 -7s8.83301 -6.33301 10.5 -10s2.5 -7.5 2.5 -11.5c0 -5.33301 -0.166992 -10.833 -0.5 -16.5s-0.833008 -10.834 -1.5 -15.501c-0.666992 -5.33301 -1 -10.666 -1 -15.999c-6.66699 4.66699 -14.334 8 -23.001 10s-17.667 3.33301 -27 4
s-18.666 1 -27.999 1s-18.333 0.333008 -27 1c-9.33301 -20.667 -18.5 -43.167 -27.5 -67.5s-13.5 -45.833 -13.5 -64.5c0 -13.333 4 -25.166 12 -35.499s20.667 -15.5 38 -15.5c7.33301 0 14.166 1 20.499 3s12.166 3.66699 17.499 5c22.667 9.33301 37 16.666 43 21.999
s9.66699 8 11 8s2.83301 -0.666992 4.5 -2s2.5 -2.66602 2.5 -3.99902v1c-0.666992 0 -2.5 -2.16699 -5.5 -6.5s-8 -9.5 -15 -15.5s-16.5 -12.167 -28.5 -18.5s-27 -11.166 -45 -14.499c-5.33301 -1.33301 -9.33301 -2 -12 -2c-8 0 -16.333 1.83301 -25 5.5
s-16.667 8.5 -24 14.5s-13.5 13.167 -18.5 21.5s-7.5 17.5 -7.5 27.5c0 26.667 2.5 51.667 7.5 75s10.833 45.666 17.5 66.999c-8 0 -17.833 0.833008 -29.5 2.5s-23.5 3.16699 -35.5 4.5l-41 -66.5l-40 -66.5c-7.33301 -12.667 -16.5 -25.667 -27.5 -39
s-23.333 -25.333 -37 -36s-28.334 -19.5 -44.001 -26.5s-31.834 -10.5 -48.501 -10.5c-22.667 0 -44 7.66699 -64 23zM515.004 352.997c-27.333 -18.667 -54 -45 -80 -79c8 -0.666992 15.833 -1 23.5 -1s15.167 -0.333008 22.5 -1c5.33301 15.333 11 29.833 17 43.5z
M120.004 231.997c-23.333 -3.33301 -41.332 -14.501 -53.999 -33.501s-19 -39.5 -19 -61.5c0 -16.667 3.33301 -32.5 10 -47.5s15.167 -28.333 25.5 -40s22 -21 35 -28s25.833 -10.5 38.5 -10.5c20.667 0 39.667 7.16699 57 21.5s33.5 32 48.5 53s29 43.833 42 68.5
s25.5 47.334 37.5 68.001c-26.667 3.33301 -53.334 6.33301 -80.001 9s-54 4 -82 4c-19.333 0 -39 -1 -59 -3z" />
    <glyph glyph-name="B" unicode="B" horiz-adv-x="446" 
d="M319 43c6.66699 8.66699 14 19.1709 22 31.5039s15.333 25 22 38s12.167 25.5 16.5 37.5s6.5 22 6.5 30c0 7.33301 -6.16699 13.166 -18.5 17.499s-30.166 6.5 -53.499 6.5c-24 0 -47 -2 -69 -6s-41.333 -7.66699 -58 -11l-28.5 -69l-24.5 -58
c-2 -5.33301 -4 -11.333 -6 -18c-1.33301 -6 -2.66602 -13 -3.99902 -21s-2 -17.333 -2 -28c-1.33301 0 -4.16602 0.666992 -8.49902 2s-8.83301 3.5 -13.5 6.5s-9 7.16699 -13 12.5s-6 12.666 -6 21.999c0 6.66699 1 15.5 3 26.5s4.66699 23 8 36s6.83301 25.833 10.5 38.5
s7.16699 23.667 10.5 33c-2 0 -4.5 2.16699 -7.5 6.5s-6 9.5 -9 15.5s-5.66699 12 -8 18s-3.5 10.667 -3.5 14c0 2.66699 2 5 6 7s8.83301 3.66699 14.5 5s11.667 2.5 18 3.5s11.833 1.83301 16.5 2.5c3.33301 9.33301 6.83301 18 10.5 26s7.16699 16.333 10.5 25l7 21
c2 6 3.83301 12 5.5 18s2.5 11 2.5 15c1.33301 -0.666992 5 -2 11 -4s12.333 -5 19 -9s12.667 -9 18 -15s8 -13 8 -21c0 -6 -0.5 -11 -1.5 -15s-4.83301 -12.667 -11.5 -26c10 1.33301 20 2.33301 30 3s20.333 1 31 1c10 0 20.167 -0.333008 30.5 -1s20.833 -2 31.5 -4
c6.66699 8 12.167 17.333 16.5 28s6.5 21.334 6.5 32.001c0 11.333 -2.66699 20.833 -8 28.5s-12 13.834 -20 18.501s-16.667 8 -26 10s-18 3 -26 3c-25.333 0 -47.666 -4.16699 -66.999 -12.5s-36.333 -15.166 -51 -20.499c-23.333 -12.667 -42.333 -24.834 -57 -36.501
s-26.334 -22 -35.001 -31s-14.834 -16.167 -18.501 -21.5s-6.16699 -8 -7.5 -8c-13.333 9.33301 -22 18.666 -26 27.999s-6 18 -6 26c0 6 0.666992 11.667 2 17c0.666992 2.66699 1.66699 5 3 7c1.33301 2.66699 6.66602 8.66699 15.999 18s22.5 19.5 39.5 30.5
s37.667 21.833 62 32.5s52.5 18.667 84.5 24l-1 -1c12 2 25 3 39 3c18 0 35.667 -2.33301 53 -7s32.5 -11.667 45.5 -21s23.5 -21 31.5 -35s12 -30 12 -48c0 -12 -3 -24.833 -9 -38.5s-12.667 -24.5 -20 -32.5c22 -7.33301 37.667 -16 47 -26s14 -24.667 14 -44
c0 -10.667 -2.33301 -22.334 -7 -35.001s-10.334 -25.334 -17.001 -38.001s-14.167 -25 -22.5 -37s-15.833 -22.333 -22.5 -31c6 -2 10 -3 12 -3c0.666992 0 1 0.333008 1 1c0.666992 0 1.33398 -0.333008 2.00098 -1c2 -2 3 -3.33301 3 -4c0 -2 -0.333008 -3.33301 -1 -4
l-2 -2c-1.33301 -0.666992 -2.33301 -1 -3 -1c-2.66699 0 -5.66699 0.166992 -9 0.5s-7.66602 0.833008 -12.999 1.5c-16.667 -19.333 -35.834 -36 -57.501 -50s-44.167 -21 -67.5 -21c-8.66699 0 -17.334 1 -26.001 3s-16.5 5 -23.5 9s-12.667 8.66699 -17 14
s-6.5 11 -6.5 17c0 11.333 4.66699 20.166 14 26.499s20.333 11 33 14s25.167 4.83301 37.5 5.5s21.5 1 27.5 1c9.33301 0 17.833 -0.166992 25.5 -0.5s15.167 -0.833008 22.5 -1.5zM216 -11.9961c15.333 0 30.333 3.16602 45 9.49902s29.334 16.5 44.001 30.5
c-9.33301 0 -20.833 -0.833008 -34.5 -2.5s-26.834 -3.66699 -39.501 -6s-23.667 -5.16602 -33 -8.49902s-14 -7 -14 -11c0 -2 10.667 -6 32 -12z" />
    <glyph glyph-name="C" unicode="C" horiz-adv-x="358" 
d="M131 -49c-17.333 0 -33.3311 3.66602 -47.998 10.999s-27.167 17.166 -37.5 29.499s-18.5 27 -24.5 44s-9 35.167 -9 54.5c-0.666992 39.333 7.16602 79.333 23.499 120s38.166 77.334 65.499 110.001s59.333 59.334 96 80.001s75 31 115 31c38 0 66.667 -5.66699 86 -17
s29.666 -23.666 30.999 -36.999c0 -2.66699 -0.333008 -4.66699 -1 -6c-14.667 -23.333 -25.5 -43.666 -32.5 -60.999s-12 -31.833 -15 -43.5s-4.83301 -20.667 -5.5 -27s-2 -10.5 -4 -12.5l-2 -1c-15.333 1.33301 -27.166 4.83301 -35.499 10.5s-14.5 11.834 -18.5 18.501
c-4.66699 7.33301 -7.66699 16 -9 26c0 5.33301 2.16699 15.166 6.5 29.499s12.5 31.833 24.5 52.5c-8 2 -16.667 3 -26 3c-26.667 0 -54.667 -8 -84 -24s-56.5 -37 -81.5 -63s-45.667 -55.833 -62 -89.5s-24.5 -68.167 -24.5 -103.5c0 -14 1.16699 -27.333 3.5 -40
s6.5 -23.5 12.5 -32.5s14.333 -16.167 25 -21.5s24.334 -8 41.001 -8s33.334 2.33301 50.001 7s32.667 11 48 19s29.5 17.167 42.5 27.5s24.167 21.166 33.5 32.499c16.667 20 28.667 36.5 36 49.5s12.5 23.333 15.5 31l6 15.5c1 2.66699 3.83301 4 8.5 4
c2 0 3.33301 -0.666992 4 -2s1 -2.66602 1 -3.99902c0 -4.66699 -1.83301 -12.667 -5.5 -24s-9.66699 -24.166 -18 -38.499s-19.333 -29.833 -33 -46.5s-30.167 -32.334 -49.5 -47.001c-8 -6 -17.5 -12.333 -28.5 -19s-22.833 -12.834 -35.5 -18.501
s-26.334 -10.334 -41.001 -14.001s-29.334 -5.5 -44.001 -5.5z" />
    <glyph glyph-name="D" unicode="D" horiz-adv-x="494" 
d="M42 246c-13.333 9.33301 -22.1689 18.8271 -26.502 28.4941s-6.5 18.167 -6.5 25.5s0.5 13.333 1.5 18s3.5 9.33398 7.5 14.001s9.66699 9.83398 17 15.501s17.333 12.834 30 21.501h1c13.333 8 28 16.333 44 25s32.833 16.5 50.5 23.5s36.334 12.833 56.001 17.5
s39.5 7 59.5 7c27.333 0 53.5 -4.83301 78.5 -14.5s46.833 -23.5 65.5 -41.5s33.5 -39.5 44.5 -64.5s16.5 -52.5 16.5 -82.5c0 -42.667 -9 -82 -27 -118s-41 -67 -69 -93s-59.167 -46.167 -93.5 -60.5s-67.5 -21.5 -99.5 -21.5c-13.333 0 -28 1.16699 -44 3.5
s-30.833 5.83301 -44.5 10.5s-25.167 10.834 -34.5 18.501s-14 16.834 -14 27.501c0 5.33301 1.66699 9.66602 5 12.999s7.5 6 12.5 8s10 3.5 15 4.5s9.5 1.5 13.5 1.5c0 17.333 3.66699 39.166 11 65.499s15.833 52.5 25.5 78.5l27.5 71.5c8.66699 21.667 14 36.5 16 44.5
l7 21c2 6 3.83301 12 5.5 18s2.5 11 2.5 15l12 -4c6 -2 12.333 -5 19 -9s12.667 -9.16699 18 -15.5s8 -13.5 8 -21.5c0 -3.33301 -0.333008 -6.83301 -1 -10.5s-2 -7.83398 -4 -12.501c-4 -6.66699 -9 -16.5 -15 -29.5l-20 -43.5l-22 -50.5l-20.5 -50.5
c-6.33301 -16 -11.833 -30.5 -16.5 -43.5s-7.33398 -22.5 -8.00098 -28.5c10.667 -3.33301 19.667 -6.83301 27 -10.5s11.666 -5.5 12.999 -5.5v1l2 -2c2 -2 3 -3.33301 3 -4c0 -2 -0.666992 -3.5 -2 -4.5s-2.66602 -1.5 -3.99902 -1.5c-2.66699 0 -7.66699 1.33301 -15 4
s-16 5.33398 -26 8.00098c-0.666992 -3.33301 -1 -6.66602 -1 -9.99902v-10c-5.33301 0.666992 -10.666 2.33398 -15.999 5.00098c-4.66699 2 -9.16699 4.33301 -13.5 7s-7.5 6.66699 -9.5 12c-9.33301 -0.666992 -16.666 -1.66699 -21.999 -3s-8 -3.66602 -8 -6.99902
c0 -4.66699 3.5 -9 10.5 -13s15.667 -7.5 26 -10.5s21.333 -5.33301 33 -7s22.167 -2.5 31.5 -2.5c20.667 0 41.834 2.83301 63.501 8.5s42.5 14.167 62.5 25.5s38.333 25.5 55 42.5s31 37.167 43 60.5c11.333 18 19.833 37 25.5 57s8.5 40 8.5 60
c0 24 -3.83301 45.5 -11.5 64.5s-18 35 -31 48s-27.833 23 -44.5 30s-34.334 10.5 -53.001 10.5c-15.333 0 -29.833 -1.16699 -43.5 -3.5s-26.5 -5.5 -38.5 -9.5c-34.667 -14.667 -62.667 -29.334 -84 -44.001s-38 -27.667 -50 -39s-20.5 -20.666 -25.5 -27.999
s-8.16699 -11 -9.5 -11z" />
    <glyph glyph-name="E" unicode="E" horiz-adv-x="593" 
d="M663 438c7.33301 -14 11 -26.6709 11 -38.0039c0 -7.33301 -1.16699 -13.833 -3.5 -19.5s-4.83301 -10.167 -7.5 -13.5c-2.66699 -4 -6 -7.66699 -10 -11c-4.66699 -3.33301 -16.334 -7.5 -35.001 -12.5s-44 -7.5 -76 -7.5c-14.667 0 -30.334 0.833008 -47.001 2.5
s-33.667 3.83398 -51 6.50098c0.666992 -2.66699 1.16699 -4.83398 1.5 -6.50098s0.5 -3.16699 0.5 -4.5l-33 -16c-9.33301 -4.66699 -18.5 -9.83398 -27.5 -15.501s-16.5 -11.167 -22.5 -16.5l48.5 -10c16.333 -3.33301 30.833 -6.66602 43.5 -9.99902
s23 -6.16602 31 -8.49902s12 -3.83301 12 -4.5h1c1.33301 -1.33301 2 -3.33301 2 -6s-1 -5 -3 -7l-2 -1v1c-1.33301 -0.666992 -6.5 -1.16699 -15.5 -1.5s-23.167 -0.5 -42.5 -0.5c-17.333 0 -36.166 0.166992 -56.499 0.5s-40.166 0.5 -59.499 0.5
c-13.333 -17.333 -25.333 -38 -36 -62s-16 -48.667 -16 -74c0 -28.667 7.5 -54.667 22.5 -78s38.5 -36.333 70.5 -39c28.667 1.33301 54.5 6.5 77.5 15.5s43.333 19.833 61 32.5s32.834 26.334 45.501 41.001s23 28.5 31 41.5s13.833 23.833 17.5 32.5s5.5 13.667 5.5 15
c0 0.666992 0.333008 1.33398 1 2.00098c1.33301 1.33301 3 2 5 2c4 0 6 -1.66699 6 -5c0 -14 -3.5 -29.167 -10.5 -45.5s-16.333 -32.5 -28 -48.5s-25.5 -31.333 -41.5 -46s-33 -27.667 -51 -39s-36.5 -20.166 -55.5 -26.499s-37.5 -9.5 -55.5 -9.5
c-23.333 0 -44.333 4.66699 -63 14s-34.5 21.666 -47.5 36.999s-23 33 -30 53s-10.5 41 -10.5 63c0 23.333 3.16699 45.5 9.5 66.5s14.166 40.5 23.499 58.5c-14.667 0 -23.5 3.33301 -26.5 10s-4.5 13.667 -4.5 21v21c0 3.33301 0.333008 6.66602 1 9.99902
c2.66699 -2 6.5 -3.5 11.5 -4.5l15.5 -3c5.33301 -1 10.333 -1.66699 15 -2s8 -0.5 10 -0.5v-1c1.33301 0 2.66602 0.166992 3.99902 0.5s2.66602 0.5 3.99902 0.5c10.667 15.333 21.834 29 33.501 41s23.167 22 34.5 30c-17.333 4 -35 7.16699 -53 9.5s-36 3.5 -54 3.5
c-26 0 -51.167 -3.5 -75.5 -10.5s-46 -18 -65 -33s-34.333 -34.5 -46 -58.5s-17.5 -52.667 -17.5 -86c0 -24 3.66699 -45.167 11 -63.5s16.833 -33.5 28.5 -45.5s25 -21.167 40 -27.5s30.5 -9.5 46.5 -9.5c8.66699 0 15.667 0.666992 21 2s8.66602 2 9.99902 2
c-0.666992 0 0.333008 -0.166992 3 -0.5s4 -2.16602 4 -5.49902c0 -1.33301 -3.16699 -3.66602 -9.5 -6.99902s-20.166 -5 -41.499 -5c-12 0 -26.167 2.5 -42.5 7.5s-31.666 14 -45.999 27s-26.666 30.667 -36.999 53s-15.5 50.833 -15.5 85.5
c0 33.333 7.16699 66.333 21.5 99s37.833 60.667 70.5 84c27.333 16 54.666 27 81.999 33s54 9 80 9c24.667 0 48 -1.5 70 -4.5l62 -8.5c23.333 -3.33301 44.333 -5.83301 63 -7.5s34.667 -2.5 48 -2.5c28 0 51.333 2 70 6s34 8.16699 46 12.5s20.833 8.33301 26.5 12
s9.5 5.16699 11.5 4.5z" />
    <glyph glyph-name="F" unicode="F" horiz-adv-x="384" 
d="M546 397c20 2 37.1719 4.83398 51.5049 8.50098s26.166 7.33398 35.499 11.001s16.333 6.83398 21 9.50098s7.66699 4 9 4c2 0 3.66699 -2 5 -6s2.66602 -8.33301 3.99902 -13c1.33301 -6 2.33301 -12.333 3 -19c0 -7.33301 -1.16699 -13.833 -3.5 -19.5
s-4.83301 -10.167 -7.5 -13.5c-2.66699 -4 -6 -7.66699 -10 -11c-4.66699 -3.33301 -16.334 -7.5 -35.001 -12.5s-44 -7.5 -76 -7.5c-16.667 0 -35 1.16699 -55 3.5s-39.667 5.16602 -59 8.49902c-1.33301 -2.66699 -2.83301 -5.16699 -4.5 -7.5
s-3.16699 -5.16602 -4.5 -8.49902l31.5 -8c10.333 -2.66699 19.666 -5.33398 27.999 -8.00098s15.333 -5 21 -7s9.16699 -3.33301 10.5 -4h1l1 -1c0.666992 -1.33301 1 -3.33301 1 -6s-0.666992 -4.66699 -2 -6l-2 -2l-1 1h-10c-6.66699 0 -15.167 -0.166992 -25.5 -0.5
s-21.833 -0.5 -34.5 -0.5h-38l-24 -60.5c-8 -21 -16.667 -42.167 -26 -63.5l-27.5 -66c-10.333 -24 -22.666 -46.333 -36.999 -67s-31 -37.834 -50 -51.501s-41.5 -20.5 -67.5 -20.5c-14 0 -27 2.33301 -39 7s-22.5 10.5 -31.5 17.5s-16.167 15 -21.5 24s-8 18.167 -8 27.5
c0 4 0.333008 7.66699 1 11l2 10c-18 14.667 -32.167 34.834 -42.5 60.501s-15.5 53.5 -15.5 83.5c0 33.333 7.16699 66.166 21.5 98.499s37.833 60.166 70.5 83.499c27.333 16 54.5 26.833 81.5 32.5s53.5 8.5 79.5 8.5c27.333 0 53.166 -1.16699 77.499 -3.5
s46.666 -4.83301 66.999 -7.5l55.5 -7.5c16.667 -2.33301 31 -3.5 43 -3.5h21c6 0 11 0.666992 15 2zM353.005 334.001c1.33301 3.33301 2.50195 6.66113 3.50195 9.99414s2.16699 6.66602 3.5 9.99902c-18 3.33301 -36.667 6.5 -56 9.5s-38.666 4.5 -57.999 4.5
c-26 0 -51.333 -3.5 -76 -10.5s-46.5 -18 -65.5 -33s-34.167 -34.5 -45.5 -58.5s-17 -52.667 -17 -86c0 -21.333 3.33301 -41.666 10 -60.999s16 -35.666 28 -48.999c8 16 14.167 24.833 18.5 26.5s5.83301 2.5 4.5 2.5c1.33301 0 2.66602 -0.833008 3.99902 -2.5
s2 -3.16699 2 -4.5s-2 -4.83301 -6 -10.5s-7.66699 -13.167 -11 -22.5c5.33301 -5.33301 11.666 -9.66602 18.999 -12.999s14.5 -5.83301 21.5 -7.5s13.5 -2.66699 19.5 -3s11 -0.5 15 -0.5c8.66699 0 15.667 0.5 21 1.5s8.66602 1.5 9.99902 1.5h-1h1
c4.66699 0 7.33398 -1.33301 8.00098 -4c0 -1.33301 -0.333008 -2.66602 -1 -3.99902s-2.66699 -2.66602 -6 -3.99902s-8.33301 -2.5 -15 -3.5s-16.334 -1.5 -29.001 -1.5c-10 0 -20.667 1 -32 3s-22.666 6.66699 -33.999 14c0 -15.333 6.83301 -28.166 20.5 -38.499
s30.167 -15.5 49.5 -15.5c16 0 31.667 4.33301 47 13s28.333 22.667 39 42c21.333 39.333 39.166 80.833 53.499 124.5l38.5 119.5c-14.667 0 -26.334 0.666992 -35.001 2s-15.167 3.16602 -19.5 5.49902s-7 5.33301 -8 9s-1.5 7.83398 -1.5 12.501v21c0 4 0.333008 8 1 12
c8 -5.33301 17.5 -8.66602 28.5 -9.99902s21.167 -2 30.5 -2c5.33301 0 9.83301 0.166992 13.5 0.5s5.83398 0.5 6.50098 0.5z" />
    <glyph glyph-name="G" unicode="G" horiz-adv-x="573" 
d="M110 296c-3.33301 -1.33301 -8.67578 -3.33008 -16.0088 -5.99707s-15.166 -5.66699 -23.499 -9s-16.333 -7 -24 -11s-13.5 -7.66699 -17.5 -11l-2.5 6c-1.66699 4 -3.5 9 -5.5 15s-3.66699 12.167 -5 18.5s-2 12.166 -2 17.499c0 3.33301 2.16699 7.66602 6.5 12.999
s13.833 10.666 28.5 15.999c0 0.666992 3.83301 2 11.5 4s17.334 4.16699 29.001 6.5s24.5 4.5 38.5 6.5s27.333 3 40 3c15.333 0 30.5 -1.16699 45.5 -3.5s30.167 -5.16602 45.5 -8.49902c30 27.333 60 47.166 90 59.499s59 18.5 87 18.5c10 0 19.5 -0.666992 28.5 -2
s17.5 -2.66602 25.5 -3.99902c4 -1.33301 10 -3.16602 18 -5.49902s16 -6.33301 24 -12s15 -13.334 21 -23.001s9 -21.834 9 -36.501c0 -17.333 -4.16699 -31.666 -12.5 -42.999s-18.5 -20.333 -30.5 -27s-24.5 -11.334 -37.5 -14.001s-24.167 -4 -33.5 -4
c-17.333 0 -33.333 1.33301 -48 4s-28.667 6 -42 10s-26 8.16699 -38 12.5s-23.333 7.83301 -34 10.5c-30 -27.333 -55.333 -59.833 -76 -97.5s-31 -77.167 -31 -118.5c0 -34 7 -59.167 21 -75.5s34 -24.5 60 -24.5c20.667 0 40.167 4.66699 58.5 14s35 20.5 50 33.5
s27.667 26.333 38 40s17.833 24.834 22.5 33.501l20.5 57.5l19 50.5c5.66699 14.667 10.834 26.5 15.501 35.5s8.33398 13.5 11.001 13.5c13.333 0 24.666 -4.66699 33.999 -14s14 -18.666 14 -27.999c0 -4 -0.666992 -7.33301 -2 -10l-20 -36
c-7.33301 -12.667 -14.166 -25.834 -20.499 -39.501s-11.5 -27.167 -15.5 -40.5s-6 -26 -6 -38c0 -7.33301 1 -13.166 3 -17.499s6.66699 -6.5 14 -6.5c11.333 0 25.5 6.83301 42.5 20.5s32.167 35.834 45.5 66.501v1h1l2 1c2 0 4 -1 6 -3
c0.666992 -0.666992 1 -1.33398 1 -2.00098l-4.5 -18c-3 -12 -8.5 -25 -16.5 -39s-18.667 -27 -32 -39s-30.666 -18 -51.999 -18c-6 0 -12.333 1.16699 -19 3.5s-13 6.83301 -19 13.5c-12.667 -28.667 -25.667 -55.334 -39 -80.001c15.333 -2.66699 31 -4.83398 47 -6.50098
s31.333 -2.5 46 -2.5c30.667 0 58.167 3.83301 82.5 11.5s43.5 15.5 57.5 23.5c2 0.666992 6.16699 3.16699 12.5 7.5l20.5 14c7.33301 5 14.333 10.167 21 15.5s11.334 9.66602 14.001 12.999c0.666992 0 2.33398 -2 5.00098 -6s5.33398 -9 8.00098 -15s5 -12.5 7 -19.5
s3 -13.167 3 -18.5c0 -13.333 -7.5 -24.666 -22.5 -33.999s-32.667 -17 -53 -23s-41.333 -10.167 -63 -12.5s-39.167 -3.5 -52.5 -3.5c-28 0.666992 -54.333 3.5 -79 8.5s-48.667 10.5 -72 16.5c-10 -20 -23.5 -34 -40.5 -42s-32.167 -12 -45.5 -12
c-1.33301 0 -5.16602 0.166992 -11.499 0.5s-13 2 -20 5s-13.333 7.66699 -19 14s-8.5 15.5 -8.5 27.5c0 15.333 4 27.5 12 36.5s16.333 14.833 25 17.5c-10 -2 -20 -3 -30 -3c-24 0 -43.833 4.5 -59.5 13.5s-28 20.5 -37 34.5s-15.333 29 -19 45s-5.5 31 -5.5 45
c0 40 8.16699 79 24.5 117s35.5 72 57.5 102c-22 0 -42 -0.833008 -60 -2.5s-33.667 -4.16699 -47 -7.5zM265.99 -100.997c0 -8.66699 3.16602 -15 9.49902 -19s14.5 -6 24.5 -6c8.66699 0 17.834 3 27.501 9s19.167 17.333 28.5 34c-8.66699 3.33301 -17 6.33301 -25 9
s-16.333 4 -25 4s-17.5 -2.16699 -26.5 -6.5s-13.5 -12.5 -13.5 -24.5zM375.989 3.00293c-10 -10 -22.5 -19.833 -37.5 -29.5s-31.833 -16.5 -50.5 -20.5c2 0.666992 5.33301 1 10 1c12.667 0 24.5 -1.16699 35.5 -3.5s22.5 -4.5 34.5 -6.5c6 12.667 11.667 26.667 17 42
s11 30 17 44c-4 -4.66699 -8.16699 -9.16699 -12.5 -13.5zM495.989 343.003c-17.333 14.667 -38.333 22.001 -63 22.001c-16.667 0 -34 -3.16699 -52 -9.5s-35.667 -15.166 -53 -26.499c20 -8.66699 40.167 -16.834 60.5 -24.501s40.5 -11.5 60.5 -11.5
c4.66699 0.666992 10 2.16699 16 4.5s11.667 5.16602 17 8.49902s9.83301 7 13.5 11s5.5 8 5.5 12s-1.66699 8.66699 -5 14z" />
    <glyph glyph-name="H" unicode="H" horiz-adv-x="723" 
d="M496 146c-13.333 -25.333 -27.498 -50.002 -42.498 -74.002s-32.667 -45.333 -53 -64s-43.833 -33.834 -70.5 -45.501s-58 -17.5 -94 -17.5c-27.333 0 -54 3.66699 -80 11s-49 18.833 -69 34.5s-36 35.834 -48 60.501s-18 54 -18 88c0 28.667 3.66699 55.667 11 81
s18.333 47.5 33 66.5s33.167 34 55.5 45s48.833 16.5 79.5 16.5c22.667 0 44.834 -4.66699 66.501 -14s43 -21.166 64 -35.499s41.833 -30 62.5 -47s41.334 -33.167 62.001 -48.5c16 36 29.167 68.333 39.5 97s19.166 51.334 26.499 68.001
c0.666992 3.33301 2.5 8.66602 5.5 15.999s5.83301 15.333 8.5 24s5.16699 17.167 7.5 25.5s3.5 15.166 3.5 20.499l12.5 -4c6.33301 -2 13 -5 20 -9s13.167 -9 18.5 -15s8 -13 8 -21c0 -5.33301 -0.833008 -10.833 -2.5 -16.5s-4.16699 -12.167 -7.5 -19.5
c-14 -30 -28 -62.167 -42 -96.5s-29.667 -69.833 -47 -106.5c18.667 -13.333 38 -23.666 58 -30.999s38.333 -12.666 55 -15.999c5.33301 26 13.166 56.833 23.499 92.5s24.166 76.167 41.499 121.5l6 18l4 16c1.33301 5.33301 2 10 2 14c0 3.33301 -0.333008 5.33301 -1 6
c1.33301 -0.666992 5.5 -2.16699 12.5 -4.5s14.5 -5.5 22.5 -9.5s15.167 -8.83301 21.5 -14.5s9.5 -12.167 9.5 -19.5c0 -8 -1.66699 -16.667 -5 -26l-29 -65l-27.5 -64c-9.66699 -23.333 -18.834 -46.666 -27.501 -69.999c14 0.666992 24.667 1.5 32 2.5
s12.5 1.83301 15.5 2.5s5 1.33398 6 2.00098s2.16699 1 3.5 1c4.66699 0 7.33398 -1 8.00098 -3c0 -3.33301 -5.83301 -7 -17.5 -11s-29.167 -6.66699 -52.5 -8c-7.33301 -22 -13 -42 -17 -60s-6 -32.667 -6 -44c-6.66699 1.33301 -12.667 3.33301 -18 6
c-4.66699 2 -9.16699 4.83301 -13.5 8.5s-7.16602 8.5 -8.49902 14.5c0 6 0.666992 12.667 2 20c1.33301 14 4.33301 33.333 9 58c-16.667 0 -35.834 4.66699 -57.501 14s-41.834 19.666 -60.501 30.999c-0.666992 -0.666992 -1 -1.33398 -1 -2.00098zM217.002 317.998
c-25.333 0 -47.666 -4.33398 -66.999 -13.001s-35.666 -20.834 -48.999 -36.501s-23.333 -34.167 -30 -55.5s-10 -44.666 -10 -69.999c0 -24.667 4.33301 -46.167 13 -64.5s20.667 -33.5 36 -45.5s33.166 -21 53.499 -27s42.5 -9 66.5 -9c28.667 0 54 5.33301 76 16
s41.5 24.834 58.5 42.501s31.833 37.5 44.5 59.5s24.667 44.333 36 67c-14 9.33301 -30.333 21.666 -49 36.999s-38.167 30.333 -58.5 45s-40.833 27.334 -61.5 38.001s-40.334 16 -59.001 16z" />
    <glyph glyph-name="I" unicode="I" horiz-adv-x="420" 
d="M588 429c7.33301 -12.667 11.0049 -24.9951 11.0049 -36.9951c0 -7.33301 -1.16699 -13.833 -3.5 -19.5s-4.83301 -10.167 -7.5 -13.5c-2.66699 -4.66699 -6 -8.33398 -10 -11.001c-5.33301 -3.33301 -17.666 -7.5 -36.999 -12.5s-46 -7.5 -80 -7.5h-8
c-2.66699 0 -5.33398 0.333008 -8.00098 1l8 -8c2 -2 3 -8.33301 3 -19c0 -8 -1.66699 -15.667 -5 -23c-6 -11.333 -12.833 -25.166 -20.5 -41.499l-24 -52.5l-25 -58c-8.33301 -20 -15.833 -38.833 -22.5 -56.5s-12.167 -33.5 -16.5 -47.5s-6.83301 -25 -7.5 -33
c20.667 -3.33301 38.667 -8.16602 54 -14.499s24.666 -10.5 27.999 -12.5c0 -3.33301 -1.33301 -8.33301 -4 -15s-5.5 -13.334 -8.5 -20.001s-5.83301 -12.667 -8.5 -18s-4.33398 -8 -5.00098 -8c-12 13.333 -29 24.333 -51 33s-44.5 15.667 -67.5 21
s-44.667 9.16602 -65 11.499s-35.166 3.5 -44.499 3.5c-6 0 -9 -0.333008 -9 -1c-0.666992 0 -1.33398 0.333008 -2.00098 1c-1.33301 1.33301 -2 4 -2 8c0 2 4.33301 4 13 6s20 3.83301 34 5.5s29.667 3 47 4s35 1.5 53 1.5c-0.666992 1.33301 -1.16699 2 -1.5 2
s-0.666016 0.5 -0.999023 1.5s-0.5 3 -0.5 6v13.5c0 4.66699 0.666992 10.167 2 16.5s3 13.833 5 22.5c7.33301 28 15.833 55 25.5 81l28 74l25 65.5c7.66699 20.333 13.5 39.166 17.5 56.499c-28 3.33301 -55.333 8.16602 -82 14.499s-54.667 9.5 -84 9.5
c-21.333 0 -43.333 -2.5 -66 -7.5s-43.167 -13 -61.5 -24s-33.333 -25 -45 -42s-17.5 -37.5 -17.5 -61.5c0 -26 7.83301 -46 23.5 -60s37.5 -21 65.5 -21c10.667 0 19 0.833008 25 2.5s9.66699 2.5 11 2.5c-0.666992 0 0.166016 -0.333008 2.49902 -1s3.5 -2.66699 3.5 -6
c0 -2 -4 -4.5 -12 -7.5s-20.667 -5.16699 -38 -6.5c-7.33301 0 -17 1.16699 -29 3.5s-23.833 7.16602 -35.5 14.499s-21.834 17.666 -30.501 30.999s-13 31.333 -13 54c0 32 7.83301 59.333 23.5 82s35.667 41 60 55s51.166 24.167 80.499 30.5s57.666 9.5 84.999 9.5
c12 0 28.167 -0.5 48.5 -1.5s42.333 -2 66 -3s47.5 -1.5 71.5 -1.5s46.167 0.833008 66.5 2.5s37 4.5 50 8.5s20.5 9.66699 22.5 17z" />
    <glyph glyph-name="J" unicode="J" horiz-adv-x="833" 
d="M75 130c-7.33301 -3.33301 -14.3311 -6.33398 -20.998 -9.00098c-5.33301 -2.66699 -11 -5.33398 -17 -8.00098s-10.333 -5 -13 -7l-6 16c-1.33301 4.66699 -2.66602 9.66699 -3.99902 15s-2 10.666 -2 15.999v8.5c0 3 0.666992 5.5 2 7.5
c2 4.66699 8.33301 9.66699 19 15s23.5 10.333 38.5 15s31.5 8.33398 49.5 11.001s35.667 4 53 4c28.667 0 56.667 -4.16699 84 -12.5s54 -18.5 80 -30.5c4 26.667 11.833 50.167 23.5 70.5s25.167 37.166 40.5 50.499s31.5 23.333 48.5 30s32.5 10 46.5 10h9
c2.66699 0 5.66699 -0.333008 9 -1c12 20.667 27 37.5 45 50.5s37.333 23.333 58 31s42 12.834 64 15.501s43 4 63 4c33.333 0 62.166 -2 86.499 -6s48.166 -6 71.499 -6c29.333 0 54.166 1.83301 74.499 5.5s37 7.5 50 11.5s23 7.83301 30 11.5s11.5 5.5 13.5 5.5
s3.66699 -1.83301 5 -5.5s2.5 -7.83398 3.5 -12.501s1.66699 -9 2 -13l0.5 -6c0 -7.33301 -1.16699 -13.833 -3.5 -19.5s-4.83301 -10.167 -7.5 -13.5c-2.66699 -4 -6 -7.66699 -10 -11c-5.33301 -3.33301 -18 -7.66602 -38 -12.999s-47.333 -8 -82 -8
c-23.333 0 -47.666 2.66699 -72.999 8c4.66699 -2.66699 7 -5.66699 7 -9c-11.333 -21.333 -22 -45.166 -32 -71.499s-21 -53.5 -33 -81.5s-26 -56.5 -42 -85.5s-35 -57.167 -57 -84.5c-21.333 -25.333 -47 -44.333 -77 -57s-61.333 -19 -94 -19
c-26 0 -50.833 3.83301 -74.5 11.5s-44.667 18.834 -63 33.501s-33.333 32.5 -45 53.5s-18.5 44.833 -20.5 71.5c-27.333 9.33301 -52 17.333 -74 24s-44 10 -66 10c-30.667 0 -56.334 -3.33301 -77.001 -10s-35.667 -12 -45 -16zM547.002 322.999
c23.333 -7.33301 40.668 -21.168 52.001 -41.501s17 -44.166 17 -71.499c0 -14 -4 -29 -12 -45c11.333 0 20.5 0.666992 27.5 2s11.167 2 12.5 2c0.666992 0 2 -0.166992 4 -0.5s3 -2.16602 3 -5.49902c0 -2 -4.5 -4.83301 -13.5 -8.5s-23.167 -5.5 -42.5 -5.5
c-13.333 -22 -32.5 -37.333 -57.5 -46s-49.5 -13 -73.5 -13c-16.667 0 -32.334 1.66699 -47.001 5s-29.667 7.66602 -45 12.999c9.33301 -34 27.166 -61.333 53.499 -82s61.5 -31 105.5 -31c24.667 0 47.5 4.83301 68.5 14.5s39.833 22.334 56.5 38.001
s31.167 33.667 43.5 54s22.5 41.166 30.5 62.499c20.667 49.333 37.5 92.5 50.5 129.5s22.5 61.5 28.5 73.5v1l3 3c-17.333 3.33301 -34.166 6.16602 -50.499 8.49902s-33.5 3.5 -51.5 3.5c-28 0 -55.167 -3.66699 -81.5 -11s-49.5 -19.666 -69.5 -36.999zM538.004 310.997
c-12 -20 -18 -41.332 -18 -63.999c0 -21.333 4.5 -38 13.5 -50s22.833 -21 41.5 -27c6.66699 9.33301 11.5 19.166 14.5 29.499s4.5 20.5 4.5 30.5c0 12.667 -2 23.667 -6 33s-9 17.333 -15 24s-12.167 12 -18.5 16s-11.833 6.66699 -16.5 8zM505.004 316.998
c-19.333 -0.666992 -37.5029 -5.6709 -54.5029 -15.0039s-31.667 -21.166 -44 -35.499s-22.166 -30.666 -29.499 -48.999s-11 -37.166 -11 -56.499c0 -4.66699 4.66699 -9.16699 14 -13.5s20.166 -8 32.499 -11s24.333 -5.5 36 -7.5s19.834 -3 24.501 -3
c20.667 0 37.834 1.83301 51.501 5.5s26.167 11.167 37.5 22.5c-17.333 4.66699 -33.5 15.834 -48.5 33.501s-22.5 39.5 -22.5 65.5c0 10 1.33301 20.333 4 31s6.33398 21 11.001 31z" />
    <glyph glyph-name="K" unicode="K" horiz-adv-x="422" 
d="M8 281c-0.666992 0 -1 0.332031 -1 0.999023v4c0 3.33301 3.33301 5.33301 10 6s15.5 1.5 26.5 2.5s23.5 3.16699 37.5 6.5s28.333 9.66602 43 18.999c17.333 9.33301 31.5 19.166 42.5 29.499s19.667 20.333 26 30s10.666 18.834 12.999 27.501s3.5 16.334 3.5 23.001
c1.33301 -0.666992 5.16602 -2.16699 11.499 -4.5s12.833 -5.5 19.5 -9.5s12.667 -9.16699 18 -15.5s8 -13.5 8 -21.5v-8c0 -2 -0.5 -4.33301 -1.5 -7s-2.5 -6 -4.5 -10l-9 -18c-4 -7.33301 -9.33301 -19.166 -16 -35.499l-23 -55.5l-27 -65.5l-26.5 -66l-22.5 -56.5
l-15 -37c-0.666992 0 -3 -5.83301 -7 -17.5s-6 -28.167 -6 -49.5c-1.33301 0 -4.16602 0.666992 -8.49902 2s-8.83301 3.5 -13.5 6.5s-9 7.16699 -13 12.5s-6 12.666 -6 21.999s3 25.5 9 48.5s13.833 49.167 23.5 78.5l31.5 91.5c11.333 31.667 22.333 60.5 33 86.5
c-19.333 -9.33301 -38.166 -15.666 -56.499 -18.999s-34.833 -5 -49.5 -5c-13.333 0 -24.5 0.666992 -33.5 2s-14.167 2 -15.5 2h-1zM239 207.999c17.333 15.333 34.3301 29.499 50.9971 42.499l48 36.5v1c30 23.333 53.333 44.833 70 64.5s29.334 36.5 38.001 50.5
s14.5 25.167 17.5 33.5s5.16699 12.5 6.5 12.5c10.667 -3.33301 19.167 -7.66602 25.5 -12.999s11.166 -10.666 14.499 -15.999s5.5 -10.666 6.5 -15.999s1.5 -10 1.5 -14c0 -13.333 -6 -27.833 -18 -43.5s-26.333 -30.667 -43 -45s-33.834 -27.5 -51.501 -39.5
s-32.167 -21.333 -43.5 -28c-8 -5.33301 -20.5 -13.166 -37.5 -23.499s-34.167 -22 -51.5 -35s-32.5 -27.167 -45.5 -42.5s-19.5 -31 -19.5 -47c0 -14.667 5.33301 -29.167 16 -43.5s24.334 -27.833 41.001 -40.5s35.334 -24.334 56.001 -35.001
s40.834 -19.834 60.501 -27.501s37.834 -13.667 54.501 -18s29.667 -6.5 39 -6.5c18.667 0 35 2.16699 49 6.5s25.333 9 34 14s15.167 9.66699 19.5 14s6.5 6.16602 6.5 5.49902h1c0.666992 0 1.16699 0.166992 1.5 0.5s0.833008 0.5 1.5 0.5c4 0 6 -1.66699 6 -5
c0 -0.666992 -2.66699 -4 -8 -10s-13.5 -12.5 -24.5 -19.5s-24.667 -13.333 -41 -19s-35.166 -8.5 -56.499 -8.5c-23.333 0 -48.5 4 -75.5 12s-53.833 19 -80.5 33s-51.5 30.167 -74.5 48.5s-41.833 37.833 -56.5 58.5c-8 12.667 -12 26.667 -12 42c0 14 2.5 27 7.5 39
s11.333 23 19 33s15.667 19 24 27s16.166 15 23.499 21z" />
    <glyph glyph-name="L" unicode="L" horiz-adv-x="200" 
d="M1086 -16c2.66699 -8 4.00488 -16 4.00488 -24c0 -10.667 -2 -20.167 -6 -28.5s-8.66699 -15.166 -14 -20.499c-6 -7.33301 -12.667 -13.333 -20 -18c-22.667 -17.333 -49.167 -30.666 -79.5 -39.999s-59.833 -16.333 -88.5 -21s-54.334 -7.5 -77.001 -8.5
s-38 -1.5 -46 -1.5c-52.667 0 -105 4.66699 -157 14s-98.667 19.666 -140 30.999s-74.833 21.833 -100.5 31.5l-38.5 14.5c-38.667 13.333 -72.667 24 -102 32s-54.833 14.333 -76.5 19s-39.834 7.66699 -54.501 9s-26.334 2 -35.001 2
c-4.66699 0 -8.33398 -0.166992 -11.001 -0.5s-5 -0.5 -7 -0.5c-2.66699 -0.666992 -4.66699 -1 -6 -1l-1 5c-18 -17.333 -34.667 -31.5 -50 -42.5s-29.666 -19.5 -42.999 -25.5s-25.5 -10.167 -36.5 -12.5s-20.5 -3.5 -28.5 -3.5c-19.333 0 -31.5 2.33301 -36.5 7
s-7.5 9.66699 -7.5 15c0 12 4.33301 22.833 13 32.5s19.834 18.167 33.501 25.5s28.334 13.5 44.001 18.5s30.5 9.16699 44.5 12.5s26 5.66602 36 6.99902s16 2 18 2h2c1.33301 0 2 0.333008 2 1l-1 -1c20.667 22 40.5 50.5 59.5 85.5s36.667 72 53 111
s31.333 77.667 45 116l34.5 99.5c1.33301 -0.666992 5 -2.16699 11 -4.5s12.167 -5.5 18.5 -9.5s12.166 -9 17.499 -15s8 -13 8 -21c0 -3.33301 -0.333008 -6.83301 -1 -10.5s-2 -7.83398 -4 -12.501l-31.5 -65.5c-11.667 -24.333 -24.334 -49.333 -38.001 -75l-41.5 -75.5
c-14 -24.667 -28 -46.334 -42 -65.001c-8.66699 -11.333 -16.834 -21.5 -24.501 -30.5s-14.834 -18.167 -21.501 -27.5c28.667 -1.33301 58.834 -4.66602 90.501 -9.99902s61.167 -11 88.5 -17c32 -7.33301 63 -15 93 -23c68.667 -16.667 138.667 -32.167 210 -46.5
s144.333 -21.5 219 -21.5c61.333 0 112.333 4.5 153 13.5s73.667 19.167 99 30.5c29.333 12.667 52.666 27.334 69.999 44.001zM-149.995 -81c9.33301 -4 20.168 -4.83301 32.501 -2.5s24.666 6.5 36.999 12.5s24 13 35 21s20.167 15.333 27.5 22
c-23.333 -2 -44.333 -5.33301 -63 -10c-16 -4 -31 -9.33301 -45 -16s-22 -15.667 -24 -27z" />
    <glyph glyph-name="M" unicode="M" horiz-adv-x="712" 
d="M715 426c1.33301 -0.666992 4.98926 -2.16016 10.9893 -4.49316s12.333 -5.5 19 -9.5s12.667 -9.16699 18 -15.5s8 -13.5 8 -21.5c0 -7.33301 -1.66699 -14.666 -5 -21.999c-5.33301 -10 -12.666 -25.333 -21.999 -46s-19.333 -44.167 -30 -70.5l-32.5 -82.5
c-11 -28.667 -20.833 -56.167 -29.5 -82.5s-15.834 -50 -21.501 -71s-8.5 -36.833 -8.5 -47.5c-0.666992 0 -3.16699 0.5 -7.5 1.5s-9 3 -14 6s-9.5 7.16699 -13.5 12.5s-6 12.333 -6 21c0 12 3.33301 31.667 10 59s16.334 60 29.001 98c-37.333 -36 -65.5 -69 -84.5 -99
s-30.833 -51.667 -35.5 -65c0 -1.33301 -0.166992 -3.33301 -0.5 -6s-1.83301 -4 -4.5 -4c-2 0 -6 5.16699 -12 15.5s-12.833 24 -20.5 41s-15.167 36.5 -22.5 58.5s-13.666 44.667 -18.999 68c-0.666992 1.33301 -1 3 -1 5c-10 -26.667 -21.667 -53.334 -35 -80.001
s-29.333 -50.834 -48 -72.501s-41 -39.334 -67 -53.001s-56.333 -20.5 -91 -20.5c-50 0 -90 14.667 -120 44s-45 74 -45 134c0 34.667 5.83301 67.167 17.5 97.5s27 56.666 46 78.999s40.333 40 64 53s47.834 20.167 72.501 21.5c26.667 0 47.167 -4.16699 61.5 -12.5
s27.5 -18.5 39.5 -30.5l-4 -5c-2.66699 -3.33301 -6 -6.66602 -10 -9.99902s-8.66699 -6.5 -14 -9.5s-10.666 -4.5 -15.999 -4.5c-4 0 -7.66699 0.666992 -11 2l-18 13c-7.33301 5.33301 -18.666 8 -33.999 8c-19.333 0 -40.166 -5.5 -62.499 -16.5
s-41.166 -25.833 -56.499 -44.5c-20 -21.333 -33.167 -42.5 -39.5 -63.5s-9.5 -44.167 -9.5 -69.5c0 -19.333 2.16699 -38 6.5 -56s11.5 -34 21.5 -48s23 -25.167 39 -33.5s35.667 -12.5 59 -12.5c30 0 56 5.5 78 16.5s40.833 25 56.5 42s28.5 36.167 38.5 57.5
s18.333 42.333 25 63c12.667 40 27 80 43 120s26.667 82 32 126c0.666992 -0.666992 4.33398 -2.33398 11.001 -5.00098s13.667 -6.33398 21 -11.001s13.5 -10.5 18.5 -17.5s6.5 -14.833 4.5 -23.5c-1.33301 -4.66699 -2.16602 -7.83398 -2.49902 -9.50098
s-0.666016 -3.16699 -0.999023 -4.5s-0.833008 -2.83301 -1.5 -4.5s-2 -4.5 -4 -8.5c-8.66699 -18.667 -14.667 -39.834 -18 -63.501s-5 -47.834 -5 -72.501c0 -17.333 1.33301 -34.666 4 -51.999s5.83398 -33.5 9.50098 -48.5s7.16699 -28.5 10.5 -40.5s6 -22 8 -30
c8.66699 25.333 21.667 52.166 39 80.499s40 62.5 68 102.5c24 37.333 43.5 70 58.5 98s26.5 51.5 34.5 70.5s13.5 33.833 16.5 44.5s4.5 17.667 4.5 21z" />
    <glyph glyph-name="N" unicode="N" horiz-adv-x="608" 
d="M665 389c3.33301 -5.33301 4.50195 -11.501 3.50195 -18.501s-2.83301 -13.5 -5.5 -19.5c-6 -10 -13.667 -25.333 -23 -46s-19.333 -44.167 -30 -70.5l-32 -83l-29.5 -83c-9 -26.333 -16.167 -50 -21.5 -71s-8 -36.5 -8 -46.5c-30 0.666992 -55 16.5 -75 47.5
s-35.333 72.833 -46 125.5c-12 -28 -25 -53.5 -39 -76.5s-30 -42.667 -48 -59s-38.333 -29 -61 -38s-48.334 -13.5 -77.001 -13.5c-49.333 0 -89 14.833 -119 44.5s-45 74.167 -45 133.5c0 32 5.16699 62.833 15.5 92.5s24.5 56 42.5 79s39.167 41.667 63.5 56
s50.5 22.166 78.5 23.499c13.333 0 25 -1.66699 35 -5s18.833 -7.33301 26.5 -12s14.667 -9.5 21 -14.5s12.5 -8.83301 18.5 -11.5c0 -5.33301 -2.5 -9.83301 -7.5 -13.5s-11 -6.66699 -18 -9s-14 -4.16602 -21 -5.49902l-15.5 -3c-8.66699 16.667 -23.667 25 -45 25
c-19.333 0 -40.333 -5.5 -63 -16.5s-41.667 -25.833 -57 -44.5c-19.333 -23.333 -32.333 -44.833 -39 -64.5s-10 -42.5 -10 -68.5c0 -19.333 2.33301 -38 7 -56s12 -34 22 -48s23 -25.167 39 -33.5s35.667 -12.5 59 -12.5c31.333 0 58.166 5.83301 80.499 17.5
s41.333 26.667 57 45s28.5 38.833 38.5 61.5s18.667 45 26 67c6 18 11.667 35.833 17 53.5s10.5 34 15.5 49l13.5 40.5c4 12 7 21.333 9 28v1c2 8.66699 4 16.667 6 24l4 20.5c1.33301 7 2.33301 12.833 3 17.5l10 -5c6.66699 -3.33301 13.667 -7.33301 21 -12
s14.166 -9.5 20.499 -14.5s9.5 -8.83301 9.5 -11.5c0 -4 -1.16699 -9.16699 -3.5 -15.5s-4.16602 -11.833 -5.49902 -16.5c0.666992 0 1 -0.333008 1 -1c-11.333 -23.333 -22 -51.833 -32 -85.5s-15 -68.5 -15 -104.5c0 -32 4 -59.167 12 -81.5s17.667 -41.166 29 -56.499
c0 9.33301 3 25.333 9 48s13.5 48.167 22.5 76.5s18.833 57.5 29.5 87.5l29 82.5l21.5 60.5c5.66699 15.333 8.16699 22.333 7.5 21l7 21c4 12.667 6.66699 23.667 8 33l23 -10c6 -3.33301 12 -7 18 -11s10 -8.66699 12 -14z" />
    <glyph glyph-name="O" unicode="O" horiz-adv-x="442" 
d="M128 -34c-40.667 8 -70.8291 26.6709 -90.4961 56.0039s-30.167 64 -31.5 104c-1.33301 28 2.16699 56.167 10.5 84.5s19.833 55.166 34.5 80.499s31.5 48.166 50.5 68.499s38.5 36.5 58.5 48.5l20 12l15.5 10c5 3.33301 8.83301 6.33301 11.5 9l3.5 -6.5
c2.33301 -4.33301 4.66602 -9.5 6.99902 -15.5s4.33301 -12.333 6 -19s2.16699 -12.334 1.5 -17.001c0 -2 -1.33301 -5 -4 -9s-7.66699 -8.66699 -15 -14c-17.333 -7.33301 -35 -18.5 -53 -33.5s-34.333 -32.667 -49 -53s-27.167 -42.666 -37.5 -66.999
s-16.5 -49.833 -18.5 -76.5c-2 -24 -0.333008 -44.833 5 -62.5s13 -32.334 23 -44.001s21.833 -20.5 35.5 -26.5s28.167 -9.66699 43.5 -11c25.333 -2 48.333 0.166992 69 6.5s40.334 19.166 59.001 38.499l-12 6c-17.333 8 -31.166 19 -41.499 33s-18.333 29 -24 45
s-9.16699 32.667 -10.5 50s-1.33301 33.666 0 48.999c2 22 6.5 44.833 13.5 68.5s16.667 45.334 29 65.001s27.166 35.5 44.499 47.5s37 17 59 15c17.333 -1.33301 31.333 -7.5 42 -18.5s18.667 -24.333 24 -40s8.66602 -32.334 9.99902 -50.001
s1.66602 -33.834 0.999023 -48.501c-2 -20 -5.83301 -39.667 -11.5 -59s-12.334 -38 -20.001 -56s-16.167 -34.5 -25.5 -49.5s-18.333 -27.833 -27 -38.5c18 -1.33301 33 0.833984 45 6.50098s23 13.167 33 22.5c10 10 17.667 18.5 23 25.5s9.33301 12.833 12 17.5
s4.5 8 5.5 10s2.5 3 4.5 3c2.66699 0 4.33398 -0.833008 5.00098 -2.5s1 -2.83398 1 -3.50098c0 -2 -2.5 -9 -7.5 -21s-13 -24.833 -24 -38.5s-25.5 -25.5 -43.5 -35.5s-40.667 -14 -68 -12c-2.66699 0 -6.66699 0.666992 -12 2c-12 -10.667 -24.333 -20.167 -37 -28.5
s-26.334 -15.166 -41.001 -20.499s-30.334 -8.66602 -47.001 -9.99902s-35 -0.333008 -55 3zM237.005 183.004c-2.66699 -26 1 -51.1689 11 -75.502s28.333 -42.166 55 -53.499c6 9.33301 12.5 20.5 19.5 33.5s13.5 27 19.5 42s11 30.167 15 45.5s6.66699 30 8 44
c2 25.333 2 46.333 0 63s-5 29.834 -9 39.501s-8.33301 16.5 -13 20.5s-9 6 -13 6c-10 0.666992 -20.167 -4.16602 -30.5 -14.499s-20 -23.833 -29 -40.5s-16.5 -34.834 -22.5 -54.501s-9.66699 -38.167 -11 -55.5z" />
    <glyph glyph-name="P" unicode="P" horiz-adv-x="441" 
d="M94 120c-16.667 7.33301 -30.3311 15.1699 -40.998 23.5029s-19 16 -25 23s-10.167 12.667 -12.5 17l-3.5 6.5c-0.666992 0 -1 0.333008 -1 1c-0.666992 0.666992 -1 1.66699 -1 3s0.666992 2.33301 2 3s2.66602 1 3.99902 1c0.666992 0 2.83398 -2.16699 6.50098 -6.5
s9 -9.66602 16 -15.999s16.333 -13.333 28 -21s26.167 -14.5 43.5 -20.5c9.33301 29.333 18.833 55.666 28.5 78.999l24.5 58l7 21c2 6 3.83301 12 5.5 18s2.5 11 2.5 15c1.33301 -0.666992 5 -2.16699 11 -4.5s12.333 -5.5 19 -9.5s12.667 -8.83301 18 -14.5
s8 -12.5 8 -20.5c0 -4.66699 -0.5 -8.5 -1.5 -11.5s-3.5 -9.16699 -7.5 -18.5l-19 -42.5c-8.66699 -19 -20.334 -46.833 -35.001 -83.5c4.66699 -0.666992 9 -1.16699 13 -1.5s8.33301 -0.5 13 -0.5c20 0 40.5 2.66699 61.5 8s41.167 13.5 60.5 24.5s37.333 24.833 54 41.5
s30.667 36 42 58c7.33301 14.667 13.5 28.5 18.5 41.5s7.5 24.167 7.5 33.5c0 8.66699 -4.16699 16.334 -12.5 23.001s-18.5 12 -30.5 16s-24.667 7 -38 9s-25 3 -35 3c-19.333 0 -37.333 -1.83301 -54 -5.5s-32.334 -7.83398 -47.001 -12.501
c-33.333 -13.333 -60.5 -26.5 -81.5 -39.5s-37.5 -24.833 -49.5 -35.5s-20.5 -19.334 -25.5 -26.001s-8.16699 -10 -9.5 -10c-12 9.33301 -20.167 18.666 -24.5 27.999s-6.5 17.666 -6.5 24.999s1 13.666 3 18.999c1.33301 2.66699 2.66602 5 3.99902 7
s8.66602 8.66699 21.999 20s31.833 23.166 55.5 35.499s52 23.666 85 33.999s69.5 15.5 109.5 15.5c9.33301 0 24 -0.833008 44 -2.5s40 -6 60 -13s37.667 -17.333 53 -31s23 -32.5 23 -56.5c0 -9.33301 -1.16699 -18.666 -3.5 -27.999s-5.16602 -17.666 -8.49902 -24.999
c-13.333 -30 -29.833 -56.167 -49.5 -78.5s-41 -41.166 -64 -56.499s-47 -26.833 -72 -34.5s-49.5 -11.5 -73.5 -11.5c-16.667 0 -34.334 1.66699 -53.001 5l-18.5 -44l-14.5 -35c-2 -5.33301 -4 -11.333 -6 -18c-1.33301 -6 -2.66602 -13 -3.99902 -21s-2 -17.333 -2 -28
c-1.33301 0 -4.16602 0.666992 -8.49902 2s-8.83301 3.5 -13.5 6.5s-9 7.16699 -13 12.5s-6 12.666 -6 21.999c0 5.33301 0.833008 12.666 2.5 21.999s3.83398 19.5 6.50098 30.5s5.66699 22.5 9 34.5s6.66602 23 9.99902 33c-2 0.666992 -3.83301 1.33398 -5.5 2.00098
s-3.16699 1.33398 -4.5 2.00098z" />
    <glyph glyph-name="Q" unicode="Q" horiz-adv-x="466" 
d="M435 -22c5.33301 3.33301 12.5 7.17578 21.5 11.5088s15.833 8.16602 20.5 11.499c1.33301 -5.33301 2.66602 -10.333 3.99902 -15s2.5 -9.33398 3.5 -14.001s1.5 -9.66699 1.5 -15c0 -7.33301 -1.33301 -13.333 -4 -18c-2 -6 -5.66699 -11 -11 -15
c-4.66699 -3.33301 -11.334 -6.5 -20.001 -9.5s-20.334 -4.5 -35.001 -4.5c-24 0 -47.667 5.16699 -71 15.5s-44.666 22.833 -63.999 37.5c-26 -10 -53.333 -15 -82 -15c-24.667 0 -47.5 3.83301 -68.5 11.5s-39.333 18.667 -55 33s-27.834 32.166 -36.501 53.499
s-13 45.666 -13 72.999c0 29.333 5.66699 57.333 17 84s25.5 50.334 42.5 71.001s35.667 37.834 56 51.501s39.5 22.167 57.5 25.5c8 1.33301 15.833 2.5 23.5 3.5s14.834 1.5 21.501 1.5c17.333 0 32.5 -1.83301 45.5 -5.5s24 -7.83398 33 -12.501s16 -8.83398 21 -12.501
s7.83301 -5.5 8.5 -5.5c0.666992 -0.666992 1.66699 -1.33398 3 -2.00098c2 -2 3 -3.66699 3 -5s-0.666992 -2.33301 -2 -3s-2.66602 -1 -3.99902 -1c-0.666992 0 -3.5 1.5 -8.5 4.5s-11.667 6.5 -20 10.5s-18.666 7.5 -30.999 10.5s-26.166 4.5 -41.499 4.5
c-18 0 -37.667 -3.66699 -59 -11s-42 -21 -62 -41c-19.333 -19.333 -36.666 -43.333 -51.999 -72s-23 -59 -23 -91c0 -39.333 11.833 -71.833 35.5 -97.5s56.5 -38.5 98.5 -38.5c9.33301 0 19 0.166992 29 0.5s19 2.16602 27 5.49902
c-20.667 20.667 -40.5 34.167 -59.5 40.5s-36.833 9.5 -53.5 9.5c-4 0 -7.5 -0.166992 -10.5 -0.5s-5.5 -0.5 -7.5 -0.5c-2.66699 -0.666992 -5 -1 -7 -1c-1.33301 -0.666992 -2.33301 -0.666992 -3 0c-1.33301 1.33301 -2 3.66602 -2 6.99902c0 1.33301 4.66699 4 14 8
s22.666 6 39.999 6c24.667 0 47.667 -5.5 69 -16.5s41.333 -22.833 60 -35.5c17.333 10.667 32.666 24.167 45.999 40.5s24.5 34.333 33.5 54s15.833 40 20.5 61s7 41.167 7 60.5c0 29.333 -5.16699 53.166 -15.5 71.499s-23 32.666 -38 42.999s-30.667 17.333 -47 21
s-30.833 5.5 -43.5 5.5c-24.667 0 -46 -3.16699 -64 -9.5s-29.333 -10.5 -34 -12.5c-4.66699 -4.66699 -10.667 -7.5 -18 -8.5s-11.666 -1.5 -12.999 -1.5c-5.33301 0 -11 2.16699 -17 6.5s-11.5 9.16602 -16.5 14.499s-9.16699 10.333 -12.5 15s-5 7.33398 -5 8.00098
c5.33301 1.33301 12 3.83301 20 7.5s15 7.16699 21 10.5c22 9.33301 42.667 17.333 62 24s41 10 65 10c31.333 0 60 -5 86 -15s48.333 -23.833 67 -41.5s33.167 -38.667 43.5 -63s15.5 -51.166 15.5 -80.499c0 -18.667 -2.66699 -39.334 -8 -62.001s-13 -45.334 -23 -68.001
s-22.5 -44.167 -37.5 -64.5s-31.833 -37.166 -50.5 -50.499c13.333 -6 26 -10.167 38 -12.5s22.667 -3.5 32 -3.5c10 0 18.167 1.16699 24.5 3.5s10.166 3.5 11.499 3.5z" />
    <glyph glyph-name="R" unicode="R" horiz-adv-x="427" 
d="M62 38c0 14 1.82715 27.835 5.49414 41.502s7.16699 28.167 10.5 43.5c-15.333 7.33301 -27.833 15 -37.5 23s-17.334 15.333 -23.001 22s-9.66699 12 -12 16l-3.5 6c-0.666992 0 -1 0.333008 -1 1v2c0 3.33301 2 5 6 5c1.33301 0 3.5 -2.33301 6.5 -7
s7.33301 -10.167 13 -16.5s13 -12.5 22 -18.5s20.5 -10.333 34.5 -13c2.66699 12.667 5.83398 24.334 9.50098 35.001s7.33398 20.667 11.001 30l11 28.5c3.66699 9.66699 7.16699 20.5 10.5 32.5l7 21c2 6 3.83301 12 5.5 18s2.5 11 2.5 15
c-17.333 -10 -31.666 -19.667 -42.999 -29s-20.333 -17.5 -27 -24.5s-11.667 -12.5 -15 -16.5s-5.33301 -6 -6 -6c-12 9.33301 -20.167 18.666 -24.5 27.999s-6.5 17.666 -6.5 24.999c0 8 0.5 14.167 1.5 18.5s3 8.16602 6 11.499s6.66699 6.66602 11 9.99902l17.5 14h1
c9.33301 6.66699 22.333 14.5 39 23.5s35.834 17.5 57.501 25.5s44.834 14.667 69.501 20s50 8 76 8c8.66699 0 23 -0.833008 43 -2.5s40.167 -6 60.5 -13s38.166 -17.167 53.499 -30.5s23 -32 23 -56c0 -9.33301 -1.33301 -18.833 -4 -28.5s-5.66699 -18.167 -9 -25.5
c-12.667 -30 -28.667 -56.333 -48 -79s-40.666 -41.667 -63.999 -57s-47.666 -26.833 -72.999 -34.5s-50 -11.5 -74 -11.5c-2.66699 0 -5.33398 0.166992 -8.00098 0.5s-5.33398 0.5 -8.00098 0.5c14.667 -18 32.5 -34.667 53.5 -50s43.167 -28.5 66.5 -39.5
s47.333 -19.5 72 -25.5s48 -9 70 -9c17.333 0 32.333 0.833008 45 2.5s25.667 7.5 39 17.5c6.66699 -6.66699 10.334 -14.667 11.001 -24s-1.66602 -18.333 -6.99902 -27s-14.333 -16.167 -27 -22.5s-29.334 -9.83301 -50.001 -10.5
c-38.667 -1.33301 -73.5 3.33398 -104.5 14.001s-59.833 25.167 -86.5 43.5s-51.5 39.666 -74.5 63.999l-68.5 74.5c-1.33301 -1.33301 -2.66602 -3.83301 -3.99902 -7.5s-2.5 -7.5 -3.5 -11.5s-2 -7.66699 -3 -11s-1.5 -6 -1.5 -8l-2 -8.5l-4.5 -19.5
c-1.66699 -7.33301 -3.16699 -14.666 -4.5 -21.999s-2 -13 -2 -17c-1.33301 0 -4.16602 0.666992 -8.49902 2s-8.83301 3.5 -13.5 6.5s-9 7 -13 12s-6 11.833 -6 20.5zM181.994 230.002l-12.5 -25.501l-11 -23c-3.66699 -7.66699 -7.16699 -15.834 -10.5 -24.501l-12 -31
c5.33301 -3.33301 13.5 -5.33301 24.5 -6s20.5 -1 28.5 -1c40 0 77.833 10.833 113.5 32.5s64.834 54.5 87.501 98.5c7.33301 14.667 13.5 28.667 18.5 42s7.5 24.666 7.5 33.999c0 8.66699 -3.33301 16.167 -10 22.5s-15 11.5 -25 15.5s-20.833 7 -32.5 9
s-22.834 3 -33.501 3c-18 0 -35.5 -1.66699 -52.5 -5s-33 -7.66602 -48 -12.999s-28.667 -11.166 -41 -17.499s-23.166 -12.166 -32.499 -17.499c2 0 6.16699 -1.16699 12.5 -3.5s12.666 -5.83301 18.999 -10.5s12 -10 17 -16s7.5 -12.667 7.5 -20v-8
c0 -2 -0.5 -4.33301 -1.5 -7s-2.5 -6 -4.5 -10z" />
    <glyph glyph-name="S" unicode="S" horiz-adv-x="439" 
d="M473 24c-2.66699 -5.33301 -9.83301 -10.834 -21.5 -16.501s-25.167 -8.5 -40.5 -8.5c-7.33301 0 -16.5 1 -27.5 3s-19.167 6 -24.5 12c-19.333 -23.333 -43.166 -39.833 -71.499 -49.5s-56.5 -14.5 -84.5 -14.5s-54.167 4.16699 -78.5 12.5s-45.166 20 -62.499 35
s-31 32.833 -41 53.5s-15 43 -15 67c0 12.667 2.16699 26.334 6.5 41.001s10.333 28 18 40s16.834 22 27.501 30s22.667 12 36 12c14 0 27.5 -3.5 40.5 -10.5s24.5 -14.167 34.5 -21.5c44 50.667 77.167 95.5 99.5 134.5s34.5 70.5 36.5 94.5
c2 -0.666992 5.83301 -2.66699 11.5 -6s11.5 -7.5 17.5 -12.5s11.333 -10.833 16 -17.5s7 -13.334 7 -20.001c0 -4.66699 -1.66699 -9.83398 -5 -15.501s-5 -12.167 -5 -19.5c0 -12.667 2.66699 -27.5 8 -44.5l17.5 -54.5c6.33301 -19.333 12.166 -39.666 17.499 -60.999
s8 -42.666 8 -63.999c0 -17.333 -2.16699 -34 -6.5 -50s-11.833 -31.667 -22.5 -47c8 -4 15.667 -7.33301 23 -10s15 -4 23 -4c15.333 0 26.166 1.16699 32.499 3.5s10.833 5 13.5 8s4.5 5.83301 5.5 8.5s3.5 4 7.5 4c2.66699 0 4 -1.33301 4 -4c0 -2 -1 -4 -3 -6
c-0.666992 -1.33301 -1.33398 -2 -2.00098 -2zM86.001 208.999c-13.333 -7.33301 -23.834 -19.5 -31.501 -36.5s-11.5 -35.167 -11.5 -54.5c0 -5.33301 0.333008 -9.33301 1 -12c10 6.66699 24.667 17 44 31s39.666 31.333 60.999 52
c-9.33301 6.66699 -18.666 12 -27.999 16s-17.666 6 -24.999 6c-2.66699 0 -6 -0.666992 -10 -2zM192 -2.00098c21.333 0 43.332 3.16797 65.999 9.50098s41.667 18.166 57 35.499c-23.333 17.333 -45.5 37 -66.5 59s-46.5 45.333 -76.5 70
c-28 -22.667 -53.667 -40.167 -77 -52.5s-39.666 -20.5 -48.999 -24.5c4 -16.667 10.667 -31 20 -43s20.5 -22 33.5 -30s27.333 -14 43 -18s32.167 -6 49.5 -6zM325.999 57c9.33301 16.667 14 34.667 14 54c0 18 -2 35.167 -6 51.5s-8.83301 32.166 -14.5 47.499
s-11.334 29.833 -17.001 43.5s-9.83398 26.5 -12.501 38.5c-15.333 -18.667 -31.166 -36.667 -47.499 -54s-33.166 -33.666 -50.499 -48.999c26.667 -24.667 50.5 -48.667 71.5 -72s41.833 -43.333 62.5 -60z" />
    <glyph glyph-name="T" unicode="T" horiz-adv-x="307" 
d="M-57 198c0 36 6.83789 67.8301 20.5049 95.4971s32 50.667 55 69s50 32.333 81 42s63.5 14.5 97.5 14.5c24.667 0 48.167 -1.5 70.5 -4.5l62.5 -8.5c24.667 -3.33301 46.334 -5.83301 65.001 -7.5s34.667 -2.5 48 -2.5c26 0 48 1.83301 66 5.5
s32.833 7.83398 44.5 12.501s20.5 8.83398 26.5 12.501s10 5.5 12 5.5s3.66699 -2 5 -6s2.5 -8.33301 3.5 -13s1.83301 -9 2.5 -13l1 -6c0 -7.33301 -1.16699 -13.833 -3.5 -19.5s-4.83301 -10.167 -7.5 -13.5c-2.66699 -4 -6 -7.66699 -10 -11
c-4.66699 -3.33301 -16.334 -7.66602 -35.001 -12.999s-43.334 -8 -74.001 -8c-18.667 0 -39 1.33301 -61 4s-44.333 6.33398 -67 11.001c0 -3.33301 -0.333008 -7.16602 -1 -11.499s-2 -9.16602 -4 -14.499c-0.666992 0 -4.33398 -7.5 -11.001 -22.5
s-14.5 -34.167 -23.5 -57.5l-29 -77.5c-10.333 -28.333 -19.833 -56 -28.5 -83s-15.834 -51.667 -21.501 -74s-8.5 -39.166 -8.5 -50.499c-6.66699 1.33301 -12.667 3.33301 -18 6c-4.66699 2 -9.16699 5 -13.5 9s-7.16602 9 -8.49902 15c4 32 9.66699 66.667 17 104
c6.66699 32 15.667 69.5 27 112.5s26.666 88.833 45.999 137.5c0.666992 1.33301 1.33398 3.33301 2.00098 6c0.666992 2 1.16699 4.16699 1.5 6.5s1.16602 5.16602 2.49902 8.49902c-16.667 3.33301 -33.334 6.16602 -50.001 8.49902s-33.667 3.5 -51 3.5
c-27.333 0 -53.166 -4 -77.499 -12s-46 -19.833 -65 -35.5s-34 -34.834 -45 -57.501s-16.5 -48.667 -16.5 -78c0 -22.667 3.5 -42.334 10.5 -59.001s16.333 -30.5 28 -41.5s25 -19.333 40 -25s30.5 -8.5 46.5 -8.5c9.33301 0 16.666 0.666992 21.999 2s8.66602 2 9.99902 2
s2.66602 -0.333008 3.99902 -1c2 -0.666992 3.33301 -2 4 -4c-1.33301 -2.66699 -4 -5 -8 -7c-3.33301 -2 -8.83301 -3.66699 -16.5 -5s-18.5 -2 -32.5 -2c-10.667 0 -23.667 2.33301 -39 7s-30.166 13 -44.499 25s-26.5 28.333 -36.5 49s-15 47 -15 79z" />
    <glyph glyph-name="U" unicode="U" horiz-adv-x="536" 
d="M517 46l-11.502 -14.0059c-4.33301 -5.33301 -9.5 -10.5 -15.5 -15.5s-13 -9.16699 -21 -12.5s-17 -5 -27 -5c-9.33301 0 -17.666 1.83301 -24.999 5.5s-14.666 11.167 -21.999 22.5c-13.333 -17.333 -30.666 -31.333 -51.999 -42s-45 -16 -71 -16
c-16.667 0 -33.667 3 -51 9s-33 14.833 -47 26.5s-25.333 25.834 -34 42.501s-13 35.667 -13 57c0 29.333 4.33301 55.666 13 78.999s15.667 43.666 21 60.999c-18 -8 -36.167 -14 -54.5 -18s-34.833 -6 -49.5 -6c-19.333 0 -32.666 0.833008 -39.999 2.5
s-11 4.16699 -11 7.5c0 2.66699 3.33301 4.33398 10 5.00098s15.5 1.66699 26.5 3s23.5 3.66602 37.5 6.99902s28 9.66602 42 18.999c14 6.66699 26 14.5 36 23.5s18.5 17.667 25.5 26s12.167 15.5 15.5 21.5s5.33301 10 6 12l2.5 6.5l5.5 15
c2 5.66699 3.66699 11.334 5 17.001s2 10.5 2 14.5c1.33301 -0.666992 4.83301 -2 10.5 -4s11.834 -5 18.501 -9s12.5 -8.83301 17.5 -14.5s7.5 -12.5 7.5 -20.5c0 -3.33301 -0.333008 -7 -1 -11s-1.66699 -8.33301 -3 -13l-26.5 -52.5c-9.66699 -19 -19 -38.667 -28 -59
s-16.833 -41.5 -23.5 -63.5s-10.334 -44 -11.001 -66c0 -10 3 -19.667 9 -29s14 -17.5 24 -24.5s21 -12.5 33 -16.5s24 -6 36 -6c22 0 42.5 6.83301 61.5 20.5s34.167 30.167 45.5 49.5c0 1.33301 0.333008 2.33301 1 3c2.66699 24.667 8.5 52.334 17.5 83.001
s18.667 60.334 29 89.001s20.166 53.834 29.499 75.501s15.666 35.5 18.999 41.5c2 7.33301 4.33301 14.666 7 21.999c2 6 3.83301 12 5.5 18s2.5 11 2.5 15c1.33301 -0.666992 5 -2.16699 11 -4.5s12.5 -5.5 19.5 -9.5s13.167 -9 18.5 -15s8 -13 8 -21
c0 -8.66699 -1.66699 -16.667 -5 -24s-8.66602 -18.166 -15.999 -32.499l-24.5 -49.5l-28 -60c-9.66699 -21.333 -18.334 -42.166 -26.001 -62.499s-14 -39.166 -19 -56.499s-7.5 -31.666 -7.5 -42.999c0 -14 5.66699 -21 17 -21s25.333 6.83301 42 20.5
s31.667 35.834 45 66.501l2 1c3.33301 0 5.66602 -0.666992 6.99902 -2s2 -2.33301 2 -3c0 -2 -2.16699 -9.5 -6.5 -22.5s-12.166 -27.5 -23.499 -43.5z" />
    <glyph glyph-name="V" unicode="V" horiz-adv-x="445" 
d="M452 326c0 -14.667 -2.1709 -33.1689 -6.50391 -55.502s-10.666 -46 -18.999 -71s-18.5 -49.833 -30.5 -74.5s-25.667 -46.834 -41 -66.501s-32.333 -35.667 -51 -48s-38.667 -18.5 -60 -18.5c-20.667 0 -37.167 6.83301 -49.5 20.5s-21.666 31.334 -27.999 53.001
s-10 45.5 -11 71.5s-0.166992 51.167 2.5 75.5s6.5 46.333 11.5 66s10.5 34.167 16.5 43.5c-24.667 8.66699 -43.834 15.834 -57.501 21.501s-25.334 10.334 -35.001 14.001s-19.167 6.16699 -28.5 7.5s-22 2 -38 2c-6 0 -12.333 -0.666992 -19 -2
c2 1.33301 2.83301 5.66602 2.5 12.999s0.5 15 2.5 23s6 15.167 12 21.5s15.667 9.5 29 9.5c14 0 27.667 -2.5 41 -7.5s26.333 -11.167 39 -18.5s24.834 -15 36.501 -23s23.167 -15 34.5 -21c8 14.667 18.833 26.167 32.5 34.5s27 13 40 14s24.333 -2.16699 34 -9.5
s14.5 -19.666 14.5 -36.999c0 -16.667 -6.5 -30.667 -19.5 -42s-29.167 -17 -48.5 -17c-9.33301 0 -18.666 1 -27.999 3s-17.333 4.33301 -24 7c-5.33301 -2.66699 -9.66602 -11.5 -12.999 -26.5s-5.5 -33 -6.5 -54s-0.833008 -43.167 0.5 -66.5s4 -45 8 -65
s9.16699 -36.5 15.5 -49.5s14.5 -19.5 24.5 -19.5c22 0 41.5 8.33301 58.5 25s31.833 38 44.5 64s22.834 54.5 30.501 85.5s13 60.667 16 89s3.5 53.5 1.5 75.5s-6.66699 37 -14 45c2.66699 0 5.33398 0.333008 8.00098 1c2.66699 0 5.66699 0.166992 9 0.5
s6.66602 0.5 9.99902 0.5c5.33301 0 11.833 -0.666992 19.5 -2s13.167 -3.66602 16.5 -6.99902c0.666992 -2 2 -3.5 4 -4.5s4 -3.83301 6 -8.5s3.66699 -12.334 5 -23.001s2 -27 2 -49zM297.996 364.998c0 14 -3.66797 22.833 -11.001 26.5s-15.666 4.16699 -24.999 1.5
s-18 -7.66699 -26 -15s-12.667 -15.333 -14 -24c7.33301 -4 16.333 -7.83301 27 -11.5s19.667 -5.5 27 -5.5s12.833 2.83301 16.5 8.5s5.5 12.167 5.5 19.5z" />
    <glyph glyph-name="W" unicode="W" horiz-adv-x="567" 
d="M760 435c8 0 15.8301 -1.00586 23.4971 -3.00586s14.5 -5.16699 20.5 -9.5s11 -10.166 15 -17.499s6 -16.333 6 -27c0 -6.66699 -1 -14.334 -3 -23.001l-1 -1c-1.33301 -1.33301 -2.66602 -2 -3.99902 -2c-2 0 -4.33301 0.833008 -7 2.5s-6.16699 3.16699 -10.5 4.5
s-10.333 2.66602 -18 3.99902s-17.834 2 -30.501 2c-18 0 -34.833 -1.16699 -50.5 -3.5s-30.667 -5.16602 -45 -8.49902l-44 -10c-15 -3.33301 -31.167 -6 -48.5 -8c1.33301 -15.333 1.33301 -35.166 0 -59.499s-4.66602 -50.166 -9.99902 -77.499
s-12.666 -54.666 -21.999 -81.999s-21.166 -52.166 -35.499 -74.499s-31.5 -40.333 -51.5 -54s-43 -20.5 -69 -20.5c-11.333 0 -21.5 3 -30.5 9s-17 13.167 -24 21.5s-13 16.833 -18 25.5l-12.5 21l-12.5 -12c-5 -4.66699 -10.667 -9.16699 -17 -13.5
s-13.333 -8.16602 -21 -11.499s-15.834 -5 -24.501 -5c-12.667 0 -23.667 3.16699 -33 9.5s-17 14.333 -23 24s-10.333 20.167 -13 31.5s-4 22.333 -4 33c0 23.333 4.16699 47.333 12.5 72s18.5 48.167 30.5 70.5s24.667 42.833 38 61.5s25.333 34 36 46
c-13.333 -3.33301 -30.333 -9.83301 -51 -19.5s-40.667 -22 -60 -37s-36 -32.667 -50 -53s-21 -43.166 -21 -68.499c0 -5.33301 0.333008 -9 1 -11c0.666992 -2.66699 3 -3.5 7 -2.5s8.33301 3 13 6s9.33398 6.83301 14.001 11.5s8 9 10 13
c1.33301 2.66699 3.33301 4.66699 6 6s5.16699 2 7.5 2s4.16602 -1 5.49902 -3s1 -5.66699 -1 -11c-2 -4 -4.5 -10.167 -7.5 -18.5s-7.16699 -16.666 -12.5 -24.999s-12.166 -15.5 -20.499 -21.5s-18.5 -9 -30.5 -9c-9.33301 0 -17.333 2.16699 -24 6.5
s-12.334 9.83301 -17.001 16.5s-8 14 -10 22s-3 15.667 -3 23c0 30.667 8.83301 58.334 26.5 83.001s40 45.667 67 63s56.5 30.5 88.5 39.5s62.667 13.5 92 13.5c4 0 7.5 -1.5 10.5 -4.5s3.83301 -5.5 2.5 -7.5c-3.33301 -5.33301 -11 -15.333 -23 -30
s-24.667 -32.667 -38 -54s-25.666 -45.5 -36.999 -72.5s-18 -55.5 -20 -85.5c-1.33301 -15.333 -0.666016 -27.833 2.00098 -37.5s6 -17.167 10 -22.5s8 -9.16602 12 -11.499s6.66699 -3.5 8 -3.5h2c7.33301 0 14.166 1.66699 20.499 5s12 7.16602 17 11.499
s9.33301 8.83301 13 13.5l8.5 11c-9.33301 34 -11.5 68.167 -6.5 102.5s14 65.333 27 93s28.5 50.167 46.5 67.5s35.667 26 53 26c8.66699 0 16.167 -2 22.5 -6s11.5 -9 15.5 -15s7 -12.667 9 -20s3 -14 3 -20c0 -21.333 -3.33301 -43.333 -10 -66
s-15.167 -44.334 -25.5 -65.001s-22 -39.5 -35 -56.5s-25.5 -30.833 -37.5 -41.5c0.666992 -4 2.16699 -9.16699 4.5 -15.5s5 -12.666 8 -18.999s6.33301 -12.166 10 -17.499s7.5 -8.33301 11.5 -9c14 -4 28 -1.5 42 7.5s27.333 22.167 40 39.5s24.334 37.666 35.001 60.999
s19.667 47 27 71s12.666 47.5 15.999 70.5s4 42.833 2 59.5c-16 2 -27.667 7.5 -35 16.5s-11 17.833 -11 26.5c0 16 4.5 28 13.5 36s17.167 11.333 24.5 10c10 -2 17 -9 21 -21s7 -22 9 -30c32 15.333 64.333 29.166 97 41.499s68 19.166 106 20.499zM516.997 383.994
c0 -4.66699 1.66602 -8.16602 4.99902 -10.499s7 -3.83301 11 -4.5c0.666992 0 1 1.66699 1 5s-0.166992 7 -0.5 11s-1.16602 7.66699 -2.49902 11s-3.33301 4.66602 -6 3.99902c-4 -2 -6.33301 -4 -7 -6s-1 -5.33301 -1 -10zM330.996 153.995
c0 -5.33301 0 -7.83398 0 -7.50098s0.333008 -2.16699 1 -7.5c6 10.667 13.5 25 22.5 43s17.167 36 24.5 54s12.5 33.833 15.5 47.5s1.5 21.5 -4.5 23.5c-7.33301 -1.33301 -14.5 -7.66602 -21.5 -18.999s-13.167 -24.833 -18.5 -40.5s-9.83301 -32 -13.5 -49
s-5.5 -31.833 -5.5 -44.5z" />
    <glyph glyph-name="X" unicode="X" horiz-adv-x="743" 
d="M764 171c2 -1.33301 2.99512 -3.00293 2.99512 -5.00293c-0.666992 -3.33301 -5.66699 -15.666 -15 -36.999s-22.333 -45 -39 -71c-4 -6.66699 -9.5 -15.334 -16.5 -26.001s-15.333 -21.167 -25 -31.5s-21 -19.166 -34 -26.499s-27.833 -11 -44.5 -11
c-15.333 0 -28.166 3.16699 -38.499 9.5s-18.666 13.833 -24.999 22.5s-11.5 17.5 -15.5 26.5s-7.33301 16.167 -10 21.5c-17.333 -20 -36.333 -38.5 -57 -55.5s-42.667 -31.667 -66 -44s-48 -22.166 -74 -29.499s-53 -11 -81 -11c-26 0 -51.333 4.16699 -76 12.5
s-46.667 20.5 -66 36.5s-34.833 36 -46.5 60s-17.5 51.667 -17.5 83c0 38.667 7.16699 72 21.5 100s31.833 50.833 52.5 68.5s42.167 30.667 64.5 39s41.5 12.5 57.5 12.5c23.333 0 42.666 -2.16699 57.999 -6.5s23.666 -6.5 24.999 -6.5l2 -2c2 -2 3 -3.66699 3 -5
s-0.666992 -2.33301 -2 -3s-2.66602 -1 -3.99902 -1c-2 0 -10 1.33301 -24 4s-30.667 4 -50 4c-14 0 -31 -3.5 -51 -10.5s-39 -18 -57 -33s-33.5 -34.5 -46.5 -58.5s-19.5 -53.333 -19.5 -88c0 -24 3.5 -46 10.5 -66s17.667 -37.333 32 -52s32.666 -26 54.999 -34
s48.833 -12 79.5 -12c26.667 0 52.334 4.66699 77.001 14s47.834 21.5 69.501 36.5s42.167 32.333 61.5 52s37 39.5 53 59.5c-7.33301 31.333 -12.666 61.166 -15.999 89.499s-5.66602 54.166 -6.99902 77.499c-22.667 -26.667 -45.167 -45.667 -67.5 -57
s-40.833 -17 -55.5 -17c-12.667 0 -19.667 1 -21 3s-2 2.66699 -2 2c0 1.33301 0.333008 2.33301 1 3c0 1.33301 0.166992 2.16602 0.5 2.49902s0.5 0.833008 0.5 1.5s0.333008 1 1 1c0 -0.666992 0.333008 -1 1 -1h2c3.33301 0 8.16602 0.833008 14.499 2.5
s13.5 4.66699 21.5 9s16.5 10.166 25.5 17.499s17.5 16.666 25.5 27.999c15.333 18 26.333 36.5 33 55.5s11.334 33.833 14.001 44.5c0 18.667 -3.33301 37.667 -10 57c2 0 4.33301 0.333008 7 1c2 0 4.5 0.166992 7.5 0.5s6.16699 0.5 9.5 0.5c4 0 9 -0.166992 15 -0.5
s11.5 -1.66602 16.5 -3.99902s9.33301 -6 13 -11s5.5 -12.167 5.5 -21.5h1c2.66699 -37.333 3.33398 -74.833 2.00098 -112.5s-0.333008 -77.167 3 -118.5c1.33301 2.66699 3.33301 6 6 10c36.667 53.333 65.334 100.5 86.001 141.5l42 83.5c0 2 0.833008 5.16699 2.5 9.5
l5.5 14c2 5 4 9.66699 6 14s3 7.5 3 9.5c0.666992 0 3.66699 -1.33301 9 -4s11 -6 17 -10s11.5 -8.83301 16.5 -14.5s7.5 -11.834 7.5 -18.501c0 -1.33301 -0.166992 -4.66602 -0.5 -9.99902s-1.16602 -8.66602 -2.49902 -9.99902
c-22.667 -45.333 -49.334 -93.666 -80.001 -144.999s-67.334 -101.666 -110.001 -150.999c3.33301 -18 8.66602 -34.167 15.999 -48.5s18.666 -25.166 33.999 -32.499c18.667 0 34.667 4.16699 48 12.5s25 18.333 35 30s18.833 23.5 26.5 35.5s14.834 22 21.501 30
c9.33301 14.667 16.5 26.334 21.5 35.001l11.5 20c2.66699 4.66699 4.5 7.66699 5.5 9s1.83301 2 2.5 2s1.33398 -0.166992 2.00098 -0.5s1.66699 -0.5 3 -0.5z" />
    <glyph glyph-name="Y" unicode="Y" horiz-adv-x="437" 
d="M532 -24c2 0 5.50098 -2.33105 10.501 -6.99805s10 -9.66699 15 -15s9.5 -10.666 13.5 -15.999s6 -8.33301 6 -9l-1 -1v-1c-21.333 -17.333 -46.666 -29.666 -75.999 -36.999s-59.666 -11 -90.999 -11c-28 0 -54.833 2.5 -80.5 7.5s-49.834 10.5 -72.501 16.5
c-13.333 -19.333 -27 -33.166 -41 -41.499s-28.667 -12.5 -44 -12.5c-2 0 -6.33301 0.166992 -13 0.5s-13.834 2 -21.501 5s-14.5 7.83301 -20.5 14.5s-9 16 -9 28c0 10.667 2.16699 19.667 6.5 27s9.33301 13 15 17s11.5 6.83301 17.5 8.5s10.667 2.83398 14 3.50098
c12.667 1.33301 24.5 0.666016 35.5 -2.00098s22.5 -5.66699 34.5 -9l13 31.5c4.66699 11.667 8.66699 23.167 12 34.5c-12 -12.667 -26.667 -22.334 -44 -29.001s-35.666 -10 -54.999 -10c-21.333 0 -40.833 3 -58.5 9s-32.834 15 -45.501 27s-22.5 26.833 -29.5 44.5
s-10.167 38.167 -9.5 61.5c0 15.333 2.83301 33.833 8.5 55.5s12.5 44 20.5 67s16.5 45.167 25.5 66.5l22.5 54l7 21c2 6 3.83301 12 5.5 18s2.5 11 2.5 15c2 -0.666992 6.33301 -2.33398 13 -5.00098s13.334 -6.33398 20.001 -11.001s12.667 -10.334 18 -17.001
s8 -14.334 8 -23.001v-1l-13.5 -25.5l-14.5 -27.5l-25 -47c-9.33301 -17.333 -18 -35.166 -26 -53.499s-14.667 -36.5 -20 -54.5s-8 -34.667 -8 -50c0 -14 3 -26.833 9 -38.5s14 -21.667 24 -30s21.667 -14.666 35 -18.999s27 -6.5 41 -6.5
c24.667 0 45.167 5.16699 61.5 15.5s29.5 23 39.5 38s17.833 30.5 23.5 46.5s10.834 29.667 15.501 41c4 15.333 8 29 12 41s7.5 23.167 10.5 33.5s5.5 20.666 7.5 30.999s3.33301 21.5 4 33.5c1.33301 0 4.83301 -1.33301 10.5 -4s11.667 -6 18 -10s12 -9 17 -15
s7.5 -12.333 7.5 -19c0 -3.33301 -0.333008 -7 -1 -11s-2 -8.66699 -4 -14c0 -0.666992 -2.33301 -6.5 -7 -17.5l-16 -39.5c-6 -15.333 -11.5 -31.833 -16.5 -49.5s-7.5 -33.167 -7.5 -46.5c0 -7.33301 1 -13.333 3 -18s6.66699 -7 14 -7c11.333 0 25.5 6.83301 42.5 20.5
s32.167 35.834 45.5 66.501h1l2 1c4.66699 0 7 -1.33301 7 -4v2c-0.666992 0 -2.33398 -6 -5.00098 -18s-7.66699 -25.333 -15 -40s-17.833 -28 -31.5 -40s-31.5 -18 -53.5 -18c-6 0 -12.333 1.16699 -19 3.5s-13 6.83301 -19 13.5
c-12.667 -28.667 -25.667 -55.334 -39 -80.001c15.333 -2.66699 30.666 -5 45.999 -7s30.333 -3 45 -3c22 0 42.5 2.16699 61.5 6.5s35.667 9.16602 50 14.499s26.166 10.833 35.499 16.5s15.333 10.167 18 13.5h2zM128.001 -101.998c0 -8.66699 3.5 -15 10.5 -19
s14.833 -6 23.5 -6s17.834 3 27.501 9s19.167 17.333 28.5 34c-9.33301 3.33301 -18 6.16602 -26 8.49902s-16.333 3.5 -25 3.5s-17.334 -2.16699 -26.001 -6.5s-13 -12.166 -13 -23.499z" />
    <glyph glyph-name="Z" unicode="Z" horiz-adv-x="472" 
d="M306 427c40 -8 75.667 -16 107 -24l83.5 -22c24.333 -6.66699 46.166 -12 65.499 -16s37 -6 53 -6c30 0 52.333 2.33301 67 7s23.667 7 27 7c1.33301 0 2.33301 -1.33301 3 -4s1.33398 -5.83398 2.00098 -9.50098s1 -7 1 -10v-5.5c0 -9.33301 -1.5 -17.166 -4.5 -23.499
s-6.16699 -11.5 -9.5 -15.5c-4 -4.66699 -8.66699 -8.33398 -14 -11.001c-9.33301 -4.66699 -20.833 -7.5 -34.5 -8.5s-27.834 -0.666992 -42.501 1s-29 4 -43 7s-26 5.83301 -36 8.5c-31.333 -0.666992 -61.833 -11 -91.5 -31s-59 -44.833 -88 -74.5
s-57.667 -62.167 -86 -97.5s-56.5 -68.333 -84.5 -99c22 -3.33301 43.333 -6.33301 64 -9s40.667 -4 60 -4c34.667 0 63.834 4.5 87.501 13.5s42.834 18.833 57.501 29.5s25 20.334 31 29.001s9 12.667 9 12l2 2c1.33301 1.33301 3 2 5 2c3.33301 0 5 -1.66699 5 -5
s-4.33301 -10.666 -13 -21.999s-21.5 -23.166 -38.5 -35.499s-38.5 -23.333 -64.5 -33s-56 -14.5 -90 -14.5c-22 0 -44.667 0.666992 -68 2s-47 3.66602 -71 6.99902l-15.5 -15c-5.66699 -5.33301 -11.834 -10.333 -18.501 -15s-13.667 -8.5 -21 -11.5s-15 -4.5 -23 -4.5
c-6 0 -12.5 1.83301 -19.5 5.5s-13.333 8.5 -19 14.5s-10.5 12.833 -14.5 20.5s-6 15.5 -6 23.5c0 12 6 20.333 18 25c12.667 2.66699 27 2.33398 43 -0.999023s31.333 -6 46 -8c27.333 28.667 53 59.167 77 91.5l72 93.5c24 30 48.833 57.833 74.5 83.5
s53.834 46.5 84.501 62.5c-35.333 14 -70.166 27 -104.499 39s-69.833 18 -106.5 18c-31.333 0 -57.833 -6.33301 -79.5 -19s-39.334 -26.5 -53.001 -41.5s-23.5 -28.833 -29.5 -41.5l-9 -19v1c0 -0.666992 -0.333008 -1.33398 -1 -2.00098s-1.66699 -1 -3 -1
c-2.66699 0 -4.5 0.666992 -5.5 2s-1.5 2.33301 -1.5 3c0 1.33301 1 5 3 11s5.33301 13.667 10 23s11 19.666 19 30.999s17.667 23 29 35c18.667 18.667 41.667 32.167 69 40.5s55.666 12.5 84.999 12.5c8 0 16.167 -0.333008 24.5 -1s16.5 -1.66699 24.5 -3zM77 -33
c4 0 8 1.66699 12 5s7.66699 6.66602 11 9.99902c-7.33301 0 -14.333 0.5 -21 1.5s-12.667 1.5 -18 1.5c2.66699 -5.33301 5.5 -9.66602 8.5 -12.999s5.5 -5 7.5 -5z" />
    <glyph glyph-name="grave" unicode="`" horiz-adv-x="233" 
d="M48 389c2 -3.33301 5.16992 -7.83398 9.50293 -13.501l9.5 -12.5l8.5 -8.5c3.66699 -3.66699 8.5 -7.5 14.5 -11.5s13.333 -7.33301 22 -10s19 -4 31 -4c11.333 0 21.666 1.16699 30.999 3.5s15 3.83301 17 4.5h1v-1c0 -1.33301 0.333008 -2 1 -2
c1.33301 -3.33301 2 -4.5 2 -3.5s0 0.833008 0 -0.5s-2.33301 -3.16602 -7 -5.49902s-10.834 -4.66602 -18.501 -6.99902s-16.334 -4.5 -26.001 -6.5s-19.834 -3 -30.501 -3c-7.33301 0 -15.833 1 -25.5 3s-19 5 -28 9s-16.667 9.33301 -23 16s-9.5 14.667 -9.5 24
c0 3.33301 1 6.5 3 9.5s4.33301 6.16699 7 9.5s6.33398 6.66602 11.001 9.99902z" />
    <glyph glyph-name="a" unicode="a" horiz-adv-x="264" 
d="M274 116c3.33301 -2 5.00391 -3.33105 5.00391 -3.99805c0 -2.66699 -2.16699 -11 -6.5 -25s-10.5 -29 -18.5 -45s-17.833 -30.5 -29.5 -43.5s-24.834 -19.5 -39.501 -19.5c-10 0 -20.167 4.16699 -30.5 12.5s-17.833 22.833 -22.5 43.5l-9.5 -11.5
c-3.66699 -4.33301 -8.33398 -8.33301 -14.001 -12s-12.334 -6.83398 -20.001 -9.50098s-17.167 -4 -28.5 -4c-15.333 0 -27.833 3.66699 -37.5 11s-17.167 16.333 -22.5 27s-9 21.5 -11 32.5s-3 20.5 -3 28.5c0 18.667 3.66699 38.167 11 58.5s17.5 38.833 30.5 55.5
s28.333 30.334 46 41.001s37.167 16 58.5 16c14.667 0 26.167 -2.16699 34.5 -6.5s16.166 -8.83301 23.499 -13.5c1.33301 2 2.16602 4.16699 2.49902 6.5s0.833008 4.16602 1.5 5.49902c0.666992 0 3.66699 -1.5 9 -4.5s11 -7 17 -12s11.333 -10.333 16 -16
s7 -11.5 7 -17.5c0 -5.33301 -1 -10.5 -3 -15.5s-4.33301 -10.167 -7 -15.5h-1l-17.5 -32.5c-6.33301 -11.667 -12.166 -23.5 -17.499 -35.5s-9.83301 -24.333 -13.5 -37s-5.5 -25 -5.5 -37c0 -22 4.66699 -33 14 -33s21.333 9.16699 36 27.5s28 46.166 40 83.499
c0 0.666992 0.666992 1 2 1h4zM130.004 54.002c0 22.667 3.66895 46.001 11.002 70.001s14.666 44.667 21.999 62c-6 6.66699 -12.333 12.167 -19 16.5s-14 6.5 -22 6.5c-11.333 0 -22.833 -3.66699 -34.5 -11s-22.5 -16.833 -32.5 -28.5s-18.167 -24.834 -24.5 -39.501
s-9.5 -29.334 -9.5 -44.001c0 -7.33301 0.5 -14.666 1.5 -21.999s3.33301 -14.333 7 -21s8.66699 -12 15 -16s15.166 -6 26.499 -6s22 3 32 9s19 14 27 24z" />
    <glyph glyph-name="b" unicode="b" horiz-adv-x="221" 
d="M235 108c1.33301 -1.33301 2 -2.66992 2 -4.00293c0 -0.666992 -2.5 -4.5 -7.5 -11.5s-12.333 -14.667 -22 -23s-21.5 -16.166 -35.5 -23.499s-30 -11.666 -48 -12.999c-6 -3.33301 -11.833 -7 -17.5 -11s-11.667 -7.83301 -18 -11.5s-13.833 -6.83398 -22.5 -9.50098
s-19 -4 -31 -4c-16 0 -29.167 4 -39.5 12s-15.5 24.333 -15.5 49c0 22.667 4.16699 49.834 12.5 81.501s17.666 62.5 27.999 92.5s20.666 57.167 30.999 81.5s17.5 40.833 21.5 49.5l7 21c2 6 3.83301 12 5.5 18s2.5 11 2.5 15c1.33301 -0.666992 5 -2.16699 11 -4.5
s12.333 -5.5 19 -9.5s12.667 -8.83301 18 -14.5s8 -12.5 8 -20.5c0 -9.33301 -3.66699 -21.666 -11 -36.999l-34 -71c8 2.66699 17.667 4 29 4c14.667 0 26.834 -2.66699 36.501 -8s17.334 -12 23.001 -20s9.66699 -16.667 12 -26s3.5 -18 3.5 -26c0 -28 -5 -51.667 -15 -71
s-19.667 -35 -29 -47c14 4 25.5 8.5 34.5 13.5s16.333 9.83301 22 14.5s9.66699 8.5 12 11.5l3.5 4.5zM23 35.9961c0.666992 -7.33301 6.33496 -11 17.002 -11c11.333 0 24.666 4 39.999 12c-12.667 0 -23.5 5.5 -32.5 16.5s-15.167 20.5 -18.5 28.5
c-2.66699 -10 -4.33398 -18.833 -5.00098 -26.5s-1 -14.167 -1 -19.5zM113.001 60.9961c12 10 23 24.501 33 43.501s15 38.167 15 57.5c0 11.333 -0.666992 20.333 -2 27s-3 11.667 -5 15s-4.16699 5.5 -6.5 6.5s-4.83301 1.5 -7.5 1.5c-12 0 -22.667 -3.5 -32 -10.5
s-17 -15.5 -23 -25.5s-10.667 -20.833 -14 -32.5s-5 -21.834 -5 -30.501c0 -13.333 3.5 -24.833 10.5 -34.5s19.167 -15.5 36.5 -17.5z" />
    <glyph glyph-name="c" unicode="c" 
d="M231 119c2 -0.666992 2.99316 -1.99512 2.99316 -3.99512c-3.33301 -14.667 -10.666 -29.334 -21.999 -44.001s-24.666 -27.834 -39.999 -39.501s-31.5 -21.167 -48.5 -28.5s-32.833 -11 -47.5 -11c-15.333 0 -28.5 3.16699 -39.5 9.5s-20.167 14.333 -27.5 24
s-12.833 20.5 -16.5 32.5s-5.5 23.667 -5.5 35c0 41.333 9.5 78.666 28.5 111.999s49.167 57 90.5 71c6 2 12 3 18 3c14.667 0 26.334 -3.83301 35.001 -11.5s15.334 -16.334 20.001 -26.001s7.66699 -19 9 -28s2 -14.5 2 -16.5c0 -7.33301 -0.833008 -15.5 -2.5 -24.5
s-4.16699 -17.5 -7.5 -25.5s-8 -14.667 -14 -20s-13 -8 -21 -8c-5.33301 0 -10.666 0.666992 -15.999 2s-10.333 2.66602 -15 3.99902l-16 6c7.33301 9.33301 13 18.333 17 27s6.66699 16.334 8 23.001c2 7.33301 3 14 3 20c0 10.667 -4 16 -12 16
c-7.33301 0 -15.833 -3.66699 -25.5 -11s-19.167 -16.833 -28.5 -28.5s-17.166 -25 -23.499 -40s-9.5 -30.167 -9.5 -45.5c0 -20.667 6 -37.667 18 -51s27 -20 45 -20c9.33301 0 18.333 1.66699 27 5s17 7.16602 25 11.499s15.333 9 22 14s12.334 9.5 17.001 13.5
c12.667 10 21.667 18.333 27 25s9 12.167 11 16.5s3.5 7.5 4.5 9.5s3.5 3 7.5 3z" />
    <glyph glyph-name="d" unicode="d" horiz-adv-x="270" 
d="M260 45c-2.66699 -4 -6.1709 -8.66602 -10.5039 -13.999s-9.66602 -10.5 -15.999 -15.5s-13.5 -9.16699 -21.5 -12.5s-17 -5 -27 -5c-7.33301 0 -16.166 2.16699 -26.499 6.5s-17.166 12.833 -20.499 25.5c-5.33301 -5.33301 -14.333 -12.333 -27 -21
s-27.667 -13 -45 -13c-14.667 0 -27 3.5 -37 10.5s-18 15.5 -24 25.5s-10.333 20.833 -13 32.5s-4 22.5 -4 32.5c0 16 3.33301 33.833 10 53.5s16.334 38.167 29.001 55.5s28 31.833 46 43.5s38 17.5 60 17.5c10 0 19.167 -1 27.5 -3s15.5 -4.66699 21.5 -8l26.5 65.5
l17.5 41.5l7 21c2 6 3.83301 12 5.5 18s2.5 11 2.5 15c1.33301 -0.666992 5 -2.16699 11 -4.5s12.333 -5.5 19 -9.5s12.667 -8.83301 18 -14.5s8 -12.167 8 -19.5c0 -3.33301 -0.333008 -7 -1 -11s-2 -8.66699 -4 -14c-4.66699 -10.667 -13.334 -28.834 -26.001 -54.501
l-39.5 -83.5c-13.667 -30 -25.667 -59.5 -36 -88.5s-15.5 -51.833 -15.5 -68.5c0 -14 5.66699 -21 17 -21s25.333 6.83301 42 20.5s31.667 35.834 45 66.501l2 1c2.66699 0 5 -1 7 -3l2 -2c0 -2.66699 -2.16699 -10.334 -6.5 -23.001s-12.166 -27 -23.499 -43z
M133.996 48.001c-0.666992 2.66699 -1.00488 7.33398 -1.00488 14.001c0 18.667 2.66699 39.667 8 63s12 46.666 20 69.999c-10.667 8.66699 -23 13 -37 13c-13.333 0 -26.166 -4.16699 -38.499 -12.5s-23.166 -19 -32.499 -32s-16.833 -27.167 -22.5 -42.5
s-8.5 -30.333 -8.5 -45c0 -19.333 5.83301 -33.5 17.5 -42.5s24.834 -13.5 39.501 -13.5c10.667 0 20.834 2.33301 30.501 7s17.834 11.667 24.501 21z" />
    <glyph glyph-name="e" unicode="e" horiz-adv-x="213" 
d="M219 90c1.33301 -1.33301 1.99902 -2.66406 1.99902 -3.99707c-10 -18.667 -21.667 -35 -35 -49c-11.333 -12 -25.833 -23 -43.5 -33s-38.167 -15 -61.5 -15c-17.333 0 -32 3.66699 -44 11s-21.667 16.5 -29 27.5s-12.5 22.833 -15.5 35.5s-4.5 24 -4.5 34
c0 22.667 3.66699 44.5 11 65.5s17.333 39.833 30 56.5s27 30 43 40s32.667 15 50 15c21.333 0 37.833 -6 49.5 -18s17.5 -25 17.5 -39s-3 -27.333 -9 -40s-14.167 -23.834 -24.5 -33.501s-22.5 -17.334 -36.5 -23.001s-28.667 -8.5 -44 -8.5
c-10.667 0 -19.667 1.16699 -27 3.5s-12.666 5.16602 -15.999 8.49902c-4 -12 -6 -24 -6 -36c0 -18.667 5.83301 -35.5 17.5 -50.5s27.167 -22.5 46.5 -22.5c14.667 0 29.5 4 44.5 12s26.833 15 35.5 21c10 7.33301 17.833 13.666 23.5 18.999s9.83398 9.83301 12.501 13.5
s4.5 6.33398 5.5 8.00098s2.16699 2.5 3.5 2.5s2.66602 -0.333008 3.99902 -1zM60.999 183.002c-9.33301 -13.333 -17.667 -28.002 -25 -44.002c2 -0.666992 6.33301 -1 13 -1c10 0 19.667 2.33301 29 7s17.5 10.334 24.5 17.001s12.667 13.834 17 21.501
s6.5 14.167 6.5 19.5c0 8.66699 -4.66699 13 -14 13c-6.66699 0 -14.5 -2.5 -23.5 -7.5s-18.167 -13.5 -27.5 -25.5z" />
    <glyph glyph-name="f" unicode="f" horiz-adv-x="146" 
d="M16 -153c-2.66699 -0.666992 -6 -1.00391 -10 -1.00391c-12 0 -21.333 2.33301 -28 7s-11.667 10.334 -15 17.001s-5.33301 13.834 -6 21.501s-1 14.5 -1 20.5c0 22 2.83301 46.333 8.5 73s12.5 53.334 20.5 80.001s16.333 52.334 25 77.001l22 64
c-12.667 21.333 -22.167 36.833 -28.5 46.5s-9.5 15.5 -9.5 17.5c0 1.33301 0.666992 2.5 2 3.5s2.66602 1.5 3.99902 1.5c8 -1.33301 16.667 -2.5 26 -3.5s18.666 -2.16699 27.999 -3.5l21 54l16 41l7 21c2 6 3.83301 12 5.5 18s2.5 11 2.5 15
c1.33301 -0.666992 5 -2.16699 11 -4.5s12.333 -5.5 19 -9.5s12.667 -8.83301 18 -14.5s8 -12.167 8 -19.5c0 -6 -1.5 -13.167 -4.5 -21.5s-6.66699 -17.166 -11 -26.499l-14 -29.5c-5 -10.333 -9.5 -20.5 -13.5 -30.5c22.667 -2 37.834 -3.5 45.501 -4.5
s11.5 -2.16699 11.5 -3.5c0 -2 -6.16699 -3.16699 -18.5 -3.5s-27.166 -0.833008 -44.499 -1.5l-17.5 -40.5l-17.5 -43.5l16.5 -31.5c6.33301 -11.667 12.166 -24.167 17.499 -37.5s9.83301 -27.833 13.5 -43.5s5.5 -32.5 5.5 -50.5c0 -26 -4.66699 -48.5 -14 -67.5
s-20.166 -34.667 -32.499 -47s-25 -21.833 -38 -28.5s-23.167 -10.334 -30.5 -11.001zM27 241.996c2 -2.66699 4 -5.16797 6 -7.50098s4 -5.16602 6 -8.49902c1.33301 3.33301 2.5 6.83301 3.5 10.5s2.16699 7.16699 3.5 10.5h-17c-2.66699 0 -4 -0.666992 -4 -2
c0 -0.666992 0.666992 -1.66699 2 -3zM7 -66.0049c-0.666992 -4 -1.16797 -8.16895 -1.50098 -12.502s-0.5 -8.83301 -0.5 -13.5c0 -6 0.833008 -11.167 2.5 -15.5s5.16699 -6.5 10.5 -6.5c14 0 26.167 4.83301 36.5 14.5s19 21.334 26 35.001s12.167 27.834 15.5 42.501
s5 27 5 37c0 22.667 -3.5 44.5 -10.5 65.5s-14.5 40.167 -22.5 57.5c-12.667 -32 -24.667 -65.5 -36 -100.5s-19.666 -69.5 -24.999 -103.5z" />
    <glyph glyph-name="g" unicode="g" horiz-adv-x="239" 
d="M248 249c0.666992 -1.33301 1 -3.66016 1 -6.99316c0 -5.33301 -1.33301 -11 -4 -17l-52 -112c-18.667 -40.667 -35 -81.667 -49 -123c12.667 -0.666992 25.667 -1.66699 39 -3s25.333 -3.83301 36 -7.5s19.334 -9 26.001 -16s10 -16.167 10 -27.5
c0 -8.66699 -2 -17.334 -6 -26.001s-9.5 -16.334 -16.5 -23.001s-15 -12.167 -24 -16.5s-18.5 -6.5 -28.5 -6.5c-17.333 0 -33.666 6.66699 -48.999 20s-24.666 30.666 -27.999 51.999c-12 -1.33301 -26 -3.16602 -42 -5.49902s-31.333 -4.83301 -46 -7.5
s-27 -5.66699 -37 -9s-15 -6.33301 -15 -9c-2 8 -3 15.333 -3 22c0 10 1.66699 18.333 5 25s7.16602 12 11.499 16s8.66602 7 12.999 9s7.5 3.33301 9.5 4c16 2.66699 32.667 4.5 50 5.5l58 3.5c0.666992 3.33301 1.33398 6.16602 2.00098 8.49902
s1.33398 5.16602 2.00098 8.49902c-6 -2.66699 -12.333 -5.33398 -19 -8.00098s-15 -4 -25 -4c-16 0 -29 3.5 -39 10.5s-17.833 15.5 -23.5 25.5s-9.66699 20.667 -12 32s-3.83301 21.333 -4.5 30c0 18 3.33301 37.167 10 57.5s16.167 39 28.5 56s27.166 31.167 44.499 42.5
s37 17.666 59 18.999c13.333 0 24.666 -1.33301 33.999 -4s17.666 -5.66699 24.999 -9c3.33301 5.33301 6.5 10.666 9.5 15.999s4.83301 11 5.5 17c7.33301 -4 14 -8 20 -12c5.33301 -3.33301 10.333 -7.33301 15 -12s7.66699 -9.66699 9 -15zM202 -51.9941
c-11.333 0 -23.502 -1.33105 -36.502 -3.99805s-29.5 -4.66699 -49.5 -6c2 -0.666992 4.33301 -1 7 -1c2 -0.666992 3.83301 -1 5.5 -1s3.16699 -0.333008 4.5 -1c3.33301 -13.333 9.83301 -25 19.5 -35s20.834 -15 33.501 -15c8.66699 0 18.5 3.66699 29.5 11
s16.5 18.666 16.5 33.999c0 5.33301 -2.16699 9.66602 -6.5 12.999s-12.166 5 -23.499 5zM116.998 35.0078c7.33301 30 15.666 58.6641 24.999 85.9971l25 73c-11.333 9.33301 -24.666 14 -39.999 14c-12 0 -24 -3.5 -36 -10.5s-23 -16.167 -33 -27.5
s-18.167 -24.166 -24.5 -38.499s-9.5 -29.166 -9.5 -44.499c0 -8 0.666992 -16 2 -24s3.66602 -15.167 6.99902 -21.5s8.33301 -11.666 15 -15.999s15.667 -6.5 27 -6.5c3.33301 0 7.33301 0.5 12 1.5s9.33398 2.16699 14.001 3.5s8.5 3 11.5 5s4.5 4 4.5 6z" />
    <glyph glyph-name="h" unicode="h" horiz-adv-x="230" 
d="M248 116c3.33301 -2 4.99707 -3.33496 4.99707 -4.00195c0 -2 -2.33301 -9 -7 -21s-11.167 -25 -19.5 -39s-18.333 -26.5 -30 -37.5s-24.5 -16.5 -38.5 -16.5c-15.333 0 -28.333 7.83301 -39 23.5s-16 34.167 -16 55.5c0 12 0.833008 22.5 2.5 31.5
s4.16699 19.167 7.5 30.5l-23 -43l-23 -45c-7.33301 -14.667 -13.833 -28.334 -19.5 -41.001s-9.5 -22.667 -11.5 -30c-2.66699 -8 -7.16699 -14.333 -13.5 -19s-13.166 -7 -20.499 -7c-8 0 -15.5 3.33301 -22.5 10s-10.5 18.667 -10.5 36c0 16 2.5 35.833 7.5 59.5
s11.333 48.667 19 75s16 52.833 25 79.5s17.667 51.167 26 73.5s15.833 41.5 22.5 57.5s11 26.667 13 32c2 7.33301 4.33301 14.666 7 21.999c2 6 3.83301 12 5.5 18s2.5 11 2.5 15c0.666992 -0.666992 4 -2.16699 10 -4.5s12.5 -5.5 19.5 -9.5s13.167 -8.83301 18.5 -14.5
s8 -12.167 8 -19.5c0 -8 -1.66699 -16.667 -5 -26c-3.33301 -6.66699 -8.83301 -18.334 -16.5 -35.001l-26.5 -57.5l-31.5 -70c-11 -25 -21 -49.333 -30 -73s-16.5 -45.5 -22.5 -65.5s-9 -36 -9 -48c0 0.666992 0.333008 1 1 1c28 50.667 52 91.334 72 122.001l48.5 72.5
l26.5 38c5.33301 7.66699 7 13.834 5 18.501c0.666992 0 3.5 -1.5 8.5 -4.5s10.167 -7 15.5 -12s10.333 -10.333 15 -16s7 -11.5 7 -17.5c0 -3.33301 -1 -8 -3 -14c-4 -10.667 -9.16699 -21.5 -15.5 -32.5l-19 -33.5c-6.33301 -11.333 -11.666 -23.166 -15.999 -35.499
s-6.5 -24.833 -6.5 -37.5c0 -7.33301 0.833008 -14.166 2.5 -20.499s5.83398 -9.5 12.501 -9.5c9.33301 0 21 6.83301 35 20.5s27.667 35.834 41 66.501c0 0.666992 0.666992 1 2 1h4z" />
    <glyph glyph-name="i" unicode="i" horiz-adv-x="123" 
d="M38 -2c-19.333 0 -33.4971 7.49902 -42.4971 22.499s-13.5 31.833 -13.5 50.5c0 20 3 40.333 9 61s12.667 40 20 58s14.166 34 20.499 48s10.166 24.333 11.499 31c-0.666992 -1.33301 1.5 -3 6.5 -5s10.5 -5 16.5 -9s11.667 -9.16699 17 -15.5s8 -14.5 8 -24.5
c0 -8 -3.66699 -16.667 -11 -26l-34.5 -68c-11.667 -24 -17.5 -46.667 -17.5 -68c0 -7.33301 1 -13.333 3 -18s6.66699 -7 14 -7c11.333 0 25.333 6.83301 42 20.5s31.667 35.834 45 66.501l2 1c2.66699 0 5 -1 7 -3l2 -2c0 0.666992 -1.5 -4.83301 -4.5 -16.5
s-8.5 -24.667 -16.5 -39s-18.833 -27.5 -32.5 -39.5s-30.834 -18 -51.501 -18zM129.003 298.999c-3.33301 -7.33301 -8.33203 -13.335 -14.999 -18.002s-13.667 -7 -21 -7c-9.33301 0 -16 3.33301 -20 10s-6 14.334 -6 23.001c0 10.667 3.16699 19.334 9.5 26.001
s14.166 10 23.499 10s17 -3 23 -9s9 -13.333 9 -22c0 -4.66699 -1 -9 -3 -13z" />
    <glyph glyph-name="j" unicode="j" horiz-adv-x="127" 
d="M0 144l25 64.5l24 60.5c-0.666992 -1.33301 1.5 -3 6.5 -5s10.5 -5 16.5 -9s11.667 -9.16699 17 -15.5s8 -13.833 8 -22.5c0 -4 -0.666992 -8 -2 -12l-19.5 -36c-7 -12.667 -13.5 -25.5 -19.5 -38.5s-11.167 -26 -15.5 -39s-6.5 -25.5 -6.5 -37.5c0 -8 1 -14.333 3 -19
s6.66699 -7 14 -7c11.333 0 25.333 6.83301 42 20.5s31.667 35.834 45 66.501l2 1c2 0 4 -1 6 -3l2 -2l-5 -17.5c-3.33301 -11.667 -8.83301 -24.667 -16.5 -39s-18.167 -27.333 -31.5 -39s-30.333 -17.5 -51 -17.5c-6.66699 0 -13.5 1.33301 -20.5 4
s-13.5 7.66699 -19.5 15c-2.66699 -5.33301 -5 -10.333 -7 -15s-4.33301 -9.33398 -7 -14.001c30.667 -4 52.334 -6.66699 65.001 -8s19 -7.33301 19 -18c0 -14 -0.666992 -26.167 -2 -36.5s-2.66602 -15.5 -3.99902 -15.5c-14.667 4 -30.834 9 -48.501 15
s-35.834 11.667 -54.501 17c-15.333 -22 -29.833 -37.667 -43.5 -47s-29.167 -14 -46.5 -14c-6 0 -12.5 0.833008 -19.5 2.5s-13.5 4.5 -19.5 8.5s-11 9.33301 -15 16s-6 15 -6 25c0 12.667 3.33301 23 10 31s14.167 14.333 22.5 19s16.833 7.66699 25.5 9s15 2 19 2h23
c8 0 16.667 -0.666992 26 -2v1c11.333 26.667 21.833 53 31.5 79zM-77 -53c4.66699 0 8.83301 0.166016 12.5 0.499023s8.16699 -0.166992 13.5 -1.5l-24 7h1c-8 2.66699 -16 4.83398 -24 6.50098s-15.667 2.5 -23 2.5c-11.333 0 -21.5 -3 -30.5 -9s-13.5 -14.667 -13.5 -26
c0 -9.33301 3.16699 -15.5 9.5 -18.5s13.5 -4.5 21.5 -4.5c9.33301 0 18.833 3 28.5 9s19.167 17.333 28.5 34zM75.999 323.999c5.33301 12.667 15.332 19 29.999 19c9.33301 0 16.833 -3.16699 22.5 -9.5s8.5 -13.833 8.5 -22.5c0 -9.33301 -4.16699 -17.833 -12.5 -25.5
s-17.166 -11.5 -26.499 -11.5c-8.66699 0 -15.167 3.33301 -19.5 10s-6.5 14 -6.5 22c0 3.33301 0.333008 6.33301 1 9s1.66699 5.66699 3 9z" />
    <glyph glyph-name="k" unicode="k" horiz-adv-x="217" 
d="M375 -38c18.667 -15.333 27.9971 -33.998 27.9971 -55.998c0 -4.66699 -2 -9.66699 -6 -15s-14.667 -8 -32 -8c-7.33301 0 -16.166 0.833008 -26.499 2.5s-22.333 5.5 -36 11.5s-29 14.333 -46 25s-35.5 25 -55.5 43c-2 1.33301 -3.66699 2.33301 -5 3
s-3.66602 1 -6.99902 1c-6 0 -14 -1 -24 -3s-24.333 -5.33301 -43 -10l-71.5 -18.5l-109.5 -28.5c0 -0.666992 -8 -3.5 -24 -8.5s-37 -11 -63 -18s-55.667 -14.333 -89 -22s-67.5 -14.667 -102.5 -21s-69.5 -11.666 -103.5 -15.999s-64.667 -6.5 -92 -6.5
c-14 0 -32.667 0.666992 -56 2s-48.5 4.5 -75.5 9.5s-54 12.333 -81 22s-51.5 22.5 -73.5 38.5c-8 4.66699 -15 10.667 -21 18c-5.33301 6 -10 13 -14 21s-6 17.667 -6 29c0 8 1.33301 16 4 24c17.333 -16.667 40.666 -31.334 69.999 -44.001
c25.333 -11.333 58.5 -21.5 99.5 -30.5s92.5 -13.5 154.5 -13.5c34.667 0 72.667 2 114 6c36 3.33301 73.667 8 113 14c34 5.33301 71.5 11.833 112.5 19.5s81.833 17.167 122.5 28.5c4 0.666992 12.833 3 26.5 7s30.5 8.5 50.5 13.5s42.333 10 67 15
s49.667 9.16699 75 12.5c-15.333 14.667 -28.166 29 -38.499 43s-18.833 26.667 -25.5 38c-10 -16 -17.833 -29.833 -23.5 -41.5s-10.5 -21.167 -14.5 -28.5s-8.16699 -12.833 -12.5 -16.5s-10.833 -5.5 -19.5 -5.5c-3.33301 0 -6.83301 0.333008 -10.5 1
s-7.33398 2.5 -11.001 5.5s-6.66699 7.83301 -9 14.5s-3.5 15.667 -3.5 27c0 22 4 48.667 12 80s17.167 62.666 27.5 93.999s20.666 60 30.999 86s17.833 44 22.5 54c0.666992 0.666992 1.83398 3.16699 3.50098 7.5s3.5 9.5 5.5 15.5s3.83301 12.333 5.5 19
s2.5 12.334 2.5 17.001c1.33301 0 5 -1.33301 11 -4s12.333 -6.16699 19 -10.5s12.667 -9.5 18 -15.5s8 -12.333 8 -19c0 -3.33301 -3 -11.666 -9 -24.999l-22.5 -48l-29.5 -62c-10.667 -22.667 -20.5 -45.334 -29.5 -68.001s-16.667 -44.167 -23 -64.5
s-9.5 -37.833 -9.5 -52.5c20 36.667 40.333 68.167 61 94.5s39.334 48.166 56.001 65.499s30.167 30.166 40.5 38.499l15.5 12.5c1.33301 -0.666992 3 -1.66699 5 -3c4 -2.66699 6 -4.66699 6 -6l-9 -9c-6 -6 -13.167 -13.833 -21.5 -23.5s-17 -20.334 -26 -32.001
s-16.833 -23.167 -23.5 -34.5c2.66699 -22 11.834 -45.5 27.501 -70.5s33.167 -49.167 52.5 -72.5h7c20.667 -2 41 -5 61 -9c17.333 -3.33301 34.833 -8.16602 52.5 -14.499s33.167 -14.5 46.5 -24.5zM344.997 -93.998c6 -2.66699 12.0029 -3.99805 18.0029 -3.99805
c7.33301 0 12.666 1.66699 15.999 5c2 2 3.66699 4 5 6c-2.66699 11.333 -11 20.666 -25 27.999s-29 13 -45 17c-18.667 4.66699 -40 8 -64 10c8.66699 -10.667 18.667 -19.834 30 -27.501s21.666 -14.167 30.999 -19.5c11.333 -6 22.666 -11 33.999 -15z" />
    <glyph glyph-name="l" unicode="l" horiz-adv-x="88" 
d="M112 469c1.33301 0 5.00391 -1.33398 11.0039 -4.00098s12.5 -6.16699 19.5 -10.5s13.167 -9.5 18.5 -15.5s8 -12.333 8 -19c0 -6 -1.16699 -12.167 -3.5 -18.5s-4.83301 -12.166 -7.5 -17.499l-20.5 -44.5l-29.5 -66l-33 -76.5
c-11.333 -26.667 -21.5 -52.167 -30.5 -76.5s-16.333 -46.666 -22 -66.999s-8.5 -36.166 -8.5 -47.499c0 -1.33301 0.166992 -3 0.5 -5s1.16602 -3 2.49902 -3c3.33301 0 11.833 6 25.5 18s31.167 35.333 52.5 70c5.33301 5.33301 9 8 11 8
c1.33301 -0.666992 2 -2.33398 2 -5.00098c0 -6 -4 -16.333 -12 -31s-17.5 -29.5 -28.5 -44.5s-22.333 -28.167 -34 -39.5s-21.167 -17 -28.5 -17c-2.66699 0 -5.83398 0.166992 -9.50098 0.5s-7.33398 1.83301 -11.001 4.5s-6.83398 6.83398 -9.50098 12.501
s-4 13.5 -4 23.5c0 14 2.16699 31.667 6.5 53s10 44.5 17 69.5s15 51.167 24 78.5l27.5 80l27 74c8.66699 23.333 16.667 43.666 24 60.999c2 7.33301 4.33301 14.666 7 21.999c2 6 3.83301 12 5.5 18s2.5 11 2.5 15z" />
    <glyph glyph-name="m" unicode="m" horiz-adv-x="343" 
d="M163 20c-3.33301 -10.667 -8.33105 -17.166 -14.998 -19.499s-11.334 -3.5 -14.001 -3.5c-16 0 -26.833 6 -32.5 18s-8.5 28 -8.5 48c0 14 1.33301 28.5 4 43.5s6.33398 29.833 11.001 44.5l-27 -60c-8 -18.667 -15.5 -34.834 -22.5 -48.501s-13.667 -24.5 -20 -32.5
s-12.833 -12 -19.5 -12c-15.333 0 -25.833 5.33301 -31.5 16s-8.5 26.334 -8.5 47.001c0 25.333 3.5 50.833 10.5 76.5s15 49 24 70s17.167 38.167 24.5 51.5s11.666 20 12.999 20c5.33301 0 11.333 -1.33301 18 -4s13.334 -5.66699 20.001 -9
c7.33301 -3.33301 15 -7.33301 23 -12c-5.33301 -10.667 -12.833 -24.167 -22.5 -40.5s-19.167 -33.833 -28.5 -52.5s-17.666 -37.667 -24.999 -57s-11 -37.333 -11 -54c31.333 57.333 57.666 102.666 78.999 135.999s36 54 44 62c4 6.66699 7.66699 13.334 11 20.001
c6 11.333 10.333 21.333 13 30c0.666992 0 3.5 -1.5 8.5 -4.5s10.167 -7 15.5 -12s10.333 -10.333 15 -16s7 -11.5 7 -17.5c0 -9.33301 -4 -21.333 -12 -36l-26 -48c-9.33301 -17.333 -18.166 -35.833 -26.499 -55.5s-12.833 -39.5 -13.5 -59.5
c28 50.667 51.167 89.5 69.5 116.5s33.333 48 45 63l27 35.5c6.33301 8.66699 11.166 20 14.499 34l7.5 -4.5c5 -3 10.167 -6.83301 15.5 -11.5s10.333 -9.83398 15 -15.501s7 -11.167 7 -16.5c0 -9.33301 -3.83301 -21.833 -11.5 -37.5s-16.334 -32.5 -26.001 -50.5
s-18.334 -36.333 -26.001 -55s-11.5 -36.334 -11.5 -53.001c0 -7.33301 0.833008 -13.5 2.5 -18.5s5.16699 -7.5 10.5 -7.5c9.33301 0 21 6.83301 35 20.5s27.667 35.834 41 66.501l2 1c2.66699 0 5 -1 7 -3l2 -2c0 -1.33301 -2.16699 -8 -6.5 -20
s-10.666 -24.833 -18.999 -38.5s-18.333 -26.167 -30 -37.5s-24.834 -17 -39.501 -17c-12.667 0 -24.5 6.16699 -35.5 18.5s-16.5 30.5 -16.5 54.5c0 17.333 2.66699 36 8 56s11.333 39 18 57l-24.5 -46.5l-26 -51.5l-21.5 -43.5c-6 -12.333 -9.33301 -19.833 -10 -22.5z
" />
    <glyph glyph-name="n" unicode="n" horiz-adv-x="244" 
d="M130 34c-9.33301 13.333 -14 30.998 -14 52.998c0 18 2 34.167 6 48.5s9.33301 30.5 16 48.5l-22.5 -41.5l-26.5 -50l-23.5 -48c-7 -15 -11.5 -26.167 -13.5 -33.5l-2.5 -6.5c-1.66699 -4.33301 -4.16699 -8.83301 -7.5 -13.5s-7.16602 -9 -11.499 -13
s-9.16602 -6 -14.499 -6c-16 0 -26.667 6.16699 -32 18.5s-8 28.5 -8 48.5c0 22 2.66699 43.667 8 65s11.333 40.666 18 57.999s13 31.833 19 43.5l11 21.5c4 8 8 17.5 12 28.5s6.66699 18.833 8 23.5c2 0 5.66699 -1.66699 11 -5s10.5 -7.5 15.5 -12.5
s9.5 -10.5 13.5 -16.5s6 -11.667 6 -17c0 -11.333 -4 -24 -12 -38l-26.5 -45.5c-9.66699 -16.333 -18.5 -33.5 -26.5 -51.5s-12 -37 -12 -57c0 -5.33301 0.333008 -9.33301 1 -12c22 42 41.167 76.833 57.5 104.5s30.5 50 42.5 67s22 30.333 30 40l19.5 24
c5 6.33301 8.83301 12 11.5 17s5 12.167 7 21.5c0.666992 0 3.5 -1.5 8.5 -4.5s10.167 -7 15.5 -12s10.333 -10.333 15 -16s7 -11.5 7 -17.5c0 -2 -0.5 -5.66699 -1.5 -11s-2.83301 -9.33301 -5.5 -12c-5.33301 -11.333 -11.833 -23.166 -19.5 -35.499
s-15 -25.166 -22 -38.499s-13 -26.833 -18 -40.5s-7.5 -27.167 -7.5 -40.5c0 -7.33301 0.833008 -13.5 2.5 -18.5s5.5 -7.5 11.5 -7.5c8.66699 0 20.167 6.83301 34.5 20.5s28.166 35.834 41.499 66.501l2 1c2 0 4 -1 6 -3l2 -2c0 -1.33301 -2.16699 -7.83301 -6.5 -19.5
s-10.5 -24.5 -18.5 -38.5s-17.833 -26.667 -29.5 -38s-24.834 -17 -39.501 -17c-6 0 -12.333 1.33301 -19 4s-13 8 -19 16z" />
    <glyph glyph-name="o" unicode="o" horiz-adv-x="216" 
d="M204 196c0.666992 -3.33301 1.00195 -6.49805 1.00195 -9.49805v-9.5c0 -24 -5.16699 -46.833 -15.5 -68.5s-20.833 -39.167 -31.5 -52.5c2.66699 -1.33301 6.66699 -2 12 -2c6 0 11.667 1.16699 17 3.5s10.333 5 15 8l12 8s6 3.5 8 3.5s3 -1.66699 3 -5
c0 -2.66699 -1.16699 -6.5 -3.5 -11.5s-6 -10 -11 -15s-12 -9.33301 -21 -13s-19.833 -5.5 -32.5 -5.5c-8 0 -16.333 1.66699 -25 5c-3.33301 -4.66699 -11.166 -11.5 -23.499 -20.5s-26.833 -13.5 -43.5 -13.5c-14 0 -25.833 3 -35.5 9s-17.5 13.667 -23.5 23
s-10.5 19.333 -13.5 30s-4.5 21 -4.5 31c0 26 4.33301 49.167 13 69.5s18.5 37.833 29.5 52.5s21.833 26.167 32.5 34.5s18 13.166 22 14.499c1.33301 0 3.16602 -0.833008 5.49902 -2.5s6.16602 -6.83398 11.499 -15.501c5.33301 4 11.333 7.66699 18 11s15.334 5 26.001 5
s19.667 -2.5 27 -7.5s13.166 -10.833 17.499 -17.5s7.66602 -13.667 9.99902 -21s3.5 -13.333 3.5 -18zM68.002 23.002c3.33301 0 8.33398 1.33008 15.001 3.99707s14.667 8.33398 24 17.001c-17.333 10.667 -28.833 25.334 -34.5 44.001s-8.5 37 -8.5 55
c0 4 0.166992 8.16699 0.5 12.5s0.833008 8.5 1.5 12.5c-11.333 -12 -20.833 -25.667 -28.5 -41s-11.5 -32 -11.5 -50s3.66699 -31.167 11 -39.5s17.666 -13.166 30.999 -14.499zM153.003 125.999c1.33301 4 2.33398 8.33203 3.00098 12.999s1 9.33398 1 14.001
c0 10 -0.333008 19.333 -1 28s-3 13.667 -7 15c-5.33301 0 -10.333 -2.66699 -15 -8s-8.83398 -11.833 -12.501 -19.5s-6.66699 -16 -9 -25s-3.5 -17.5 -3.5 -25.5c0 -7.33301 1.33301 -16.666 4 -27.999s8 -18.333 16 -21c5.33301 7.33301 10 15.666 14 24.999
s7.33301 20 10 32z" />
    <glyph glyph-name="p" unicode="p" horiz-adv-x="229" 
d="M132 86c3.33301 6.66699 6.66602 14.8262 9.99902 24.4932s6.5 19.334 9.5 29.001s5.5 18.834 7.5 27.501s3 15.667 3 21c0 7.33301 -1.66699 11 -5 11c-19.333 -2 -35 -5.66699 -47 -11s-21.833 -11 -29.5 -17s-13.5 -12.167 -17.5 -18.5l-10 -15.5l-53 -109.5
l-42 -90.5l-28.5 -62l-10.5 -23c-3.33301 0 -5.66602 0.833008 -6.99902 2.5s-1.66602 2.5 -0.999023 2.5c1.33301 9.33301 5.5 26.166 12.5 50.499s15.333 51.833 25 82.5l31 96.5l30.5 93l23.5 71.5c6.33301 19.333 9.5 30.333 9.5 33
c1.33301 0 4.66602 -1.16699 9.99902 -3.5s11 -5.66602 17 -9.99902s11.5 -9.33301 16.5 -15s8.16699 -11.5 9.5 -17.5c2 1.33301 9 5 21 11s25 9 39 9c20.667 0 35 -5.83301 43 -17.5s12 -26.167 12 -43.5c0 -21.333 -3.83301 -43.166 -11.5 -65.499
s-14.5 -39.833 -20.5 -52.5c16 -3.33301 28.333 -6.16602 37 -8.49902s15.167 -4.16602 19.5 -5.49902s6.83301 -2.5 7.5 -3.5s1 -1.83301 1 -2.5c0 -4 -1.66699 -6 -5 -6c-4 0 -12.167 1.33301 -24.5 4s-27.166 4.66699 -44.499 6c-10 -20 -24.667 -36.667 -44 -50
s-39.333 -20 -60 -20c-17.333 0 -29.833 4 -37.5 12s-11.5 16.667 -11.5 26c0 12.667 3.66699 22.834 11 30.501s16 13.334 26 17.001s20.333 6 31 7s19.667 1.5 27 1.5h10c3.33301 0 6.66602 -0.333008 9.99902 -1zM49 34.9922
c0 -5.33301 3.33398 -7.99805 10.001 -7.99805c8.66699 0 19.667 4 33 12s22.666 16.667 27.999 26c-8 0 -16.167 -0.833008 -24.5 -2.5s-16 -3.83398 -23 -6.50098s-12.667 -5.83398 -17 -9.50098s-6.5 -7.5 -6.5 -11.5z" />
    <glyph glyph-name="q" unicode="q" horiz-adv-x="252" 
d="M220 -80c-4.66699 -29.333 -14.001 -48.834 -28.001 -58.501s-30.333 -14.5 -49 -14.5c-21.333 0 -35.833 6 -43.5 18s-12.5 30 -14.5 54c-3.33301 0 -6.33301 -0.166992 -9 -0.5s-4.66699 -0.5 -6 -0.5c-3.33301 0 -5.33301 1.33301 -6 4s-1 9.33398 -1 20.001
c0 3.33301 0.333008 5 1 5c3.33301 -0.666992 6.83301 -1.16699 10.5 -1.5s7.5 -0.833008 11.5 -1.5c1.33301 10 3 20.167 5 30.5s4.66699 20.833 8 31.5c-5.33301 -2.66699 -11.166 -4.66699 -17.499 -6s-13.5 -2 -21.5 -2c-15.333 0 -27.666 3.66699 -36.999 11
s-16.666 16.333 -21.999 27s-9 21.667 -11 33s-3 21 -3 29c0 14 3.16699 30.833 9.5 50.5s15.5 38.167 27.5 55.5s26.667 32.166 44 44.499s37.333 18.5 60 18.5c13.333 0 24.666 -1.5 33.999 -4.5s17.666 -6.5 24.999 -10.5c4 6 8.33301 13.333 13 22s7.66699 16.667 9 24
c1.33301 0 4.5 -1.66699 9.5 -5s10.333 -7.66602 16 -12.999s10.834 -11.166 15.501 -17.499s7 -12.5 7 -18.5c0 -2.66699 -1.33301 -6.33398 -4 -11.001s-5.33398 -9.66699 -8.00098 -15c-10.667 -21.333 -20.5 -42.333 -29.5 -63s-18.5 -44.334 -28.5 -71.001
c10.667 -21.333 19.334 -42.5 26.001 -63.5s10 -44.5 10 -70.5c0 -4 -0.166992 -7.66699 -0.5 -11s-0.833008 -6.66602 -1.5 -9.99902c13.333 -1.33301 21 -2 23 -2s3 -1 3 -3s-2.33301 -3 -7 -3s-11.334 -0.333008 -20.001 -1zM177.999 59.999l-16.5 -40.5
c-4.33301 -11 -8 -20.833 -11 -29.5s-5.5 -17 -7.5 -25s-4 -17 -6 -27c10.667 -1.33301 21 -2.5 31 -3.5s19.667 -2.16699 29 -3.5c0.666992 3.33301 1 7 1 11v13c0 17.333 -1.83301 35.333 -5.5 54s-8.5 35.667 -14.5 51zM102.999 28.999l4.00391 1.99902
c4 12.667 8.66699 26.334 14 41.001l15.5 43l14.5 40c4.66699 12.667 8.66699 24 12 34c-5.33301 5.33301 -11.333 9.83301 -18 13.5s-14.334 5.5 -23.001 5.5c-11.333 0 -22.833 -3.66699 -34.5 -11s-22.334 -16.833 -32.001 -28.5s-17.5 -24.667 -23.5 -39
s-9 -28.833 -9 -43.5c0 -7.33301 0.5 -14.833 1.5 -22.5s3.16699 -14.5 6.5 -20.5s8.16602 -11 14.499 -15s15.166 -6 26.499 -6c6 0 11.5 0.666992 16.5 2s9.83301 3 14.5 5zM154.003 -126.002c11.333 0 20.332 4.33301 26.999 13s11.334 19.667 14.001 33
c-9.33301 -0.666992 -19.333 -1 -30 -1h-31c-0.666992 -4 -1.16699 -8 -1.5 -12s-0.5 -7.66699 -0.5 -11c0 -6.66699 1.33301 -12 4 -16s8.66699 -6 18 -6z" />
    <glyph glyph-name="r" unicode="r" horiz-adv-x="212" 
d="M229 115c3.33301 -2 5.00195 -3.32617 5.00195 -3.99316c0 -1.33301 -2.16699 -8 -6.5 -20s-10.666 -24.833 -18.999 -38.5s-18.333 -26.167 -30 -37.5s-24.834 -17 -39.501 -17c-12.667 0 -24.5 6.16699 -35.5 18.5s-16.5 30.5 -16.5 54.5
c0 19.333 2.83301 39.333 8.5 60s12.167 40 19.5 58c-7.33301 -1.33301 -14.333 -2.33301 -21 -3s-13.667 -1 -21 -1h-9c-2.66699 0 -5.33398 0.333008 -8.00098 1c-12.667 -26 -22.334 -46.5 -29.001 -61.5s-11.5 -26.333 -14.5 -34s-5.16699 -12.667 -6.5 -15
s-3 -3.5 -5 -3.5c-5.33301 0 -8 1.66699 -8 5v3c0 0.666992 0.333008 1 1 1c5.33301 13.333 11.833 31.166 19.5 53.499s13.5 43.166 17.5 62.499c-11.333 7.33301 -19 16.166 -23 26.499s-6 19.166 -6 26.499s0.666992 12.833 2 16.5s4.66602 5.5 9.99902 5.5h6
c2.66699 0 5.66699 -0.666992 9 -2l29.5 -7c8.33301 -2 12.5 -3.33301 12.5 -4c-2 -4.66699 -3.33301 -7.5 -4 -8.5s-1.66699 -2.16699 -3 -3.5c0 -1.33301 1.5 -2.33301 4.5 -3s6.66699 -1.33398 11 -2.00098s9.16602 -1.16699 14.499 -1.5s10.333 -0.5 15 -0.5h28
c4.66699 6.66699 8.66699 13.667 12 21c3.33301 6 6.33301 12.333 9 19s4.66699 12.667 6 18c0.666992 0 3.33398 -1.5 8.00098 -4.5s9.83398 -6.83301 15.501 -11.5s10.834 -9.83398 15.501 -15.501s7 -11.5 7 -17.5c0 -10 -4 -22.667 -12 -38l-26 -49.5
c-9.33301 -17.667 -18 -35.834 -26 -54.501s-12 -36.334 -12 -53.001c0 -7.33301 0.833008 -13.5 2.5 -18.5s5.16699 -7.5 10.5 -7.5c9.33301 0 21 6.83301 35 20.5s27.667 35.834 41 66.501l2 1c1.33301 0 2.66602 -0.333008 3.99902 -1z" />
    <glyph glyph-name="s" unicode="s" horiz-adv-x="196" 
d="M153 255c0.666992 -2 1 -4.6709 1 -8.00391c0 -1.33301 -0.166992 -2.66602 -0.5 -3.99902s-0.833008 -3 -1.5 -5c0.666992 -16 4.33398 -36 11.001 -60s11.667 -51.333 15 -82c0 -16.667 -3.33301 -31.5 -10 -44.5s-15.334 -23.833 -26.001 -32.5
s-22.667 -15.167 -36 -19.5s-26.666 -6.5 -39.999 -6.5c-15.333 0 -28.5 2.5 -39.5 7.5s-20.167 11.333 -27.5 19s-12.833 16 -16.5 25s-5.5 17.5 -5.5 25.5c0 10 2.5 18.833 7.5 26.5s12.167 12.167 21.5 13.5l20.5 35l22.5 40.5l21 39l18 32.5
c0 2.66699 0.5 6.33398 1.5 11.001s2.5 9.33398 4.5 14.001s4.16699 8.5 6.5 11.5s4.5 4.5 6.5 4.5h-1c0 -0.666992 2.16699 -2.16699 6.5 -4.5s9.16602 -5.16602 14.499 -8.49902s10.5 -7.5 15.5 -12.5s8.5 -10.833 10.5 -17.5zM59 29.9961
c8 0 15.833 1.33105 23.5 3.99805s14.834 6.5 21.501 11.5s12 11.167 16 18.5s6 15.333 6 24c0 8 -1.5 17.333 -4.5 28s-6.5 21.834 -10.5 33.501l-11.5 34c-3.66699 11 -6.5 20.833 -8.5 29.5l-36 -51.5l-34 -47.5c13.333 3.33301 24.166 5 32.499 5
s12.166 0.333008 11.499 1c0.666992 0 1.33398 -0.333008 2.00098 -1c1.33301 -1.33301 2 -3.33301 2 -6c0 -2 -3.5 -3.66699 -10.5 -5s-14.833 -3.33301 -23.5 -6s-16.5 -6 -23.5 -10s-10.5 -10 -10.5 -18c0 -4 1.5 -8.5 4.5 -13.5s7 -9.66699 12 -14
s11.167 -8.16602 18.5 -11.499s15 -5 23 -5z" />
    <glyph glyph-name="t" unicode="t" horiz-adv-x="116" 
d="M295 270c-11.333 1.33301 -24.167 2.33691 -38.5 3.00391s-30.166 1 -47.499 1c-13.333 0 -27.666 -0.5 -42.999 -1.5s-31.666 -2.16699 -48.999 -3.5l-30.5 -61.5c-11 -22.333 -21.167 -44.5 -30.5 -66.5s-17 -42.5 -23 -61.5s-9 -34.5 -9 -46.5
c0 -12.667 5.33301 -19 16 -19c11.333 0 25.666 6.5 42.999 19.5s33 34.5 47 64.5l2 1c2 0 4 -1 6 -3l2 -2l-5 -17c-3.33301 -11.333 -9 -23.833 -17 -37.5s-18.833 -26.334 -32.5 -38.001s-30.834 -17.5 -51.501 -17.5c-5.33301 0 -11 0.833008 -17 2.5
s-11.667 4.83398 -17 9.50098s-9.83301 10.834 -13.5 18.501s-5.5 17.5 -5.5 29.5c0 14 2 30 6 48s9 36.833 15 56.5s12.667 39.167 20 58.5s14.666 37.666 21.999 54.999c-6.66699 -2.66699 -13 -4.33398 -19 -5.00098s-11.667 -1 -17 -1
c-19.333 0 -34.833 4.66699 -46.5 14s-17.5 19.666 -17.5 30.999c0 15.333 10 28.333 30 39c6 0 10.333 -1 13 -3s4 -3.66699 4 -5c0 -2 -1 -3 -3 -3c-1.33301 0 -2.5 0.5 -3.5 1.5s-2.83301 1.5 -5.5 1.5c-3.33301 0 -7 -1.33301 -11 -4s-6 -8 -6 -16
c0 -13.333 9 -20 27 -20c9.33301 0 19.833 1.5 31.5 4.5l44.5 11.5c4 8.66699 8.33301 18.834 13 30.501l13 33c4 10.333 7.16699 19.166 9.5 26.499l3.5 11c2.66699 0 7.16699 -1.5 13.5 -4.5s12.5 -6.83301 18.5 -11.5s11.333 -10.167 16 -16.5s7 -12.833 7 -19.5
c0 -5.33301 -1 -10.333 -3 -15s-4.66699 -10 -8 -16c24.667 4 47.5 6.83301 68.5 8.5s40.167 2.5 57.5 2.5c24 0 43.667 -1.16699 59 -3.5s25.666 -4.16602 30.999 -5.49902c6.66699 -2.66699 12.667 -6.33398 18 -11.001c4.66699 -4 9 -9.16699 13 -15.5s6 -14.5 6 -24.5
c0 -0.666992 -0.166992 -2.5 -0.5 -5.5s-0.666016 -6.16699 -0.999023 -9.5s-1 -6.33301 -2 -9s-2.16699 -4 -3.5 -4c-2 0 -4.66699 0.833008 -8 2.5s-8.5 3.66699 -15.5 6s-16.5 4.66602 -28.5 6.99902s-27.667 4.16602 -47 5.49902z" />
    <glyph glyph-name="u" unicode="u" horiz-adv-x="247" 
d="M262 116c3.33301 -2 5.00293 -3.33203 5.00293 -3.99902c0 -2.66699 -2.16699 -11 -6.5 -25s-10.5 -29 -18.5 -45s-17.833 -30.5 -29.5 -43.5s-24.834 -19.5 -39.501 -19.5c-13.333 0 -25.833 7.16699 -37.5 21.5s-17.5 33.166 -17.5 56.499
c-4 -6.66699 -8.66699 -13.5 -14 -20.5s-11.333 -13.333 -18 -19s-14 -10.334 -22 -14.001s-16.333 -5.5 -25 -5.5c-12.667 0 -24.5 6.33301 -35.5 19s-16.5 31 -16.5 55c0 16 2.16699 33 6.5 51s9.5 35.167 15.5 51.5s12 31 18 44l14 30.5h-1
c4 6.66699 7.66699 13.334 11 20.001c3.33301 5.33301 6.16602 10.833 8.49902 16.5s4.16602 10.5 5.49902 14.5c0.666992 0 3.5 -1.5 8.5 -4.5s10.167 -7 15.5 -12s10.333 -10.5 15 -16.5s7 -12 7 -18c0 -7.33301 -4 -18.666 -12 -33.999l-27 -50.5
c-10 -18.333 -19 -37.333 -27 -57s-12 -37.834 -12 -54.501c0 -8 1.16699 -14.667 3.5 -20s7.5 -8 15.5 -8c9.33301 0 20.5 5.5 33.5 16.5s25.167 29.833 36.5 56.5c4.66699 23.333 11.167 45.333 19.5 66s14.833 35.667 19.5 45c3.33301 6.66699 6.33301 13.334 9 20.001
c2.66699 5.33301 5 10.833 7 16.5l5 14.5c0.666992 0 3.66699 -1.5 9 -4.5s11 -7 17 -12s11.333 -10.5 16 -16.5s7 -12 7 -18c0 -8 -3.33301 -18.5 -10 -31.5l-22.5 -43c-8.33301 -15.667 -15.833 -32 -22.5 -49s-10 -33.167 -10 -48.5c0 -22 4.66699 -33 14 -33
s21.333 9.16699 36 27.5s28 46.166 40 83.499c0 0.666992 0.666992 1 2 1h4z" />
    <glyph glyph-name="v" unicode="v" horiz-adv-x="224" 
d="M230 104c0 -0.666992 0.333984 -1 1.00098 -1c0 -0.666992 0.166992 -1 0.5 -1s0.5 -0.333008 0.5 -1s-1.33301 -1.83398 -4 -3.50098s-8.33398 -2.5 -17.001 -2.5c-5.33301 0 -11 0.5 -17 1.5s-12 2.83301 -18 5.5c-3.33301 -9.33301 -8.33301 -20.166 -15 -32.499
s-14.5 -23.833 -23.5 -34.5s-19.333 -19.667 -31 -27s-23.834 -11 -36.501 -11c-29.333 0 -50.333 8.83301 -63 26.5s-19 38.834 -19 63.501c0 18.667 1.66699 36.334 5 53.001s7.5 32 12.5 46s10 26.167 15 36.5s9.5 18.5 13.5 24.5c3.33301 6 7.5 14.167 12.5 24.5
s8.83301 19.166 11.5 26.499c0.666992 0 3.33398 -1.5 8.00098 -4.5s9.66699 -6.83301 15 -11.5s10.166 -9.83398 14.499 -15.501s6.5 -11.167 6.5 -16.5c0 -10.667 -3.33301 -22.334 -10 -35.001s-14.167 -26.167 -22.5 -40.5s-15.833 -29.5 -22.5 -45.5s-10 -33 -10 -51
c0 -12 2.16699 -21.833 6.5 -29.5s12.166 -11.5 23.499 -11.5c10 0 19.333 2.66699 28 8s16.667 12 24 20s13.833 16.667 19.5 26l15.5 26c-7.33301 7.33301 -13.166 16.5 -17.499 27.5s-6.5 23.167 -6.5 36.5c0 4 0.666992 10.833 2 20.5s3.83301 19.5 7.5 29.5
s9 18.833 16 26.5s16.5 12.167 28.5 13.5c8.66699 0 14.834 -3.66699 18.501 -11s5.5 -16.666 5.5 -27.999c0 -10 -1.16699 -21 -3.5 -33s-5 -23.5 -8 -34.5s-6 -21 -9 -30s-5.5 -15.833 -7.5 -20.5c6 -4.66699 12.5 -7.66699 19.5 -9s13.167 -2 18.5 -2
c3.33301 0 6 0.166992 8 0.5s3.33301 0.5 4 0.5zM161.001 130c5.33301 13.333 11 29 17 47s9 32.667 9 44c0 10 -3 15 -9 15c-4 0 -7.66699 -2.66699 -11 -8s-6.33301 -11.5 -9 -18.5s-4.66699 -14.333 -6 -22s-2 -13.5 -2 -17.5c0 -7.33301 1 -14 3 -20
s4.66699 -12.667 8 -20z" />
    <glyph glyph-name="w" unicode="w" horiz-adv-x="352" 
d="M366 97c-1.33301 -2 -6.66992 -2.99609 -16.0029 -2.99609c-5.33301 0 -11.333 0.5 -18 1.5s-13.667 3.16699 -21 6.5c-3.33301 -9.33301 -8.16602 -20.166 -14.499 -32.499s-14 -23.833 -23 -34.5s-19.167 -19.667 -30.5 -27s-24 -11 -38 -11
c-20 0 -37.167 5.33301 -51.5 16s-23.833 29.334 -28.5 56.001c-4 -7.33301 -8.83301 -15 -14.5 -23s-12 -15.667 -19 -23s-14.833 -13.333 -23.5 -18s-18 -7 -28 -7c-12.667 0 -24.667 6.16699 -36 18.5s-17 30.5 -17 54.5c0 28 3.5 53 10.5 75s14.833 42 23.5 60
s17.167 34.333 25.5 49s13.833 28.667 16.5 42c0.666992 0 3.5 -1.5 8.5 -4.5s10.333 -6.83301 16 -11.5s10.834 -9.83398 15.501 -15.501s7 -11.167 7 -16.5c0 -10 -4 -22.667 -12 -38l-26 -49.5c-9.33301 -17.667 -18 -35.834 -26 -54.501s-12 -36.334 -12 -53.001
c0 -8.66699 1.16699 -15.834 3.5 -21.501s7.5 -8.5 15.5 -8.5c9.33301 0 20.5 5.66699 33.5 17s25.167 31 36.5 59c1.33301 24.667 5 47 11 67s12.5 37 19.5 51s13.333 24.833 19 32.5l8.5 11.5c4 0 9.16699 -1.5 15.5 -4.5s12.5 -6.16699 18.5 -9.5
s11 -6.66602 15 -9.99902l6 -5v-1l-20 -32c-7.33301 -12 -14.166 -24.667 -20.499 -38s-11.666 -27.166 -15.999 -41.499s-6.5 -28.833 -6.5 -43.5c0 -12 2.16699 -21.667 6.5 -29s12.166 -11 23.499 -11c10 0 19.333 2.83301 28 8.5s16.667 12.5 24 20.5
s13.833 16.667 19.5 26s10.5 17.666 14.5 24.999c-7.33301 6.66699 -13 15.5 -17 26.5s-6 23.167 -6 36.5c0 6 1.33301 14.333 4 25s6.33398 21.167 11.001 31.5s10.334 19.166 17.001 26.499s14 11 22 11c9.33301 0 15.666 -3.5 18.999 -10.5s5 -16.167 5 -27.5
c0 -10 -1.16699 -21 -3.5 -33s-5 -23.833 -8 -35.5s-6.33301 -22.334 -10 -32.001l-8.5 -22.5c4.66699 -3.33301 10.667 -6 18 -8s14.666 -3 21.999 -3c5.33301 0 9 0.333008 11 1h1v-1c0 -0.666992 0.333008 -1.33398 1 -2.00098c0 -0.666992 -0.166992 -1 -0.5 -1
s-0.5 -0.333008 -0.5 -1v-1zM292.996 135.004c0.666992 -1.33301 1.16602 -2.16797 1.49902 -2.50098s0.833008 -1.16602 1.5 -2.49902c2 4 4.33301 9.83301 7 17.5s5.33398 16 8.00098 25s5 17.833 7 26.5s3 16 3 22c0 10 -2.66699 15 -8 15c-4 0 -7.66699 -2.66699 -11 -8
s-6.33301 -11.5 -9 -18.5s-4.66699 -14.333 -6 -22s-2 -13.5 -2 -17.5c0 -13.333 2.66699 -25 8 -35z" />
    <glyph glyph-name="x" unicode="x" horiz-adv-x="272" 
d="M280 115c2 -1.33301 3.00098 -2.66113 3.00098 -3.99414c-0.666992 -2 -3.83398 -9.5 -9.50098 -22.5s-14.5 -27.167 -26.5 -42.5l-10.5 -13.5c-4.33301 -5.66699 -9.5 -11.334 -15.5 -17.001s-13.167 -10.5 -21.5 -14.5s-17.5 -6 -27.5 -6
c-11.333 0 -21.5 2.66699 -30.5 8s-17 12.333 -24 21s-13 18.167 -18 28.5s-9.16699 20.166 -12.5 29.499l-61 -61l-48.5 -48l-32.5 -31.5c-8 -7.66699 -12 -11.834 -12 -12.501c-1.33301 0 -2.66602 0.5 -3.99902 1.5s-2 2.16699 -2 3.5c0 2 4.66699 9.16699 14 21.5
l35 45.5l46.5 59l49.5 62c-4 13.333 -7.33301 26 -10 38s-5 23 -7 33c-11.333 -18 -24.5 -31.667 -39.5 -41s-27.5 -14 -37.5 -14c-5.33301 0 -8.5 0.166992 -9.5 0.5s-1.5 0.833008 -1.5 1.5c0 2 1.33301 3 4 3s6.5 0.666992 11.5 2s10.833 4.33301 17.5 9
s13.667 12.667 21 24c10 12.667 16.833 25.167 20.5 37.5s6.16699 21.166 7.5 26.499c0 1.33301 -0.166992 2.16602 -0.5 2.49902s-0.5 0.833008 -0.5 1.5s2.66699 2 8 4s11.333 4 18 6s13.334 3.83301 20.001 5.5s11.667 2.5 15 2.5c1.33301 0 2.33301 -3.5 3 -10.5
s1.33398 -15.333 2.00098 -25s1 -19.334 1 -29.001s0.333008 -17.167 1 -22.5l34 41.5l19 23.5l15 17c4 4.66699 7.83301 9.5 11.5 14.5s6.16699 9.16699 7.5 12.5c5.33301 -4.66699 10 -9.33398 14 -14.001c3.33301 -4 6.66602 -8.33301 9.99902 -13s5 -9.66699 5 -15
c0 -1.33301 -0.5 -4.66602 -1.5 -9.99902s-6.16699 -13 -15.5 -23v-1l-91 -91c1.33301 -7.33301 3.33301 -16 6 -26s6 -19.833 10 -29.5s8.66699 -17.834 14 -24.501s11.666 -10 18.999 -10c8 0 15.833 1.83301 23.5 5.5s14.667 8.33398 21 14.001s12 11.334 17 17.001
l12.5 14.5c12.667 15.333 20.167 25.166 22.5 29.499s4.5 6.5 6.5 6.5c1.33301 0 2.66602 -0.333008 3.99902 -1z" />
    <glyph glyph-name="y" unicode="y" horiz-adv-x="275" 
d="M285 115c2.66699 -2 4.00488 -3.32715 4.00488 -3.99414v1c-0.666992 0 -2.33398 -6 -5.00098 -18s-7.83398 -25 -15.501 -39s-18.167 -27 -31.5 -39s-30.666 -18 -51.999 -18c-7.33301 0 -14.5 1.33301 -21.5 4s-13.5 7.66699 -19.5 15
c-2 -5.33301 -4.33301 -10.333 -7 -15s-5 -9.33398 -7 -14.001c24 -5.33301 46 -9.66602 66 -12.999s38.667 -5 56 -5c6.66699 0 11.667 0.333008 15 1c0 -13.333 -4.16699 -25.833 -12.5 -37.5s-20.5 -17.5 -36.5 -17.5c-14 0 -31.167 3 -51.5 9l-60.5 18
c-13.333 -23.333 -27.666 -39.5 -42.999 -48.5s-31 -13.5 -47 -13.5c-2.66699 0 -7.33398 0.333008 -14.001 1s-13.5 2.66699 -20.5 6s-13.333 8.5 -19 15.5s-8.5 16.833 -8.5 29.5s3.33301 23 10 31s14.5 14.167 23.5 18.5s17.833 7.16602 26.5 8.49902s15 2 19 2
c5.33301 0 10.166 -0.166992 14.499 -0.5s8.83301 -0.5 13.5 -0.5c13.333 0 21.333 3 24 9s6 14 10 24c-7.33301 -7.33301 -15.666 -13.666 -24.999 -18.999s-19.333 -8 -30 -8c-12 0 -23.667 6.16699 -35 18.5s-17 30.5 -17 54.5c0 15.333 2 31.666 6 48.999
s8.83301 34 14.5 50s11.5 30.667 17.5 44s11 23.666 15 30.999l22 52c0.666992 0 3.66699 -1.5 9 -4.5s10.666 -6.83301 15.999 -11.5s10.333 -9.83398 15 -15.501s7 -11.5 7 -17.5c0 -7.33301 -3.83301 -18.5 -11.5 -33.5l-26 -50
c-9.66699 -18.333 -18.334 -37.333 -26.001 -57s-11.5 -37.5 -11.5 -53.5c0 -8.66699 1.16699 -15.834 3.5 -21.501s7.5 -8.5 15.5 -8.5c11.333 0 25 8.66699 41 26s30.667 47.333 44 90c6 20 11.333 36.167 16 48.5s8.66699 22.166 12 29.499l8 18
c2 4.66699 3.33301 9 4 13c9.33301 -4.66699 19.166 -11.334 29.499 -20.001s15.5 -19.667 15.5 -33c0 -7.33301 -2.33301 -15.333 -7 -24c-12 -21.333 -22.167 -40.833 -30.5 -58.5s-12.5 -37.834 -12.5 -60.501c0 -8 1 -14.167 3 -18.5s6.66699 -6.5 14 -6.5
c11.333 0 25.5 6.83301 42.5 20.5s32.167 35.834 45.5 66.501l2 1c1.33301 0 2.66602 -0.333008 3.99902 -1zM63.0049 -52.9941c2 0.666992 5.66602 0.999023 10.999 0.999023c2 0 4 -0.166992 6 -0.5s3.66699 -0.5 5 -0.5h5l-25 6
c-7.33301 1.33301 -14.833 2.83301 -22.5 4.5s-15.167 2.83398 -22.5 3.50098c-11.333 0 -21.833 -2.5 -31.5 -7.5s-14.5 -13.5 -14.5 -25.5c0 -8.66699 3.5 -15 10.5 -19s14.5 -6 22.5 -6c8.66699 0 17.834 3.16699 27.501 9.5s19.167 17.833 28.5 34.5z" />
    <glyph glyph-name="z" unicode="z" horiz-adv-x="245" 
d="M209 117c3.33301 -1.33301 6.49512 -3.49902 9.49512 -6.49902s4.5 -7.16699 4.5 -12.5c0 -9.33301 -4.66699 -18.833 -14 -28.5s-20.166 -18.667 -32.499 -27s-25.166 -15.833 -38.499 -22.5s-24 -11.334 -32 -14.001c2 -7.33301 4.66699 -13.833 8 -19.5
s6.83301 -10.5 10.5 -14.5s6.83398 -7.16699 9.50098 -9.5l4 -3.5c0 -2.66699 -0.666992 -4 -2 -4c-0.666992 0 -2.5 1 -5.5 3s-6.5 4.83301 -10.5 8.5s-8.16699 8.5 -12.5 14.5s-7.83301 13 -10.5 21l-22 -6.5c-8 -2.33301 -16.667 -3.5 -26 -3.5
c-10 0 -19.167 2.16699 -27.5 6.5s-15.666 10.166 -21.999 17.499s-11.166 15.5 -14.499 24.5s-5 18.167 -5 27.5s1.33301 17 4 23c21.333 35.333 43.666 63.833 66.999 85.5s44.333 38.834 63 51.501c-16 -5.33301 -32.167 -10 -48.5 -14s-28.166 -6 -35.499 -6
c-8.66699 0 -15.334 1 -20.001 3s-8.16699 4.66699 -10.5 8s-3.66602 7.16602 -3.99902 11.499s-0.5 8.5 -0.5 12.5v18c0 2.66699 0.333008 5 1 7c4.66699 -2 11.667 -4 21 -6s19.833 -3.5 31.5 -4.5s23.5 -1.83301 35.5 -2.5s23 -1 33 -1c18 0 35.167 1.83301 51.5 5.5
s30.166 11.167 41.499 22.5c1.33301 -5.33301 3 -10.666 5 -15.999l4 -14.5c1.33301 -5 2 -10.167 2 -15.5c0 -6 -0.666992 -10.333 -2 -13c-1.33301 -4 -7.16602 -9 -17.499 -15s-23 -13 -38 -21l-47.5 -26.5c-16.667 -9.66699 -32.167 -20 -46.5 -31
s-26.333 -22.333 -36 -34s-14.5 -23.5 -14.5 -35.5c0 -13.333 5 -22.833 15 -28.5s20.667 -8.5 32 -8.5c4.66699 0 9 0.333008 13 1s8.33301 1.66699 13 3c0 18 3.83301 33 11.5 45s17 21.5 28 28.5s22.5 11.833 34.5 14.5s22 4 30 4c3.33301 -0.666992 6 -1 8 -1
s3.66699 -0.333008 5 -1zM105.995 32.001l20.499 8.49902c9 3.66699 17.833 8.16699 26.5 13.5s16.334 10.833 23.001 16.5s10 11.5 10 17.5c0 2 -1.33301 3.66699 -4 5c-15.333 -0.666992 -30.833 -6.16699 -46.5 -16.5s-25.5 -25.166 -29.5 -44.499z" />
    <glyph glyph-name="dieresis" unicode="&#xa8;" horiz-adv-x="182" 
d="M111 369c0.666992 -0.666992 3 -0.999023 7 -0.999023s8.16699 -0.5 12.5 -1.5s8.33301 -2.5 12 -4.5s5.5 -5 5.5 -9c0 -3.33301 -2.5 -7.83301 -7.5 -13.5s-7.5 -16.834 -7.5 -33.501c0 -4 0.333008 -7 1 -9h-6c-4 0 -8.83301 1 -14.5 3s-8.5 7.66699 -8.5 17
c0 2 0.333008 3.83301 1 5.5s1.5 4 2.5 7s2 6.83301 3 11.5s1.5 11 1.5 19c0 3.33301 -0.666992 6.33301 -2 9zM41 369.001c0.666992 -0.666992 3 -1 7 -1s8.33301 -0.333008 13 -1s8.66699 -2.16699 12 -4.5s5 -5.83301 5 -10.5c0 -3.33301 -0.333008 -5.66602 -1 -6.99902
c-2.66699 -4 -5 -8.33301 -7 -13c-4.66699 -9.33301 -7 -18.333 -7 -27c0 -4 0.333008 -6.66699 1 -8h-6c-4 0 -8.83301 1 -14.5 3s-8.5 7.33301 -8.5 16c0 2.66699 0.333008 4.66699 1 6s1.5 3.16602 2.5 5.49902s2 5.83301 3 10.5s1.5 11.667 1.5 21
c0 4 -0.666992 7.33301 -2 10z" />
    <glyph glyph-name="acute" unicode="&#xb4;" horiz-adv-x="223" 
d="M174 389c0.666992 0 2.1709 -1.3291 4.50391 -3.99609l7.5 -9c2.66699 -3.33301 5 -7.16602 7 -11.499s3 -7.83301 3 -10.5c0 -8.66699 -3.33301 -15.834 -10 -21.501s-14.5 -10.334 -23.5 -14.001s-18.5 -6.33398 -28.5 -8.00098s-18.333 -2.5 -25 -2.5
c-10.667 0 -20.834 1 -30.501 3s-18.334 4.16699 -26.001 6.5s-13.834 4.66602 -18.501 6.99902s-7 4.16602 -7 5.49902l2 4c0 0.666992 0.166992 1 0.5 1s0.5 0.333008 0.5 1l1 1c2 -0.666992 7.66699 -2.16699 17 -4.5s19.666 -3.5 30.999 -3.5c12 0 22.333 1.33301 31 4
s16 6 22 10s10.833 7.83301 14.5 11.5l8.5 8.5l9.5 12.5c4.33301 5.66699 7.5 10.167 9.5 13.5z" />
    <glyph glyph-name="cedilla" unicode="&#xb8;" horiz-adv-x="164" 
d="M103 42l0.000976562 -8.50098c0 -2.33301 0.666992 -4.66602 2 -6.99902s3.66602 -5 6.99902 -8s8.66602 -7.16699 15.999 -12.5c3.33301 -3.33301 5.16602 -6.16602 5.49902 -8.49902s0.5 -5.16602 0.5 -8.49902c-2.66699 -16.667 -8.66699 -27.5 -18 -32.5
s-18.666 -7.5 -27.999 -7.5c-13.333 0 -23.833 2 -31.5 6s-13.334 8.5 -17.001 13.5s-6 9.66699 -7 14s-1.5 6.83301 -1.5 7.5c0 4.66699 1.5 8.5 4.5 11.5s6.33301 5.16699 10 6.5s7.33398 2.16602 11.001 2.49902s6.16699 0.833008 7.5 1.5c1.33301 -8 3 -14 5 -18
s4.66699 -7 8 -9c2.66699 -2.66699 6.33398 -4 11.001 -4h-1c5.33301 -1.33301 9.33301 -2 12 -2c8 0 12 4 12 12c0 2 -1 4.5 -3 7.5s-4.33301 6.16699 -7 9.5s-5 6.66602 -7 9.99902s-3 6.33301 -3 9c0 5.33301 1 9.5 3 12.5s3 4.83301 3 5.5c0 -0.666992 0.333008 -1 1 -1
s1 -0.166992 1 -0.5s0.333008 -0.5 1 -0.5c0.666992 -0.666992 1.66699 -1 3 -1z" />
    <glyph glyph-name="questiondown" unicode="&#xbf;" horiz-adv-x="355" 
d="M272.011 351.007c-0.666992 0 -2.99902 0.166016 -6.99805 0.499023c-4 0.333008 -8.16602 0.833008 -12.499 1.5s-8.16602 2 -11.499 3.99902c-3.33301 2 -5 4.66602 -5 7.99902s2.83301 7.83301 8.49902 13.499s8.49902 15.8311 8.49902 30.4961
c0 2.66602 -0.333008 4.66602 -1 5.99902h5.99902c4.66699 0 9.5 -0.833008 14.499 -2.5c4.99902 -1.66602 7.49902 -6.16504 7.49902 -13.498c0 -4.66602 -1.66699 -8.99902 -5 -12.998s-4.99902 -13.3311 -4.99902 -27.9961c0 -1.99902 0.666992 -4.33203 2 -6.99902z
M207.02 -68.9424c-13.332 -4.66699 -28.3311 -7.00195 -44.9961 -7.00195c-17.3311 0 -33.6621 3 -48.9932 8.99902s-28.6631 14.498 -39.9951 25.4971s-20.1641 23.8311 -26.4971 38.4961s-9.49902 30.6631 -9.49902 47.9941c0 26.6631 6.66602 50.6602 19.998 71.9912
c13.3311 21.3311 28.9961 40.4951 46.9941 57.4932c17.9971 16.998 36.1611 32.1631 54.4922 45.4951c18.3311 13.3311 32.1631 25.6631 41.4951 36.9951c15.3311 17.998 25.8301 32.8291 31.4961 44.4941s9.33203 20.6641 10.998 26.9971
c1.66699 6.33301 2.5 10.832 2.5 13.498c0 2.66699 2 4 5.99902 4c2.66699 0 4.33398 -0.666992 5.00098 -2s1 -2.66602 1 -3.99902c0 -3.33301 -1.33301 -9.83203 -4 -19.4971c-2.66602 -9.66504 -7.16504 -20.9971 -13.498 -33.9961
c-6.33301 -12.998 -14.665 -26.8301 -24.9971 -41.4951s-23.1641 -28.6631 -38.4951 -41.9941c-11.999 -9.99902 -23.998 -20.998 -35.9971 -32.9971c-11.998 -11.999 -22.8301 -24.498 -32.4961 -37.4971c-9.66504 -12.998 -17.4971 -26.3301 -23.4961 -39.9951
s-8.99902 -27.4961 -8.99902 -41.4941c0 -26.6631 8.16602 -46.1611 24.4971 -58.4932s33.8291 -18.498 52.4941 -18.498c18.6641 0 34.1621 3.66602 46.4941 10.999s22.1641 16.165 29.4961 26.4971c7.33301 10.332 12.499 21.4971 15.498 33.4951
c3 11.999 4.5 22.998 4.5 32.9971c0 25.3301 -4.33301 45.6611 -12.999 60.9932c-8.66504 15.3311 -18.6641 27.6631 -29.9961 36.9951l5.99902 3.5c4 2.33301 8.83301 4.83301 14.499 7.5c5.66602 2.66602 11.832 4.99902 18.4971 6.99902
c6.66602 1.99902 12.665 2.99902 17.998 2.99902c3.33301 0 7.33203 -1.5 11.998 -4.49902c4.66699 -2.99902 10.333 -9.83105 16.998 -20.4961v-1c2.66699 0 5.16699 -3.33301 7.5 -9.99902s4.5 -14.498 6.5 -23.4971c1.99902 -8.99902 3.49902 -17.998 4.49902 -26.9971
s1.5 -16.165 1.5 -21.498c0 -15.998 -2 -32.1631 -5.99902 -48.4941c-4 -16.3311 -10.166 -31.6621 -18.498 -45.9932c-8.33301 -14.332 -18.998 -26.9971 -31.9961 -37.9961c-12.999 -10.999 -28.8301 -19.498 -47.4941 -25.4971z" />
    <glyph glyph-name="Agrave" unicode="&#xc0;" horiz-adv-x="592" 
d="M92 -6c-23.333 16 -41.8291 36.9971 -55.4961 62.9971s-20.5 52.333 -20.5 79c0 20 3.83301 37.333 11.5 52s17.834 27.334 30.501 38.001s26.667 19 42 25s31 10 47 12c22 2.66699 53 5.33398 93 8.00098s84 4 132 4c17.333 28 36 52 56 72s39.833 36.5 59.5 49.5
s37.834 22.667 54.501 29s30 9.5 40 9.5c8 0 14.333 -2.16699 19 -6.5s7 -15.166 7 -32.499c0 -5.33301 -2.5 -12.833 -7.5 -22.5s-11.167 -20.334 -18.5 -32.001l-23.5 -36.5c-8.33301 -12.667 -15.5 -25 -21.5 -37c17.333 0 31.166 -0.833008 41.499 -2.5
s18.166 -4 23.499 -7s8.83301 -6.33301 10.5 -10s2.5 -7.5 2.5 -11.5c0 -5.33301 -0.166992 -10.833 -0.5 -16.5s-0.833008 -10.834 -1.5 -15.501c-0.666992 -5.33301 -1 -10.666 -1 -15.999c-6.66699 4.66699 -14.334 8 -23.001 10s-17.667 3.33301 -27 4
s-18.666 1 -27.999 1s-18.333 0.333008 -27 1c-9.33301 -20.667 -18.5 -43.167 -27.5 -67.5s-13.5 -45.833 -13.5 -64.5c0 -13.333 4 -25.166 12 -35.499s20.667 -15.5 38 -15.5c7.33301 0 14.166 1 20.499 3s12.166 3.66699 17.499 5c22.667 9.33301 37 16.666 43 21.999
s9.66699 8 11 8s2.83301 -0.666992 4.5 -2s2.5 -2.66602 2.5 -3.99902v1c-0.666992 0 -2.5 -2.16699 -5.5 -6.5s-8 -9.5 -15 -15.5s-16.5 -12.167 -28.5 -18.5s-27 -11.166 -45 -14.499c-5.33301 -1.33301 -9.33301 -2 -12 -2c-8 0 -16.333 1.83301 -25 5.5
s-16.667 8.5 -24 14.5s-13.5 13.167 -18.5 21.5s-7.5 17.5 -7.5 27.5c0 26.667 2.5 51.667 7.5 75s10.833 45.666 17.5 66.999c-8 0 -17.833 0.833008 -29.5 2.5s-23.5 3.16699 -35.5 4.5l-41 -66.5l-40 -66.5c-7.33301 -12.667 -16.5 -25.667 -27.5 -39
s-23.333 -25.333 -37 -36s-28.334 -19.5 -44.001 -26.5s-31.834 -10.5 -48.501 -10.5c-22.667 0 -44 7.66699 -64 23zM515.004 352.997c-27.333 -18.667 -54 -45 -80 -79c8 -0.666992 15.833 -1 23.5 -1s15.167 -0.333008 22.5 -1c5.33301 15.333 11 29.833 17 43.5z
M120.004 231.997c-23.333 -3.33301 -41.332 -14.501 -53.999 -33.501s-19 -39.5 -19 -61.5c0 -16.667 3.33301 -32.5 10 -47.5s15.167 -28.333 25.5 -40s22 -21 35 -28s25.833 -10.5 38.5 -10.5c20.667 0 39.667 7.16699 57 21.5s33.5 32 48.5 53s29 43.833 42 68.5
s25.5 47.334 37.5 68.001c-26.667 3.33301 -53.334 6.33301 -80.001 9s-54 4 -82 4c-19.333 0 -39 -1 -59 -3zM526.005 544.996c2 -3.33301 5.16992 -7.83398 9.50293 -13.501l9.5 -12.5l8.5 -8.5c3.66699 -3.66699 8.5 -7.5 14.5 -11.5s13.333 -7.33301 22 -10s19 -4 31 -4
c11.333 0 21.666 1.16699 30.999 3.5s15 3.83301 17 4.5h1v-1c0 -1.33301 0.333008 -2 1 -2c1.33301 -3.33301 2 -4.5 2 -3.5s0 0.833008 0 -0.5s-2.33301 -3.16602 -7 -5.49902s-10.834 -4.66602 -18.501 -6.99902s-16.334 -4.5 -26.001 -6.5s-19.834 -3 -30.501 -3
c-7.33301 0 -15.833 1 -25.5 3s-19 5 -28 9s-16.667 9.33301 -23 16s-9.5 14.667 -9.5 24c0 3.33301 1 6.5 3 9.5s4.33301 6.16699 7 9.5s6.33398 6.66602 11.001 9.99902z" />
    <glyph glyph-name="Aacute" unicode="&#xc1;" horiz-adv-x="592" 
d="M92 -6c-23.333 16 -41.8291 36.9971 -55.4961 62.9971s-20.5 52.333 -20.5 79c0 20 3.83301 37.333 11.5 52s17.834 27.334 30.501 38.001s26.667 19 42 25s31 10 47 12c22 2.66699 53 5.33398 93 8.00098s84 4 132 4c17.333 28 36 52 56 72s39.833 36.5 59.5 49.5
s37.834 22.667 54.501 29s30 9.5 40 9.5c8 0 14.333 -2.16699 19 -6.5s7 -15.166 7 -32.499c0 -5.33301 -2.5 -12.833 -7.5 -22.5s-11.167 -20.334 -18.5 -32.001l-23.5 -36.5c-8.33301 -12.667 -15.5 -25 -21.5 -37c17.333 0 31.166 -0.833008 41.499 -2.5
s18.166 -4 23.499 -7s8.83301 -6.33301 10.5 -10s2.5 -7.5 2.5 -11.5c0 -5.33301 -0.166992 -10.833 -0.5 -16.5s-0.833008 -10.834 -1.5 -15.501c-0.666992 -5.33301 -1 -10.666 -1 -15.999c-6.66699 4.66699 -14.334 8 -23.001 10s-17.667 3.33301 -27 4
s-18.666 1 -27.999 1s-18.333 0.333008 -27 1c-9.33301 -20.667 -18.5 -43.167 -27.5 -67.5s-13.5 -45.833 -13.5 -64.5c0 -13.333 4 -25.166 12 -35.499s20.667 -15.5 38 -15.5c7.33301 0 14.166 1 20.499 3s12.166 3.66699 17.499 5c22.667 9.33301 37 16.666 43 21.999
s9.66699 8 11 8s2.83301 -0.666992 4.5 -2s2.5 -2.66602 2.5 -3.99902v1c-0.666992 0 -2.5 -2.16699 -5.5 -6.5s-8 -9.5 -15 -15.5s-16.5 -12.167 -28.5 -18.5s-27 -11.166 -45 -14.499c-5.33301 -1.33301 -9.33301 -2 -12 -2c-8 0 -16.333 1.83301 -25 5.5
s-16.667 8.5 -24 14.5s-13.5 13.167 -18.5 21.5s-7.5 17.5 -7.5 27.5c0 26.667 2.5 51.667 7.5 75s10.833 45.666 17.5 66.999c-8 0 -17.833 0.833008 -29.5 2.5s-23.5 3.16699 -35.5 4.5l-41 -66.5l-40 -66.5c-7.33301 -12.667 -16.5 -25.667 -27.5 -39
s-23.333 -25.333 -37 -36s-28.334 -19.5 -44.001 -26.5s-31.834 -10.5 -48.501 -10.5c-22.667 0 -44 7.66699 -64 23zM515.004 352.997c-27.333 -18.667 -54 -45 -80 -79c8 -0.666992 15.833 -1 23.5 -1s15.167 -0.333008 22.5 -1c5.33301 15.333 11 29.833 17 43.5z
M120.004 231.997c-23.333 -3.33301 -41.332 -14.501 -53.999 -33.501s-19 -39.5 -19 -61.5c0 -16.667 3.33301 -32.5 10 -47.5s15.167 -28.333 25.5 -40s22 -21 35 -28s25.833 -10.5 38.5 -10.5c20.667 0 39.667 7.16699 57 21.5s33.5 32 48.5 53s29 43.833 42 68.5
s25.5 47.334 37.5 68.001c-26.667 3.33301 -53.334 6.33301 -80.001 9s-54 4 -82 4c-19.333 0 -39 -1 -59 -3zM634.005 544.996c0.666992 0 2.1709 -1.3291 4.50391 -3.99609l7.5 -9c2.66699 -3.33301 5 -7.16602 7 -11.499s3 -7.83301 3 -10.5
c0 -8.66699 -3.33301 -15.834 -10 -21.501s-14.5 -10.334 -23.5 -14.001s-18.5 -6.33398 -28.5 -8.00098s-18.333 -2.5 -25 -2.5c-10.667 0 -20.834 1 -30.501 3s-18.334 4.16699 -26.001 6.5s-13.834 4.66602 -18.501 6.99902s-7 4.16602 -7 5.49902l2 4
c0 0.666992 0.166992 1 0.5 1s0.5 0.333008 0.5 1l1 1c2 -0.666992 7.66699 -2.16699 17 -4.5s19.666 -3.5 30.999 -3.5c12 0 22.333 1.33301 31 4s16 6 22 10s10.833 7.83301 14.5 11.5l8.5 8.5l9.5 12.5c4.33301 5.66699 7.5 10.167 9.5 13.5z" />
    <glyph glyph-name="Acircumflex" unicode="&#xc2;" horiz-adv-x="592" 
d="M92 -6c-23.333 16 -41.8291 36.9971 -55.4961 62.9971s-20.5 52.333 -20.5 79c0 20 3.83301 37.333 11.5 52s17.834 27.334 30.501 38.001s26.667 19 42 25s31 10 47 12c22 2.66699 53 5.33398 93 8.00098s84 4 132 4c17.333 28 36 52 56 72s39.833 36.5 59.5 49.5
s37.834 22.667 54.501 29s30 9.5 40 9.5c8 0 14.333 -2.16699 19 -6.5s7 -15.166 7 -32.499c0 -5.33301 -2.5 -12.833 -7.5 -22.5s-11.167 -20.334 -18.5 -32.001l-23.5 -36.5c-8.33301 -12.667 -15.5 -25 -21.5 -37c17.333 0 31.166 -0.833008 41.499 -2.5
s18.166 -4 23.499 -7s8.83301 -6.33301 10.5 -10s2.5 -7.5 2.5 -11.5c0 -5.33301 -0.166992 -10.833 -0.5 -16.5s-0.833008 -10.834 -1.5 -15.501c-0.666992 -5.33301 -1 -10.666 -1 -15.999c-6.66699 4.66699 -14.334 8 -23.001 10s-17.667 3.33301 -27 4
s-18.666 1 -27.999 1s-18.333 0.333008 -27 1c-9.33301 -20.667 -18.5 -43.167 -27.5 -67.5s-13.5 -45.833 -13.5 -64.5c0 -13.333 4 -25.166 12 -35.499s20.667 -15.5 38 -15.5c7.33301 0 14.166 1 20.499 3s12.166 3.66699 17.499 5c22.667 9.33301 37 16.666 43 21.999
s9.66699 8 11 8s2.83301 -0.666992 4.5 -2s2.5 -2.66602 2.5 -3.99902v1c-0.666992 0 -2.5 -2.16699 -5.5 -6.5s-8 -9.5 -15 -15.5s-16.5 -12.167 -28.5 -18.5s-27 -11.166 -45 -14.499c-5.33301 -1.33301 -9.33301 -2 -12 -2c-8 0 -16.333 1.83301 -25 5.5
s-16.667 8.5 -24 14.5s-13.5 13.167 -18.5 21.5s-7.5 17.5 -7.5 27.5c0 26.667 2.5 51.667 7.5 75s10.833 45.666 17.5 66.999c-8 0 -17.833 0.833008 -29.5 2.5s-23.5 3.16699 -35.5 4.5l-41 -66.5l-40 -66.5c-7.33301 -12.667 -16.5 -25.667 -27.5 -39
s-23.333 -25.333 -37 -36s-28.334 -19.5 -44.001 -26.5s-31.834 -10.5 -48.501 -10.5c-22.667 0 -44 7.66699 -64 23zM515.004 352.997c-27.333 -18.667 -54 -45 -80 -79c8 -0.666992 15.833 -1 23.5 -1s15.167 -0.333008 22.5 -1c5.33301 15.333 11 29.833 17 43.5z
M120.004 231.997c-23.333 -3.33301 -41.332 -14.501 -53.999 -33.501s-19 -39.5 -19 -61.5c0 -16.667 3.33301 -32.5 10 -47.5s15.167 -28.333 25.5 -40s22 -21 35 -28s25.833 -10.5 38.5 -10.5c20.667 0 39.667 7.16699 57 21.5s33.5 32 48.5 53s29 43.833 42 68.5
s25.5 47.334 37.5 68.001c-26.667 3.33301 -53.334 6.33301 -80.001 9s-54 4 -82 4c-19.333 0 -39 -1 -59 -3zM690.005 460.996c0 -1.33301 0.50293 -2.33105 1.50293 -2.99805s1.5 -1.33398 1.5 -2.00098c0 -1.33301 -1.83301 -2.66602 -5.5 -3.99902
s-11.834 -2 -24.501 -2c-12 0 -25.667 2.66699 -41 8s-28 15.666 -38 30.999c-7.33301 -5.33301 -15 -9 -23 -11s-16 -3 -24 -3c-8.66699 0 -16.834 1 -24.501 3s-14.5 4.33301 -20.5 7s-10.833 5.16699 -14.5 7.5s-5.5 4.16602 -5.5 5.49902l4 6
c1.33301 -0.666992 6.33301 -2.16699 15 -4.5s18.667 -3.5 30 -3.5s20.833 1.66699 28.5 5s14 7 19 11s9 7.66699 12 11s6.16699 5 9.5 5c7.33301 0 12.166 -2 14.499 -6s4.5 -8.83301 6.5 -14.5s4.66699 -11.667 8 -18s10 -11.5 20 -15.5c11.333 -5.33301 22 -8.5 32 -9.5
s16.333 -1.83301 19 -2.5v-1z" />
    <glyph glyph-name="Atilde" unicode="&#xc3;" horiz-adv-x="592" 
d="M92 -6c-23.333 16 -41.8291 36.9971 -55.4961 62.9971s-20.5 52.333 -20.5 79c0 20 3.83301 37.333 11.5 52s17.834 27.334 30.501 38.001s26.667 19 42 25s31 10 47 12c22 2.66699 53 5.33398 93 8.00098s84 4 132 4c17.333 28 36 52 56 72s39.833 36.5 59.5 49.5
s37.834 22.667 54.501 29s30 9.5 40 9.5c8 0 14.333 -2.16699 19 -6.5s7 -15.166 7 -32.499c0 -5.33301 -2.5 -12.833 -7.5 -22.5s-11.167 -20.334 -18.5 -32.001l-23.5 -36.5c-8.33301 -12.667 -15.5 -25 -21.5 -37c17.333 0 31.166 -0.833008 41.499 -2.5
s18.166 -4 23.499 -7s8.83301 -6.33301 10.5 -10s2.5 -7.5 2.5 -11.5c0 -5.33301 -0.166992 -10.833 -0.5 -16.5s-0.833008 -10.834 -1.5 -15.501c-0.666992 -5.33301 -1 -10.666 -1 -15.999c-6.66699 4.66699 -14.334 8 -23.001 10s-17.667 3.33301 -27 4
s-18.666 1 -27.999 1s-18.333 0.333008 -27 1c-9.33301 -20.667 -18.5 -43.167 -27.5 -67.5s-13.5 -45.833 -13.5 -64.5c0 -13.333 4 -25.166 12 -35.499s20.667 -15.5 38 -15.5c7.33301 0 14.166 1 20.499 3s12.166 3.66699 17.499 5c22.667 9.33301 37 16.666 43 21.999
s9.66699 8 11 8s2.83301 -0.666992 4.5 -2s2.5 -2.66602 2.5 -3.99902v1c-0.666992 0 -2.5 -2.16699 -5.5 -6.5s-8 -9.5 -15 -15.5s-16.5 -12.167 -28.5 -18.5s-27 -11.166 -45 -14.499c-5.33301 -1.33301 -9.33301 -2 -12 -2c-8 0 -16.333 1.83301 -25 5.5
s-16.667 8.5 -24 14.5s-13.5 13.167 -18.5 21.5s-7.5 17.5 -7.5 27.5c0 26.667 2.5 51.667 7.5 75s10.833 45.666 17.5 66.999c-8 0 -17.833 0.833008 -29.5 2.5s-23.5 3.16699 -35.5 4.5l-41 -66.5l-40 -66.5c-7.33301 -12.667 -16.5 -25.667 -27.5 -39
s-23.333 -25.333 -37 -36s-28.334 -19.5 -44.001 -26.5s-31.834 -10.5 -48.501 -10.5c-22.667 0 -44 7.66699 -64 23zM515.004 352.997c-27.333 -18.667 -54 -45 -80 -79c8 -0.666992 15.833 -1 23.5 -1s15.167 -0.333008 22.5 -1c5.33301 15.333 11 29.833 17 43.5z
M120.004 231.997c-23.333 -3.33301 -41.332 -14.501 -53.999 -33.501s-19 -39.5 -19 -61.5c0 -16.667 3.33301 -32.5 10 -47.5s15.167 -28.333 25.5 -40s22 -21 35 -28s25.833 -10.5 38.5 -10.5c20.667 0 39.667 7.16699 57 21.5s33.5 32 48.5 53s29 43.833 42 68.5
s25.5 47.334 37.5 68.001c-26.667 3.33301 -53.334 6.33301 -80.001 9s-54 4 -82 4c-19.333 0 -39 -1 -59 -3zM551.005 497.996c-7.33301 2 -13.833 4.16895 -19.5 6.50195s-11.834 3.5 -18.501 3.5c-8.66699 0 -14 -2.33301 -16 -7s-3 -8 -3 -10s0.166992 -3.66699 0.5 -5
s0.5 -2.33301 0.5 -3c-0.666992 0 -1 -0.5 -1 -1.5s-1.33301 -1.5 -4 -1.5c-1.33301 0.666992 -2.33301 1.66699 -3 3c-1.33301 2.66699 -2 5.66699 -2 9c0 9.33301 3 16.666 9 21.999s12.667 8 20 8c16 0 32.5 -2 49.5 -6s30.833 -6 41.5 -6c8.66699 0 16.5 1.33301 23.5 4
s11.167 11.667 12.5 27c2 0 4.83301 -0.166992 8.5 -0.5s7.33398 -1.33301 11.001 -3s6.83398 -3.83398 9.50098 -6.50098s4 -6.66699 4 -12c0 -7.33301 -3.83301 -16 -11.5 -26s-21.167 -15 -40.5 -15c-12.667 0 -25.334 2.5 -38.001 7.5s-23.667 9.16699 -33 12.5z" />
    <glyph glyph-name="Adieresis" unicode="&#xc4;" horiz-adv-x="592" 
d="M92 -6c-23.333 16 -41.8291 36.9971 -55.4961 62.9971s-20.5 52.333 -20.5 79c0 20 3.83301 37.333 11.5 52s17.834 27.334 30.501 38.001s26.667 19 42 25s31 10 47 12c22 2.66699 53 5.33398 93 8.00098s84 4 132 4c17.333 28 36 52 56 72s39.833 36.5 59.5 49.5
s37.834 22.667 54.501 29s30 9.5 40 9.5c8 0 14.333 -2.16699 19 -6.5s7 -15.166 7 -32.499c0 -5.33301 -2.5 -12.833 -7.5 -22.5s-11.167 -20.334 -18.5 -32.001l-23.5 -36.5c-8.33301 -12.667 -15.5 -25 -21.5 -37c17.333 0 31.166 -0.833008 41.499 -2.5
s18.166 -4 23.499 -7s8.83301 -6.33301 10.5 -10s2.5 -7.5 2.5 -11.5c0 -5.33301 -0.166992 -10.833 -0.5 -16.5s-0.833008 -10.834 -1.5 -15.501c-0.666992 -5.33301 -1 -10.666 -1 -15.999c-6.66699 4.66699 -14.334 8 -23.001 10s-17.667 3.33301 -27 4
s-18.666 1 -27.999 1s-18.333 0.333008 -27 1c-9.33301 -20.667 -18.5 -43.167 -27.5 -67.5s-13.5 -45.833 -13.5 -64.5c0 -13.333 4 -25.166 12 -35.499s20.667 -15.5 38 -15.5c7.33301 0 14.166 1 20.499 3s12.166 3.66699 17.499 5c22.667 9.33301 37 16.666 43 21.999
s9.66699 8 11 8s2.83301 -0.666992 4.5 -2s2.5 -2.66602 2.5 -3.99902v1c-0.666992 0 -2.5 -2.16699 -5.5 -6.5s-8 -9.5 -15 -15.5s-16.5 -12.167 -28.5 -18.5s-27 -11.166 -45 -14.499c-5.33301 -1.33301 -9.33301 -2 -12 -2c-8 0 -16.333 1.83301 -25 5.5
s-16.667 8.5 -24 14.5s-13.5 13.167 -18.5 21.5s-7.5 17.5 -7.5 27.5c0 26.667 2.5 51.667 7.5 75s10.833 45.666 17.5 66.999c-8 0 -17.833 0.833008 -29.5 2.5s-23.5 3.16699 -35.5 4.5l-41 -66.5l-40 -66.5c-7.33301 -12.667 -16.5 -25.667 -27.5 -39
s-23.333 -25.333 -37 -36s-28.334 -19.5 -44.001 -26.5s-31.834 -10.5 -48.501 -10.5c-22.667 0 -44 7.66699 -64 23zM515.004 352.997c-27.333 -18.667 -54 -45 -80 -79c8 -0.666992 15.833 -1 23.5 -1s15.167 -0.333008 22.5 -1c5.33301 15.333 11 29.833 17 43.5z
M120.004 231.997c-23.333 -3.33301 -41.332 -14.501 -53.999 -33.501s-19 -39.5 -19 -61.5c0 -16.667 3.33301 -32.5 10 -47.5s15.167 -28.333 25.5 -40s22 -21 35 -28s25.833 -10.5 38.5 -10.5c20.667 0 39.667 7.16699 57 21.5s33.5 32 48.5 53s29 43.833 42 68.5
s25.5 47.334 37.5 68.001c-26.667 3.33301 -53.334 6.33301 -80.001 9s-54 4 -82 4c-19.333 0 -39 -1 -59 -3zM605.005 524.996c0.666992 -0.666992 3 -0.999023 7 -0.999023s8.16699 -0.5 12.5 -1.5s8.33301 -2.5 12 -4.5s5.5 -5 5.5 -9
c0 -3.33301 -2.5 -7.83301 -7.5 -13.5s-7.5 -16.834 -7.5 -33.501c0 -4 0.333008 -7 1 -9h-6c-4 0 -8.83301 1 -14.5 3s-8.5 7.66699 -8.5 17c0 2 0.333008 3.83301 1 5.5s1.5 4 2.5 7s2 6.83301 3 11.5s1.5 11 1.5 19c0 3.33301 -0.666992 6.33301 -2 9zM535.005 524.997
c0.666992 -0.666992 3 -1 7 -1s8.33301 -0.333008 13 -1s8.66699 -2.16699 12 -4.5s5 -5.83301 5 -10.5c0 -3.33301 -0.333008 -5.66602 -1 -6.99902c-2.66699 -4 -5 -8.33301 -7 -13c-4.66699 -9.33301 -7 -18.333 -7 -27c0 -4 0.333008 -6.66699 1 -8h-6
c-4 0 -8.83301 1 -14.5 3s-8.5 7.33301 -8.5 16c0 2.66699 0.333008 4.66699 1 6s1.5 3.16602 2.5 5.49902s2 5.83301 3 10.5s1.5 11.667 1.5 21c0 4 -0.666992 7.33301 -2 10z" />
    <glyph glyph-name="Aring" unicode="&#xc5;" horiz-adv-x="592" 
d="M92 -6c-23.333 16 -41.8291 36.9971 -55.4961 62.9971s-20.5 52.333 -20.5 79c0 20 3.83301 37.333 11.5 52s17.834 27.334 30.501 38.001s26.667 19 42 25s31 10 47 12c22 2.66699 53 5.33398 93 8.00098s84 4 132 4c17.333 28 36 52 56 72s39.833 36.5 59.5 49.5
s37.834 22.667 54.501 29s30 9.5 40 9.5c8 0 14.333 -2.16699 19 -6.5s7 -15.166 7 -32.499c0 -5.33301 -2.5 -12.833 -7.5 -22.5s-11.167 -20.334 -18.5 -32.001l-23.5 -36.5c-8.33301 -12.667 -15.5 -25 -21.5 -37c17.333 0 31.166 -0.833008 41.499 -2.5
s18.166 -4 23.499 -7s8.83301 -6.33301 10.5 -10s2.5 -7.5 2.5 -11.5c0 -5.33301 -0.166992 -10.833 -0.5 -16.5s-0.833008 -10.834 -1.5 -15.501c-0.666992 -5.33301 -1 -10.666 -1 -15.999c-6.66699 4.66699 -14.334 8 -23.001 10s-17.667 3.33301 -27 4
s-18.666 1 -27.999 1s-18.333 0.333008 -27 1c-9.33301 -20.667 -18.5 -43.167 -27.5 -67.5s-13.5 -45.833 -13.5 -64.5c0 -13.333 4 -25.166 12 -35.499s20.667 -15.5 38 -15.5c7.33301 0 14.166 1 20.499 3s12.166 3.66699 17.499 5c22.667 9.33301 37 16.666 43 21.999
s9.66699 8 11 8s2.83301 -0.666992 4.5 -2s2.5 -2.66602 2.5 -3.99902v1c-0.666992 0 -2.5 -2.16699 -5.5 -6.5s-8 -9.5 -15 -15.5s-16.5 -12.167 -28.5 -18.5s-27 -11.166 -45 -14.499c-5.33301 -1.33301 -9.33301 -2 -12 -2c-8 0 -16.333 1.83301 -25 5.5
s-16.667 8.5 -24 14.5s-13.5 13.167 -18.5 21.5s-7.5 17.5 -7.5 27.5c0 26.667 2.5 51.667 7.5 75s10.833 45.666 17.5 66.999c-8 0 -17.833 0.833008 -29.5 2.5s-23.5 3.16699 -35.5 4.5l-41 -66.5l-40 -66.5c-7.33301 -12.667 -16.5 -25.667 -27.5 -39
s-23.333 -25.333 -37 -36s-28.334 -19.5 -44.001 -26.5s-31.834 -10.5 -48.501 -10.5c-22.667 0 -44 7.66699 -64 23zM515.004 352.997c-27.333 -18.667 -54 -45 -80 -79c8 -0.666992 15.833 -1 23.5 -1s15.167 -0.333008 22.5 -1c5.33301 15.333 11 29.833 17 43.5z
M120.004 231.997c-23.333 -3.33301 -41.332 -14.501 -53.999 -33.501s-19 -39.5 -19 -61.5c0 -16.667 3.33301 -32.5 10 -47.5s15.167 -28.333 25.5 -40s22 -21 35 -28s25.833 -10.5 38.5 -10.5c20.667 0 39.667 7.16699 57 21.5s33.5 32 48.5 53s29 43.833 42 68.5
s25.5 47.334 37.5 68.001c-26.667 3.33301 -53.334 6.33301 -80.001 9s-54 4 -82 4c-19.333 0 -39 -1 -59 -3zM623.005 462.996c-8.66699 -0.666992 -17.832 0.333984 -27.499 3.00098s-18.834 9.66699 -27.501 21c0 1.33301 0.166992 3.66602 0.5 6.99902
s1.5 7.33301 3.5 12c2.66699 4.66699 7 7.5 13 8.5s12.333 0.666992 19 -1s13 -4.16699 19 -7.5s10.333 -7 13 -11c0.666992 -0.666992 1 -2 1 -4c0 -4 -2.66699 -11.333 -8 -22c-1.33301 -2.66699 -3.33301 -4.66699 -6 -6zM612.007 476.997
c0 0.666992 0.333008 1.16699 1 1.5s1 0.833008 1 1.5c2 4.66699 3 8 3 10v2c-2.66699 3.33301 -7.5 6 -14.5 8s-11.5 1 -13.5 -3c-1.33301 -3.33301 -2 -6.33301 -2 -9c3.33301 -5.33301 7.33301 -8.5 12 -9.5s9 -1.5 13 -1.5z" />
    <glyph glyph-name="Ccedilla" unicode="&#xc7;" horiz-adv-x="358" 
d="M131 -49c-17.333 0 -33.3311 3.66602 -47.998 10.999s-27.167 17.166 -37.5 29.499s-18.5 27 -24.5 44s-9 35.167 -9 54.5c-0.666992 39.333 7.16602 79.333 23.499 120s38.166 77.334 65.499 110.001s59.333 59.334 96 80.001s75 31 115 31c38 0 66.667 -5.66699 86 -17
s29.666 -23.666 30.999 -36.999c0 -2.66699 -0.333008 -4.66699 -1 -6c-14.667 -23.333 -25.5 -43.666 -32.5 -60.999s-12 -31.833 -15 -43.5s-4.83301 -20.667 -5.5 -27s-2 -10.5 -4 -12.5l-2 -1c-15.333 1.33301 -27.166 4.83301 -35.499 10.5s-14.5 11.834 -18.5 18.501
c-4.66699 7.33301 -7.66699 16 -9 26c0 5.33301 2.16699 15.166 6.5 29.499s12.5 31.833 24.5 52.5c-8 2 -16.667 3 -26 3c-26.667 0 -54.667 -8 -84 -24s-56.5 -37 -81.5 -63s-45.667 -55.833 -62 -89.5s-24.5 -68.167 -24.5 -103.5c0 -14 1.16699 -27.333 3.5 -40
s6.5 -23.5 12.5 -32.5s14.333 -16.167 25 -21.5s24.334 -8 41.001 -8s33.334 2.33301 50.001 7s32.667 11 48 19s29.5 17.167 42.5 27.5s24.167 21.166 33.5 32.499c16.667 20 28.667 36.5 36 49.5s12.5 23.333 15.5 31l6 15.5c1 2.66699 3.83301 4 8.5 4
c2 0 3.33301 -0.666992 4 -2s1 -2.66602 1 -3.99902c0 -4.66699 -1.83301 -12.667 -5.5 -24s-9.66699 -24.166 -18 -38.499s-19.333 -29.833 -33 -46.5s-30.167 -32.334 -49.5 -47.001c-8 -6 -17.5 -12.333 -28.5 -19s-22.833 -12.834 -35.5 -18.501
s-26.334 -10.334 -41.001 -14.001s-29.334 -5.5 -44.001 -5.5zM59.002 -1.00098l0.000976562 -8.50098c0 -2.33301 0.666992 -4.66602 2 -6.99902s3.66602 -5 6.99902 -8s8.66602 -7.16699 15.999 -12.5c3.33301 -3.33301 5.16602 -6.16602 5.49902 -8.49902
s0.5 -5.16602 0.5 -8.49902c-2.66699 -16.667 -8.66699 -27.5 -18 -32.5s-18.666 -7.5 -27.999 -7.5c-13.333 0 -23.833 2 -31.5 6s-13.334 8.5 -17.001 13.5s-6 9.66699 -7 14s-1.5 6.83301 -1.5 7.5c0 4.66699 1.5 8.5 4.5 11.5s6.33301 5.16699 10 6.5
s7.33398 2.16602 11.001 2.49902s6.16699 0.833008 7.5 1.5c1.33301 -8 3 -14 5 -18s4.66699 -7 8 -9c2.66699 -2.66699 6.33398 -4 11.001 -4h-1c5.33301 -1.33301 9.33301 -2 12 -2c8 0 12 4 12 12c0 2 -1 4.5 -3 7.5s-4.33301 6.16699 -7 9.5s-5 6.66602 -7 9.99902
s-3 6.33301 -3 9c0 5.33301 1 9.5 3 12.5s3 4.83301 3 5.5c0 -0.666992 0.333008 -1 1 -1s1 -0.166992 1 -0.5s0.333008 -0.5 1 -0.5c0.666992 -0.666992 1.66699 -1 3 -1z" />
    <glyph glyph-name="Egrave" unicode="&#xc8;" horiz-adv-x="593" 
d="M663 438c7.33301 -14 11 -26.6709 11 -38.0039c0 -7.33301 -1.16699 -13.833 -3.5 -19.5s-4.83301 -10.167 -7.5 -13.5c-2.66699 -4 -6 -7.66699 -10 -11c-4.66699 -3.33301 -16.334 -7.5 -35.001 -12.5s-44 -7.5 -76 -7.5c-14.667 0 -30.334 0.833008 -47.001 2.5
s-33.667 3.83398 -51 6.50098c0.666992 -2.66699 1.16699 -4.83398 1.5 -6.50098s0.5 -3.16699 0.5 -4.5l-33 -16c-9.33301 -4.66699 -18.5 -9.83398 -27.5 -15.501s-16.5 -11.167 -22.5 -16.5l48.5 -10c16.333 -3.33301 30.833 -6.66602 43.5 -9.99902
s23 -6.16602 31 -8.49902s12 -3.83301 12 -4.5h1c1.33301 -1.33301 2 -3.33301 2 -6s-1 -5 -3 -7l-2 -1v1c-1.33301 -0.666992 -6.5 -1.16699 -15.5 -1.5s-23.167 -0.5 -42.5 -0.5c-17.333 0 -36.166 0.166992 -56.499 0.5s-40.166 0.5 -59.499 0.5
c-13.333 -17.333 -25.333 -38 -36 -62s-16 -48.667 -16 -74c0 -28.667 7.5 -54.667 22.5 -78s38.5 -36.333 70.5 -39c28.667 1.33301 54.5 6.5 77.5 15.5s43.333 19.833 61 32.5s32.834 26.334 45.501 41.001s23 28.5 31 41.5s13.833 23.833 17.5 32.5s5.5 13.667 5.5 15
c0 0.666992 0.333008 1.33398 1 2.00098c1.33301 1.33301 3 2 5 2c4 0 6 -1.66699 6 -5c0 -14 -3.5 -29.167 -10.5 -45.5s-16.333 -32.5 -28 -48.5s-25.5 -31.333 -41.5 -46s-33 -27.667 -51 -39s-36.5 -20.166 -55.5 -26.499s-37.5 -9.5 -55.5 -9.5
c-23.333 0 -44.333 4.66699 -63 14s-34.5 21.666 -47.5 36.999s-23 33 -30 53s-10.5 41 -10.5 63c0 23.333 3.16699 45.5 9.5 66.5s14.166 40.5 23.499 58.5c-14.667 0 -23.5 3.33301 -26.5 10s-4.5 13.667 -4.5 21v21c0 3.33301 0.333008 6.66602 1 9.99902
c2.66699 -2 6.5 -3.5 11.5 -4.5l15.5 -3c5.33301 -1 10.333 -1.66699 15 -2s8 -0.5 10 -0.5v-1c1.33301 0 2.66602 0.166992 3.99902 0.5s2.66602 0.5 3.99902 0.5c10.667 15.333 21.834 29 33.501 41s23.167 22 34.5 30c-17.333 4 -35 7.16699 -53 9.5s-36 3.5 -54 3.5
c-26 0 -51.167 -3.5 -75.5 -10.5s-46 -18 -65 -33s-34.333 -34.5 -46 -58.5s-17.5 -52.667 -17.5 -86c0 -24 3.66699 -45.167 11 -63.5s16.833 -33.5 28.5 -45.5s25 -21.167 40 -27.5s30.5 -9.5 46.5 -9.5c8.66699 0 15.667 0.666992 21 2s8.66602 2 9.99902 2
c-0.666992 0 0.333008 -0.166992 3 -0.5s4 -2.16602 4 -5.49902c0 -1.33301 -3.16699 -3.66602 -9.5 -6.99902s-20.166 -5 -41.499 -5c-12 0 -26.167 2.5 -42.5 7.5s-31.666 14 -45.999 27s-26.666 30.667 -36.999 53s-15.5 50.833 -15.5 85.5
c0 33.333 7.16699 66.333 21.5 99s37.833 60.667 70.5 84c27.333 16 54.666 27 81.999 33s54 9 80 9c24.667 0 48 -1.5 70 -4.5l62 -8.5c23.333 -3.33301 44.333 -5.83301 63 -7.5s34.667 -2.5 48 -2.5c28 0 51.333 2 70 6s34 8.16699 46 12.5s20.833 8.33301 26.5 12
s9.5 5.16699 11.5 4.5zM421 544.996c2 -3.33301 5.16992 -7.83398 9.50293 -13.501l9.5 -12.5l8.5 -8.5c3.66699 -3.66699 8.5 -7.5 14.5 -11.5s13.333 -7.33301 22 -10s19 -4 31 -4c11.333 0 21.666 1.16699 30.999 3.5s15 3.83301 17 4.5h1v-1
c0 -1.33301 0.333008 -2 1 -2c1.33301 -3.33301 2 -4.5 2 -3.5s0 0.833008 0 -0.5s-2.33301 -3.16602 -7 -5.49902s-10.834 -4.66602 -18.501 -6.99902s-16.334 -4.5 -26.001 -6.5s-19.834 -3 -30.501 -3c-7.33301 0 -15.833 1 -25.5 3s-19 5 -28 9s-16.667 9.33301 -23 16
s-9.5 14.667 -9.5 24c0 3.33301 1 6.5 3 9.5s4.33301 6.16699 7 9.5s6.33398 6.66602 11.001 9.99902z" />
    <glyph glyph-name="Eacute" unicode="&#xc9;" horiz-adv-x="593" 
d="M663 438c7.33301 -14 11 -26.6709 11 -38.0039c0 -7.33301 -1.16699 -13.833 -3.5 -19.5s-4.83301 -10.167 -7.5 -13.5c-2.66699 -4 -6 -7.66699 -10 -11c-4.66699 -3.33301 -16.334 -7.5 -35.001 -12.5s-44 -7.5 -76 -7.5c-14.667 0 -30.334 0.833008 -47.001 2.5
s-33.667 3.83398 -51 6.50098c0.666992 -2.66699 1.16699 -4.83398 1.5 -6.50098s0.5 -3.16699 0.5 -4.5l-33 -16c-9.33301 -4.66699 -18.5 -9.83398 -27.5 -15.501s-16.5 -11.167 -22.5 -16.5l48.5 -10c16.333 -3.33301 30.833 -6.66602 43.5 -9.99902
s23 -6.16602 31 -8.49902s12 -3.83301 12 -4.5h1c1.33301 -1.33301 2 -3.33301 2 -6s-1 -5 -3 -7l-2 -1v1c-1.33301 -0.666992 -6.5 -1.16699 -15.5 -1.5s-23.167 -0.5 -42.5 -0.5c-17.333 0 -36.166 0.166992 -56.499 0.5s-40.166 0.5 -59.499 0.5
c-13.333 -17.333 -25.333 -38 -36 -62s-16 -48.667 -16 -74c0 -28.667 7.5 -54.667 22.5 -78s38.5 -36.333 70.5 -39c28.667 1.33301 54.5 6.5 77.5 15.5s43.333 19.833 61 32.5s32.834 26.334 45.501 41.001s23 28.5 31 41.5s13.833 23.833 17.5 32.5s5.5 13.667 5.5 15
c0 0.666992 0.333008 1.33398 1 2.00098c1.33301 1.33301 3 2 5 2c4 0 6 -1.66699 6 -5c0 -14 -3.5 -29.167 -10.5 -45.5s-16.333 -32.5 -28 -48.5s-25.5 -31.333 -41.5 -46s-33 -27.667 -51 -39s-36.5 -20.166 -55.5 -26.499s-37.5 -9.5 -55.5 -9.5
c-23.333 0 -44.333 4.66699 -63 14s-34.5 21.666 -47.5 36.999s-23 33 -30 53s-10.5 41 -10.5 63c0 23.333 3.16699 45.5 9.5 66.5s14.166 40.5 23.499 58.5c-14.667 0 -23.5 3.33301 -26.5 10s-4.5 13.667 -4.5 21v21c0 3.33301 0.333008 6.66602 1 9.99902
c2.66699 -2 6.5 -3.5 11.5 -4.5l15.5 -3c5.33301 -1 10.333 -1.66699 15 -2s8 -0.5 10 -0.5v-1c1.33301 0 2.66602 0.166992 3.99902 0.5s2.66602 0.5 3.99902 0.5c10.667 15.333 21.834 29 33.501 41s23.167 22 34.5 30c-17.333 4 -35 7.16699 -53 9.5s-36 3.5 -54 3.5
c-26 0 -51.167 -3.5 -75.5 -10.5s-46 -18 -65 -33s-34.333 -34.5 -46 -58.5s-17.5 -52.667 -17.5 -86c0 -24 3.66699 -45.167 11 -63.5s16.833 -33.5 28.5 -45.5s25 -21.167 40 -27.5s30.5 -9.5 46.5 -9.5c8.66699 0 15.667 0.666992 21 2s8.66602 2 9.99902 2
c-0.666992 0 0.333008 -0.166992 3 -0.5s4 -2.16602 4 -5.49902c0 -1.33301 -3.16699 -3.66602 -9.5 -6.99902s-20.166 -5 -41.499 -5c-12 0 -26.167 2.5 -42.5 7.5s-31.666 14 -45.999 27s-26.666 30.667 -36.999 53s-15.5 50.833 -15.5 85.5
c0 33.333 7.16699 66.333 21.5 99s37.833 60.667 70.5 84c27.333 16 54.666 27 81.999 33s54 9 80 9c24.667 0 48 -1.5 70 -4.5l62 -8.5c23.333 -3.33301 44.333 -5.83301 63 -7.5s34.667 -2.5 48 -2.5c28 0 51.333 2 70 6s34 8.16699 46 12.5s20.833 8.33301 26.5 12
s9.5 5.16699 11.5 4.5zM548 544.996c0.666992 0 2.1709 -1.3291 4.50391 -3.99609l7.5 -9c2.66699 -3.33301 5 -7.16602 7 -11.499s3 -7.83301 3 -10.5c0 -8.66699 -3.33301 -15.834 -10 -21.501s-14.5 -10.334 -23.5 -14.001s-18.5 -6.33398 -28.5 -8.00098
s-18.333 -2.5 -25 -2.5c-10.667 0 -20.834 1 -30.501 3s-18.334 4.16699 -26.001 6.5s-13.834 4.66602 -18.501 6.99902s-7 4.16602 -7 5.49902l2 4c0 0.666992 0.166992 1 0.5 1s0.5 0.333008 0.5 1l1 1c2 -0.666992 7.66699 -2.16699 17 -4.5s19.666 -3.5 30.999 -3.5
c12 0 22.333 1.33301 31 4s16 6 22 10s10.833 7.83301 14.5 11.5l8.5 8.5l9.5 12.5c4.33301 5.66699 7.5 10.167 9.5 13.5z" />
    <glyph glyph-name="Ecircumflex" unicode="&#xca;" horiz-adv-x="593" 
d="M663 438c7.33301 -14 11 -26.6709 11 -38.0039c0 -7.33301 -1.16699 -13.833 -3.5 -19.5s-4.83301 -10.167 -7.5 -13.5c-2.66699 -4 -6 -7.66699 -10 -11c-4.66699 -3.33301 -16.334 -7.5 -35.001 -12.5s-44 -7.5 -76 -7.5c-14.667 0 -30.334 0.833008 -47.001 2.5
s-33.667 3.83398 -51 6.50098c0.666992 -2.66699 1.16699 -4.83398 1.5 -6.50098s0.5 -3.16699 0.5 -4.5l-33 -16c-9.33301 -4.66699 -18.5 -9.83398 -27.5 -15.501s-16.5 -11.167 -22.5 -16.5l48.5 -10c16.333 -3.33301 30.833 -6.66602 43.5 -9.99902
s23 -6.16602 31 -8.49902s12 -3.83301 12 -4.5h1c1.33301 -1.33301 2 -3.33301 2 -6s-1 -5 -3 -7l-2 -1v1c-1.33301 -0.666992 -6.5 -1.16699 -15.5 -1.5s-23.167 -0.5 -42.5 -0.5c-17.333 0 -36.166 0.166992 -56.499 0.5s-40.166 0.5 -59.499 0.5
c-13.333 -17.333 -25.333 -38 -36 -62s-16 -48.667 -16 -74c0 -28.667 7.5 -54.667 22.5 -78s38.5 -36.333 70.5 -39c28.667 1.33301 54.5 6.5 77.5 15.5s43.333 19.833 61 32.5s32.834 26.334 45.501 41.001s23 28.5 31 41.5s13.833 23.833 17.5 32.5s5.5 13.667 5.5 15
c0 0.666992 0.333008 1.33398 1 2.00098c1.33301 1.33301 3 2 5 2c4 0 6 -1.66699 6 -5c0 -14 -3.5 -29.167 -10.5 -45.5s-16.333 -32.5 -28 -48.5s-25.5 -31.333 -41.5 -46s-33 -27.667 -51 -39s-36.5 -20.166 -55.5 -26.499s-37.5 -9.5 -55.5 -9.5
c-23.333 0 -44.333 4.66699 -63 14s-34.5 21.666 -47.5 36.999s-23 33 -30 53s-10.5 41 -10.5 63c0 23.333 3.16699 45.5 9.5 66.5s14.166 40.5 23.499 58.5c-14.667 0 -23.5 3.33301 -26.5 10s-4.5 13.667 -4.5 21v21c0 3.33301 0.333008 6.66602 1 9.99902
c2.66699 -2 6.5 -3.5 11.5 -4.5l15.5 -3c5.33301 -1 10.333 -1.66699 15 -2s8 -0.5 10 -0.5v-1c1.33301 0 2.66602 0.166992 3.99902 0.5s2.66602 0.5 3.99902 0.5c10.667 15.333 21.834 29 33.501 41s23.167 22 34.5 30c-17.333 4 -35 7.16699 -53 9.5s-36 3.5 -54 3.5
c-26 0 -51.167 -3.5 -75.5 -10.5s-46 -18 -65 -33s-34.333 -34.5 -46 -58.5s-17.5 -52.667 -17.5 -86c0 -24 3.66699 -45.167 11 -63.5s16.833 -33.5 28.5 -45.5s25 -21.167 40 -27.5s30.5 -9.5 46.5 -9.5c8.66699 0 15.667 0.666992 21 2s8.66602 2 9.99902 2
c-0.666992 0 0.333008 -0.166992 3 -0.5s4 -2.16602 4 -5.49902c0 -1.33301 -3.16699 -3.66602 -9.5 -6.99902s-20.166 -5 -41.499 -5c-12 0 -26.167 2.5 -42.5 7.5s-31.666 14 -45.999 27s-26.666 30.667 -36.999 53s-15.5 50.833 -15.5 85.5
c0 33.333 7.16699 66.333 21.5 99s37.833 60.667 70.5 84c27.333 16 54.666 27 81.999 33s54 9 80 9c24.667 0 48 -1.5 70 -4.5l62 -8.5c23.333 -3.33301 44.333 -5.83301 63 -7.5s34.667 -2.5 48 -2.5c28 0 51.333 2 70 6s34 8.16699 46 12.5s20.833 8.33301 26.5 12
s9.5 5.16699 11.5 4.5zM591 448.996c0 -1.33301 0.50293 -2.33105 1.50293 -2.99805s1.5 -1.33398 1.5 -2.00098c0 -1.33301 -1.83301 -2.66602 -5.5 -3.99902s-11.834 -2 -24.501 -2c-12 0 -25.667 2.66699 -41 8s-28 15.666 -38 30.999c-7.33301 -5.33301 -15 -9 -23 -11
s-16 -3 -24 -3c-8.66699 0 -16.834 1 -24.501 3s-14.5 4.33301 -20.5 7s-10.833 5.16699 -14.5 7.5s-5.5 4.16602 -5.5 5.49902l4 6c1.33301 -0.666992 6.33301 -2.16699 15 -4.5s18.667 -3.5 30 -3.5s20.833 1.66699 28.5 5s14 7 19 11s9 7.66699 12 11s6.16699 5 9.5 5
c7.33301 0 12.166 -2 14.499 -6s4.5 -8.83301 6.5 -14.5s4.66699 -11.667 8 -18s10 -11.5 20 -15.5c11.333 -5.33301 22 -8.5 32 -9.5s16.333 -1.83301 19 -2.5v-1z" />
    <glyph glyph-name="Edieresis" unicode="&#xcb;" horiz-adv-x="593" 
d="M663 438c7.33301 -14 11 -26.6709 11 -38.0039c0 -7.33301 -1.16699 -13.833 -3.5 -19.5s-4.83301 -10.167 -7.5 -13.5c-2.66699 -4 -6 -7.66699 -10 -11c-4.66699 -3.33301 -16.334 -7.5 -35.001 -12.5s-44 -7.5 -76 -7.5c-14.667 0 -30.334 0.833008 -47.001 2.5
s-33.667 3.83398 -51 6.50098c0.666992 -2.66699 1.16699 -4.83398 1.5 -6.50098s0.5 -3.16699 0.5 -4.5l-33 -16c-9.33301 -4.66699 -18.5 -9.83398 -27.5 -15.501s-16.5 -11.167 -22.5 -16.5l48.5 -10c16.333 -3.33301 30.833 -6.66602 43.5 -9.99902
s23 -6.16602 31 -8.49902s12 -3.83301 12 -4.5h1c1.33301 -1.33301 2 -3.33301 2 -6s-1 -5 -3 -7l-2 -1v1c-1.33301 -0.666992 -6.5 -1.16699 -15.5 -1.5s-23.167 -0.5 -42.5 -0.5c-17.333 0 -36.166 0.166992 -56.499 0.5s-40.166 0.5 -59.499 0.5
c-13.333 -17.333 -25.333 -38 -36 -62s-16 -48.667 -16 -74c0 -28.667 7.5 -54.667 22.5 -78s38.5 -36.333 70.5 -39c28.667 1.33301 54.5 6.5 77.5 15.5s43.333 19.833 61 32.5s32.834 26.334 45.501 41.001s23 28.5 31 41.5s13.833 23.833 17.5 32.5s5.5 13.667 5.5 15
c0 0.666992 0.333008 1.33398 1 2.00098c1.33301 1.33301 3 2 5 2c4 0 6 -1.66699 6 -5c0 -14 -3.5 -29.167 -10.5 -45.5s-16.333 -32.5 -28 -48.5s-25.5 -31.333 -41.5 -46s-33 -27.667 -51 -39s-36.5 -20.166 -55.5 -26.499s-37.5 -9.5 -55.5 -9.5
c-23.333 0 -44.333 4.66699 -63 14s-34.5 21.666 -47.5 36.999s-23 33 -30 53s-10.5 41 -10.5 63c0 23.333 3.16699 45.5 9.5 66.5s14.166 40.5 23.499 58.5c-14.667 0 -23.5 3.33301 -26.5 10s-4.5 13.667 -4.5 21v21c0 3.33301 0.333008 6.66602 1 9.99902
c2.66699 -2 6.5 -3.5 11.5 -4.5l15.5 -3c5.33301 -1 10.333 -1.66699 15 -2s8 -0.5 10 -0.5v-1c1.33301 0 2.66602 0.166992 3.99902 0.5s2.66602 0.5 3.99902 0.5c10.667 15.333 21.834 29 33.501 41s23.167 22 34.5 30c-17.333 4 -35 7.16699 -53 9.5s-36 3.5 -54 3.5
c-26 0 -51.167 -3.5 -75.5 -10.5s-46 -18 -65 -33s-34.333 -34.5 -46 -58.5s-17.5 -52.667 -17.5 -86c0 -24 3.66699 -45.167 11 -63.5s16.833 -33.5 28.5 -45.5s25 -21.167 40 -27.5s30.5 -9.5 46.5 -9.5c8.66699 0 15.667 0.666992 21 2s8.66602 2 9.99902 2
c-0.666992 0 0.333008 -0.166992 3 -0.5s4 -2.16602 4 -5.49902c0 -1.33301 -3.16699 -3.66602 -9.5 -6.99902s-20.166 -5 -41.499 -5c-12 0 -26.167 2.5 -42.5 7.5s-31.666 14 -45.999 27s-26.666 30.667 -36.999 53s-15.5 50.833 -15.5 85.5
c0 33.333 7.16699 66.333 21.5 99s37.833 60.667 70.5 84c27.333 16 54.666 27 81.999 33s54 9 80 9c24.667 0 48 -1.5 70 -4.5l62 -8.5c23.333 -3.33301 44.333 -5.83301 63 -7.5s34.667 -2.5 48 -2.5c28 0 51.333 2 70 6s34 8.16699 46 12.5s20.833 8.33301 26.5 12
s9.5 5.16699 11.5 4.5zM503 524.996c0.666992 -0.666992 3 -0.999023 7 -0.999023s8.16699 -0.5 12.5 -1.5s8.33301 -2.5 12 -4.5s5.5 -5 5.5 -9c0 -3.33301 -2.5 -7.83301 -7.5 -13.5s-7.5 -16.834 -7.5 -33.501c0 -4 0.333008 -7 1 -9h-6c-4 0 -8.83301 1 -14.5 3
s-8.5 7.66699 -8.5 17c0 2 0.333008 3.83301 1 5.5s1.5 4 2.5 7s2 6.83301 3 11.5s1.5 11 1.5 19c0 3.33301 -0.666992 6.33301 -2 9zM433 524.997c0.666992 -0.666992 3 -1 7 -1s8.33301 -0.333008 13 -1s8.66699 -2.16699 12 -4.5s5 -5.83301 5 -10.5
c0 -3.33301 -0.333008 -5.66602 -1 -6.99902c-2.66699 -4 -5 -8.33301 -7 -13c-4.66699 -9.33301 -7 -18.333 -7 -27c0 -4 0.333008 -6.66699 1 -8h-6c-4 0 -8.83301 1 -14.5 3s-8.5 7.33301 -8.5 16c0 2.66699 0.333008 4.66699 1 6s1.5 3.16602 2.5 5.49902
s2 5.83301 3 10.5s1.5 11.667 1.5 21c0 4 -0.666992 7.33301 -2 10z" />
    <glyph glyph-name="Igrave" unicode="&#xcc;" horiz-adv-x="420" 
d="M588 429c7.33301 -12.667 11.0049 -24.9951 11.0049 -36.9951c0 -7.33301 -1.16699 -13.833 -3.5 -19.5s-4.83301 -10.167 -7.5 -13.5c-2.66699 -4.66699 -6 -8.33398 -10 -11.001c-5.33301 -3.33301 -17.666 -7.5 -36.999 -12.5s-46 -7.5 -80 -7.5h-8
c-2.66699 0 -5.33398 0.333008 -8.00098 1l8 -8c2 -2 3 -8.33301 3 -19c0 -8 -1.66699 -15.667 -5 -23c-6 -11.333 -12.833 -25.166 -20.5 -41.499l-24 -52.5l-25 -58c-8.33301 -20 -15.833 -38.833 -22.5 -56.5s-12.167 -33.5 -16.5 -47.5s-6.83301 -25 -7.5 -33
c20.667 -3.33301 38.667 -8.16602 54 -14.499s24.666 -10.5 27.999 -12.5c0 -3.33301 -1.33301 -8.33301 -4 -15s-5.5 -13.334 -8.5 -20.001s-5.83301 -12.667 -8.5 -18s-4.33398 -8 -5.00098 -8c-12 13.333 -29 24.333 -51 33s-44.5 15.667 -67.5 21
s-44.667 9.16602 -65 11.499s-35.166 3.5 -44.499 3.5c-6 0 -9 -0.333008 -9 -1c-0.666992 0 -1.33398 0.333008 -2.00098 1c-1.33301 1.33301 -2 4 -2 8c0 2 4.33301 4 13 6s20 3.83301 34 5.5s29.667 3 47 4s35 1.5 53 1.5c-0.666992 1.33301 -1.16699 2 -1.5 2
s-0.666016 0.5 -0.999023 1.5s-0.5 3 -0.5 6v13.5c0 4.66699 0.666992 10.167 2 16.5s3 13.833 5 22.5c7.33301 28 15.833 55 25.5 81l28 74l25 65.5c7.66699 20.333 13.5 39.166 17.5 56.499c-28 3.33301 -55.333 8.16602 -82 14.499s-54.667 9.5 -84 9.5
c-21.333 0 -43.333 -2.5 -66 -7.5s-43.167 -13 -61.5 -24s-33.333 -25 -45 -42s-17.5 -37.5 -17.5 -61.5c0 -26 7.83301 -46 23.5 -60s37.5 -21 65.5 -21c10.667 0 19 0.833008 25 2.5s9.66699 2.5 11 2.5c-0.666992 0 0.166016 -0.333008 2.49902 -1s3.5 -2.66699 3.5 -6
c0 -2 -4 -4.5 -12 -7.5s-20.667 -5.16699 -38 -6.5c-7.33301 0 -17 1.16699 -29 3.5s-23.833 7.16602 -35.5 14.499s-21.834 17.666 -30.501 30.999s-13 31.333 -13 54c0 32 7.83301 59.333 23.5 82s35.667 41 60 55s51.166 24.167 80.499 30.5s57.666 9.5 84.999 9.5
c12 0 28.167 -0.5 48.5 -1.5s42.333 -2 66 -3s47.5 -1.5 71.5 -1.5s46.167 0.833008 66.5 2.5s37 4.5 50 8.5s20.5 9.66699 22.5 17zM357.005 545.005c2 -3.33301 5.16992 -7.83398 9.50293 -13.501l9.5 -12.5l8.5 -8.5c3.66699 -3.66699 8.5 -7.5 14.5 -11.5
s13.333 -7.33301 22 -10s19 -4 31 -4c11.333 0 21.666 1.16699 30.999 3.5s15 3.83301 17 4.5h1v-1c0 -1.33301 0.333008 -2 1 -2c1.33301 -3.33301 2 -4.5 2 -3.5s0 0.833008 0 -0.5s-2.33301 -3.16602 -7 -5.49902s-10.834 -4.66602 -18.501 -6.99902
s-16.334 -4.5 -26.001 -6.5s-19.834 -3 -30.501 -3c-7.33301 0 -15.833 1 -25.5 3s-19 5 -28 9s-16.667 9.33301 -23 16s-9.5 14.667 -9.5 24c0 3.33301 1 6.5 3 9.5s4.33301 6.16699 7 9.5s6.33398 6.66602 11.001 9.99902z" />
    <glyph glyph-name="Iacute" unicode="&#xcd;" horiz-adv-x="420" 
d="M588 429c7.33301 -12.667 11.0049 -24.9951 11.0049 -36.9951c0 -7.33301 -1.16699 -13.833 -3.5 -19.5s-4.83301 -10.167 -7.5 -13.5c-2.66699 -4.66699 -6 -8.33398 -10 -11.001c-5.33301 -3.33301 -17.666 -7.5 -36.999 -12.5s-46 -7.5 -80 -7.5h-8
c-2.66699 0 -5.33398 0.333008 -8.00098 1l8 -8c2 -2 3 -8.33301 3 -19c0 -8 -1.66699 -15.667 -5 -23c-6 -11.333 -12.833 -25.166 -20.5 -41.499l-24 -52.5l-25 -58c-8.33301 -20 -15.833 -38.833 -22.5 -56.5s-12.167 -33.5 -16.5 -47.5s-6.83301 -25 -7.5 -33
c20.667 -3.33301 38.667 -8.16602 54 -14.499s24.666 -10.5 27.999 -12.5c0 -3.33301 -1.33301 -8.33301 -4 -15s-5.5 -13.334 -8.5 -20.001s-5.83301 -12.667 -8.5 -18s-4.33398 -8 -5.00098 -8c-12 13.333 -29 24.333 -51 33s-44.5 15.667 -67.5 21
s-44.667 9.16602 -65 11.499s-35.166 3.5 -44.499 3.5c-6 0 -9 -0.333008 -9 -1c-0.666992 0 -1.33398 0.333008 -2.00098 1c-1.33301 1.33301 -2 4 -2 8c0 2 4.33301 4 13 6s20 3.83301 34 5.5s29.667 3 47 4s35 1.5 53 1.5c-0.666992 1.33301 -1.16699 2 -1.5 2
s-0.666016 0.5 -0.999023 1.5s-0.5 3 -0.5 6v13.5c0 4.66699 0.666992 10.167 2 16.5s3 13.833 5 22.5c7.33301 28 15.833 55 25.5 81l28 74l25 65.5c7.66699 20.333 13.5 39.166 17.5 56.499c-28 3.33301 -55.333 8.16602 -82 14.499s-54.667 9.5 -84 9.5
c-21.333 0 -43.333 -2.5 -66 -7.5s-43.167 -13 -61.5 -24s-33.333 -25 -45 -42s-17.5 -37.5 -17.5 -61.5c0 -26 7.83301 -46 23.5 -60s37.5 -21 65.5 -21c10.667 0 19 0.833008 25 2.5s9.66699 2.5 11 2.5c-0.666992 0 0.166016 -0.333008 2.49902 -1s3.5 -2.66699 3.5 -6
c0 -2 -4 -4.5 -12 -7.5s-20.667 -5.16699 -38 -6.5c-7.33301 0 -17 1.16699 -29 3.5s-23.833 7.16602 -35.5 14.499s-21.834 17.666 -30.501 30.999s-13 31.333 -13 54c0 32 7.83301 59.333 23.5 82s35.667 41 60 55s51.166 24.167 80.499 30.5s57.666 9.5 84.999 9.5
c12 0 28.167 -0.5 48.5 -1.5s42.333 -2 66 -3s47.5 -1.5 71.5 -1.5s46.167 0.833008 66.5 2.5s37 4.5 50 8.5s20.5 9.66699 22.5 17zM483.005 545.005c0.666992 0 2.1709 -1.3291 4.50391 -3.99609l7.5 -9c2.66699 -3.33301 5 -7.16602 7 -11.499s3 -7.83301 3 -10.5
c0 -8.66699 -3.33301 -15.834 -10 -21.501s-14.5 -10.334 -23.5 -14.001s-18.5 -6.33398 -28.5 -8.00098s-18.333 -2.5 -25 -2.5c-10.667 0 -20.834 1 -30.501 3s-18.334 4.16699 -26.001 6.5s-13.834 4.66602 -18.501 6.99902s-7 4.16602 -7 5.49902l2 4
c0 0.666992 0.166992 1 0.5 1s0.5 0.333008 0.5 1l1 1c2 -0.666992 7.66699 -2.16699 17 -4.5s19.666 -3.5 30.999 -3.5c12 0 22.333 1.33301 31 4s16 6 22 10s10.833 7.83301 14.5 11.5l8.5 8.5l9.5 12.5c4.33301 5.66699 7.5 10.167 9.5 13.5z" />
    <glyph glyph-name="Icircumflex" unicode="&#xce;" horiz-adv-x="420" 
d="M588 429c7.33301 -12.667 11.0049 -24.9951 11.0049 -36.9951c0 -7.33301 -1.16699 -13.833 -3.5 -19.5s-4.83301 -10.167 -7.5 -13.5c-2.66699 -4.66699 -6 -8.33398 -10 -11.001c-5.33301 -3.33301 -17.666 -7.5 -36.999 -12.5s-46 -7.5 -80 -7.5h-8
c-2.66699 0 -5.33398 0.333008 -8.00098 1l8 -8c2 -2 3 -8.33301 3 -19c0 -8 -1.66699 -15.667 -5 -23c-6 -11.333 -12.833 -25.166 -20.5 -41.499l-24 -52.5l-25 -58c-8.33301 -20 -15.833 -38.833 -22.5 -56.5s-12.167 -33.5 -16.5 -47.5s-6.83301 -25 -7.5 -33
c20.667 -3.33301 38.667 -8.16602 54 -14.499s24.666 -10.5 27.999 -12.5c0 -3.33301 -1.33301 -8.33301 -4 -15s-5.5 -13.334 -8.5 -20.001s-5.83301 -12.667 -8.5 -18s-4.33398 -8 -5.00098 -8c-12 13.333 -29 24.333 -51 33s-44.5 15.667 -67.5 21
s-44.667 9.16602 -65 11.499s-35.166 3.5 -44.499 3.5c-6 0 -9 -0.333008 -9 -1c-0.666992 0 -1.33398 0.333008 -2.00098 1c-1.33301 1.33301 -2 4 -2 8c0 2 4.33301 4 13 6s20 3.83301 34 5.5s29.667 3 47 4s35 1.5 53 1.5c-0.666992 1.33301 -1.16699 2 -1.5 2
s-0.666016 0.5 -0.999023 1.5s-0.5 3 -0.5 6v13.5c0 4.66699 0.666992 10.167 2 16.5s3 13.833 5 22.5c7.33301 28 15.833 55 25.5 81l28 74l25 65.5c7.66699 20.333 13.5 39.166 17.5 56.499c-28 3.33301 -55.333 8.16602 -82 14.499s-54.667 9.5 -84 9.5
c-21.333 0 -43.333 -2.5 -66 -7.5s-43.167 -13 -61.5 -24s-33.333 -25 -45 -42s-17.5 -37.5 -17.5 -61.5c0 -26 7.83301 -46 23.5 -60s37.5 -21 65.5 -21c10.667 0 19 0.833008 25 2.5s9.66699 2.5 11 2.5c-0.666992 0 0.166016 -0.333008 2.49902 -1s3.5 -2.66699 3.5 -6
c0 -2 -4 -4.5 -12 -7.5s-20.667 -5.16699 -38 -6.5c-7.33301 0 -17 1.16699 -29 3.5s-23.833 7.16602 -35.5 14.499s-21.834 17.666 -30.501 30.999s-13 31.333 -13 54c0 32 7.83301 59.333 23.5 82s35.667 41 60 55s51.166 24.167 80.499 30.5s57.666 9.5 84.999 9.5
c12 0 28.167 -0.5 48.5 -1.5s42.333 -2 66 -3s47.5 -1.5 71.5 -1.5s46.167 0.833008 66.5 2.5s37 4.5 50 8.5s20.5 9.66699 22.5 17zM528.005 449.005c0 -1.33301 0.50293 -2.33105 1.50293 -2.99805s1.5 -1.33398 1.5 -2.00098c0 -1.33301 -1.83301 -2.66602 -5.5 -3.99902
s-11.834 -2 -24.501 -2c-12 0 -25.667 2.66699 -41 8s-28 15.666 -38 30.999c-7.33301 -5.33301 -15 -9 -23 -11s-16 -3 -24 -3c-8.66699 0 -16.834 1 -24.501 3s-14.5 4.33301 -20.5 7s-10.833 5.16699 -14.5 7.5s-5.5 4.16602 -5.5 5.49902l4 6
c1.33301 -0.666992 6.33301 -2.16699 15 -4.5s18.667 -3.5 30 -3.5s20.833 1.66699 28.5 5s14 7 19 11s9 7.66699 12 11s6.16699 5 9.5 5c7.33301 0 12.166 -2 14.499 -6s4.5 -8.83301 6.5 -14.5s4.66699 -11.667 8 -18s10 -11.5 20 -15.5c11.333 -5.33301 22 -8.5 32 -9.5
s16.333 -1.83301 19 -2.5v-1z" />
    <glyph glyph-name="Idieresis" unicode="&#xcf;" horiz-adv-x="420" 
d="M588 429c7.33301 -12.667 11.0049 -24.9951 11.0049 -36.9951c0 -7.33301 -1.16699 -13.833 -3.5 -19.5s-4.83301 -10.167 -7.5 -13.5c-2.66699 -4.66699 -6 -8.33398 -10 -11.001c-5.33301 -3.33301 -17.666 -7.5 -36.999 -12.5s-46 -7.5 -80 -7.5h-8
c-2.66699 0 -5.33398 0.333008 -8.00098 1l8 -8c2 -2 3 -8.33301 3 -19c0 -8 -1.66699 -15.667 -5 -23c-6 -11.333 -12.833 -25.166 -20.5 -41.499l-24 -52.5l-25 -58c-8.33301 -20 -15.833 -38.833 -22.5 -56.5s-12.167 -33.5 -16.5 -47.5s-6.83301 -25 -7.5 -33
c20.667 -3.33301 38.667 -8.16602 54 -14.499s24.666 -10.5 27.999 -12.5c0 -3.33301 -1.33301 -8.33301 -4 -15s-5.5 -13.334 -8.5 -20.001s-5.83301 -12.667 -8.5 -18s-4.33398 -8 -5.00098 -8c-12 13.333 -29 24.333 -51 33s-44.5 15.667 -67.5 21
s-44.667 9.16602 -65 11.499s-35.166 3.5 -44.499 3.5c-6 0 -9 -0.333008 -9 -1c-0.666992 0 -1.33398 0.333008 -2.00098 1c-1.33301 1.33301 -2 4 -2 8c0 2 4.33301 4 13 6s20 3.83301 34 5.5s29.667 3 47 4s35 1.5 53 1.5c-0.666992 1.33301 -1.16699 2 -1.5 2
s-0.666016 0.5 -0.999023 1.5s-0.5 3 -0.5 6v13.5c0 4.66699 0.666992 10.167 2 16.5s3 13.833 5 22.5c7.33301 28 15.833 55 25.5 81l28 74l25 65.5c7.66699 20.333 13.5 39.166 17.5 56.499c-28 3.33301 -55.333 8.16602 -82 14.499s-54.667 9.5 -84 9.5
c-21.333 0 -43.333 -2.5 -66 -7.5s-43.167 -13 -61.5 -24s-33.333 -25 -45 -42s-17.5 -37.5 -17.5 -61.5c0 -26 7.83301 -46 23.5 -60s37.5 -21 65.5 -21c10.667 0 19 0.833008 25 2.5s9.66699 2.5 11 2.5c-0.666992 0 0.166016 -0.333008 2.49902 -1s3.5 -2.66699 3.5 -6
c0 -2 -4 -4.5 -12 -7.5s-20.667 -5.16699 -38 -6.5c-7.33301 0 -17 1.16699 -29 3.5s-23.833 7.16602 -35.5 14.499s-21.834 17.666 -30.501 30.999s-13 31.333 -13 54c0 32 7.83301 59.333 23.5 82s35.667 41 60 55s51.166 24.167 80.499 30.5s57.666 9.5 84.999 9.5
c12 0 28.167 -0.5 48.5 -1.5s42.333 -2 66 -3s47.5 -1.5 71.5 -1.5s46.167 0.833008 66.5 2.5s37 4.5 50 8.5s20.5 9.66699 22.5 17zM440.005 525.005c0.666992 -0.666992 3 -0.999023 7 -0.999023s8.16699 -0.5 12.5 -1.5s8.33301 -2.5 12 -4.5s5.5 -5 5.5 -9
c0 -3.33301 -2.5 -7.83301 -7.5 -13.5s-7.5 -16.834 -7.5 -33.501c0 -4 0.333008 -7 1 -9h-6c-4 0 -8.83301 1 -14.5 3s-8.5 7.66699 -8.5 17c0 2 0.333008 3.83301 1 5.5s1.5 4 2.5 7s2 6.83301 3 11.5s1.5 11 1.5 19c0 3.33301 -0.666992 6.33301 -2 9zM370.005 525.006
c0.666992 -0.666992 3 -1 7 -1s8.33301 -0.333008 13 -1s8.66699 -2.16699 12 -4.5s5 -5.83301 5 -10.5c0 -3.33301 -0.333008 -5.66602 -1 -6.99902c-2.66699 -4 -5 -8.33301 -7 -13c-4.66699 -9.33301 -7 -18.333 -7 -27c0 -4 0.333008 -6.66699 1 -8h-6
c-4 0 -8.83301 1 -14.5 3s-8.5 7.33301 -8.5 16c0 2.66699 0.333008 4.66699 1 6s1.5 3.16602 2.5 5.49902s2 5.83301 3 10.5s1.5 11.667 1.5 21c0 4 -0.666992 7.33301 -2 10z" />
    <glyph glyph-name="Ntilde" unicode="&#xd1;" horiz-adv-x="608" 
d="M665 389c3.33301 -5.33301 4.50195 -11.501 3.50195 -18.501s-2.83301 -13.5 -5.5 -19.5c-6 -10 -13.667 -25.333 -23 -46s-19.333 -44.167 -30 -70.5l-32 -83l-29.5 -83c-9 -26.333 -16.167 -50 -21.5 -71s-8 -36.5 -8 -46.5c-30 0.666992 -55 16.5 -75 47.5
s-35.333 72.833 -46 125.5c-12 -28 -25 -53.5 -39 -76.5s-30 -42.667 -48 -59s-38.333 -29 -61 -38s-48.334 -13.5 -77.001 -13.5c-49.333 0 -89 14.833 -119 44.5s-45 74.167 -45 133.5c0 32 5.16699 62.833 15.5 92.5s24.5 56 42.5 79s39.167 41.667 63.5 56
s50.5 22.166 78.5 23.499c13.333 0 25 -1.66699 35 -5s18.833 -7.33301 26.5 -12s14.667 -9.5 21 -14.5s12.5 -8.83301 18.5 -11.5c0 -5.33301 -2.5 -9.83301 -7.5 -13.5s-11 -6.66699 -18 -9s-14 -4.16602 -21 -5.49902l-15.5 -3c-8.66699 16.667 -23.667 25 -45 25
c-19.333 0 -40.333 -5.5 -63 -16.5s-41.667 -25.833 -57 -44.5c-19.333 -23.333 -32.333 -44.833 -39 -64.5s-10 -42.5 -10 -68.5c0 -19.333 2.33301 -38 7 -56s12 -34 22 -48s23 -25.167 39 -33.5s35.667 -12.5 59 -12.5c31.333 0 58.166 5.83301 80.499 17.5
s41.333 26.667 57 45s28.5 38.833 38.5 61.5s18.667 45 26 67c6 18 11.667 35.833 17 53.5s10.5 34 15.5 49l13.5 40.5c4 12 7 21.333 9 28v1c2 8.66699 4 16.667 6 24l4 20.5c1.33301 7 2.33301 12.833 3 17.5l10 -5c6.66699 -3.33301 13.667 -7.33301 21 -12
s14.166 -9.5 20.499 -14.5s9.5 -8.83301 9.5 -11.5c0 -4 -1.16699 -9.16699 -3.5 -15.5s-4.16602 -11.833 -5.49902 -16.5c0.666992 0 1 -0.333008 1 -1c-11.333 -23.333 -22 -51.833 -32 -85.5s-15 -68.5 -15 -104.5c0 -32 4 -59.167 12 -81.5s17.667 -41.166 29 -56.499
c0 9.33301 3 25.333 9 48s13.5 48.167 22.5 76.5s18.833 57.5 29.5 87.5l29 82.5l21.5 60.5c5.66699 15.333 8.16699 22.333 7.5 21l7 21c4 12.667 6.66699 23.667 8 33l23 -10c6 -3.33301 12 -7 18 -11s10 -8.66699 12 -14zM524.002 497.999
c-7.33301 2 -13.833 4.16895 -19.5 6.50195s-11.834 3.5 -18.501 3.5c-8.66699 0 -14 -2.33301 -16 -7s-3 -8 -3 -10s0.166992 -3.66699 0.5 -5s0.5 -2.33301 0.5 -3c-0.666992 0 -1 -0.5 -1 -1.5s-1.33301 -1.5 -4 -1.5c-1.33301 0.666992 -2.33301 1.66699 -3 3
c-1.33301 2.66699 -2 5.66699 -2 9c0 9.33301 3 16.666 9 21.999s12.667 8 20 8c16 0 32.5 -2 49.5 -6s30.833 -6 41.5 -6c8.66699 0 16.5 1.33301 23.5 4s11.167 11.667 12.5 27c2 0 4.83301 -0.166992 8.5 -0.5s7.33398 -1.33301 11.001 -3
s6.83398 -3.83398 9.50098 -6.50098s4 -6.66699 4 -12c0 -7.33301 -3.83301 -16 -11.5 -26s-21.167 -15 -40.5 -15c-12.667 0 -25.334 2.5 -38.001 7.5s-23.667 9.16699 -33 12.5z" />
    <glyph glyph-name="Ograve" unicode="&#xd2;" horiz-adv-x="442" 
d="M128 -34c-40.667 8 -70.8291 26.6709 -90.4961 56.0039s-30.167 64 -31.5 104c-1.33301 28 2.16699 56.167 10.5 84.5s19.833 55.166 34.5 80.499s31.5 48.166 50.5 68.499s38.5 36.5 58.5 48.5l20 12l15.5 10c5 3.33301 8.83301 6.33301 11.5 9l3.5 -6.5
c2.33301 -4.33301 4.66602 -9.5 6.99902 -15.5s4.33301 -12.333 6 -19s2.16699 -12.334 1.5 -17.001c0 -2 -1.33301 -5 -4 -9s-7.66699 -8.66699 -15 -14c-17.333 -7.33301 -35 -18.5 -53 -33.5s-34.333 -32.667 -49 -53s-27.167 -42.666 -37.5 -66.999
s-16.5 -49.833 -18.5 -76.5c-2 -24 -0.333008 -44.833 5 -62.5s13 -32.334 23 -44.001s21.833 -20.5 35.5 -26.5s28.167 -9.66699 43.5 -11c25.333 -2 48.333 0.166992 69 6.5s40.334 19.166 59.001 38.499l-12 6c-17.333 8 -31.166 19 -41.499 33s-18.333 29 -24 45
s-9.16699 32.667 -10.5 50s-1.33301 33.666 0 48.999c2 22 6.5 44.833 13.5 68.5s16.667 45.334 29 65.001s27.166 35.5 44.499 47.5s37 17 59 15c17.333 -1.33301 31.333 -7.5 42 -18.5s18.667 -24.333 24 -40s8.66602 -32.334 9.99902 -50.001
s1.66602 -33.834 0.999023 -48.501c-2 -20 -5.83301 -39.667 -11.5 -59s-12.334 -38 -20.001 -56s-16.167 -34.5 -25.5 -49.5s-18.333 -27.833 -27 -38.5c18 -1.33301 33 0.833984 45 6.50098s23 13.167 33 22.5c10 10 17.667 18.5 23 25.5s9.33301 12.833 12 17.5
s4.5 8 5.5 10s2.5 3 4.5 3c2.66699 0 4.33398 -0.833008 5.00098 -2.5s1 -2.83398 1 -3.50098c0 -2 -2.5 -9 -7.5 -21s-13 -24.833 -24 -38.5s-25.5 -25.5 -43.5 -35.5s-40.667 -14 -68 -12c-2.66699 0 -6.66699 0.666992 -12 2c-12 -10.667 -24.333 -20.167 -37 -28.5
s-26.334 -15.166 -41.001 -20.499s-30.334 -8.66602 -47.001 -9.99902s-35 -0.333008 -55 3zM237.005 183.004c-2.66699 -26 1 -51.1689 11 -75.502s28.333 -42.166 55 -53.499c6 9.33301 12.5 20.5 19.5 33.5s13.5 27 19.5 42s11 30.167 15 45.5s6.66699 30 8 44
c2 25.333 2 46.333 0 63s-5 29.834 -9 39.501s-8.33301 16.5 -13 20.5s-9 6 -13 6c-10 0.666992 -20.167 -4.16602 -30.5 -14.499s-20 -23.833 -29 -40.5s-16.5 -34.834 -22.5 -54.501s-9.66699 -38.167 -11 -55.5zM257.005 545.002
c2 -3.33301 5.16992 -7.83398 9.50293 -13.501l9.5 -12.5l8.5 -8.5c3.66699 -3.66699 8.5 -7.5 14.5 -11.5s13.333 -7.33301 22 -10s19 -4 31 -4c11.333 0 21.666 1.16699 30.999 3.5s15 3.83301 17 4.5h1v-1c0 -1.33301 0.333008 -2 1 -2c1.33301 -3.33301 2 -4.5 2 -3.5
s0 0.833008 0 -0.5s-2.33301 -3.16602 -7 -5.49902s-10.834 -4.66602 -18.501 -6.99902s-16.334 -4.5 -26.001 -6.5s-19.834 -3 -30.501 -3c-7.33301 0 -15.833 1 -25.5 3s-19 5 -28 9s-16.667 9.33301 -23 16s-9.5 14.667 -9.5 24c0 3.33301 1 6.5 3 9.5
s4.33301 6.16699 7 9.5s6.33398 6.66602 11.001 9.99902z" />
    <glyph glyph-name="Oacute" unicode="&#xd3;" horiz-adv-x="442" 
d="M128 -34c-40.667 8 -70.8291 26.6709 -90.4961 56.0039s-30.167 64 -31.5 104c-1.33301 28 2.16699 56.167 10.5 84.5s19.833 55.166 34.5 80.499s31.5 48.166 50.5 68.499s38.5 36.5 58.5 48.5l20 12l15.5 10c5 3.33301 8.83301 6.33301 11.5 9l3.5 -6.5
c2.33301 -4.33301 4.66602 -9.5 6.99902 -15.5s4.33301 -12.333 6 -19s2.16699 -12.334 1.5 -17.001c0 -2 -1.33301 -5 -4 -9s-7.66699 -8.66699 -15 -14c-17.333 -7.33301 -35 -18.5 -53 -33.5s-34.333 -32.667 -49 -53s-27.167 -42.666 -37.5 -66.999
s-16.5 -49.833 -18.5 -76.5c-2 -24 -0.333008 -44.833 5 -62.5s13 -32.334 23 -44.001s21.833 -20.5 35.5 -26.5s28.167 -9.66699 43.5 -11c25.333 -2 48.333 0.166992 69 6.5s40.334 19.166 59.001 38.499l-12 6c-17.333 8 -31.166 19 -41.499 33s-18.333 29 -24 45
s-9.16699 32.667 -10.5 50s-1.33301 33.666 0 48.999c2 22 6.5 44.833 13.5 68.5s16.667 45.334 29 65.001s27.166 35.5 44.499 47.5s37 17 59 15c17.333 -1.33301 31.333 -7.5 42 -18.5s18.667 -24.333 24 -40s8.66602 -32.334 9.99902 -50.001
s1.66602 -33.834 0.999023 -48.501c-2 -20 -5.83301 -39.667 -11.5 -59s-12.334 -38 -20.001 -56s-16.167 -34.5 -25.5 -49.5s-18.333 -27.833 -27 -38.5c18 -1.33301 33 0.833984 45 6.50098s23 13.167 33 22.5c10 10 17.667 18.5 23 25.5s9.33301 12.833 12 17.5
s4.5 8 5.5 10s2.5 3 4.5 3c2.66699 0 4.33398 -0.833008 5.00098 -2.5s1 -2.83398 1 -3.50098c0 -2 -2.5 -9 -7.5 -21s-13 -24.833 -24 -38.5s-25.5 -25.5 -43.5 -35.5s-40.667 -14 -68 -12c-2.66699 0 -6.66699 0.666992 -12 2c-12 -10.667 -24.333 -20.167 -37 -28.5
s-26.334 -15.166 -41.001 -20.499s-30.334 -8.66602 -47.001 -9.99902s-35 -0.333008 -55 3zM237.005 183.004c-2.66699 -26 1 -51.1689 11 -75.502s28.333 -42.166 55 -53.499c6 9.33301 12.5 20.5 19.5 33.5s13.5 27 19.5 42s11 30.167 15 45.5s6.66699 30 8 44
c2 25.333 2 46.333 0 63s-5 29.834 -9 39.501s-8.33301 16.5 -13 20.5s-9 6 -13 6c-10 0.666992 -20.167 -4.16602 -30.5 -14.499s-20 -23.833 -29 -40.5s-16.5 -34.834 -22.5 -54.501s-9.66699 -38.167 -11 -55.5zM381.005 545.002
c0.666992 0 2.1709 -1.3291 4.50391 -3.99609l7.5 -9c2.66699 -3.33301 5 -7.16602 7 -11.499s3 -7.83301 3 -10.5c0 -8.66699 -3.33301 -15.834 -10 -21.501s-14.5 -10.334 -23.5 -14.001s-18.5 -6.33398 -28.5 -8.00098s-18.333 -2.5 -25 -2.5
c-10.667 0 -20.834 1 -30.501 3s-18.334 4.16699 -26.001 6.5s-13.834 4.66602 -18.501 6.99902s-7 4.16602 -7 5.49902l2 4c0 0.666992 0.166992 1 0.5 1s0.5 0.333008 0.5 1l1 1c2 -0.666992 7.66699 -2.16699 17 -4.5s19.666 -3.5 30.999 -3.5c12 0 22.333 1.33301 31 4
s16 6 22 10s10.833 7.83301 14.5 11.5l8.5 8.5l9.5 12.5c4.33301 5.66699 7.5 10.167 9.5 13.5z" />
    <glyph glyph-name="Ocircumflex" unicode="&#xd4;" horiz-adv-x="442" 
d="M128 -34c-40.667 8 -70.8291 26.6709 -90.4961 56.0039s-30.167 64 -31.5 104c-1.33301 28 2.16699 56.167 10.5 84.5s19.833 55.166 34.5 80.499s31.5 48.166 50.5 68.499s38.5 36.5 58.5 48.5l20 12l15.5 10c5 3.33301 8.83301 6.33301 11.5 9l3.5 -6.5
c2.33301 -4.33301 4.66602 -9.5 6.99902 -15.5s4.33301 -12.333 6 -19s2.16699 -12.334 1.5 -17.001c0 -2 -1.33301 -5 -4 -9s-7.66699 -8.66699 -15 -14c-17.333 -7.33301 -35 -18.5 -53 -33.5s-34.333 -32.667 -49 -53s-27.167 -42.666 -37.5 -66.999
s-16.5 -49.833 -18.5 -76.5c-2 -24 -0.333008 -44.833 5 -62.5s13 -32.334 23 -44.001s21.833 -20.5 35.5 -26.5s28.167 -9.66699 43.5 -11c25.333 -2 48.333 0.166992 69 6.5s40.334 19.166 59.001 38.499l-12 6c-17.333 8 -31.166 19 -41.499 33s-18.333 29 -24 45
s-9.16699 32.667 -10.5 50s-1.33301 33.666 0 48.999c2 22 6.5 44.833 13.5 68.5s16.667 45.334 29 65.001s27.166 35.5 44.499 47.5s37 17 59 15c17.333 -1.33301 31.333 -7.5 42 -18.5s18.667 -24.333 24 -40s8.66602 -32.334 9.99902 -50.001
s1.66602 -33.834 0.999023 -48.501c-2 -20 -5.83301 -39.667 -11.5 -59s-12.334 -38 -20.001 -56s-16.167 -34.5 -25.5 -49.5s-18.333 -27.833 -27 -38.5c18 -1.33301 33 0.833984 45 6.50098s23 13.167 33 22.5c10 10 17.667 18.5 23 25.5s9.33301 12.833 12 17.5
s4.5 8 5.5 10s2.5 3 4.5 3c2.66699 0 4.33398 -0.833008 5.00098 -2.5s1 -2.83398 1 -3.50098c0 -2 -2.5 -9 -7.5 -21s-13 -24.833 -24 -38.5s-25.5 -25.5 -43.5 -35.5s-40.667 -14 -68 -12c-2.66699 0 -6.66699 0.666992 -12 2c-12 -10.667 -24.333 -20.167 -37 -28.5
s-26.334 -15.166 -41.001 -20.499s-30.334 -8.66602 -47.001 -9.99902s-35 -0.333008 -55 3zM237.005 183.004c-2.66699 -26 1 -51.1689 11 -75.502s28.333 -42.166 55 -53.499c6 9.33301 12.5 20.5 19.5 33.5s13.5 27 19.5 42s11 30.167 15 45.5s6.66699 30 8 44
c2 25.333 2 46.333 0 63s-5 29.834 -9 39.501s-8.33301 16.5 -13 20.5s-9 6 -13 6c-10 0.666992 -20.167 -4.16602 -30.5 -14.499s-20 -23.833 -29 -40.5s-16.5 -34.834 -22.5 -54.501s-9.66699 -38.167 -11 -55.5zM431.005 449.002
c0 -1.33301 0.50293 -2.33105 1.50293 -2.99805s1.5 -1.33398 1.5 -2.00098c0 -1.33301 -1.83301 -2.66602 -5.5 -3.99902s-11.834 -2 -24.501 -2c-12 0 -25.667 2.66699 -41 8s-28 15.666 -38 30.999c-7.33301 -5.33301 -15 -9 -23 -11s-16 -3 -24 -3
c-8.66699 0 -16.834 1 -24.501 3s-14.5 4.33301 -20.5 7s-10.833 5.16699 -14.5 7.5s-5.5 4.16602 -5.5 5.49902l4 6c1.33301 -0.666992 6.33301 -2.16699 15 -4.5s18.667 -3.5 30 -3.5s20.833 1.66699 28.5 5s14 7 19 11s9 7.66699 12 11s6.16699 5 9.5 5
c7.33301 0 12.166 -2 14.499 -6s4.5 -8.83301 6.5 -14.5s4.66699 -11.667 8 -18s10 -11.5 20 -15.5c11.333 -5.33301 22 -8.5 32 -9.5s16.333 -1.83301 19 -2.5v-1z" />
    <glyph glyph-name="Otilde" unicode="&#xd5;" horiz-adv-x="442" 
d="M128 -34c-40.667 8 -70.8291 26.6709 -90.4961 56.0039s-30.167 64 -31.5 104c-1.33301 28 2.16699 56.167 10.5 84.5s19.833 55.166 34.5 80.499s31.5 48.166 50.5 68.499s38.5 36.5 58.5 48.5l20 12l15.5 10c5 3.33301 8.83301 6.33301 11.5 9l3.5 -6.5
c2.33301 -4.33301 4.66602 -9.5 6.99902 -15.5s4.33301 -12.333 6 -19s2.16699 -12.334 1.5 -17.001c0 -2 -1.33301 -5 -4 -9s-7.66699 -8.66699 -15 -14c-17.333 -7.33301 -35 -18.5 -53 -33.5s-34.333 -32.667 -49 -53s-27.167 -42.666 -37.5 -66.999
s-16.5 -49.833 -18.5 -76.5c-2 -24 -0.333008 -44.833 5 -62.5s13 -32.334 23 -44.001s21.833 -20.5 35.5 -26.5s28.167 -9.66699 43.5 -11c25.333 -2 48.333 0.166992 69 6.5s40.334 19.166 59.001 38.499l-12 6c-17.333 8 -31.166 19 -41.499 33s-18.333 29 -24 45
s-9.16699 32.667 -10.5 50s-1.33301 33.666 0 48.999c2 22 6.5 44.833 13.5 68.5s16.667 45.334 29 65.001s27.166 35.5 44.499 47.5s37 17 59 15c17.333 -1.33301 31.333 -7.5 42 -18.5s18.667 -24.333 24 -40s8.66602 -32.334 9.99902 -50.001
s1.66602 -33.834 0.999023 -48.501c-2 -20 -5.83301 -39.667 -11.5 -59s-12.334 -38 -20.001 -56s-16.167 -34.5 -25.5 -49.5s-18.333 -27.833 -27 -38.5c18 -1.33301 33 0.833984 45 6.50098s23 13.167 33 22.5c10 10 17.667 18.5 23 25.5s9.33301 12.833 12 17.5
s4.5 8 5.5 10s2.5 3 4.5 3c2.66699 0 4.33398 -0.833008 5.00098 -2.5s1 -2.83398 1 -3.50098c0 -2 -2.5 -9 -7.5 -21s-13 -24.833 -24 -38.5s-25.5 -25.5 -43.5 -35.5s-40.667 -14 -68 -12c-2.66699 0 -6.66699 0.666992 -12 2c-12 -10.667 -24.333 -20.167 -37 -28.5
s-26.334 -15.166 -41.001 -20.499s-30.334 -8.66602 -47.001 -9.99902s-35 -0.333008 -55 3zM237.005 183.004c-2.66699 -26 1 -51.1689 11 -75.502s28.333 -42.166 55 -53.499c6 9.33301 12.5 20.5 19.5 33.5s13.5 27 19.5 42s11 30.167 15 45.5s6.66699 30 8 44
c2 25.333 2 46.333 0 63s-5 29.834 -9 39.501s-8.33301 16.5 -13 20.5s-9 6 -13 6c-10 0.666992 -20.167 -4.16602 -30.5 -14.499s-20 -23.833 -29 -40.5s-16.5 -34.834 -22.5 -54.501s-9.66699 -38.167 -11 -55.5zM293.005 498.002
c-7.33301 2 -13.833 4.16895 -19.5 6.50195s-11.834 3.5 -18.501 3.5c-8.66699 0 -14 -2.33301 -16 -7s-3 -8 -3 -10s0.166992 -3.66699 0.5 -5s0.5 -2.33301 0.5 -3c-0.666992 0 -1 -0.5 -1 -1.5s-1.33301 -1.5 -4 -1.5c-1.33301 0.666992 -2.33301 1.66699 -3 3
c-1.33301 2.66699 -2 5.66699 -2 9c0 9.33301 3 16.666 9 21.999s12.667 8 20 8c16 0 32.5 -2 49.5 -6s30.833 -6 41.5 -6c8.66699 0 16.5 1.33301 23.5 4s11.167 11.667 12.5 27c2 0 4.83301 -0.166992 8.5 -0.5s7.33398 -1.33301 11.001 -3
s6.83398 -3.83398 9.50098 -6.50098s4 -6.66699 4 -12c0 -7.33301 -3.83301 -16 -11.5 -26s-21.167 -15 -40.5 -15c-12.667 0 -25.334 2.5 -38.001 7.5s-23.667 9.16699 -33 12.5z" />
    <glyph glyph-name="Odieresis" unicode="&#xd6;" horiz-adv-x="442" 
d="M128 -34c-40.667 8 -70.8291 26.6709 -90.4961 56.0039s-30.167 64 -31.5 104c-1.33301 28 2.16699 56.167 10.5 84.5s19.833 55.166 34.5 80.499s31.5 48.166 50.5 68.499s38.5 36.5 58.5 48.5l20 12l15.5 10c5 3.33301 8.83301 6.33301 11.5 9l3.5 -6.5
c2.33301 -4.33301 4.66602 -9.5 6.99902 -15.5s4.33301 -12.333 6 -19s2.16699 -12.334 1.5 -17.001c0 -2 -1.33301 -5 -4 -9s-7.66699 -8.66699 -15 -14c-17.333 -7.33301 -35 -18.5 -53 -33.5s-34.333 -32.667 -49 -53s-27.167 -42.666 -37.5 -66.999
s-16.5 -49.833 -18.5 -76.5c-2 -24 -0.333008 -44.833 5 -62.5s13 -32.334 23 -44.001s21.833 -20.5 35.5 -26.5s28.167 -9.66699 43.5 -11c25.333 -2 48.333 0.166992 69 6.5s40.334 19.166 59.001 38.499l-12 6c-17.333 8 -31.166 19 -41.499 33s-18.333 29 -24 45
s-9.16699 32.667 -10.5 50s-1.33301 33.666 0 48.999c2 22 6.5 44.833 13.5 68.5s16.667 45.334 29 65.001s27.166 35.5 44.499 47.5s37 17 59 15c17.333 -1.33301 31.333 -7.5 42 -18.5s18.667 -24.333 24 -40s8.66602 -32.334 9.99902 -50.001
s1.66602 -33.834 0.999023 -48.501c-2 -20 -5.83301 -39.667 -11.5 -59s-12.334 -38 -20.001 -56s-16.167 -34.5 -25.5 -49.5s-18.333 -27.833 -27 -38.5c18 -1.33301 33 0.833984 45 6.50098s23 13.167 33 22.5c10 10 17.667 18.5 23 25.5s9.33301 12.833 12 17.5
s4.5 8 5.5 10s2.5 3 4.5 3c2.66699 0 4.33398 -0.833008 5.00098 -2.5s1 -2.83398 1 -3.50098c0 -2 -2.5 -9 -7.5 -21s-13 -24.833 -24 -38.5s-25.5 -25.5 -43.5 -35.5s-40.667 -14 -68 -12c-2.66699 0 -6.66699 0.666992 -12 2c-12 -10.667 -24.333 -20.167 -37 -28.5
s-26.334 -15.166 -41.001 -20.499s-30.334 -8.66602 -47.001 -9.99902s-35 -0.333008 -55 3zM237.005 183.004c-2.66699 -26 1 -51.1689 11 -75.502s28.333 -42.166 55 -53.499c6 9.33301 12.5 20.5 19.5 33.5s13.5 27 19.5 42s11 30.167 15 45.5s6.66699 30 8 44
c2 25.333 2 46.333 0 63s-5 29.834 -9 39.501s-8.33301 16.5 -13 20.5s-9 6 -13 6c-10 0.666992 -20.167 -4.16602 -30.5 -14.499s-20 -23.833 -29 -40.5s-16.5 -34.834 -22.5 -54.501s-9.66699 -38.167 -11 -55.5zM337.005 525.002
c0.666992 -0.666992 3 -0.999023 7 -0.999023s8.16699 -0.5 12.5 -1.5s8.33301 -2.5 12 -4.5s5.5 -5 5.5 -9c0 -3.33301 -2.5 -7.83301 -7.5 -13.5s-7.5 -16.834 -7.5 -33.501c0 -4 0.333008 -7 1 -9h-6c-4 0 -8.83301 1 -14.5 3s-8.5 7.66699 -8.5 17
c0 2 0.333008 3.83301 1 5.5s1.5 4 2.5 7s2 6.83301 3 11.5s1.5 11 1.5 19c0 3.33301 -0.666992 6.33301 -2 9zM267.005 525.003c0.666992 -0.666992 3 -1 7 -1s8.33301 -0.333008 13 -1s8.66699 -2.16699 12 -4.5s5 -5.83301 5 -10.5
c0 -3.33301 -0.333008 -5.66602 -1 -6.99902c-2.66699 -4 -5 -8.33301 -7 -13c-4.66699 -9.33301 -7 -18.333 -7 -27c0 -4 0.333008 -6.66699 1 -8h-6c-4 0 -8.83301 1 -14.5 3s-8.5 7.33301 -8.5 16c0 2.66699 0.333008 4.66699 1 6s1.5 3.16602 2.5 5.49902
s2 5.83301 3 10.5s1.5 11.667 1.5 21c0 4 -0.666992 7.33301 -2 10z" />
    <glyph glyph-name="multiply" unicode="&#xd7;" horiz-adv-x="326" 
d="M213 136c2 -0.666992 2.66504 -2.16602 1.99805 -4.49902s-1.66699 -4.83301 -3 -7.5s-3.16602 -4.66699 -5.49902 -6s-4.5 -1.33301 -6.5 0c-3.33301 0.666992 -7.33301 3.16699 -12 7.5s-9.5 9.16602 -14.5 14.499s-9.5 10.833 -13.5 16.5s-6.66699 10.5 -8 14.5
l-29 -29c-7.33301 -7.33301 -13.166 -12.833 -17.499 -16.5s-7.16602 -6.16699 -8.49902 -7.5l-2 -2c-2.66699 0 -4 1 -4 3c0 2.66699 4 10 12 22s21.667 30 41 54c-4.66699 11.333 -8 23 -10 35s-4 25 -6 39c0.666992 0.666992 2.16699 2.83398 4.5 6.50098
s9.16602 5.5 20.499 5.5c10.667 0 15.834 -5.16699 15.501 -15.5s-0.166016 -22.833 0.500977 -37.5c8 10 16.833 20.167 26.5 30.5s18.167 21.833 25.5 34.5c3.33301 -2.66699 6.33301 -5.33398 9 -8.00098l6 -8c2 -2.66699 3 -5.66699 3 -9
c0 -6 -2.16699 -12.167 -6.5 -18.5s-9.83301 -12.5 -16.5 -18.5l-21 -18.5c-7.33301 -6.33301 -14 -12.5 -20 -18.5c1.33301 -9.33301 4.16602 -19.833 8.49902 -31.5s11.166 -19.167 20.499 -22.5z" />
    <glyph glyph-name="Oslash" unicode="&#xd8;" horiz-adv-x="442" 
d="M128 -34c-40.667 8 -70.8291 26.6709 -90.4961 56.0039s-30.167 64 -31.5 104c-1.33301 28 2.16699 56.167 10.5 84.5s19.833 55.166 34.5 80.499s31.5 48.166 50.5 68.499s38.5 36.5 58.5 48.5l20 12l15.5 10c5 3.33301 8.83301 6.33301 11.5 9l3.5 -6.5
c2.33301 -4.33301 4.66602 -9.5 6.99902 -15.5s4.33301 -12.333 6 -19s2.16699 -12.334 1.5 -17.001c0 -2 -1.33301 -5 -4 -9s-7.66699 -8.66699 -15 -14c-17.333 -7.33301 -35 -18.5 -53 -33.5s-34.333 -32.667 -49 -53s-27.167 -42.666 -37.5 -66.999
s-16.5 -49.833 -18.5 -76.5c-2 -24 -0.333008 -44.833 5 -62.5s13 -32.334 23 -44.001s21.833 -20.5 35.5 -26.5s28.167 -9.66699 43.5 -11c25.333 -2 48.333 0.166992 69 6.5s40.334 19.166 59.001 38.499l-12 6c-17.333 8 -31.166 19 -41.499 33s-18.333 29 -24 45
s-9.16699 32.667 -10.5 50s-1.33301 33.666 0 48.999c2 22 6.5 44.833 13.5 68.5s16.667 45.334 29 65.001s27.166 35.5 44.499 47.5s37 17 59 15c17.333 -1.33301 31.333 -7.5 42 -18.5s18.667 -24.333 24 -40s8.66602 -32.334 9.99902 -50.001
s1.66602 -33.834 0.999023 -48.501c-2 -20 -5.83301 -39.667 -11.5 -59s-12.334 -38 -20.001 -56s-16.167 -34.5 -25.5 -49.5s-18.333 -27.833 -27 -38.5c18 -1.33301 33 0.833984 45 6.50098s23 13.167 33 22.5c10 10 17.667 18.5 23 25.5s9.33301 12.833 12 17.5
s4.5 8 5.5 10s2.5 3 4.5 3c2.66699 0 4.33398 -0.833008 5.00098 -2.5s1 -2.83398 1 -3.50098c0 -2 -2.5 -9 -7.5 -21s-13 -24.833 -24 -38.5s-25.5 -25.5 -43.5 -35.5s-40.667 -14 -68 -12c-2.66699 0 -6.66699 0.666992 -12 2c-12 -10.667 -24.333 -20.167 -37 -28.5
s-26.334 -15.166 -41.001 -20.499s-30.334 -8.66602 -47.001 -9.99902s-35 -0.333008 -55 3zM237.005 183.004c-2.66699 -26 1 -51.1689 11 -75.502s28.333 -42.166 55 -53.499c6 9.33301 12.5 20.5 19.5 33.5s13.5 27 19.5 42s11 30.167 15 45.5s6.66699 30 8 44
c2 25.333 2 46.333 0 63s-5 29.834 -9 39.501s-8.33301 16.5 -13 20.5s-9 6 -13 6c-10 0.666992 -20.167 -4.16602 -30.5 -14.499s-20 -23.833 -29 -40.5s-16.5 -34.834 -22.5 -54.501s-9.66699 -38.167 -11 -55.5zM307.929 410.188
c-10.5615 -34.7432 -22.6328 -70.2432 -36.2119 -106.497l-40.7373 -106.495l-39.6064 -98.5654l-34.5127 -81.0049l-23.7637 -54.9473c-5.6582 -13.5947 -8.11035 -20.3926 -7.35547 -20.3926c-1.50879 0 -3.01758 0.37793 -4.52637 1.13281
c-1.50879 0 -3.01758 0.754883 -4.52637 2.26562c-0.754883 0.754883 -1.13184 1.50977 -1.13184 2.26465l11.8818 45.8838l22.6318 87.2363l28.29 107.629l27.7236 108.195l21.5 87.8018c6.03516 24.5479 9.42969 39.8428 10.1846 45.8848
c0.754883 6.79785 1.50977 15.1064 2.26465 24.9248c0.754883 9.81934 1.13184 17.75 1.13184 23.792c6.78906 -3.77637 15.0869 -6.6084 24.8945 -8.49609s18.8604 -4.90918 27.1582 -9.06348s14.1445 -10.0078 17.54 -17.5605
c3.39453 -7.55273 2.45117 -18.8818 -2.8291 -33.9883z" />
    <glyph glyph-name="Ugrave" unicode="&#xd9;" horiz-adv-x="536" 
d="M517 46l-11.502 -14.0059c-4.33301 -5.33301 -9.5 -10.5 -15.5 -15.5s-13 -9.16699 -21 -12.5s-17 -5 -27 -5c-9.33301 0 -17.666 1.83301 -24.999 5.5s-14.666 11.167 -21.999 22.5c-13.333 -17.333 -30.666 -31.333 -51.999 -42s-45 -16 -71 -16
c-16.667 0 -33.667 3 -51 9s-33 14.833 -47 26.5s-25.333 25.834 -34 42.501s-13 35.667 -13 57c0 29.333 4.33301 55.666 13 78.999s15.667 43.666 21 60.999c-18 -8 -36.167 -14 -54.5 -18s-34.833 -6 -49.5 -6c-19.333 0 -32.666 0.833008 -39.999 2.5
s-11 4.16699 -11 7.5c0 2.66699 3.33301 4.33398 10 5.00098s15.5 1.66699 26.5 3s23.5 3.66602 37.5 6.99902s28 9.66602 42 18.999c14 6.66699 26 14.5 36 23.5s18.5 17.667 25.5 26s12.167 15.5 15.5 21.5s5.33301 10 6 12l2.5 6.5l5.5 15
c2 5.66699 3.66699 11.334 5 17.001s2 10.5 2 14.5c1.33301 -0.666992 4.83301 -2 10.5 -4s11.834 -5 18.501 -9s12.5 -8.83301 17.5 -14.5s7.5 -12.5 7.5 -20.5c0 -3.33301 -0.333008 -7 -1 -11s-1.66699 -8.33301 -3 -13l-26.5 -52.5c-9.66699 -19 -19 -38.667 -28 -59
s-16.833 -41.5 -23.5 -63.5s-10.334 -44 -11.001 -66c0 -10 3 -19.667 9 -29s14 -17.5 24 -24.5s21 -12.5 33 -16.5s24 -6 36 -6c22 0 42.5 6.83301 61.5 20.5s34.167 30.167 45.5 49.5c0 1.33301 0.333008 2.33301 1 3c2.66699 24.667 8.5 52.334 17.5 83.001
s18.667 60.334 29 89.001s20.166 53.834 29.499 75.501s15.666 35.5 18.999 41.5c2 7.33301 4.33301 14.666 7 21.999c2 6 3.83301 12 5.5 18s2.5 11 2.5 15c1.33301 -0.666992 5 -2.16699 11 -4.5s12.5 -5.5 19.5 -9.5s13.167 -9 18.5 -15s8 -13 8 -21
c0 -8.66699 -1.66699 -16.667 -5 -24s-8.66602 -18.166 -15.999 -32.499l-24.5 -49.5l-28 -60c-9.66699 -21.333 -18.334 -42.166 -26.001 -62.499s-14 -39.166 -19 -56.499s-7.5 -31.666 -7.5 -42.999c0 -14 5.66699 -21 17 -21s25.333 6.83301 42 20.5
s31.667 35.834 45 66.501l2 1c3.33301 0 5.66602 -0.666992 6.99902 -2s2 -2.33301 2 -3c0 -2 -2.16699 -9.5 -6.5 -22.5s-12.166 -27.5 -23.499 -43.5zM325.998 544.994c2 -3.33301 5.16992 -7.83398 9.50293 -13.501l9.5 -12.5l8.5 -8.5
c3.66699 -3.66699 8.5 -7.5 14.5 -11.5s13.333 -7.33301 22 -10s19 -4 31 -4c11.333 0 21.666 1.16699 30.999 3.5s15 3.83301 17 4.5h1v-1c0 -1.33301 0.333008 -2 1 -2c1.33301 -3.33301 2 -4.5 2 -3.5s0 0.833008 0 -0.5s-2.33301 -3.16602 -7 -5.49902
s-10.834 -4.66602 -18.501 -6.99902s-16.334 -4.5 -26.001 -6.5s-19.834 -3 -30.501 -3c-7.33301 0 -15.833 1 -25.5 3s-19 5 -28 9s-16.667 9.33301 -23 16s-9.5 14.667 -9.5 24c0 3.33301 1 6.5 3 9.5s4.33301 6.16699 7 9.5s6.33398 6.66602 11.001 9.99902z" />
    <glyph glyph-name="Uacute" unicode="&#xda;" horiz-adv-x="536" 
d="M517 46l-11.502 -14.0059c-4.33301 -5.33301 -9.5 -10.5 -15.5 -15.5s-13 -9.16699 -21 -12.5s-17 -5 -27 -5c-9.33301 0 -17.666 1.83301 -24.999 5.5s-14.666 11.167 -21.999 22.5c-13.333 -17.333 -30.666 -31.333 -51.999 -42s-45 -16 -71 -16
c-16.667 0 -33.667 3 -51 9s-33 14.833 -47 26.5s-25.333 25.834 -34 42.501s-13 35.667 -13 57c0 29.333 4.33301 55.666 13 78.999s15.667 43.666 21 60.999c-18 -8 -36.167 -14 -54.5 -18s-34.833 -6 -49.5 -6c-19.333 0 -32.666 0.833008 -39.999 2.5
s-11 4.16699 -11 7.5c0 2.66699 3.33301 4.33398 10 5.00098s15.5 1.66699 26.5 3s23.5 3.66602 37.5 6.99902s28 9.66602 42 18.999c14 6.66699 26 14.5 36 23.5s18.5 17.667 25.5 26s12.167 15.5 15.5 21.5s5.33301 10 6 12l2.5 6.5l5.5 15
c2 5.66699 3.66699 11.334 5 17.001s2 10.5 2 14.5c1.33301 -0.666992 4.83301 -2 10.5 -4s11.834 -5 18.501 -9s12.5 -8.83301 17.5 -14.5s7.5 -12.5 7.5 -20.5c0 -3.33301 -0.333008 -7 -1 -11s-1.66699 -8.33301 -3 -13l-26.5 -52.5c-9.66699 -19 -19 -38.667 -28 -59
s-16.833 -41.5 -23.5 -63.5s-10.334 -44 -11.001 -66c0 -10 3 -19.667 9 -29s14 -17.5 24 -24.5s21 -12.5 33 -16.5s24 -6 36 -6c22 0 42.5 6.83301 61.5 20.5s34.167 30.167 45.5 49.5c0 1.33301 0.333008 2.33301 1 3c2.66699 24.667 8.5 52.334 17.5 83.001
s18.667 60.334 29 89.001s20.166 53.834 29.499 75.501s15.666 35.5 18.999 41.5c2 7.33301 4.33301 14.666 7 21.999c2 6 3.83301 12 5.5 18s2.5 11 2.5 15c1.33301 -0.666992 5 -2.16699 11 -4.5s12.5 -5.5 19.5 -9.5s13.167 -9 18.5 -15s8 -13 8 -21
c0 -8.66699 -1.66699 -16.667 -5 -24s-8.66602 -18.166 -15.999 -32.499l-24.5 -49.5l-28 -60c-9.66699 -21.333 -18.334 -42.166 -26.001 -62.499s-14 -39.166 -19 -56.499s-7.5 -31.666 -7.5 -42.999c0 -14 5.66699 -21 17 -21s25.333 6.83301 42 20.5
s31.667 35.834 45 66.501l2 1c3.33301 0 5.66602 -0.666992 6.99902 -2s2 -2.33301 2 -3c0 -2 -2.16699 -9.5 -6.5 -22.5s-12.166 -27.5 -23.499 -43.5zM435.998 544.994c0.666992 0 2.1709 -1.3291 4.50391 -3.99609l7.5 -9c2.66699 -3.33301 5 -7.16602 7 -11.499
s3 -7.83301 3 -10.5c0 -8.66699 -3.33301 -15.834 -10 -21.501s-14.5 -10.334 -23.5 -14.001s-18.5 -6.33398 -28.5 -8.00098s-18.333 -2.5 -25 -2.5c-10.667 0 -20.834 1 -30.501 3s-18.334 4.16699 -26.001 6.5s-13.834 4.66602 -18.501 6.99902s-7 4.16602 -7 5.49902
l2 4c0 0.666992 0.166992 1 0.5 1s0.5 0.333008 0.5 1l1 1c2 -0.666992 7.66699 -2.16699 17 -4.5s19.666 -3.5 30.999 -3.5c12 0 22.333 1.33301 31 4s16 6 22 10s10.833 7.83301 14.5 11.5l8.5 8.5l9.5 12.5c4.33301 5.66699 7.5 10.167 9.5 13.5z" />
    <glyph glyph-name="Ucircumflex" unicode="&#xdb;" horiz-adv-x="536" 
d="M517 46l-11.502 -14.0059c-4.33301 -5.33301 -9.5 -10.5 -15.5 -15.5s-13 -9.16699 -21 -12.5s-17 -5 -27 -5c-9.33301 0 -17.666 1.83301 -24.999 5.5s-14.666 11.167 -21.999 22.5c-13.333 -17.333 -30.666 -31.333 -51.999 -42s-45 -16 -71 -16
c-16.667 0 -33.667 3 -51 9s-33 14.833 -47 26.5s-25.333 25.834 -34 42.501s-13 35.667 -13 57c0 29.333 4.33301 55.666 13 78.999s15.667 43.666 21 60.999c-18 -8 -36.167 -14 -54.5 -18s-34.833 -6 -49.5 -6c-19.333 0 -32.666 0.833008 -39.999 2.5
s-11 4.16699 -11 7.5c0 2.66699 3.33301 4.33398 10 5.00098s15.5 1.66699 26.5 3s23.5 3.66602 37.5 6.99902s28 9.66602 42 18.999c14 6.66699 26 14.5 36 23.5s18.5 17.667 25.5 26s12.167 15.5 15.5 21.5s5.33301 10 6 12l2.5 6.5l5.5 15
c2 5.66699 3.66699 11.334 5 17.001s2 10.5 2 14.5c1.33301 -0.666992 4.83301 -2 10.5 -4s11.834 -5 18.501 -9s12.5 -8.83301 17.5 -14.5s7.5 -12.5 7.5 -20.5c0 -3.33301 -0.333008 -7 -1 -11s-1.66699 -8.33301 -3 -13l-26.5 -52.5c-9.66699 -19 -19 -38.667 -28 -59
s-16.833 -41.5 -23.5 -63.5s-10.334 -44 -11.001 -66c0 -10 3 -19.667 9 -29s14 -17.5 24 -24.5s21 -12.5 33 -16.5s24 -6 36 -6c22 0 42.5 6.83301 61.5 20.5s34.167 30.167 45.5 49.5c0 1.33301 0.333008 2.33301 1 3c2.66699 24.667 8.5 52.334 17.5 83.001
s18.667 60.334 29 89.001s20.166 53.834 29.499 75.501s15.666 35.5 18.999 41.5c2 7.33301 4.33301 14.666 7 21.999c2 6 3.83301 12 5.5 18s2.5 11 2.5 15c1.33301 -0.666992 5 -2.16699 11 -4.5s12.5 -5.5 19.5 -9.5s13.167 -9 18.5 -15s8 -13 8 -21
c0 -8.66699 -1.66699 -16.667 -5 -24s-8.66602 -18.166 -15.999 -32.499l-24.5 -49.5l-28 -60c-9.66699 -21.333 -18.334 -42.166 -26.001 -62.499s-14 -39.166 -19 -56.499s-7.5 -31.666 -7.5 -42.999c0 -14 5.66699 -21 17 -21s25.333 6.83301 42 20.5
s31.667 35.834 45 66.501l2 1c3.33301 0 5.66602 -0.666992 6.99902 -2s2 -2.33301 2 -3c0 -2 -2.16699 -9.5 -6.5 -22.5s-12.166 -27.5 -23.499 -43.5zM488.998 448.994c0 -1.33301 0.50293 -2.33105 1.50293 -2.99805s1.5 -1.33398 1.5 -2.00098
c0 -1.33301 -1.83301 -2.66602 -5.5 -3.99902s-11.834 -2 -24.501 -2c-12 0 -25.667 2.66699 -41 8s-28 15.666 -38 30.999c-7.33301 -5.33301 -15 -9 -23 -11s-16 -3 -24 -3c-8.66699 0 -16.834 1 -24.501 3s-14.5 4.33301 -20.5 7s-10.833 5.16699 -14.5 7.5
s-5.5 4.16602 -5.5 5.49902l4 6c1.33301 -0.666992 6.33301 -2.16699 15 -4.5s18.667 -3.5 30 -3.5s20.833 1.66699 28.5 5s14 7 19 11s9 7.66699 12 11s6.16699 5 9.5 5c7.33301 0 12.166 -2 14.499 -6s4.5 -8.83301 6.5 -14.5s4.66699 -11.667 8 -18s10 -11.5 20 -15.5
c11.333 -5.33301 22 -8.5 32 -9.5s16.333 -1.83301 19 -2.5v-1z" />
    </font>
</defs>
</svg>
