<?xml version="1.0" standalone="no"?>
<!DOCTYPE svg PUBLIC "-//W3C//DTD SVG 1.1//EN" "http://www.w3.org/Graphics/SVG/1.1/DTD/svg11.dtd" >
<svg xmlns="http://www.w3.org/2000/svg">
<metadata></metadata>
<defs>
<font id="foundrysterling-extraboldosRg" horiz-adv-x="1230" >
<font-face units-per-em="2048" ascent="1638" descent="-410" />
<missing-glyph horiz-adv-x="485" />
<glyph horiz-adv-x="2048" />
<glyph horiz-adv-x="2048" />
<glyph unicode="&#xd;" horiz-adv-x="1081" />
<glyph unicode=" "  horiz-adv-x="485" />
<glyph unicode="&#x09;" horiz-adv-x="485" />
<glyph unicode="&#xa0;" horiz-adv-x="485" />
<glyph unicode="!" horiz-adv-x="837" d="M229 174q0 78 56.5 133t134.5 55t133 -55t55 -133t-55 -134t-133 -56t-134.5 56t-56.5 134zM238 1366h366l-49 -922h-268z" />
<glyph unicode="&#x22;" horiz-adv-x="909" d="M88 1366h338l-45 -535h-248zM483 1366h338l-45 -535h-248z" />
<glyph unicode="#" horiz-adv-x="1269" d="M145 502l27 203h184l21 157h-184l28 203h185l43 301h190l-43 -301h166l43 301h190l-43 -301h174l-28 -203h-172l-23 -157h176l-28 -203h-174l-48 -336h-190l47 336h-170l-47 -336h-190l47 336h-181zM545 705h170l20 157h-168z" />
<glyph unicode="$" horiz-adv-x="1138" d="M31 133l145 215q176 -100 328 -100q207 0 207 147q0 49 -39 86q-23 23 -218.5 104t-275.5 156q-104 98 -104 242q0 166 131 277q96 84 225 110v234h217v-220q264 -18 397 -141l-147 -207q-154 94 -295 94q-184 0 -184 -120q0 -41 41 -80q25 -23 215 -105t278 -163 q105 -99 105 -246q0 -182 -129 -299q-113 -102 -281 -127v-228h-217v222q-139 10 -264 67q-88 39 -135 82z" />
<glyph unicode="%" horiz-adv-x="1638" d="M92 1047q0 158 85 259t226 101q147 0 234.5 -102.5t87.5 -264.5q0 -166 -85 -267t-234 -101q-147 0 -230.5 102.5t-83.5 272.5zM264 12l926 1430l160 -105l-926 -1433zM279 1044q0 -215 124 -215q136 0 136 205q0 217 -129 217q-131 0 -131 -207zM913 344q0 158 85 259.5 t227 101.5q147 0 234 -102.5t87 -264.5q0 -166 -85 -267.5t-234 -101.5q-147 0 -230.5 102.5t-83.5 272.5zM1100 342q0 -215 125 -215q135 0 135 205q0 217 -129 217q-131 0 -131 -207z" />
<glyph unicode="&#x26;" horiz-adv-x="1460" d="M88 410q0 119 75 220t189 148q-127 150 -127 260q0 156 127 255.5t307 99.5q197 0 308 -111q84 -84 84 -213q0 -143 -101 -238q-53 -47 -188 -114l231 -244q27 37 50.5 123t23.5 143h262q-10 -268 -139 -442q31 -25 51 -35q41 -20 109 -29v-235q-53 -8 -84 -8 q-164 0 -269 108q-166 -125 -405 -125q-215 0 -359.5 125t-144.5 312zM389 416q0 -82 63.5 -141.5t170.5 -59.5q137 0 198 61l-311 328q-121 -78 -121 -188zM530 1047q0 -49 78 -150q164 82 164 170t-108 88q-63 0 -98.5 -31.5t-35.5 -76.5z" />
<glyph unicode="'" horiz-adv-x="514" d="M88 1366h338l-45 -535h-248z" />
<glyph unicode="(" horiz-adv-x="958" d="M129 604q0 291 137 518q102 168 266 287q106 74 170 94l152 -209q-111 -66 -207 -180q-178 -219 -178 -502q0 -412 385 -686l-152 -209q-168 76 -286 191q-287 276 -287 696z" />
<glyph unicode=")" horiz-adv-x="958" d="M104 -74q385 274 385 686q0 283 -178 502q-96 115 -207 180l152 209q63 -20 170 -94q164 -119 266 -287q137 -227 137 -518q0 -420 -286 -696q-119 -115 -287 -191z" />
<glyph unicode="*" horiz-adv-x="874" d="M96 1032l62 187l178 -54v201h203v-201l180 54l59 -187l-186 -61l143 -185l-157 -112l-140 164l-141 -164l-156 112l142 185z" />
<glyph unicode="+" horiz-adv-x="1355" d="M111 414v262h432v436h270v-436h432v-262h-432v-434h-270v434h-432z" />
<glyph unicode="," horiz-adv-x="657" d="M90 -139q180 156 180 366q0 27 -4 88h312q2 -10 2 -51q0 -344 -326 -561z" />
<glyph unicode="-" horiz-adv-x="1019" d="M143 414v262h734v-262h-734z" />
<glyph unicode="." horiz-adv-x="620" d="M121 174q0 78 56 133t134 55t133.5 -55t55.5 -133t-55.5 -134t-133.5 -56t-134 56t-56 134z" />
<glyph unicode="/" horiz-adv-x="1075" d="M80 -260l629 1706l229 -80l-631 -1706z" />
<glyph unicode="0" horiz-adv-x="1357" d="M88 557q0 248 163 402.5t423 154.5q266 0 431 -157.5t165 -403.5q0 -262 -165 -423t-423 -161q-266 0 -430 164t-164 424zM416 532q0 -147 78 -231q72 -80 190 -80q258 0 258 332q0 137 -75.5 224t-198.5 87q-113 0 -182.5 -90t-69.5 -242z" />
<glyph unicode="1" horiz-adv-x="899" d="M20 776l480 314h258v-1090h-330v745l-260 -170z" />
<glyph unicode="2" horiz-adv-x="993" d="M20 922q43 53 125 104q141 88 308 88q174 0 290 -90q129 -102 129 -279q0 -143 -122 -266q-70 -70 -273 -223h418v-256h-844v219q133 104 371 311q137 137 137 213q0 59 -40 88t-91 29q-113 0 -246 -121z" />
<glyph unicode="3" horiz-adv-x="985" d="M-43 -137l129 190q129 -84 266 -84q123 0 189 54q59 47 59 129q0 72 -37 110q-55 57 -250 57h-53v234h14q104 0 142 6q78 12 125 62q35 35 34 96q0 66 -57 109.5t-145 43.5q-127 0 -248 -98l-143 166q154 176 446 176q188 0 314 -105.5t126 -267.5q0 -121 -65 -204 q-61 -74 -148 -88q129 -16 195 -109q57 -77 57 -186q0 -193 -133 -306q-139 -121 -391 -120q-274 0 -426 135z" />
<glyph unicode="4" horiz-adv-x="1214" d="M41 31v209l592 850h340v-818h211v-241h-211v-285h-318v285h-614zM362 272h293v453z" />
<glyph unicode="5" horiz-adv-x="1089" d="M31 -125l145 197q119 -82 262 -82q117 0 188.5 56t71.5 157q0 92 -57 151q-68 70 -188 70q-129 0 -209 -72l-103 64v674h813v-254h-518v-209q53 33 146 32q190 0 313 -124t123 -302q0 -223 -150 -360q-156 -143 -413 -143q-170 0 -303 63q-78 39 -121 82z" />
<glyph unicode="6" horiz-adv-x="1239" d="M88 635q0 328 161 524.5t441 196.5q176 0 316 -62q80 -35 118 -73l-129 -193q-145 88 -280 88q-324 0 -350 -348q35 49 104 90q98 57 217 57q203 0 334 -128.5t131 -329.5q0 -217 -143.5 -354.5t-370.5 -137.5q-252 0 -400.5 182.5t-148.5 487.5zM424 449 q0 -100 62.5 -161t160.5 -61q94 0 153.5 62t59.5 160q0 96 -59.5 154.5t-153.5 58.5q-100 0 -161.5 -59.5t-61.5 -153.5z" />
<glyph unicode="7" horiz-adv-x="1064" d="M16 823v267h988v-246l-512 -1098h-345l521 1077h-652z" />
<glyph unicode="8" horiz-adv-x="1212" d="M88 383q0 109 57.5 196t159.5 115q-174 61 -174 273q0 176 130 282.5t343 106.5q215 0 347 -106.5t132 -280.5q0 -100 -47 -174t-127 -101q215 -69 215 -313q0 -193 -141 -303.5t-375 -110.5q-236 0 -378 111.5t-142 304.5zM377 395q0 -184 233 -184q228 0 228 182 q0 76 -61.5 125t-168.5 49q-113 0 -176 -51q-55 -47 -55 -121zM414 961q0 -70 52 -114t146 -44q88 0 138.5 44t50.5 114q0 156 -195 155q-90 0 -141 -45t-51 -110z" />
<glyph unicode="9" horiz-adv-x="1239" d="M88 623q0 217 143.5 354t370.5 137q252 0 400.5 -182.5t148.5 -487.5q0 -328 -158 -522q-164 -199 -444 -198q-178 0 -316 61q-78 35 -118 74l129 192q145 -88 280 -88q324 0 350 348q-35 -49 -104 -90q-98 -57 -217 -57q-203 0 -334 130t-131 329zM379 631 q0 -96 58.5 -154.5t150.5 -58.5q100 0 163.5 60.5t63.5 152.5q0 100 -64.5 160.5t-162.5 60.5q-94 0 -151.5 -60.5t-57.5 -160.5z" />
<glyph unicode=":" horiz-adv-x="620" d="M121 174q0 78 56 133t134 55t133.5 -55t55.5 -133t-55.5 -134t-133.5 -56t-134 56t-56 134zM121 829q0 78 56 133.5t134 55.5t133.5 -55.5t55.5 -133.5t-55.5 -134t-133.5 -56t-134 56.5t-56 133.5z" />
<glyph unicode=";" horiz-adv-x="686" d="M76 -139q180 156 180 366q0 27 -4 88h311q2 -10 2 -51q0 -344 -325 -561zM186 829q0 78 56.5 133.5t134.5 55.5t133 -55.5t55 -133.5t-55 -134t-133 -56t-134.5 56.5t-56.5 133.5z" />
<glyph unicode="&#x3c;" horiz-adv-x="1355" d="M121 440v211l1012 453l104 -252l-690 -307l690 -316l-104 -239z" />
<glyph unicode="=" horiz-adv-x="1357" d="M94 217v262h1170v-262h-1170zM94 612v262h1170v-262h-1170z" />
<glyph unicode="&#x3e;" horiz-adv-x="1355" d="M121 229l690 316l-690 307l104 252l1012 -453v-211l-1012 -450z" />
<glyph unicode="?" horiz-adv-x="1132" d="M94 1225q221 176 479 176q213 0 344.5 -106.5t131.5 -284.5q0 -141 -97 -240q-49 -49 -155.5 -113.5t-114.5 -72.5q-33 -33 -35 -140h-282q-12 25 -13 97q0 127 68 194q31 31 125 88.5t132 95t38 91.5q0 123 -176 123q-152 0 -310 -113zM311 174q0 78 56.5 133t134.5 55 t133 -55t55 -133t-55 -134t-133 -56t-134.5 56t-56.5 134z" />
<glyph unicode="@" horiz-adv-x="1685" d="M82 633q0 328 238.5 548t590.5 220q289 0 486.5 -158.5t197.5 -400.5q0 -225 -170 -366.5t-428 -141.5q-25 0 -67 6l14 76q-123 -88 -215 -88q-121 0 -194.5 80.5t-73.5 203.5q0 197 143.5 329t356.5 132q86 0 180 -29q63 -18 82 -30l-99 -506q109 14 191 110 q78 90 78 220q0 166 -132.5 271t-351.5 105q-270 0 -442 -164.5t-172 -420.5q0 -219 144.5 -347t383.5 -128q205 0 434 137l97 -148q-254 -176 -557 -176t-509 187.5t-206 478.5zM662 614q0 -49 27.5 -79.5t68.5 -30.5q94 0 182 82l61 315q-6 0 -20 2h-20q-123 0 -211 -85 t-88 -204z" />
<glyph unicode="A" horiz-adv-x="1400" d="M37 0l493 1366h336l498 -1366h-348l-78 250h-479l-80 -250h-342zM537 502h319l-162 512z" />
<glyph unicode="B" horiz-adv-x="1259" d="M135 0v1366h479q289 0 406 -115q100 -98 100 -252q0 -158 -98 -241q-61 -51 -131 -62q90 -8 164 -59q108 -78 108 -225q0 -174 -104 -277q-86 -86 -219 -115q-88 -20 -246 -20h-459zM453 266h163q123 0 167 44t44 114q0 61 -39 100q-49 49 -186 49h-149v-307zM453 809 h116q106 0 154 22q72 36 72 132q0 145 -187 145h-155v-299z" />
<glyph unicode="C" horiz-adv-x="1357" d="M88 666q0 336 209 538q205 197 528 197q313 0 471 -158l-143 -219q-129 92 -299 92q-186 0 -306 -122t-120 -310q0 -184 104 -303q109 -127 291 -127q160 0 348 115l138 -224q-49 -49 -133 -92q-174 -88 -394 -88q-307 0 -500.5 194.5t-193.5 506.5z" />
<glyph unicode="D" horiz-adv-x="1456" d="M135 0v1366h377q264 0 381 -27q170 -37 293 -159q182 -183 182 -484q0 -299 -182 -481q-141 -141 -361 -188q-133 -27 -399 -27h-291zM467 264h139q424 0 424 436q0 197 -104 301q-68 68 -156 89q-66 16 -213 16h-90v-842z" />
<glyph unicode="E" horiz-adv-x="1110" d="M135 0v1366h864v-268h-528v-273h496v-262h-496v-291h545v-272h-881z" />
<glyph unicode="F" horiz-adv-x="1087" d="M135 0v1366h854v-268h-518v-273h494v-262h-494v-563h-336z" />
<glyph unicode="G" horiz-adv-x="1445" d="M88 672q0 334 209 534q205 195 528 195q322 0 482 -160l-146 -217q-152 98 -319 98q-182 0 -298 -116.5t-116 -315.5q0 -217 125 -338q110 -108 282 -108h3q100 0 182 24v197h-248v244h545v-594q-104 -66 -135 -78q-166 -72 -379 -72q-317 0 -516 191.5t-199 515.5z" />
<glyph unicode="H" horiz-adv-x="1394" d="M135 0v1366h336v-522h453v522h336v-1366h-336v571h-453v-571h-336z" />
<glyph unicode="I" horiz-adv-x="606" d="M135 0v1366h336v-1366h-336z" />
<glyph unicode="J" horiz-adv-x="884" d="M14 61l113 226q98 -39 158 -39q68 0 100 35q39 43 39 184v899h336v-901q0 -139 -17 -211q-23 -109 -96 -182q-106 -106 -317 -107q-113 0 -219 43q-68 29 -97 53z" />
<glyph unicode="K" horiz-adv-x="1318" d="M135 0v1366h336v-635l428 635h358l-454 -661l479 -705h-397l-414 625v-625h-336z" />
<glyph unicode="L" horiz-adv-x="1099" d="M135 0v1366h340v-1094h514v-272h-854z" />
<glyph unicode="M" horiz-adv-x="1806" d="M96 0l133 1366h363l317 -940l297 940h363l141 -1366h-313l-80 909l-285 -909h-278l-299 911l-62 -911h-297z" />
<glyph unicode="N" horiz-adv-x="1392" d="M135 0v1366h295l531 -825l-7 825h303v-1366h-274l-551 836l8 -836h-305z" />
<glyph unicode="O" horiz-adv-x="1548" d="M88 702q0 309 188.5 504t493.5 195q311 0 504 -201q186 -197 186 -504q0 -330 -191.5 -530.5t-490.5 -200.5q-311 0 -500.5 205t-189.5 532zM428 672q0 -201 102 -318q95 -110 249 -110h3q190 0 277 159q61 117 61 295q0 188 -98 309t-260 121q-152 0 -243 -125.5 t-91 -330.5z" />
<glyph unicode="P" horiz-adv-x="1257" d="M135 0v1366h410q186 0 280 -20q127 -29 209 -109q111 -109 111 -293q0 -199 -125 -321q-88 -88 -209 -119q-88 -25 -238 -25h-106v-479h-332zM467 745h96q154 0 200 46.5t46 136.5q0 88 -44 132t-192 44h-106v-359z" />
<glyph unicode="Q" horiz-adv-x="1533" d="M88 702q0 309 188.5 504t493.5 195q311 0 504 -201q186 -197 186 -504q0 -342 -200 -540q-115 -113 -304 -156q80 -68 295 -68q74 0 176 21l39 -201q-135 -37 -288 -37q-383 0 -586 275q-53 2 -152 53q-143 78 -231 213q-121 182 -121 446zM428 672q0 -201 102 -318 q95 -110 249 -110h3q190 0 277 162q61 114 61 292q0 188 -98 309t-260 121q-152 0 -243 -125.5t-91 -330.5z" />
<glyph unicode="R" horiz-adv-x="1253" d="M135 0v1366h371q195 0 258 -10q139 -25 229 -115q113 -113 113 -268q0 -145 -88 -238q-94 -96 -268 -114q129 -6 206 -107q39 -49 115 -215l135 -299h-356l-135 301q-33 72 -39 86q-33 63 -62 92q-35 35 -129 35h-18v-514h-332zM467 766h96q223 0 223 178q0 76 -41 117 q-47 47 -198 47h-80v-342z" />
<glyph unicode="S" horiz-adv-x="1148" d="M55 123l142 219q180 -102 319 -102q201 0 201 149q0 49 -39 88q-23 23 -212.5 107t-266.5 159q-100 98 -101 246q0 182 141.5 297t356.5 115q166 0 309 -64q88 -39 135 -82l-143 -211q-154 94 -287 95q-178 0 -178 -123q0 -43 39 -82q23 -23 208 -106t271 -166 q103 -102 103 -252q0 -199 -143.5 -322t-372.5 -123q-182 0 -332 64q-98 43 -150 94z" />
<glyph unicode="T" horiz-adv-x="1169" d="M51 1098v268h1067v-268h-362v-1098h-340v1098h-365z" />
<glyph unicode="U" horiz-adv-x="1370" d="M125 596v770h338v-842q0 -145 59.5 -204.5t167.5 -59.5q104 0 170 66q37 37 49 100q8 51 9 180v760h327v-809q0 -174 -31 -270q-29 -88 -104 -164q-160 -158 -428 -158q-264 0 -424 160q-82 82 -111 205q-22 90 -22 252v14z" />
<glyph unicode="V" horiz-adv-x="1347" d="M41 1366h338l297 -965l299 965h332l-478 -1366h-319z" />
<glyph unicode="W" horiz-adv-x="1961" d="M80 1366h326l180 -1004l245 1004h330l230 -1004l192 1004h299l-323 -1366h-359l-211 967l-233 -967h-359z" />
<glyph unicode="X" horiz-adv-x="1331" d="M57 0l445 705l-416 661h360l238 -422l248 422h336l-420 -655l426 -711h-356l-254 451l-261 -451h-346z" />
<glyph unicode="Y" horiz-adv-x="1306" d="M55 1366h340l269 -563l282 563h305l-442 -819v-547h-326v547z" />
<glyph unicode="Z" horiz-adv-x="1189" d="M88 0v236l608 862h-579v268h962v-248l-587 -846h610v-272h-1014z" />
<glyph unicode="[" horiz-adv-x="952" d="M199 -260v1626h598v-262h-275v-1102h275v-262h-598z" />
<glyph unicode="\" horiz-adv-x="1075" d="M137 1366l230 80l628 -1706l-227 -80z" />
<glyph unicode="]" horiz-adv-x="952" d="M156 2h274v1102h-274v262h598v-1626h-598v262z" />
<glyph unicode="^" horiz-adv-x="1349" d="M133 487l426 879h244l416 -879h-289l-246 543l-248 -543h-303z" />
<glyph unicode="_" horiz-adv-x="1093" d="M-6 2h1106v-262h-1106v262z" />
<glyph unicode="`" horiz-adv-x="755" d="M74 1321l127 235l481 -268l-102 -172z" />
<glyph unicode="a" horiz-adv-x="1071" d="M80 309q0 375 559 375h23q0 68 -25 92q-33 33 -121 33q-143 0 -283 -70l-98 195q146 110 393 110h4q233 0 353 -118q57 -57 73 -152q8 -47 9 -180v-594h-271v86q-133 -109 -286 -109q-152 0 -241 92.5t-89 239.5zM350 334q0 -123 127 -123q93 0 189 57v207 q-225 0 -281 -55q-35 -35 -35 -86z" />
<glyph unicode="b" horiz-adv-x="1200" d="M119 55v1428h327v-500q127 63 240 64q182 0 305 -136q129 -143 129 -376q0 -258 -150.5 -412t-416.5 -154q-219 0 -434 86zM446 248q53 -18 119 -19q100 0 162 76q70 80 70 227q0 125 -58.5 190.5t-148.5 65.5q-76 0 -144 -45v-495z" />
<glyph unicode="c" horiz-adv-x="1044" d="M80 504q0 231 158.5 387t390.5 156q145 0 264 -56q80 -39 102 -71l-129 -199q-82 61 -190 61q-119 0 -192.5 -76.5t-73.5 -195.5q0 -127 61 -199q63 -78 186 -78q119 0 230 74l125 -205q-90 -59 -107 -67q-133 -66 -293 -66q-242 0 -389 156q-143 150 -143 379z" />
<glyph unicode="d" horiz-adv-x="1208" d="M80 494q0 240 151 401q141 152 334 152q94 0 197 -43v479h328v-1483h-271v78q-106 -106 -280 -107q-209 0 -334 144.5t-125 378.5zM406 502q0 -125 60 -197t152 -72q60 1 144 48v462q-57 43 -139 43q-94 0 -155.5 -77.5t-61.5 -206.5z" />
<glyph unicode="e" horiz-adv-x="1128" d="M80 502q0 236 139 390.5t361 154.5q225 0 347 -146.5t122 -396.5q0 -25 -2.5 -54.5t-2.5 -39.5h-671q0 -72 57 -131q72 -76 203 -76t260 71l96 -192q-25 -25 -119 -62q-133 -51 -264 -51q-264 0 -405 170q-121 145 -121 363zM379 627h383q0 61 -29 112q-45 84 -147 84 q-109 0 -166 -88q-37 -55 -41 -108z" />
<glyph unicode="f" horiz-adv-x="991" d="M86 760v256h180v20q0 260 109.5 370t316.5 110q119 0 221 -48q61 -28 86 -53l-118 -203q-78 45 -148 45q-88 0 -119 -63q-20 -41 -20 -133v-45h278v-256h-278v-760h-328v760h-180z" />
<glyph unicode="g" horiz-adv-x="1202" d="M80 500q0 231 149 387q158 160 408 160q231 0 446 -115v-907q0 -133 -10 -185q-23 -102 -102 -180q-143 -141 -391 -141q-186 0 -338 67q-86 39 -136 84l130 203q129 -92 305 -92q221 0 221 207v78q-100 -68 -219 -68q-227 0 -355 162q-109 137 -108 340zM403 514 q0 -121 64 -190q57 -66 145 -66q57 0 107 23q23 12 43 24v455q-51 26 -125 26h-6q-96 0 -162 -73.5t-66 -198.5z" />
<glyph unicode="h" horiz-adv-x="1159" d="M119 0v1483h327v-508q109 72 238 72q168 0 262 -95q74 -74 96 -190q12 -63 13 -205v-557h-328v549q0 158 -32.5 190.5t-92.5 32.5q-76 0 -156 -57v-715h-327z" />
<glyph unicode="i" horiz-adv-x="555" d="M104 1303q0 72 51.5 122t123.5 50t122 -50t50 -122t-50.5 -123.5t-121.5 -51.5q-72 0 -123.5 51.5t-51.5 123.5zM113 0v1016h327v-1016h-327z" />
<glyph unicode="j" horiz-adv-x="555" d="M-203 -416l86 217q65 -24 110 -24h3q59 0 90 30.5t31 143.5v1065h327v-1032q0 -119 -12 -179q-23 -106 -98 -182q-104 -104 -283 -104q-139 0 -254 65zM104 1303q0 72 51.5 122t123.5 50t122 -50t50 -122t-50.5 -123.5t-121.5 -51.5q-72 0 -123.5 51.5t-51.5 123.5z" />
<glyph unicode="k" horiz-adv-x="1148" d="M119 0v1483h327v-824l312 357h379l-412 -453l416 -563h-379l-316 457v-457h-327z" />
<glyph unicode="l" horiz-adv-x="565" d="M119 0v1483h327v-1483h-327z" />
<glyph unicode="m" horiz-adv-x="1720" d="M119 0v1016h270v-74q104 104 260 105q154 0 254 -111q141 111 334 111q170 0 270 -101q78 -78 99 -225q10 -70 10 -287v-434h-328v563q0 104 -12 139q-25 66 -102 66q-72 0 -152 -57q10 -41 10 -185v-526h-327v563q0 102 -15 139q-23 66 -102 66q-70 0 -142 -47v-721 h-327z" />
<glyph unicode="n" horiz-adv-x="1159" d="M119 0v1016h270v-82q27 27 92 59q104 53 209 54q162 0 256 -95q74 -74 96 -190q12 -63 13 -205v-557h-328v549q0 158 -32.5 190.5t-92.5 32.5q-76 0 -156 -57v-715h-327z" />
<glyph unicode="o" d="M80 500q0 238 154.5 392.5t390.5 154.5q229 0 377.5 -150t148.5 -373q0 -244 -154.5 -399.5t-396.5 -155.5q-229 0 -374.5 149.5t-145.5 381.5zM408 512q0 -129 59 -204t158 -75q94 0 146 72t52 201q0 127 -56 202.5t-155 75.5q-94 0 -149 -72.5t-55 -199.5z" />
<glyph unicode="p" horiz-adv-x="1208" d="M119 -449v1465h270v-78q106 106 281 106q209 0 333.5 -144.5t124.5 -377.5q0 -240 -149 -401q-143 -152 -336 -152q-94 0 -197 43v-461h-327zM446 274q57 -43 140 -43q94 0 155.5 78t61.5 207q0 125 -60.5 196.5t-152.5 71.5q-59 0 -144 -47v-463z" />
<glyph unicode="q" horiz-adv-x="1202" d="M80 487q0 238 152.5 399t404.5 161q231 0 446 -115v-1381h-327v488q-92 -70 -211 -70q-231 0 -357 164q-109 139 -108 354zM403 502q0 -131 64 -205q57 -68 145 -68q55 0 103 23q21 12 41 24v484q-51 26 -120 26h-5q-96 0 -160 -71q-68 -78 -68 -213z" />
<glyph unicode="r" horiz-adv-x="878" d="M119 0v1016h270v-135q23 37 94 86q115 80 246 80q64 0 125 -31l-74 -246q-25 8 -61 8q-182 0 -273 -139v-639h-327z" />
<glyph unicode="s" horiz-adv-x="960" d="M66 78l102 205q160 -80 258 -80q123 0 123 88q0 35 -27 61q-20 20 -151 78.5t-187 114.5q-78 78 -78 174q0 143 116 235.5t304 92.5q227 0 340 -93l-100 -192q-109 69 -228 69h-3q-115 0 -115 -77q0 -51 117 -103q164 -74 213 -112q116 -92 116 -242q0 -131 -104 -225 q-113 -102 -291 -103q-152 0 -289 49q-92 35 -116 60z" />
<glyph unicode="t" horiz-adv-x="942" d="M39 760v256h176v280h328v-280h276v-256h-276v-367q0 -72 16 -106q27 -53 103 -54q66 0 120 23l82 -215q-14 -14 -80 -39q-94 -33 -196 -33q-182 0 -281 99q-63 63 -80 151q-12 55 -12 197v344h-176z" />
<glyph unicode="u" horiz-adv-x="1159" d="M104 463v553h328v-547q0 -158 33 -190.5t92 -32.5q63 0 156 57v713h327v-1016h-266v90q-29 -29 -92 -63q-104 -57 -207 -58q-164 0 -262 99q-74 74 -96 190q-12 63 -13 205z" />
<glyph unicode="v" horiz-adv-x="1132" d="M25 1016h337l213 -654l209 654h316l-387 -1016h-307z" />
<glyph unicode="w" horiz-adv-x="1632" d="M27 1016h311l160 -656l168 656h276l168 -656l154 656h299l-273 -1016h-334l-165 627l-152 -627h-322z" />
<glyph unicode="x" horiz-adv-x="1222" d="M51 0l383 504l-366 512h368l193 -275l174 275h340l-350 -504l389 -512h-369l-207 309l-203 -309h-352z" />
<glyph unicode="y" horiz-adv-x="1249" d="M-2 -408l98 226q90 -39 162 -39q80 0 132 52t83 173l-430 1012h348l246 -678l233 678h324l-403 -1006q-121 -301 -203 -383q-108 -108 -310 -108h-4q-178 0 -276 73z" />
<glyph unicode="z" horiz-adv-x="1134" d="M109 0v219l497 541h-471v256h856v-240l-473 -510h498v-266h-907z" />
<glyph unicode="{" horiz-adv-x="925" d="M109 483v211q76 14 96 51q12 25 12 111v94q0 117 12 174q18 80 70 131q111 111 410 111h108v-252q-121 -6 -153 -10q-72 -10 -94.5 -32.5t-26.5 -65.5q-4 -29 -4 -142q0 -270 -136 -272q135 0 136 -279v-63q0 -119 2 -141q4 -51 27.5 -75t93.5 -32q27 -4 155 -10v-252 h-108q-299 0 -410 110q-51 51 -70 132q-12 57 -12 174v166q0 86 -12 110q-20 37 -96 51z" />
<glyph unicode="|" horiz-adv-x="614" d="M141 -260v1626h332v-1626h-332z" />
<glyph unicode="}" horiz-adv-x="925" d="M109 -8q129 6 155 10q70 8 93.5 31.5t27.5 75.5q2 23 2 141v63q0 279 135 279q-135 2 -135 272q0 113 -4 142q-4 43 -25 63q-33 33 -249 45v252h108q299 0 410 -111q51 -51 69 -131q12 -57 13 -174v-94q0 -86 12 -111q20 -37 96 -51v-211q-76 -14 -96 -51 q-12 -25 -12 -110v-166q0 -117 -13 -174q-18 -80 -69 -132q-111 -111 -410 -110h-108v252z" />
<glyph unicode="~" horiz-adv-x="1353" d="M164 510q18 53 82 108q98 88 231 89q96 0 226.5 -58.5t179.5 -58.5q68 0 153 100l154 -121q-23 -49 -84 -104q-100 -88 -219 -88q-90 0 -226.5 58.5t-189.5 58.5q-82 0 -145 -95z" />
<glyph unicode="&#xa1;" horiz-adv-x="837" d="M229 856q0 78 55.5 134.5t133.5 56.5t134 -56.5t56 -134.5t-56 -133t-134 -55t-133.5 55t-55.5 133zM233 -336l50 922h268l49 -922h-367z" />
<glyph unicode="&#xa2;" horiz-adv-x="1075" d="M102 514q0 227 154 381q125 127 276 149v228h205v-221q104 -10 195 -60q68 -35 86 -61l-129 -199q-82 61 -191 62q-119 0 -192.5 -77t-73.5 -196q0 -127 62 -198q63 -78 186 -78q119 0 229 73l125 -204q-41 -29 -84 -56q-102 -57 -213 -69v-221h-205v221 q-182 27 -301 162q-129 147 -129 364z" />
<glyph unicode="&#xa3;" horiz-adv-x="1261" d="M143 0v250q199 27 199 235q0 12 -4 25h-188v262h159q-8 94 -8 143q0 227 134 356.5t374 129.5q270 0 422 -176l-164 -195q-106 96 -246 96q-92 0 -147.5 -56t-55.5 -155q0 -86 15 -143h377v-262h-346q2 -10 2 -27q0 -150 -84 -211h622v-272h-1061z" />
<glyph unicode="&#xa5;" horiz-adv-x="1245" d="M41 1366h346l270 -557l267 557h311l-315 -547h174v-213h-293v-145h289v-209h-289v-252h-324v252h-309v209h309v145h-313v213h186z" />
<glyph unicode="&#xa6;" horiz-adv-x="595" d="M141 -260v627h332v-627h-332zM141 739v627h332v-627h-332z" />
<glyph unicode="&#xa7;" horiz-adv-x="1353" d="M225 -184l119 200q133 -74 244 -73q178 0 178 116q0 39 -37 72q-18 16 -158.5 68.5t-205.5 111.5q-100 90 -101 230q0 174 195 264q-164 102 -164 244q0 160 108 254q119 102 334 102q221 0 346 -105l-112 -188q-102 61 -209 62q-168 0 -168 -101q0 -35 35 -65 q27 -23 178 -77t215 -112q86 -76 86 -215q0 -176 -188 -278q53 -29 94 -95q45 -74 45 -151q0 -170 -117 -275q-125 -106 -340 -106q-231 0 -377 117zM520 590q0 -41 29 -70q37 -37 176 -88q123 67 123 133q0 37 -29 66q-39 39 -184 92q-115 -51 -115 -133z" />
<glyph unicode="&#xa8;" horiz-adv-x="882" d="M66 1325q0 66 47 114t112 48q66 0 114 -48t48 -114t-48 -113t-114 -47t-112.5 47.5t-46.5 112.5zM496 1325q0 66 47 114t112 48q66 0 114 -48t48 -114t-48 -113t-114 -47t-112.5 47.5t-46.5 112.5z" />
<glyph unicode="&#xa9;" horiz-adv-x="1599" d="M82 682q0 297 211 508t508 211t507 -214t210 -505q0 -297 -210 -507t-507 -210t-508 210t-211 507zM283 682q0 -213 152.5 -363.5t365.5 -150.5t364.5 150.5t151.5 363.5t-151.5 364.5t-364.5 151.5t-365.5 -151.5t-152.5 -364.5zM432 692q0 168 116 279.5t286 111.5 q135 0 247 -84l-73 -112q-76 45 -144 45q-106 0 -172 -78q-57 -68 -57 -152q0 -104 53 -170q59 -74 170 -73q76 0 164 53l74 -117q-39 -23 -76 -45q-94 -43 -199 -43q-176 0 -284 113q-104 106 -105 272z" />
<glyph unicode="&#xaa;" horiz-adv-x="952" d="M129 858q0 281 416 281h12q0 41 -20.5 61.5t-81.5 20.5q-98 0 -209 -54l-78 152q115 86 299 86q172 0 262 -90q45 -45 55 -117q6 -33 7 -131v-440h-209v57q-92 -76 -205 -76t-180.5 70t-67.5 180zM334 877q0 -90 92 -91q76 0 137 43v150q-164 0 -205 -41q-25 -25 -24 -61 z" />
<glyph unicode="&#xab;" horiz-adv-x="1183" d="M121 500l330 405l174 -127l-174 -278l174 -295l-174 -107zM559 500l330 405l174 -127l-174 -278l174 -295l-174 -107z" />
<glyph unicode="&#xac;" horiz-adv-x="1355" d="M123 686v266h1110v-577h-289v311h-821z" />
<glyph unicode="&#xad;" horiz-adv-x="1019" d="M143 414v262h734v-262h-734z" />
<glyph unicode="&#xae;" horiz-adv-x="1107" d="M92 940q0 193 134 327t327 134t327 -134t134 -327t-134.5 -326t-326.5 -133q-193 0 -327 133.5t-134 325.5zM211 940q0 -141 99.5 -238.5t242.5 -97.5t242.5 97.5t99.5 238.5q0 143 -99.5 240.5t-242.5 97.5t-242.5 -97.5t-99.5 -240.5zM393 719v457h123q125 0 164 -39 t39 -93q0 -106 -121 -118q45 -4 70 -35q14 -14 39 -72l45 -100h-119l-45 100q-20 45 -33.5 58.5t-44.5 13.5h-6v-172h-111zM504 975h33q73 0 73 59q0 27 -14 41.5t-66 14.5h-26v-115z" />
<glyph unicode="&#xaf;" horiz-adv-x="813" d="M78 1229v192h764v-192h-764z" />
<glyph unicode="&#xb0;" horiz-adv-x="1345" d="M346 1087q0 135 95.5 230.5t230.5 95.5t231 -95.5t96 -230.5t-96 -231t-231 -96t-230.5 96t-95.5 231zM530 1087q0 -63 41 -105t101 -42q59 0 100 42t41 105t-41 106.5t-100 43.5t-100.5 -43t-41.5 -107z" />
<glyph unicode="&#xb1;" horiz-adv-x="1630" d="M86 760v256h180v20q0 129 17 201q25 100 96 172q106 106 278 107q106 0 193 -43l-80 -236q-37 12 -57 12q-76 0 -103 -61q-16 -37 -16 -123v-49h311v20q0 260 109.5 370t316.5 110q192 -1 307 -101l-118 -203q-82 45 -148 45q-88 0 -119 -63q-20 -41 -20 -133v-45h278 v-256h-278v-760h-328v760h-311v-760h-328v760h-180z" />
<glyph unicode="&#xb2;" horiz-adv-x="817" d="M141 1276q102 125 260 125q104 0 177 -63.5t73 -159.5q0 -98 -131 -232q-10 -10 -117 -110h261v-152h-502v133q76 61 219 197q96 100 96 155q0 33 -26.5 55.5t-63.5 22.5q-70 0 -156 -78z" />
<glyph unicode="&#xb3;" horiz-adv-x="802" d="M141 731l74 109q76 -49 147 -49q127 0 127 92q0 72 -81 84q-12 2 -66 2h-31v133h11q104 0 137 35q18 18 18 47q0 33 -29.5 56.5t-74.5 23.5q-72 0 -144 -56l-77 97q86 96 251 96q100 0 169 -57.5t69 -145.5q0 -121 -98 -156q119 -28 119 -157q0 -104 -74 -168t-209 -64 q-143 0 -238 78z" />
<glyph unicode="&#xb4;" horiz-adv-x="755" d="M74 1288l481 268l127 -235l-506 -205z" />
<glyph unicode="&#xb6;" horiz-adv-x="1519" d="M82 961q0 168 115 282q78 78 209 103q100 20 323 20h701v-233h-187v-1393h-235v1393h-177v-1393h-235v790q-123 4 -190 17q-131 29 -205 102q-119 119 -119 312z" />
<glyph unicode="&#xb7;" horiz-adv-x="620" d="M121 526q0 78 56 133.5t134 55.5t133.5 -55.5t55.5 -133.5t-55.5 -134t-133.5 -56t-134 56.5t-56 133.5z" />
<glyph unicode="&#xb8;" horiz-adv-x="471" d="M33 -428l47 96q51 -31 110 -30q102 0 103 86q0 33 -26.5 55t-65.5 22q-49 0 -86 -28l-68 39l29 190h129l-15 -94q37 6 41 6q86 0 141.5 -51t55.5 -135q0 -94 -66.5 -151.5t-154.5 -57.5q-121 0 -174 53z" />
<glyph unicode="&#xb9;" horiz-adv-x="825" d="M160 1196l274 180h146v-702h-187v487l-145 -94z" />
<glyph unicode="&#xba;" horiz-adv-x="952" d="M78 993q0 176 114.5 292t290.5 116q170 0 280.5 -110.5t110.5 -278.5q0 -182 -114.5 -298t-294.5 -116q-172 0 -279.5 111.5t-107.5 283.5zM328 1001q0 -92 43 -145t112 -53q142 -1 142 194q0 92 -41 146.5t-111 54.5q-66 0 -105.5 -52t-39.5 -145z" />
<glyph unicode="&#xbb;" horiz-adv-x="1183" d="M121 205l174 295l-174 278l174 127l330 -405l-330 -402zM559 205l174 295l-174 278l174 127l330 -405l-330 -402z" />
<glyph unicode="&#xbc;" horiz-adv-x="1640" d="M100 1196l275 180h145v-702h-186v487l-146 -94zM268 12l926 1430l160 -105l-926 -1433zM852 125v115l338 462h170v-444h104v-133h-104v-125h-162v125h-346zM1030 258h168v248z" />
<glyph unicode="&#xbd;" horiz-adv-x="1601" d="M68 1196l274 180h145v-702h-186v487l-145 -94zM236 12l925 1430l160 -105l-926 -1433zM971 592q102 125 260 125q104 0 177 -63.5t73 -159.5q0 -98 -131 -232q-10 -10 -117 -110h260v-152h-502v133q76 61 219 197q96 100 97 155q0 33 -27 55.5t-63 22.5q-70 0 -156 -78z " />
<glyph unicode="&#xbe;" horiz-adv-x="1669" d="M139 731l74 109q76 -49 147 -49q127 0 127 92q0 72 -81 84q-12 2 -66 2h-31v133h10q104 0 138 35q18 18 18 47q0 33 -29.5 56.5t-74.5 23.5q-72 0 -144 -56l-77 97q86 96 251 96q100 0 169 -57.5t69 -145.5q0 -121 -98 -156q118 -28 118 -157q0 -104 -73.5 -168 t-208.5 -64q-143 0 -238 78zM334 12l926 1430l159 -105l-925 -1433zM918 125v115l337 462h170v-444h105v-133h-105v-125h-161v125h-346zM1096 258h168v248z" />
<glyph unicode="&#xbf;" horiz-adv-x="1132" d="M94 20q0 141 96 240q49 49 156 113.5t115 72.5q33 33 35 140h282q12 -25 13 -97q0 -127 -68 -194q-31 -31 -125 -88t-132 -95t-38 -92q0 -123 176 -122q152 0 309 112l136 -205q-219 -176 -480 -176q-213 0 -344 106.5t-131 284.5zM453 856q0 78 55 134.5t133 56.5 t134 -56.5t56 -134.5t-56 -133t-134 -55t-133 55t-55 133z" />
<glyph unicode="&#xc0;" horiz-adv-x="1400" d="M37 0l493 1366h336l498 -1366h-348l-78 250h-479l-80 -250h-342zM387 1704l127 235l481 -268l-102 -172zM537 502h319l-162 512z" />
<glyph unicode="&#xc1;" horiz-adv-x="1400" d="M37 0l493 1366h336l498 -1366h-348l-78 250h-479l-80 -250h-342zM357 1671l481 268l127 -235l-506 -205zM537 502h319l-162 512z" />
<glyph unicode="&#xc2;" horiz-adv-x="1400" d="M37 0l493 1366h336l498 -1366h-348l-78 250h-479l-80 -250h-342zM332 1659l370 277l375 -293l-110 -146l-265 148l-264 -146zM537 502h319l-162 512z" />
<glyph unicode="&#xc3;" horiz-adv-x="1400" d="M37 0l493 1366h336l498 -1366h-348l-78 250h-479l-80 -250h-342zM311 1622q139 174 270 175q47 0 117 -32t103 -32q51 0 137 78l131 -131q-147 -174 -271 -174q-51 0 -120.5 32.5t-100.5 32.5q-39 0 -135 -80zM537 502h319l-162 512z" />
<glyph unicode="&#xc4;" horiz-adv-x="1400" d="M37 0l493 1366h336l498 -1366h-348l-78 250h-479l-80 -250h-342zM318 1677q0 66 47 114t112 48q66 0 114 -48t48 -114t-48 -113t-114 -47t-112.5 47.5t-46.5 112.5zM537 502h319l-162 512zM748 1677q0 66 47 114t112 48q66 0 114 -48t48 -114t-48 -113t-114 -47 t-112.5 47.5t-46.5 112.5z" />
<glyph unicode="&#xc5;" horiz-adv-x="1400" d="M37 0l493 1366h336l498 -1366h-348l-78 250h-479l-80 -250h-342zM467 1731q0 96 68.5 163.5t164.5 67.5t164 -67.5t68 -163.5t-67.5 -165t-164.5 -69q-96 0 -164.5 69t-68.5 165zM537 502h319l-162 512zM604 1733q0 -39 27.5 -66.5t66.5 -27.5t66.5 27.5t27.5 66.5 t-27.5 66.5t-66.5 27.5t-66.5 -27.5t-27.5 -66.5z" />
<glyph unicode="&#xc6;" horiz-adv-x="1927" d="M14 0l813 1366h994v-268h-529v-273h496v-262h-496v-291h545v-272h-881v258h-454l-140 -258h-348zM649 530h307v568z" />
<glyph unicode="&#xc7;" horiz-adv-x="1357" d="M88 666q0 336 209 538q205 197 528 197q313 0 471 -158l-143 -219q-129 92 -299 92q-186 0 -306 -122t-120 -310q0 -184 104 -303q109 -127 291 -127q160 0 348 115l138 -224q-49 -49 -133 -92q-174 -88 -394 -88l-8 -57q37 6 41 6q86 0 141.5 -51t55.5 -135 q0 -94 -66.5 -151.5t-154.5 -57.5q-121 0 -175 53l48 96q51 -31 110 -30q102 0 103 86q0 33 -27 55t-66 22q-49 0 -86 -28l-67 39l24 163q-236 31 -391 203q-176 193 -176 488z" />
<glyph unicode="&#xc8;" horiz-adv-x="1110" d="M135 0v1366h864v-268h-528v-273h496v-262h-496v-291h545v-272h-881zM248 1704l127 235l481 -268l-102 -172z" />
<glyph unicode="&#xc9;" horiz-adv-x="1110" d="M135 0v1366h864v-268h-528v-273h496v-262h-496v-291h545v-272h-881zM301 1671l481 268l127 -235l-506 -205z" />
<glyph unicode="&#xca;" horiz-adv-x="1110" d="M135 0v1366h864v-268h-528v-273h496v-262h-496v-291h545v-272h-881zM185 1659l370 277l375 -293l-110 -146l-265 148l-264 -146z" />
<glyph unicode="&#xcb;" horiz-adv-x="1110" d="M135 0v1366h864v-268h-528v-273h496v-262h-496v-291h545v-272h-881zM205 1677q0 66 47 114t112 48q66 0 114 -48t48 -114t-48 -113t-114 -47t-112.5 47.5t-46.5 112.5zM635 1677q0 66 47 114t112 48q66 0 114 -48t48 -114t-48 -113t-114 -47t-112.5 47.5t-46.5 112.5z " />
<glyph unicode="&#xcc;" horiz-adv-x="606" d="M2 1704l127 235l481 -268l-102 -172zM135 0v1366h336v-1366h-336z" />
<glyph unicode="&#xcd;" horiz-adv-x="606" d="M0 1671l481 268l127 -235l-506 -205zM135 0v1366h336v-1366h-336z" />
<glyph unicode="&#xce;" horiz-adv-x="606" d="M-67 1659l370 277l375 -293l-110 -146l-265 148l-264 -146zM135 0v1366h336v-1366h-336z" />
<glyph unicode="&#xcf;" horiz-adv-x="606" d="M-69 1677q0 66 47 114t112 48q66 0 114 -48t48 -114t-48 -113t-114 -47t-112.5 47.5t-46.5 112.5zM135 0v1366h336v-1366h-336zM361 1677q0 66 47 114t112 48q66 0 114 -48t48 -114t-48 -113t-114 -47t-112.5 47.5t-46.5 112.5z" />
<glyph unicode="&#xd0;" horiz-adv-x="1552" d="M27 559v270h204v537h377q264 0 381 -27q170 -37 293 -159q182 -183 182 -484q0 -299 -182 -481q-141 -141 -360 -188q-133 -27 -400 -27h-291v559h-204zM563 264h139q424 0 424 436q0 197 -104 301q-68 68 -156 89q-66 16 -213 16h-90v-277h326v-270h-326v-295z" />
<glyph unicode="&#xd1;" horiz-adv-x="1392" d="M135 0v1366h295l531 -825l-7 825h303v-1366h-274l-551 836l8 -836h-305zM313 1622q139 174 270 175q47 0 117 -32t103 -32q51 0 137 78l131 -131q-147 -174 -271 -174q-51 0 -120.5 32.5t-100.5 32.5q-39 0 -135 -80z" />
<glyph unicode="&#xd2;" horiz-adv-x="1548" d="M88 702q0 309 188.5 504t493.5 195q311 0 504 -201q186 -197 186 -504q0 -330 -191.5 -530.5t-490.5 -200.5q-311 0 -500.5 205t-189.5 532zM428 672q0 -201 102 -318q96 -111 252 -110q190 0 277 159q61 117 61 295q0 188 -98 309t-260 121q-152 0 -243 -125.5 t-91 -330.5zM496 1704l127 235l481 -268l-102 -172z" />
<glyph unicode="&#xd3;" horiz-adv-x="1548" d="M88 702q0 309 188.5 504t493.5 195q311 0 504 -201q186 -197 186 -504q0 -330 -191.5 -530.5t-490.5 -200.5q-311 0 -500.5 205t-189.5 532zM428 672q0 -201 102 -318q96 -111 252 -110q190 0 277 159q61 117 61 295q0 188 -98 309t-260 121q-152 0 -243 -125.5 t-91 -330.5zM461 1671l481 268l127 -235l-506 -205z" />
<glyph unicode="&#xd4;" horiz-adv-x="1548" d="M88 702q0 309 188.5 504t493.5 195q311 0 504 -201q186 -197 186 -504q0 -330 -191.5 -530.5t-490.5 -200.5q-311 0 -500.5 205t-189.5 532zM418 1659l370 277l375 -293l-110 -146l-265 148l-264 -146zM428 672q0 -201 102 -318q96 -111 252 -110q190 0 277 159 q61 117 61 295q0 188 -98 309t-260 121q-152 0 -243 -125.5t-91 -330.5z" />
<glyph unicode="&#xd5;" horiz-adv-x="1548" d="M88 702q0 309 188.5 504t493.5 195q311 0 504 -201q186 -197 186 -504q0 -330 -191.5 -530.5t-490.5 -200.5q-311 0 -500.5 205t-189.5 532zM389 1622q139 174 270 175q47 0 117 -32t103 -32q51 0 137 78l131 -131q-147 -174 -271 -174q-51 0 -120.5 32.5t-100.5 32.5 q-39 0 -135 -80zM428 672q0 -201 102 -318q96 -111 252 -110q190 0 277 159q61 117 61 295q0 188 -98 309t-260 121q-152 0 -243 -125.5t-91 -330.5z" />
<glyph unicode="&#xd6;" horiz-adv-x="1548" d="M88 702q0 309 188.5 504t493.5 195q311 0 504 -201q186 -197 186 -504q0 -330 -191.5 -530.5t-490.5 -200.5q-311 0 -500.5 205t-189.5 532zM404 1677q0 66 47 114t112 48q66 0 114 -48t48 -114t-48 -113t-114 -47t-112.5 47.5t-46.5 112.5zM428 672q0 -201 102 -318 q96 -111 252 -110q190 0 277 159q61 117 61 295q0 188 -98 309t-260 121q-152 0 -243 -125.5t-91 -330.5zM834 1677q0 66 47 114t112 48q66 0 114 -48t48 -114t-48 -113t-114 -47t-112.5 47.5t-46.5 112.5z" />
<glyph unicode="&#xd7;" horiz-adv-x="1353" d="M125 186l362 359l-362 360l192 193l361 -363l358 363l195 -193l-363 -360l363 -359l-195 -194l-358 362l-361 -362z" />
<glyph unicode="&#xd8;" horiz-adv-x="1546" d="M88 702q0 309 188.5 504t493.5 195q150 0 236 -35l98 172l233 -123l-100 -180q223 -193 223 -539q0 -330 -191.5 -530.5t-490.5 -200.5q-121 0 -229 35l-98 -176l-232 127l103 176q-233 213 -234 575zM428 672q0 -201 102 -318q96 -111 252 -110q190 0 277 159 q61 117 61 295q0 188 -98 309t-260 121q-152 0 -243 -125.5t-91 -330.5z" />
<glyph unicode="&#xd9;" horiz-adv-x="1370" d="M125 596v770h338v-842q0 -145 59.5 -204.5t167.5 -59.5q104 0 170 66q37 37 49 100q8 51 9 180v760h327v-809q0 -174 -31 -270q-29 -88 -104 -164q-160 -158 -428 -158q-264 0 -424 160q-82 82 -111 205q-23 94 -22 266zM379 1704l127 235l481 -268l-102 -172z" />
<glyph unicode="&#xda;" horiz-adv-x="1370" d="M125 596v770h338v-842q0 -145 59.5 -204.5t167.5 -59.5q104 0 170 66q37 37 49 100q8 51 9 180v760h327v-809q0 -174 -31 -270q-29 -88 -104 -164q-160 -158 -428 -158q-264 0 -424 160q-82 82 -111 205q-23 94 -22 266zM389 1671l481 268l127 -235l-506 -205z" />
<glyph unicode="&#xdb;" horiz-adv-x="1370" d="M125 596v770h338v-842q0 -145 59.5 -204.5t167.5 -59.5q104 0 170 66q37 37 49 100q8 51 9 180v760h327v-809q0 -174 -31 -270q-29 -88 -104 -164q-160 -158 -428 -158q-264 0 -424 160q-82 82 -111 205q-23 94 -22 266zM322 1659l370 277l375 -293l-110 -146l-265 148 l-264 -146z" />
<glyph unicode="&#xdc;" horiz-adv-x="1370" d="M125 596v770h338v-842q0 -145 59.5 -204.5t167.5 -59.5q104 0 170 66q37 37 49 100q8 51 9 180v760h327v-809q0 -174 -31 -270q-29 -88 -104 -164q-160 -158 -428 -158q-264 0 -424 160q-82 82 -111 205q-23 94 -22 266zM308 1677q0 66 47 114t112 48q66 0 114 -48 t48 -114t-48 -113t-114 -47t-112.5 47.5t-46.5 112.5zM738 1677q0 66 47 114t112 48q66 0 114 -48t48 -114t-48 -113t-114 -47t-112.5 47.5t-46.5 112.5z" />
<glyph unicode="&#xdd;" horiz-adv-x="1306" d="M55 1366h340l269 -563l282 563h305l-442 -819v-547h-326v547zM324 1671l481 268l127 -235l-506 -205z" />
<glyph unicode="&#xde;" d="M135 0v1366h332v-231h78q186 0 280 -21q127 -29 209 -108q111 -109 111 -293q0 -199 -125 -322q-88 -88 -209 -119q-88 -25 -238 -24h-106v-248h-332zM467 514h96q154 0 200 46t46 136q0 88 -44 132t-192 44h-106v-358z" />
<glyph unicode="&#xdf;" horiz-adv-x="1220" d="M119 0v1077q0 184 119 305q131 133 354 134q203 0 326.5 -110t123.5 -286q0 -92 -45 -164q-8 -12 -86 -100q-45 -53 -45 -100q0 -45 78 -99q111 -76 141 -112q78 -86 78 -213q0 -162 -116.5 -257t-290.5 -95q-123 0 -246 51l80 243q88 -27 133 -26q127 0 127 94 q0 49 -41 90q-29 29 -111 81t-112 87q-51 55 -51 123q0 82 99 196.5t99 204.5q0 47 -35.5 85t-89.5 38q-72 0 -112 -47q-59 -68 -60 -254v-946h-317z" />
<glyph unicode="&#xe0;" horiz-adv-x="1071" d="M80 309q0 375 559 375h23q0 68 -25 92q-33 33 -121 33q-143 0 -283 -70l-98 195q147 111 397 110q233 0 353 -118q57 -57 73 -152q8 -47 9 -180v-594h-271v86q-133 -109 -286 -109q-152 0 -241 92.5t-89 239.5zM248 1321l127 235l481 -268l-102 -172zM350 334 q0 -123 127 -123q93 0 189 57v207q-225 0 -281 -55q-35 -35 -35 -86z" />
<glyph unicode="&#xe1;" horiz-adv-x="1071" d="M80 309q0 375 559 375h23q0 68 -25 92q-33 33 -121 33q-143 0 -283 -70l-98 195q147 111 397 110q233 0 353 -118q57 -57 73 -152q8 -47 9 -180v-594h-271v86q-133 -109 -286 -109q-152 0 -241 92.5t-89 239.5zM256 1288l481 268l127 -235l-506 -205zM350 334 q0 -123 127 -123q93 0 189 57v207q-225 0 -281 -55q-35 -35 -35 -86z" />
<glyph unicode="&#xe2;" horiz-adv-x="1071" d="M80 309q0 375 559 375h23q0 68 -25 92q-33 33 -121 33q-143 0 -283 -70l-98 195q147 111 397 110q233 0 353 -118q57 -57 73 -152q8 -47 9 -180v-594h-271v86q-133 -109 -286 -109q-152 0 -241 92.5t-89 239.5zM170 1282l370 277l375 -293l-110 -146l-265 148l-264 -146z M350 334q0 -123 127 -123q93 0 189 57v207q-225 0 -281 -55q-35 -35 -35 -86z" />
<glyph unicode="&#xe3;" horiz-adv-x="1071" d="M80 309q0 375 559 375h23q0 68 -25 92q-33 33 -121 33q-143 0 -283 -70l-98 195q147 111 397 110q233 0 353 -118q57 -57 73 -152q8 -47 9 -180v-594h-271v86q-133 -109 -286 -109q-152 0 -241 92.5t-89 239.5zM168 1298q139 174 270 175q47 0 117 -32t103 -32 q51 0 137 78l131 -131q-147 -174 -271 -174q-51 0 -120.5 32.5t-100.5 32.5q-39 0 -135 -80zM350 334q0 -123 127 -123q93 0 189 57v207q-225 0 -281 -55q-35 -35 -35 -86z" />
<glyph unicode="&#xe4;" horiz-adv-x="1071" d="M80 309q0 375 559 375h23q0 68 -25 92q-33 33 -121 33q-143 0 -283 -70l-98 195q147 111 397 110q233 0 353 -118q57 -57 73 -152q8 -47 9 -180v-594h-271v86q-133 -109 -286 -109q-152 0 -241 92.5t-89 239.5zM150 1325q0 66 47 114t112 48q66 0 114 -48t48 -114 t-48 -113t-114 -47t-112.5 47.5t-46.5 112.5zM350 334q0 -123 127 -123q93 0 189 57v207q-225 0 -281 -55q-35 -35 -35 -86zM580 1325q0 66 47 114t112 48q66 0 114 -48t48 -114t-48 -113t-114 -47t-112.5 47.5t-46.5 112.5z" />
<glyph unicode="&#xe5;" horiz-adv-x="1071" d="M80 309q0 375 559 375h23q0 68 -25 92q-33 33 -121 33q-143 0 -283 -70l-98 195q147 111 397 110q233 0 353 -118q57 -57 73 -152q8 -47 9 -180v-594h-271v86q-133 -109 -286 -109q-152 0 -241 92.5t-89 239.5zM301 1356q0 96 68.5 163.5t164.5 67.5t164 -67.5t68 -163.5 t-67.5 -165t-164.5 -69q-96 0 -164.5 69t-68.5 165zM350 334q0 -123 127 -123q93 0 189 57v207q-225 0 -281 -55q-35 -35 -35 -86zM438 1358q0 -39 27.5 -66.5t66.5 -27.5t66.5 27.5t27.5 66.5t-27.5 66.5t-66.5 27.5t-66.5 -27.5t-27.5 -66.5z" />
<glyph unicode="&#xe6;" horiz-adv-x="1724" d="M80 309q0 362 559 363h37q-6 137 -160 137q-143 0 -283 -70l-98 195q147 111 397 110q211 0 316 -116q119 119 328 119q225 0 347 -146.5t122 -396.5q0 -25 -2.5 -54.5t-2.5 -39.5h-671q0 -72 57 -131q72 -76 203 -76t260 71l96 -192q-25 -25 -119 -62q-133 -51 -264 -51 q-221 0 -371 150q-164 -150 -389 -150q-176 0 -269 94.5t-93 245.5zM350 334q0 -129 139 -129q121 0 232 88q-35 70 -35 178q-137 0 -186 -6q-78 -10 -114 -46t-36 -85zM975 627h383q0 61 -29 112q-45 84 -147 84q-109 0 -166 -88q-37 -55 -41 -108z" />
<glyph unicode="&#xe7;" horiz-adv-x="1044" d="M80 504q0 231 158.5 387t390.5 156q145 0 264 -56q80 -39 102 -71l-129 -199q-82 61 -190 61q-119 0 -192.5 -76.5t-73.5 -195.5q0 -127 61 -199q63 -78 186 -78q119 0 230 74l125 -205q-90 -59 -107 -67q-133 -66 -293 -66l-10 -61q37 6 41 6q86 0 141.5 -51t55.5 -135 q0 -94 -66.5 -151.5t-155.5 -57.5q-121 0 -174 53l48 96q51 -31 110 -30q102 0 103 86q0 33 -27 55t-66 22q-49 0 -86 -28l-67 39l26 170q-172 35 -282 165q-123 143 -123 357z" />
<glyph unicode="&#xe8;" horiz-adv-x="1128" d="M80 502q0 236 139 390.5t361 154.5q225 0 347 -146.5t122 -396.5q0 -25 -2.5 -54.5t-2.5 -39.5h-671q0 -72 57 -131q72 -76 203 -76t260 71l96 -192q-25 -25 -119 -62q-133 -51 -264 -51q-264 0 -405 170q-121 145 -121 363zM283 1321l127 235l481 -268l-102 -172z M379 627h383q0 61 -29 112q-45 84 -147 84q-109 0 -166 -88q-37 -55 -41 -108z" />
<glyph unicode="&#xe9;" horiz-adv-x="1128" d="M80 502q0 236 139 390.5t361 154.5q225 0 347 -146.5t122 -396.5q0 -25 -2.5 -54.5t-2.5 -39.5h-671q0 -72 57 -131q72 -76 203 -76t260 71l96 -192q-25 -25 -119 -62q-133 -51 -264 -51q-264 0 -405 170q-121 145 -121 363zM246 1288l481 268l127 -235l-506 -205z M379 627h383q0 61 -29 112q-45 84 -147 84q-109 0 -166 -88q-37 -55 -41 -108z" />
<glyph unicode="&#xea;" horiz-adv-x="1128" d="M80 502q0 236 139 390.5t361 154.5q225 0 347 -146.5t122 -396.5q0 -25 -2.5 -54.5t-2.5 -39.5h-671q0 -72 57 -131q72 -76 203 -76t260 71l96 -192q-25 -25 -119 -62q-133 -51 -264 -51q-264 0 -405 170q-121 145 -121 363zM217 1282l370 277l375 -293l-110 -146 l-265 148l-264 -146zM379 627h383q0 61 -29 112q-45 84 -147 84q-109 0 -166 -88q-37 -55 -41 -108z" />
<glyph unicode="&#xeb;" horiz-adv-x="1128" d="M80 502q0 236 139 390.5t361 154.5q225 0 347 -146.5t122 -396.5q0 -25 -2.5 -54.5t-2.5 -39.5h-671q0 -72 57 -131q72 -76 203 -76t260 71l96 -192q-25 -25 -119 -62q-133 -51 -264 -51q-264 0 -405 170q-121 145 -121 363zM203 1325q0 66 47 114t112 48q66 0 114 -48 t48 -114t-48 -113t-114 -47t-112.5 47.5t-46.5 112.5zM379 627h383q0 61 -29 112q-45 84 -147 84q-109 0 -166 -88q-37 -55 -41 -108zM633 1325q0 66 47 114t112 48q66 0 114 -48t48 -114t-48 -113t-114 -47t-112.5 47.5t-46.5 112.5z" />
<glyph unicode="&#xec;" horiz-adv-x="555" d="M-24 1321l127 235l481 -268l-102 -172zM113 0v1016h327v-1016h-327z" />
<glyph unicode="&#xed;" horiz-adv-x="555" d="M-24 1288l481 268l127 -235l-506 -205zM113 0v1016h327v-1016h-327z" />
<glyph unicode="&#xee;" horiz-adv-x="555" d="M-92 1282l370 277l375 -293l-110 -146l-265 148l-264 -146zM113 0v1016h327v-1016h-327z" />
<glyph unicode="&#xef;" horiz-adv-x="555" d="M-96 1325q0 66 47 114t112 48q66 0 114 -48t48 -114t-48 -113t-114 -47t-112.5 47.5t-46.5 112.5zM113 0v1016h327v-1016h-327zM334 1325q0 66 47 114t112 48q66 0 114 -48t48 -114t-48 -113t-114 -47t-112.5 47.5t-46.5 112.5z" />
<glyph unicode="&#xf0;" horiz-adv-x="1153" d="M80 500q0 229 132 370.5t355 141.5q84 0 133 -25q-43 96 -98 135l-266 -102l-68 170l168 63q-16 16 -82 33q-78 20 -170 23l35 215q139 -4 284.5 -51.5t209.5 -106.5l209 78l67 -168l-137 -51q100 -102 161.5 -275t61.5 -366q0 -283 -131 -448t-362 -165 q-215 0 -358.5 145.5t-143.5 383.5zM399 496q0 -117 51.5 -184.5t131.5 -67.5q178 0 178 348q0 74 -6 113q-57 43 -142 43q-213 0 -213 -252z" />
<glyph unicode="&#xf1;" horiz-adv-x="1159" d="M119 0v1016h270v-82q27 27 92 59q104 53 209 54q162 0 256 -95q74 -74 96 -190q12 -63 13 -205v-557h-328v549q0 158 -32.5 190.5t-92.5 32.5q-76 0 -156 -57v-715h-327zM223 1298q139 174 270 175q47 0 117 -32t103 -32q51 0 137 78l131 -131q-147 -174 -271 -174 q-51 0 -120.5 32.5t-100.5 32.5q-39 0 -135 -80z" />
<glyph unicode="&#xf2;" d="M80 500q0 238 154.5 392.5t390.5 154.5q229 0 377.5 -150t148.5 -373q0 -244 -154.5 -399.5t-396.5 -155.5q-229 0 -374.5 149.5t-145.5 381.5zM330 1321l127 235l481 -268l-102 -172zM408 512q0 -129 59 -204t158 -75q94 0 146 72t52 201q0 127 -56 202.5t-155 75.5 q-94 0 -149 -72.5t-55 -199.5z" />
<glyph unicode="&#xf3;" d="M80 500q0 238 154.5 392.5t390.5 154.5q229 0 377.5 -150t148.5 -373q0 -244 -154.5 -399.5t-396.5 -155.5q-229 0 -374.5 149.5t-145.5 381.5zM318 1288l481 268l127 -235l-506 -205zM408 512q0 -129 59 -204t158 -75q94 0 146 72t52 201q0 127 -56 202.5t-155 75.5 q-94 0 -149 -72.5t-55 -199.5z" />
<glyph unicode="&#xf4;" d="M80 500q0 238 154.5 392.5t390.5 154.5q229 0 377.5 -150t148.5 -373q0 -244 -154.5 -399.5t-396.5 -155.5q-229 0 -374.5 149.5t-145.5 381.5zM264 1282l370 277l375 -293l-110 -146l-265 148l-264 -146zM408 512q0 -129 59 -204t158 -75q94 0 146 72t52 201 q0 127 -56 202.5t-155 75.5q-94 0 -149 -72.5t-55 -199.5z" />
<glyph unicode="&#xf5;" d="M80 500q0 238 154.5 392.5t390.5 154.5q229 0 377.5 -150t148.5 -373q0 -244 -154.5 -399.5t-396.5 -155.5q-229 0 -374.5 149.5t-145.5 381.5zM215 1298q139 174 270 175q47 0 117 -32t103 -32q51 0 137 78l131 -131q-147 -174 -271 -174q-51 0 -120.5 32.5t-100.5 32.5 q-39 0 -135 -80zM408 512q0 -129 59 -204t158 -75q94 0 146 72t52 201q0 127 -56 202.5t-155 75.5q-94 0 -149 -72.5t-55 -199.5z" />
<glyph unicode="&#xf6;" d="M80 500q0 238 154.5 392.5t390.5 154.5q229 0 377.5 -150t148.5 -373q0 -244 -154.5 -399.5t-396.5 -155.5q-229 0 -374.5 149.5t-145.5 381.5zM250 1325q0 66 47 114t112 48q66 0 114 -48t48 -114t-48 -113t-114 -47t-112.5 47.5t-46.5 112.5zM408 512q0 -129 59 -204 t158 -75q94 0 146 72t52 201q0 127 -56 202.5t-155 75.5q-94 0 -149 -72.5t-55 -199.5zM680 1325q0 66 47 114t112 48q66 0 114 -48t48 -114t-48 -113t-114 -47t-112.5 47.5t-46.5 112.5z" />
<glyph unicode="&#xf7;" horiz-adv-x="1355" d="M94 414v262h1170v-262h-1170zM496 156q0 78 54 131t130 53q78 0 131 -53t53 -131q0 -76 -53 -130.5t-131 -54.5q-76 0 -130 54.5t-54 130.5zM496 934q0 78 54 131t130 53q78 0 131 -53t53 -131q0 -76 -53 -130t-131 -54q-76 0 -130 54t-54 130z" />
<glyph unicode="&#xf8;" d="M80 500q0 238 153.5 392.5t391.5 154.5q90 0 163 -25l93 156l190 -111l-94 -149q174 -140 174 -394q0 -244 -154.5 -399.5t-396.5 -155.5q-104 0 -158 23l-90 -156l-194 105l92 157q-66 49 -111 140q-59 117 -59 262zM408 512q0 -129 59 -204t158 -75q94 0 146 72t52 201 q0 127 -56 202.5t-155 75.5q-94 0 -149 -72.5t-55 -199.5z" />
<glyph unicode="&#xf9;" horiz-adv-x="1159" d="M104 463v553h328v-547q0 -158 33 -190.5t92 -32.5q63 0 156 57v713h327v-1016h-266v90q-29 -29 -92 -63q-104 -57 -207 -58q-164 0 -262 99q-74 74 -96 190q-12 63 -13 205zM275 1321l127 235l481 -268l-102 -172z" />
<glyph unicode="&#xfa;" horiz-adv-x="1159" d="M104 463v553h328v-547q0 -158 33 -190.5t92 -32.5q63 0 156 57v713h327v-1016h-266v90q-29 -29 -92 -63q-104 -57 -207 -58q-164 0 -262 99q-74 74 -96 190q-12 63 -13 205zM299 1288l481 268l127 -235l-506 -205z" />
<glyph unicode="&#xfb;" horiz-adv-x="1159" d="M104 463v553h328v-547q0 -158 33 -190.5t92 -32.5q63 0 156 57v713h327v-1016h-266v90q-29 -29 -92 -63q-104 -57 -207 -58q-164 0 -262 99q-74 74 -96 190q-12 63 -13 205zM180 1282l370 277l375 -293l-110 -146l-265 148l-264 -146z" />
<glyph unicode="&#xfc;" horiz-adv-x="1159" d="M104 463v553h328v-547q0 -158 33 -190.5t92 -32.5q63 0 156 57v713h327v-1016h-266v90q-29 -29 -92 -63q-104 -57 -207 -58q-164 0 -262 99q-74 74 -96 190q-12 63 -13 205zM166 1325q0 66 47 114t112 48q66 0 114 -48t48 -114t-48 -113t-114 -47t-112.5 47.5 t-46.5 112.5zM596 1325q0 66 47 114t112 48q66 0 114 -48t48 -114t-48 -113t-114 -47t-112.5 47.5t-46.5 112.5z" />
<glyph unicode="&#xfd;" horiz-adv-x="1249" d="M-2 -408l98 226q90 -39 162 -39q80 0 132 52t83 173l-430 1012h348l246 -678l233 678h324l-403 -1006q-121 -301 -203 -383q-109 -109 -314 -108q-178 0 -276 73zM305 1288l481 268l127 -235l-506 -205z" />
<glyph unicode="&#xfe;" horiz-adv-x="1208" d="M119 -449v1932h303v-520q88 82 248 81q209 0 333.5 -144.5t124.5 -377.5q0 -240 -149 -401q-143 -152 -336 -152q-94 0 -197 43v-461h-327zM446 274q57 -43 140 -43q94 0 155.5 78t61.5 207q0 125 -60.5 196.5t-152.5 71.5q-59 0 -144 -47v-463z" />
<glyph unicode="&#xff;" horiz-adv-x="1249" d="M-2 -408l98 226q90 -39 162 -39q80 0 132 52t83 173l-430 1012h348l246 -678l233 678h324l-403 -1006q-121 -301 -203 -383q-109 -109 -314 -108q-178 0 -276 73zM261 1325q0 66 47 114t112 48q66 0 114 -48t48 -114t-48 -113t-114 -47t-112.5 47.5t-46.5 112.5z M691 1325q0 66 47 114t112 48q66 0 114 -48t48 -114t-48 -113t-114 -47t-112.5 47.5t-46.5 112.5z" />
<glyph unicode="&#x152;" horiz-adv-x="1841" d="M88 670q0 299 182 481q141 141 361 188q133 27 399 27h701v-268h-478v-273h445v-262h-445v-291h494v-272h-803q-264 0 -381 27q-170 37 -293 159q-182 182 -182 484zM426 666q0 -197 104 -301q68 -68 156 -89q66 -16 213 -16h25v842h-74q-424 0 -424 -436z" />
<glyph unicode="&#x153;" horiz-adv-x="1910" d="M80 500q0 238 154.5 392.5t390.5 154.5q143 0 262 -64q82 -43 119 -92q31 45 104 90q111 66 252 66q225 0 347 -146.5t122 -396.5q0 -25 -2 -54.5t-2 -39.5h-672q0 -72 57 -131q72 -76 203 -76t260 71l97 -192q-25 -25 -119 -62q-133 -51 -264 -51q-164 0 -281 66 q-74 43 -111 96q-137 -162 -397 -162q-229 0 -374.5 149.5t-145.5 381.5zM408 512q0 -129 59 -204t158 -75q94 0 146 72t52 201q0 127 -56 202.5t-155 75.5q-94 0 -149 -72.5t-55 -199.5zM1161 627h383q0 61 -28 112q-45 84 -148 84q-109 0 -166 -88q-37 -55 -41 -108z" />
<glyph unicode="&#x178;" horiz-adv-x="1306" d="M55 1366h340l269 -563l282 563h305l-442 -819v-547h-326v547zM287 1677q0 66 47 114t112 48q66 0 114 -48t48 -114t-48 -113t-114 -47t-112.5 47.5t-46.5 112.5zM717 1677q0 66 47 114t112 48q66 0 114 -48t48 -114t-48 -113t-114 -47t-112.5 47.5t-46.5 112.5z" />
<glyph unicode="&#x2c6;" horiz-adv-x="849" d="M74 1282l370 277l375 -293l-110 -146l-265 148l-264 -146z" />
<glyph unicode="&#x2dc;" horiz-adv-x="827" d="M88 1298q139 174 270 175q47 0 117 -32t103 -32q51 0 137 78l131 -131q-147 -174 -271 -174q-51 0 -120.5 32.5t-100.5 32.5q-39 0 -135 -80z" />
<glyph unicode="&#x2000;" horiz-adv-x="981" />
<glyph unicode="&#x2001;" horiz-adv-x="1962" />
<glyph unicode="&#x2002;" horiz-adv-x="981" />
<glyph unicode="&#x2003;" horiz-adv-x="1962" />
<glyph unicode="&#x2004;" horiz-adv-x="654" />
<glyph unicode="&#x2005;" horiz-adv-x="490" />
<glyph unicode="&#x2006;" horiz-adv-x="327" />
<glyph unicode="&#x2007;" horiz-adv-x="327" />
<glyph unicode="&#x2008;" horiz-adv-x="245" />
<glyph unicode="&#x2009;" horiz-adv-x="392" />
<glyph unicode="&#x200a;" horiz-adv-x="109" />
<glyph unicode="&#x2010;" horiz-adv-x="1019" d="M143 414v262h734v-262h-734z" />
<glyph unicode="&#x2011;" horiz-adv-x="1019" d="M143 414v262h734v-262h-734z" />
<glyph unicode="&#x2012;" horiz-adv-x="1019" d="M143 414v262h734v-262h-734z" />
<glyph unicode="&#x2013;" horiz-adv-x="1392" d="M143 414v262h1106v-262h-1106z" />
<glyph unicode="&#x2014;" horiz-adv-x="2023" d="M143 414v262h1737v-262h-1737z" />
<glyph unicode="&#x2018;" horiz-adv-x="663" d="M86 840q0 133 35 225q43 115 160 231q68 68 131 105l166 -148q-14 -12 -33 -30q-98 -98 -131 -222q-14 -59 -15 -161h-313z" />
<glyph unicode="&#x2019;" horiz-adv-x="663" d="M86 952q14 12 33 31q98 98 131 221q14 59 14 162h314q0 -133 -35 -225q-43 -115 -160 -232q-68 -68 -131 -104z" />
<glyph unicode="&#x201a;" horiz-adv-x="663" d="M86 -98q14 12 33 30q98 98 131 222q14 59 14 161h314q0 -133 -35 -225q-43 -115 -160 -231q-68 -68 -131 -105z" />
<glyph unicode="&#x201c;" horiz-adv-x="1124" d="M86 840q0 133 35 225q43 115 160 231q68 68 131 105l166 -148q-14 -12 -33 -30q-98 -98 -131 -222q-14 -59 -15 -161h-313zM547 840q0 133 35 225q43 115 159 231q68 68 131 105l166 -148q-14 -12 -32 -30q-98 -98 -132 -222q-14 -59 -14 -161h-313z" />
<glyph unicode="&#x201d;" horiz-adv-x="1124" d="M86 952q14 12 33 31q98 98 131 221q14 59 14 162h314q0 -133 -35 -225q-43 -115 -160 -232q-68 -68 -131 -104zM547 952q14 12 33 31q98 98 131 221q14 59 14 162h313q0 -133 -34 -225q-43 -115 -160 -232q-68 -68 -131 -104z" />
<glyph unicode="&#x201e;" horiz-adv-x="1124" d="M86 -98q14 12 33 30q98 98 131 222q14 59 14 161h314q0 -133 -35 -225q-43 -115 -160 -231q-68 -68 -131 -105zM547 -98q14 12 33 30q98 98 131 222q14 59 14 161h313q0 -133 -34 -225q-43 -115 -160 -231q-68 -68 -131 -105z" />
<glyph unicode="&#x2022;" horiz-adv-x="837" d="M160 588q0 106 75.5 182t184.5 76t183.5 -74.5t74.5 -183.5t-76 -184.5t-182 -75.5t-183 76.5t-77 183.5z" />
<glyph unicode="&#x2026;" horiz-adv-x="1882" d="M121 174q0 78 56 133t134 55t133.5 -55t55.5 -133t-55.5 -134t-133.5 -56t-134 56t-56 134zM752 174q0 78 56 133t134 55t133 -55t55 -133t-55 -134t-133 -56t-134 56t-56 134zM1382 174q0 78 56.5 133t134.5 55t133 -55t55 -133t-55 -134t-133 -56t-134.5 56t-56.5 134z " />
<glyph unicode="&#x202f;" horiz-adv-x="392" />
<glyph unicode="&#x2039;" horiz-adv-x="745" d="M121 500l330 405l174 -127l-174 -278l174 -295l-174 -107z" />
<glyph unicode="&#x203a;" horiz-adv-x="745" d="M121 205l174 295l-174 278l174 127l330 -405l-330 -402z" />
<glyph unicode="&#x205f;" horiz-adv-x="490" />
<glyph unicode="&#x20ac;" horiz-adv-x="1329" d="M139 412v213h146q0 10 -2 24.5t-2 32.5t4 59h-146v213h160q25 127 113 240q160 207 454 207q190 0 336 -86q86 -49 119 -96l-158 -179q-133 100 -276 101q-215 0 -264 -187h376v-213h-401q-4 -41 -4 -59q0 -16 2 -31.5t2 -25.5h401v-213h-372q8 -53 43 -97 q72 -86 225 -86q133 0 276 97l158 -191q-43 -49 -125 -92q-147 -78 -336 -78q-291 0 -450 201q-98 121 -115 246h-164z" />
<glyph unicode="&#x2122;" horiz-adv-x="1810" d="M104 1198v168h629v-168h-213v-559h-203v559h-213zM854 641l72 727h213l149 -444l142 444h212l76 -727h-192l-37 399l-125 -399h-166l-131 399l-29 -399h-184z" />
<glyph unicode="&#x25fc;" horiz-adv-x="1013" d="M0 0v1014h1014v-1014h-1014z" />
</font>
</defs>
</svg>
