<?xml version="1.0" encoding="utf-8"?>
<!-- Generator: Adobe Illustrator 14.0.0, SVG Export Plug-In . SVG Version: 6.00 Build 43363)  -->
<!DOCTYPE svg PUBLIC "-//W3C//DTD SVG 1.1//EN" "http://www.w3.org/Graphics/SVG/1.1/DTD/svg11.dtd">
<svg version="1.1" id="Layer_1" xmlns="http://www.w3.org/2000/svg" xmlns:xlink="http://www.w3.org/1999/xlink" x="0px" y="0px"
	 width="30px" height="30px" viewBox="0 0 30 30" enable-background="new 0 0 30 30" xml:space="preserve">
<g>
	<g>
		<path d="M29.756,9.579c0-2.701-2.261-4.898-5.04-4.898H5.327c-2.779,0-5.04,2.197-5.04,4.898v9.845
			c0,1.311,0.541,2.497,1.407,3.377c0.003,0.138,0.032,0.276,0.119,0.398c0.146,0.206,0.384,0.319,0.623,0.319
			c0.038,0,0.075-0.011,0.113-0.017c0.797,0.515,1.751,0.817,2.778,0.817h19.389c1.031,0,1.989-0.305,2.789-0.823
			c0.05,0.011,0.1,0.022,0.149,0.022c0.24,0,0.478-0.113,0.624-0.319c0.099-0.139,0.128-0.299,0.119-0.456
			c0.836-0.874,1.358-2.035,1.358-3.319V9.579z M28.244,19.424c0,0.87-0.346,1.656-0.897,2.262l-8.371-5.59l6.779-6.588
			c0.666-0.648,1.137-1.497,1.374-2.417c0.683,0.625,1.115,1.506,1.115,2.488V19.424z M24.716,6.149
			c0.357,0,0.696,0.067,1.021,0.164c-0.118,0.821-0.486,1.609-1.05,2.156l-6.946,6.747c-1.425,1.389-3.914,1.392-5.343,0L5.451,8.47
			C4.842,7.879,4.482,7.112,4.386,6.289c0.302-0.082,0.613-0.14,0.941-0.14H24.716z M1.798,9.579c0-1.011,0.461-1.912,1.179-2.54
			c0.221,0.928,0.698,1.782,1.406,2.468l6.76,6.569l-8.43,5.629c-0.563-0.607-0.915-1.402-0.915-2.282V9.579z M5.327,22.853
			c-0.457,0-0.891-0.091-1.292-0.245l8.35-5.576c0.807,0.465,1.721,0.729,2.684,0.729c0.954,0,1.859-0.261,2.659-0.716l8.313,5.552
			c-0.41,0.162-0.856,0.256-1.325,0.256H5.327z"/>
	</g>
</g>
</svg>
