<?xml version="1.0" encoding="utf-8"?>
<!-- Generator: Adobe Illustrator 14.0.0, SVG Export Plug-In . SVG Version: 6.00 Build 43363)  -->
<!DOCTYPE svg PUBLIC "-//W3C//DTD SVG 1.1//EN" "http://www.w3.org/Graphics/SVG/1.1/DTD/svg11.dtd">
<svg version="1.1" id="Layer_1" xmlns="http://www.w3.org/2000/svg" xmlns:xlink="http://www.w3.org/1999/xlink" x="0px" y="0px"
	 width="30px" height="30px" viewBox="0 0 30 30" enable-background="new 0 0 30 30" xml:space="preserve">
<path d="M0.281,20.627L0.281,20.627c0,0.609,0.245,1.186,0.691,1.626c0.435,0.431,1.031,0.682,1.637,0.682
	c0.578,0,1.116-0.217,1.514-0.614l8.438-8.36c0.648-0.559,1.631-0.926,2.53-0.926c0.879,0,1.79,0.35,2.5,0.959l8.401,8.326
	c0.396,0.398,0.937,0.614,1.513,0.614c0.615-0.001,1.196-0.243,1.641-0.683c0.857-0.849,0.892-2.306,0.066-3.126L16.611,6.636
	c-0.395-0.392-0.937-0.602-1.528-0.595c-0.407,0.052-1.18,0.197-1.579,0.594L0.901,19.126C0.501,19.521,0.281,20.056,0.281,20.627z
	 M28.438,20.627c0,0.239-0.098,0.468-0.278,0.646c-0.181,0.18-0.417,0.28-0.655,0.28c-0.204,0-0.391-0.074-0.527-0.21l-8.438-8.36
	c-0.994-0.857-2.237-1.329-3.448-1.329c-1.236,0-2.538,0.485-3.479,1.297l-8.475,8.392c-0.136,0.136-0.323,0.21-0.528,0.21
	c-0.237,0-0.476-0.101-0.654-0.275c-0.179-0.18-0.278-0.414-0.278-0.65l0,0c0-0.202,0.072-0.388,0.208-0.523L14.488,7.613
	c0.086-0.062,0.458-0.163,0.701-0.198c0.059,0.005,0.272,0.039,0.435,0.198l12.601,12.491
	C28.364,20.237,28.438,20.425,28.438,20.627z"/>
</svg>
