<?xml version="1.0" encoding="utf-8"?>
<!-- Generator: Adobe Illustrator 14.0.0, SVG Export Plug-In . SVG Version: 6.00 Build 43363)  -->
<!DOCTYPE svg PUBLIC "-//W3C//DTD SVG 1.1//EN" "http://www.w3.org/Graphics/SVG/1.1/DTD/svg11.dtd">
<svg version="1.1" id="Layer_1" xmlns="http://www.w3.org/2000/svg" xmlns:xlink="http://www.w3.org/1999/xlink" x="0px" y="0px"
	 width="30px" height="30px" viewBox="0 0 30 30" enable-background="new 0 0 30 30" xml:space="preserve">
<path d="M14.894,29.829c-0.003,0-0.024,0-0.029,0c-1.348-0.016-2.431-1.313-2.413-2.891l0.117-9.151l-9.486-0.125
	c-0.736-0.009-1.432-0.255-1.958-0.694c-0.559-0.467-0.874-1.119-0.865-1.791c0.017-1.353,1.266-2.412,2.845-2.412l9.529,0.121
	l0.125-9.834c0.022-1.558,1.123-2.825,2.458-2.825c0.698,0.009,1.341,0.341,1.795,0.912c0.425,0.538,0.655,1.24,0.646,1.978
	l-0.129,9.832l9.497,0.123c1.573,0.021,2.841,1.136,2.825,2.485c-0.018,1.354-1.269,2.415-2.848,2.415l0,0l-9.536-0.121
	l-0.119,9.153C17.329,28.56,16.228,29.829,14.894,29.829z M3.13,14.121c-0.825,0-1.507,0.492-1.514,1.073
	c-0.005,0.358,0.235,0.612,0.378,0.732c0.283,0.236,0.687,0.376,1.106,0.381l10.167,0.13c0.179,0.003,0.351,0.076,0.477,0.206
	c0.126,0.129,0.195,0.301,0.192,0.481l-0.127,9.833c-0.01,0.813,0.482,1.509,1.075,1.516l0.01,0.678v-0.678
	c0.585,0,1.088-0.684,1.101-1.489l0.126-9.832c0.005-0.371,0.309-0.669,0.678-0.669c0.004,0,0.005,0,0.01,0l10.172,0.13l0,0
	c0.841,0,1.509-0.481,1.516-1.075c0.008-0.591-0.674-1.098-1.49-1.11l-10.171-0.13c-0.179-0.002-0.352-0.076-0.477-0.205
	c-0.124-0.128-0.195-0.303-0.191-0.482l0.134-10.512c0.006-0.422-0.123-0.827-0.352-1.119c-0.117-0.146-0.365-0.392-0.723-0.396
	c-0.596,0-1.1,0.681-1.111,1.486l-0.134,10.512c-0.005,0.37-0.307,0.669-0.68,0.669c-0.001,0-0.003,0-0.008,0L3.13,14.121
	L3.13,14.121z"/>
</svg>
