<?xml version="1.0" encoding="utf-8"?>
<!-- Generator: Adobe Illustrator 14.0.0, SVG Export Plug-In . SVG Version: 6.00 Build 43363)  -->
<!DOCTYPE svg PUBLIC "-//W3C//DTD SVG 1.1//EN" "http://www.w3.org/Graphics/SVG/1.1/DTD/svg11.dtd">
<svg version="1.1" id="Layer_1" xmlns="http://www.w3.org/2000/svg" xmlns:xlink="http://www.w3.org/1999/xlink" x="0px" y="0px"
	 width="30px" height="30px" viewBox="0 0 30 30" enable-background="new 0 0 30 30" xml:space="preserve">
<path fill="none" stroke="#000000" d="M20.831,0.506L20.831,0.506c0.595,0,1.158,0.24,1.588,0.675
	c0.423,0.424,0.667,1.009,0.667,1.602c0,0.565-0.214,1.09-0.603,1.481l-8.165,8.253c-0.545,0.637-0.903,1.6-0.903,2.477
	c0,0.86,0.341,1.752,0.936,2.445l8.134,8.218c0.387,0.39,0.601,0.919,0.601,1.482c-0.001,0.601-0.237,1.169-0.669,1.604
	c-0.826,0.84-2.252,0.873-3.052,0.066L7.164,16.479c-0.382-0.385-0.588-0.915-0.581-1.495c0.051-0.396,0.193-1.153,0.58-1.544
	l12.203-12.33C19.752,0.721,20.272,0.506,20.831,0.506z M20.831,28.051c0.232,0,0.457-0.098,0.632-0.272
	c0.174-0.176,0.271-0.407,0.271-0.642c0-0.199-0.072-0.382-0.203-0.515l-8.167-8.256c-0.837-0.972-1.299-2.188-1.299-3.373
	c0-1.21,0.473-2.482,1.266-3.404l8.2-8.29c0.131-0.132,0.203-0.316,0.203-0.517c0-0.232-0.098-0.465-0.271-0.639
	c-0.173-0.176-0.403-0.273-0.633-0.273l0,0c-0.198,0-0.38,0.072-0.513,0.206L8.118,14.403c-0.059,0.083-0.158,0.449-0.192,0.687
	c0.006,0.058,0.036,0.267,0.192,0.425l12.201,12.329C20.451,27.978,20.633,28.051,20.831,28.051z"/>
</svg>
