<?xml version="1.0" encoding="utf-8"?>
<!-- Generator: Adobe Illustrator 14.0.0, SVG Export Plug-In . SVG Version: 6.00 Build 43363)  -->
<!DOCTYPE svg PUBLIC "-//W3C//DTD SVG 1.1//EN" "http://www.w3.org/Graphics/SVG/1.1/DTD/svg11.dtd">
<svg version="1.1" id="Layer_1" xmlns="http://www.w3.org/2000/svg" xmlns:xlink="http://www.w3.org/1999/xlink" x="0px" y="0px"
	 width="30px" height="30px" viewBox="0 0 30 30" enable-background="new 0 0 30 30" xml:space="preserve">
<path fill="none" stroke="#000000" d="M8.96,0.527c-0.001,0-0.001,0-0.001,0c-0.591,0-1.151,0.239-1.579,0.672
	c-0.42,0.423-0.663,1.003-0.663,1.593c0,0.563,0.212,1.084,0.598,1.474l8.125,8.21c0.542,0.634,0.898,1.592,0.898,2.464
	c0,0.856-0.34,1.745-0.93,2.431l-8.094,8.177c-0.386,0.39-0.597,0.915-0.597,1.478c0.001,0.596,0.237,1.161,0.665,1.593
	c0.822,0.836,2.24,0.87,3.037,0.068l12.14-12.269c0.379-0.383,0.584-0.909,0.578-1.486c-0.052-0.394-0.193-1.147-0.577-1.537
	L10.418,1.129C10.033,0.741,9.515,0.527,8.96,0.527z M8.96,27.931c-0.232,0-0.456-0.094-0.627-0.27
	c-0.174-0.174-0.272-0.406-0.272-0.637c0-0.2,0.071-0.381,0.204-0.514l8.125-8.215c0.833-0.966,1.292-2.177,1.292-3.355
	c0-1.204-0.471-2.47-1.261-3.387L8.264,3.306C8.131,3.175,8.06,2.993,8.06,2.792c0-0.231,0.098-0.461,0.27-0.636
	c0.173-0.174,0.402-0.272,0.629-0.272c0,0,0,0,0.001,0c0.196,0,0.378,0.072,0.509,0.206l12.139,12.265
	c0.061,0.083,0.159,0.446,0.191,0.682c-0.005,0.06-0.035,0.266-0.191,0.424L9.469,27.728C9.338,27.859,9.156,27.931,8.96,27.931z"/>
</svg>
