<?xml version="1.0" encoding="utf-8"?>
<!-- Generator: Adobe Illustrator 14.0.0, SVG Export Plug-In . SVG Version: 6.00 Build 43363)  -->
<!DOCTYPE svg PUBLIC "-//W3C//DTD SVG 1.1//EN" "http://www.w3.org/Graphics/SVG/1.1/DTD/svg11.dtd">
<svg version="1.1" id="Layer_1" xmlns="http://www.w3.org/2000/svg" xmlns:xlink="http://www.w3.org/1999/xlink" x="0px" y="0px"
	 width="30px" height="30px" viewBox="0 0 30 30" enable-background="new 0 0 30 30" xml:space="preserve">
<image overflow="visible" width="35" height="42" xlink:href="88F359B5.jpg"  transform="matrix(0.9999 0 0 0.9999 -564.5 -277.5)">
</image>
<g>
	<g>
		<path d="M15.502,15.523c-6.856,0.04-7.196,4.09-7.196,4.09v10.074h14.489V19.613C22.795,19.613,22.357,15.484,15.502,15.523z
			 M15.551,14.854c4.001,0,7.244-3.261,7.244-7.285c0-4.023-3.243-7.284-7.244-7.284c-4.001,0-7.245,3.261-7.245,7.284
			C8.306,11.592,11.549,14.854,15.551,14.854z M18.646,3.517c0.503,0,0.911,1.113,0.911,2.485c0,1.373-0.408,2.486-0.911,2.486
			s-0.91-1.113-0.91-2.486C17.736,4.629,18.144,3.517,18.646,3.517z M17.28,10.646c0,0,0.294,1.831-2.015,1.864
			c-2.31,0.033-2.017-1.864-2.017-1.864H17.28z M12.598,3.517c0.502,0,0.911,1.113,0.911,2.485c0,1.373-0.408,2.486-0.911,2.486
			c-0.503,0-0.911-1.113-0.911-2.486C11.687,4.629,12.095,3.517,12.598,3.517z"/>
	</g>
</g>
</svg>
