<?xml version="1.0" encoding="utf-8"?>
<!-- Generator: Adobe Illustrator 14.0.0, SVG Export Plug-In . SVG Version: 6.00 Build 43363)  -->
<!DOCTYPE svg PUBLIC "-//W3C//DTD SVG 1.1//EN" "http://www.w3.org/Graphics/SVG/1.1/DTD/svg11.dtd">
<svg version="1.1" id="Layer_1" xmlns="http://www.w3.org/2000/svg" xmlns:xlink="http://www.w3.org/1999/xlink" x="0px" y="0px"
	 width="30px" height="30px" viewBox="0 0 30 30" enable-background="new 0 0 30 30" xml:space="preserve">
<image overflow="visible" width="35" height="42" xlink:href="5C511E13.jpg"  transform="matrix(0.9999 0 0 0.9999 -564.5 -277.5)">
</image>
<path fill-rule="evenodd" clip-rule="evenodd" fill="#020202" d="M15.043,6.415c0.723-1.667,1.459-4.352,3.74-4.433
	c1.62-0.058,3.333,1.359,3.336,2.956c0.002,2.016-1.833,2.771-2.848,3.859c1.232,0,2.408,0,3.823,0c0.925,0,2.857-0.351,3.58,0.165
	c0.542,0.388,0.405,2.08,0.405,3.365c0,1.84,0.504,4.223-1.302,4.022c0,3.374,0,6.335,0,9.852c0,1.028,0.175,2.566-0.243,3.038
	c-0.611,0.692-3.906,0.328-5.369,0.328c-4.887,0-8.963,0-14.152,0c-0.928,0-1.966,0.018-2.278-0.491
	c-0.39-0.641-0.163-1.941-0.163-3.037c0-3.379,0-5.881,0-9.524c0.054-0.356-0.57-0.027-0.651-0.247
	c-0.865-0.272-0.569-2.268-0.569-3.858c0-1.09-0.193-2.806,0.163-3.284c0.537-0.721,2.998-0.328,3.985-0.328
	c1.615,0,2.849,0,4.229,0C9.563,7.553,6.811,6.552,6.827,3.87c0.011-1.946,2.195-4.133,4.474-3.448
	C13.418,1.059,14.327,4.208,15.043,6.415z M11.463,3.048c-0.202-0.252-0.614-0.619-0.895-0.657C9.774,2.286,8.88,3.267,8.86,3.87
	C8.848,4.238,9.133,4.735,9.349,5.02c0.876,1.157,2.656,1.939,3.904,2.708C12.939,6.349,12.322,4.123,11.463,3.048z M16.914,7.811
	c1.17-0.871,2.678-1.401,3.171-2.956C18.534,2.427,17.01,6.321,16.914,7.811z M4.468,10.848c-0.189,0.958-0.028,2.271-0.082,3.366
	c2.82,0,5.64,0,8.46,0c0-1.121,0-2.244,0-3.366C10.053,10.848,7.261,10.848,4.468,10.848z M16.669,10.848
	c-0.189,0.958-0.026,2.271-0.081,3.366c2.819,0,5.639,0,8.458,0c-0.036-1.03-0.01-2.152,0-3.366
	C22.254,10.848,19.461,10.848,16.669,10.848z M5.607,15.691c0,3.941,0,7.882,0,11.822c2.413,0,4.826,0,7.239,0
	c0-4.021,0-8.045,0-12.068c-2.359,0-4.718,0-7.077,0C5.667,15.479,5.603,15.552,5.607,15.691z M16.588,15.691
	c0.055,3.912-0.108,8.046,0.081,11.822c2.357,0,4.718,0,7.076,0c0-4.021,0-8.045,0-12.068c-2.332,0-4.663,0-6.995,0
	C16.647,15.479,16.584,15.552,16.588,15.691z"/>
</svg>
