<?xml version="1.0" encoding="utf-8"?>
<!-- Generator: Adobe Illustrator 14.0.0, SVG Export Plug-In . SVG Version: 6.00 Build 43363)  -->
<!DOCTYPE svg PUBLIC "-//W3C//DTD SVG 1.1//EN" "http://www.w3.org/Graphics/SVG/1.1/DTD/svg11.dtd">
<svg version="1.1" id="Layer_1" xmlns="http://www.w3.org/2000/svg" xmlns:xlink="http://www.w3.org/1999/xlink" x="0px" y="0px"
	 width="30px" height="30px" viewBox="0 0 30 30" enable-background="new 0 0 30 30" xml:space="preserve">
<image overflow="visible" width="35" height="42" xlink:href="8704CD8D.jpg"  transform="matrix(0.9999 0 0 0.9999 -564.5 -277.5)">
</image>
<g>
	<g>
		<path fill-rule="evenodd" clip-rule="evenodd" d="M29.577,15.054v-4.14c0-1.818,0.254-3.746-0.566-4.587
			c-0.881-0.903-3.883-0.671-6.246-0.671H8.91c-2.445,0-4.996-0.397-6.813,0.111c-0.859,0.241-1.331,0.889-1.59,1.679v14.771
			c0.314,2.52,4.392,1.791,7.95,1.791h13.627c2.895,0,6.459,0.528,7.269-1.008C30.026,21.721,29.577,16.953,29.577,15.054z
			 M2.096,7.221c1.568-0.392,4.542-0.224,6.927-0.224h15.898c1.003,0,2.042-0.188,2.953,0.224c0.703,0.389,0.178,1.988,0.341,2.91
			H1.869C1.953,9.169,1.663,7.838,2.096,7.221z M27.988,22.552c-8.366,0.187-17.526,0.186-25.892,0
			c-0.506-2.037-0.093-4.981-0.228-7.386c-0.009-0.159-0.019-0.316,0.114-0.335h26.233v4.028
			C28.216,20.16,28.394,21.539,27.988,22.552z M2.891,20.536h3.521v-1.117H2.891V20.536z M7.547,20.536h7.496v-1.117H7.547V20.536z"
			/>
	</g>
</g>
</svg>
